<svg width="60" height="50" viewBox="0 0 60 50" fill="none" xmlns="http://www.w3.org/2000/svg">
<path fill-rule="evenodd" clip-rule="evenodd" d="M60.1094 81.5358C59.7659 79.5957 59.451 77.6506 59.1648 75.7011C59.0289 74.7756 58.8964 73.8492 58.7773 72.9212C58.6938 72.2711 58.5667 71.5276 59.0091 71.0462C59.6315 70.3685 60.1969 69.7884 60.2731 68.8176C60.3448 67.9042 60.0359 66.9085 59.8428 66.0219C59.4378 64.1626 58.9336 62.3263 58.3764 60.5073C57.8104 58.6594 57.1898 56.8288 56.5602 55.0016C55.9717 53.2934 55.4058 51.5696 54.6392 49.9306C53.1843 46.8203 50.7229 44.5168 47.681 42.9788C46.9244 42.5963 45.3813 41.2308 44.5909 40.9251C43.8643 40.644 43.8669 41.4648 43.1518 41.1556C42.5801 40.9085 42.0477 40.5789 41.7276 40.0269C41.3801 39.4275 40.5084 38.5892 40.3757 37.8915C40.0946 36.4127 40.3992 35.154 39.3437 34.041C38.4067 33.0526 37.1473 32.3755 35.8442 32.012C32.9775 31.2125 29.1544 31.7715 27.4248 34.4353C26.5987 35.7074 26.31 37.2451 25.1953 38.2832C24.2219 39.1897 24.4398 39.8095 23.1791 40.2767C23.1077 40.3032 21.1723 39.888 21.1009 39.9146C19.7218 39.6195 18.4036 40.4456 17.1384 40.9251C15.252 41.6396 13.4561 42.5698 11.7689 43.6753C8.3666 45.9044 5.45268 48.799 3.05047 52.0745C0.628307 55.3771 -1.25104 59.0787 -2.58919 62.9475C-2.91433 63.8872 -3.20599 64.8383 -3.46362 65.7988C-3.60766 66.3363 -3.76166 66.8938 -3.58618 67.4441C-3.44266 67.8943 -3.1234 68.2295 -2.74848 68.4996C-2.24027 68.8658 -1.22087 69.1039 -1.24081 69.8404C-1.2559 70.4003 -1.44587 70.9897 -1.5386 71.5431C-1.64897 72.202 -1.73973 72.8649 -1.83033 73.5268C-2.24283 76.5398 -2.56388 79.5696 -2.70587 82.608C-2.84564 85.5994 -2.96164 88.6523 -2.75411 91.6429C-2.74047 91.8398 -2.68166 92.0213 -2.58672 92.1739C-2.67536 92.208 -2.68218 92.3733 -2.57189 92.3963C-2.49468 92.4125 -2.41763 92.4296 -2.34041 92.4457C-2.18002 92.5668 -1.97999 92.6409 -1.74979 92.6486C-1.59382 92.6537 -1.43786 92.6605 -1.28189 92.6682C0.362995 93.0125 2.0078 93.3372 3.67424 93.5835C5.69993 93.8818 7.73157 94.1256 9.76953 94.3241C13.9572 94.7315 18.1118 94.596 22.305 94.377C26.4917 94.1571 30.6759 94.106 34.867 94.2151C39.0617 94.3242 43.2549 94.5065 47.4505 94.5815C52.138 94.6651 56.8182 94.5372 61.4921 94.1639C62.1329 94.1136 62.5294 93.6031 62.403 92.9673C61.6457 89.1534 60.7876 85.3659 60.1094 81.5358V81.5358Z" fill="#D08B5B"/>
<path fill-rule="evenodd" clip-rule="evenodd" d="M17.1384 40.9251L17.2299 40.8898C18.4672 40.4065 19.755 39.6266 21.101 39.9146C21.1486 39.8969 22.0244 40.0755 22.6242 40.1886L22.0549 40.7829L21.05 40.9762C24.5165 46.6974 28.6164 49.5579 33.3495 49.5579C38.0828 49.5579 41.6744 46.6974 44.1244 40.9762L44.4587 40.8837C44.5 40.8933 44.544 40.9068 44.591 40.9251C45.3814 41.2308 46.9244 42.5962 47.681 42.9787C50.7229 44.5168 53.1843 46.8202 54.6392 49.9306C55.3803 51.515 55.9337 53.1785 56.5014 54.8307L56.5602 55.0016C57.1898 56.8287 57.8104 58.6593 58.3764 60.5073C58.9094 62.2472 59.3939 64.0029 59.7894 65.7795L59.8428 66.0219C60.0359 66.9085 60.3448 67.9041 60.2731 68.8176C60.246 69.1634 60.1567 69.4597 60.0249 69.7284L53.1687 72.1955L56.4351 94.4733C53.4431 94.602 50.4483 94.6352 47.4506 94.5815C43.2549 94.5065 39.0617 94.3242 34.867 94.2151C30.8029 94.1094 26.7454 94.1545 22.6856 94.3574L21.6546 94.4102C17.6819 94.6088 13.7406 94.7102 9.76953 94.3241L9.49894 94.2977V91.0386L10.8939 72.8928L3.82467 71.5622L-3.1147 68.1918C-3.32436 67.9822 -3.4926 67.7376 -3.58618 67.4441C-3.74871 66.9344 -3.62862 66.4185 -3.4955 65.9181L-3.46354 65.7987C-3.2059 64.8383 -2.91424 63.8872 -2.5891 62.9475C-1.25104 59.0787 0.628311 55.377 3.05047 52.0745C5.45277 48.799 8.36669 45.9044 11.7689 43.6752C13.4561 42.5698 15.252 41.6396 17.1384 40.9251V40.9251Z" fill="#E279C7"/>
<path fill-rule="evenodd" clip-rule="evenodd" d="M19.7929 39.8208C20.2263 39.802 20.6683 39.8721 21.1008 39.9146C21.1384 39.9183 21.1527 39.9764 21.1103 39.9853C20.3364 40.147 19.5709 40.3681 18.8109 40.5928L18.4854 40.6891C17.6283 40.9426 16.7963 41.2042 15.9665 41.5424C14.3127 42.2164 12.7421 43.1261 11.2966 44.1712C5.73019 48.1957 1.7015 54.289 -0.840833 60.5976C-1.53167 62.3114 -2.11588 64.0662 -2.59012 65.8521C-2.70514 66.2865 -2.81396 66.7226 -2.91654 67.1601C-2.94671 67.2883 -3.07822 67.6168 -3.00603 67.7481C-2.94237 67.8641 -2.69453 67.9357 -2.57938 67.9961L-2.19066 68.1976C-1.4324 68.5884 -0.169327 69.2308 -0.0426794 69.2934L0.154878 69.3907C3.38584 70.9746 6.83823 72.3178 10.4741 72.4108L10.5026 72.1003C10.6647 70.3837 10.8774 68.658 11.3417 66.9942C11.3667 66.9048 11.4805 66.935 11.4909 67.0144C11.7495 68.9841 11.6669 70.9691 11.5766 72.948C11.4168 76.4528 11.2046 79.9557 11.016 83.4585C10.9216 85.2116 10.7995 86.9622 10.6893 88.7145C10.5789 90.4693 10.5432 92.2668 10.2912 94.0071C10.235 94.3949 9.78062 94.6062 9.43647 94.5653C9.05567 94.5202 8.76275 94.1844 8.76096 93.8C8.75636 92.7858 8.88377 91.7597 8.95459 90.7489C9.02184 89.7875 9.09403 88.827 9.168 87.8665C9.43834 84.3611 9.74934 80.8599 10.037 77.3554C10.1389 76.1128 10.249 74.8713 10.3624 73.6297C6.5107 73.5055 2.91232 72.0789 -0.520463 70.412C-0.570151 71.5402 -0.690066 72.6663 -0.806316 73.7897C-1.13061 76.925 -1.41654 80.0588 -1.63046 83.2037C-1.73862 84.7923 -1.81728 86.3827 -1.8858 87.973C-1.93073 89.0152 -1.96445 90.0579 -1.98697 91.1008L-1.99865 91.6983C-2.00828 92.0767 -2.04671 92.427 -2.36512 92.7023C-2.68865 92.9827 -3.12552 92.9972 -3.44563 92.7023C-3.87416 92.3077 -3.79839 91.7707 -3.78569 91.2406C-3.75368 89.8997 -3.70325 88.5592 -3.63441 87.2196C-3.47367 84.0969 -3.15245 80.9869 -2.73271 77.8898L-2.5689 76.694C-2.26294 74.4713 -1.92697 72.198 -1.24294 70.0568C-1.5089 69.9245 -1.77439 69.7912 -2.03938 69.657C-2.50865 69.4194 -2.99384 69.1964 -3.4499 68.9342C-3.81186 68.7261 -4.12396 68.4408 -4.22461 68.0197C-4.33703 67.5505 -4.16521 67.0374 -4.05109 66.5797L-4.0412 66.5395C-3.92895 66.0786 -3.80905 65.6196 -3.68154 65.1628C-3.16592 63.31 -2.52842 61.4934 -1.78225 59.7211C-0.288219 56.1729 1.64022 52.8021 3.99582 49.7543C6.11627 47.0108 8.62102 44.5229 11.5568 42.6569C12.992 41.7446 14.5215 40.9956 16.139 40.466C16.8951 40.2185 17.7177 40.0032 18.5093 39.9145C18.9362 39.8668 19.3638 39.8395 19.7929 39.8208V39.8208ZM27.473 34.1983C27.9881 33.6452 29.0116 34.2176 28.7642 34.9501C28.1825 36.6733 27.256 38.2451 25.8102 39.3774C24.4512 40.4419 22.8306 41.1332 21.0853 40.9857C21.073 40.9847 21.061 40.9815 21.0499 40.9762L21.2003 41.1803C22.381 42.7775 23.6267 44.3527 25.1282 45.6582C28.1872 48.3182 32.3523 49.7529 36.3742 48.7323C39.5385 47.9294 42.3263 45.4272 43.1462 42.2383C43.0286 42.291 42.8889 42.309 42.7356 42.2757C42.0796 42.1333 41.4302 41.4433 41.0071 40.9487C40.5495 40.4135 40.192 39.8357 39.93 39.1825C39.4505 37.9871 39.2968 36.448 39.9515 35.29C40.0323 35.1473 40.2186 35.2273 40.2345 35.3666L40.2593 35.5841C40.3856 36.6694 40.5428 37.7192 41.0545 38.7085C41.3049 39.1926 41.6051 39.6651 41.9704 40.0705C42.166 40.2874 42.3779 40.4947 42.6068 40.6766C42.8297 40.8537 43.0996 40.9819 43.2995 41.1852L43.3361 41.2242L43.3372 41.2172C43.3877 40.7876 43.689 40.5983 43.9838 40.6102C44.269 40.6217 44.6041 40.7472 44.7339 40.8074L44.7462 40.8132C46.7364 41.7686 48.5694 43.0138 50.2944 44.3954C53.8617 47.2525 56.5345 50.9876 57.8295 55.386C58.4652 57.5447 58.8299 59.7691 59.2148 61.983L59.4519 63.3396C59.8112 65.3834 60.2127 67.4676 61.0239 69.3688C61.2337 69.8607 61.0719 70.3219 60.5574 70.5153C59.915 70.7568 59.2701 70.9907 58.6243 71.2217C58.9414 72.5822 59.1348 73.9898 59.3724 75.3568C59.8775 78.2631 60.4963 81.1506 61.0269 84.0534C61.2982 85.5372 61.543 87.0261 61.814 88.5099C61.9445 89.225 62.0807 89.9383 62.2131 90.6526C62.2845 91.0378 62.3491 91.4247 62.4172 91.8099L62.4291 91.8747C62.4681 92.0776 62.5171 92.2881 62.4611 92.4918C62.3973 92.7244 62.216 92.8881 62.0542 93.0551C61.921 93.1923 61.7284 93.1932 61.5652 93.1182L61.5115 93.0935C61.2201 92.9571 60.9916 92.8207 60.8883 92.4918C60.8228 92.2838 60.7992 92.0494 60.7564 91.8347C60.6743 91.4239 60.5965 91.0114 60.5231 90.5989C60.3761 89.7728 60.2326 88.946 60.0925 88.1187L59.9616 87.344C59.5124 84.6739 59.0859 81.9875 58.8702 79.2892C58.7745 78.0918 58.6732 76.896 58.5708 75.6994L58.4941 74.8025C58.3969 73.6668 58.2782 72.5025 58.2614 71.3515L57.8751 71.4886L55.9908 72.1547C55.5235 72.3198 54.9287 72.6582 54.4258 72.5966C54.1797 72.5665 53.992 72.489 53.8471 72.3482C54.0206 74.797 54.2555 77.242 54.5686 79.6736C54.8534 81.8869 55.1692 84.0969 55.5421 86.2966C55.7268 87.3858 55.9166 88.4741 56.1228 89.5599C56.2258 90.1028 56.3322 90.6449 56.4418 91.1861C56.4964 91.4562 56.5614 91.7273 56.6041 91.9991C56.6528 92.3111 56.5669 92.5028 56.3926 92.7602C56.2495 92.9707 55.9632 93.079 55.7312 92.9332C55.4238 92.7406 55.2635 92.5736 55.1731 92.2224C55.0909 91.9028 55.041 91.5704 54.9774 91.2474C54.8601 90.6508 54.7466 90.0534 54.6371 89.456C54.4081 88.2048 54.197 86.952 54.0085 85.694C53.3441 81.2648 52.9226 76.7989 52.7097 72.3254C52.6046 70.1182 52.5721 67.9091 52.5908 65.6997C52.6003 64.5672 52.6373 63.4315 52.7174 62.3018C52.7986 61.1583 52.9673 60.0376 53.118 58.9051C53.1233 58.8653 53.1795 58.863 53.1819 58.9051C53.2533 60.1749 53.3651 61.4431 53.4199 62.7162C53.4722 63.9309 53.4951 65.1475 53.5367 66.3627C53.5914 67.96 53.6671 69.5583 53.7674 71.1555C53.9491 70.9568 54.2228 70.8422 54.4967 70.887C54.8935 70.8037 55.3207 70.5955 55.699 70.4691L57.1252 69.9927C57.875 69.7423 58.6247 69.4936 59.3771 69.2524C58.7044 66.9894 58.2436 64.6926 57.8501 62.3623L57.6746 61.3143C57.3273 59.2514 56.9527 57.1876 56.3236 55.19C55.6621 53.0898 54.6723 51.1373 53.3592 49.3691C52.0649 47.6264 50.4901 46.092 48.8687 44.6568C47.4806 43.4281 45.9957 42.3188 44.5799 41.1239C44.5948 41.2031 44.5979 41.2903 44.5849 41.3861C44.2839 43.5892 43.1346 45.6409 41.5329 47.1669C38.3151 50.2326 33.552 50.8686 29.4337 49.431C25.4499 48.0404 21.9277 44.7471 20.6833 40.6718C20.662 40.6021 20.7554 40.5744 20.7929 40.6256C20.862 40.7202 20.9313 40.8148 21.0008 40.9094C20.9961 40.8718 21.0156 40.8309 21.062 40.813C22.5139 40.2524 23.9397 39.4573 25.028 38.3326C25.5585 37.7843 26.0214 37.1632 26.3869 36.4933C26.562 36.1724 26.7192 35.8401 26.8447 35.4967L26.8765 35.4079C27.0286 34.9778 27.1556 34.5392 27.473 34.1983V34.1983Z" fill="black"/>
<path fill-rule="evenodd" clip-rule="evenodd" d="M47.7621 14.4873C48.7298 13.7909 47.2868 11.4993 46.7966 10.8175L45.5173 8.14906C45.5691 7.4196 44.8583 6.7706 44.1559 6.99253C43.5448 6.55335 42.5214 6.76361 42.2108 7.45122C35.454 4.50219 23.7629 5.72904 23.1583 14.8289C21.8513 17.4198 20.5558 20.0329 19.3962 22.6938C17.7873 22.7804 17.0074 24.7392 17.9653 26.005C18.0929 28.0606 19.3932 28.2233 21.1294 28.1319C21.8266 28.3159 22.5494 28.4156 23.0722 28.9552C23.4696 29.3621 23.7398 29.8782 24.0004 30.3789C25.2034 32.6891 26.7318 34.6875 28.8036 36.2856C32.0254 38.7019 36.3868 40.4367 40.4043 39.2604C49.0415 35.8614 50.7376 22.2774 47.7621 14.4873V14.4873Z" fill="#D08B5B"/>
<path fill-rule="evenodd" clip-rule="evenodd" d="M29.7368 1.24941C35.3797 -0.0639469 41.7191 1.69855 45.6355 6.04088C45.9111 6.346 45.8813 6.74316 45.6389 7.00054C45.752 7.09259 45.8626 7.18719 45.9749 7.28179C46.0922 7.38151 46.0752 7.58179 45.9749 7.68321C45.8754 7.78293 45.6687 7.80338 45.5743 7.68321L45.4346 7.50696C45.3647 7.41923 45.2965 7.33024 45.2299 7.24003C45.1491 7.26986 45.07 7.3014 44.9909 7.33208C46.1876 8.12895 47.1852 9.18747 47.869 10.4616C48.6089 11.8397 49.0808 13.3108 49.3878 14.8415C49.9352 17.572 50.0145 20.3724 49.9413 23.149L49.9372 23.2977C49.8428 26.6446 49.5171 30.0468 48.1087 33.1244C46.9793 35.5909 44.9722 37.8588 42.4557 38.9386C41.0065 39.5599 39.4483 39.825 37.8741 39.7142C37.044 39.6562 36.2165 39.525 35.4086 39.3247L35.2145 39.2764C34.4785 39.0917 33.7152 38.8775 33.0868 38.4554C32.4421 38.0216 32.8767 37.1599 33.5877 37.2647C34.4441 37.3917 35.2597 37.7497 36.1094 37.9355C36.9403 38.1179 37.7814 38.2133 38.6327 38.1886C40.1389 38.146 41.5108 37.6824 42.7559 36.8403C47.516 33.6196 48.0942 27.144 48.2184 21.9111C48.2788 19.3542 48.1852 16.7642 47.5984 14.2662C47.0346 11.8645 46.0642 9.49941 44.6907 7.44799C44.388 7.56134 44.0852 7.65594 43.7629 7.68577C43.1883 8.03188 42.505 8.04108 41.8406 8.04117H41.748C41.0566 8.04031 40.3651 7.99941 39.6771 7.93719C37.2422 7.72071 34.7367 7.17185 32.289 7.52128L32.1891 7.53594C31.1813 7.68782 29.9324 8.00656 29.1924 8.73321C28.393 9.5173 28.9288 11.0011 29.5616 11.4724C29.9706 11.7775 30.0982 12.4645 29.5616 12.7415C28.5019 13.2895 25.9368 12.9852 25.6485 13.2886C25.3025 13.6513 25.3267 14.204 25.3168 14.6747L25.316 14.7059C25.2803 16.0457 25.3134 17.3812 25.4265 18.7176C25.5354 20.0096 25.7829 21.3042 25.8382 22.5997C25.8569 23.0267 25.3424 23.1562 25.0608 22.9218C25.0056 22.8758 24.9486 22.8324 24.8916 22.7932C24.3805 22.4301 23.7996 22.2767 23.1762 22.1795C23.1462 22.1749 23.119 22.1596 23.0995 22.1363L23.092 22.1267L23.0257 22.1812C23.1549 22.3423 23.2655 22.5247 23.3531 22.7292C23.371 22.7701 23.3327 22.8221 23.2876 22.7949C22.4252 22.2809 21.4863 22.0628 20.4938 22.2707C19.6008 22.4574 18.7928 23.025 18.5309 23.9335C18.2902 24.7696 18.4671 25.7335 19.0072 26.4213C19.8058 27.4406 21.1027 27.3486 22.2662 27.3954C22.4941 27.4048 22.7484 27.5156 22.8547 27.7338C22.9797 27.9912 22.9712 28.1667 22.8547 28.4233C22.8386 28.4599 22.8173 28.4932 22.7926 28.523C22.8912 28.6046 22.9844 28.694 23.0752 28.7851L23.379 29.0918C23.5868 29.302 23.7935 29.5142 23.9926 29.7315C24.5778 30.3707 25.128 31.0508 25.646 31.7454L25.6939 31.8103C26.3005 32.6419 26.9298 33.843 27.9814 34.1054C28.342 34.1957 28.6771 34.3738 28.7842 34.765C28.8914 35.1562 28.6388 35.5355 28.2995 35.6991C27.7109 35.9829 26.9642 35.6454 26.4786 35.2875C25.4314 34.5144 24.7471 33.2532 24.1039 32.1429L23.9278 31.8395C23.5965 31.2666 23.2729 30.687 22.9967 30.0852C22.8394 29.7417 22.6702 29.4008 22.5239 29.0522C22.4814 28.9508 22.4388 28.8477 22.4057 28.742C22.3589 28.7522 22.3113 28.7591 22.2662 28.7616C20.8621 28.8537 19.2453 28.6304 18.2307 27.5625C16.8317 26.0906 16.6675 23.4588 18.257 22.0542C18.4246 21.9059 18.6134 21.7755 18.8175 21.6639C18.5335 21.1824 18.3455 20.6241 18.2069 20.1C18.0045 19.3346 17.8913 18.5548 17.8352 17.7656C17.7221 16.1557 17.9101 14.5167 18.2962 12.9528C19.6961 7.28435 23.9943 2.58577 29.7368 1.24941V1.24941ZM19.5676 24.7713C19.2899 23.1563 22.5145 24.3505 23.2178 24.4631L23.2384 24.4662C24.045 24.5783 23.5954 25.9962 22.8016 25.5739L22.7774 25.5605C22.3479 25.3138 21.8756 25.1371 21.4252 24.9282L21.329 24.8829C20.971 24.7108 19.788 23.9378 19.6596 24.7713C19.6528 24.8173 19.5754 24.8165 19.5677 24.7713H19.5676Z" fill="black"/>
<path fill-rule="evenodd" clip-rule="evenodd" d="M41.9777 28.6367C42.2701 28.1207 43.1426 28.2046 43.276 28.8064C43.5466 30.0263 42.0919 31.1528 40.987 31.181C39.889 31.2088 38.6571 30.2743 38.816 29.0939C38.8553 28.8019 39.2453 28.8374 39.3782 29.0205L39.4298 29.0907C39.7909 29.5758 40.2674 30.078 40.9376 29.9597C41.2154 29.9107 41.4677 29.7372 41.6356 29.5138C41.8381 29.2443 41.8158 28.9224 41.9777 28.6367V28.6367ZM34.9959 19.7117C35.1448 19.6707 35.2949 19.6865 35.4268 19.7426C35.7211 19.7966 35.967 20.042 36.0534 20.3223C36.0603 20.3465 36.0678 20.3704 36.0763 20.3941L36.0894 20.4296L36.0541 20.3397C36.0704 20.4282 36.1424 20.5212 36.1683 20.61C36.2002 20.7192 36.208 20.8432 36.1972 20.9633C36.2908 20.9643 36.3844 20.9674 36.4778 20.9755L36.568 20.9835C37.0728 21.0305 37.627 21.1166 37.9263 21.5528C38.0944 21.7979 37.9366 22.2392 37.6278 22.2864C37.1525 22.3591 36.7431 22.0961 36.2694 22.0434C35.8216 21.9936 35.353 22.0221 34.9111 22.103C33.9985 22.2698 33.16 22.6397 32.2707 22.8717L32.1497 22.9025L32.1499 22.9019C31.9975 22.9387 31.8245 22.7269 31.9751 22.6029C32.6876 22.0177 33.5998 21.5434 34.4983 21.2546C34.3674 21.0463 34.3269 20.7721 34.4164 20.5485C34.4302 20.5022 34.4474 20.4571 34.4656 20.4122L34.5034 20.3199C34.5072 20.2763 34.5153 20.2331 34.5275 20.1911L34.5295 20.1782L34.5306 20.179C34.5975 19.9616 34.7722 19.7734 34.9959 19.7117H34.9959ZM44.085 19.7453C44.2798 19.5503 44.5536 19.5792 44.7569 19.7326L44.784 19.7537C44.9756 19.8388 45.1342 20.0249 45.2384 20.1973C45.3465 20.3764 45.4184 20.5588 45.4212 20.7559C45.8928 20.7574 46.3446 20.8989 46.6909 21.2797C46.8027 21.4026 46.8791 21.5921 46.8176 21.7588L46.7809 21.8579C46.6646 22.1726 46.1419 22.3537 45.9642 21.9837L45.956 21.9656C45.7672 21.5262 45.0425 21.5723 44.6574 21.6172C44.3889 21.6486 44.1238 21.7154 43.8645 21.7901C43.7732 21.8165 43.6826 21.8451 43.5922 21.8742L43.5018 21.9036C43.4536 21.9192 43.2023 22.0556 43.3586 22.0233C43.4006 22.0146 43.4323 22.0758 43.3894 22.0963C43.2031 22.1854 43.0043 22.008 43.0168 21.8079C43.0383 21.4606 43.5899 21.2701 43.8553 21.1503L43.8713 21.1431C43.9758 21.0947 44.082 21.0501 44.1897 21.0091C44.1278 20.9171 44.0767 20.8148 44.0341 20.705C43.9942 20.6038 43.9667 20.4982 43.9523 20.3904C43.9378 20.3375 43.9378 20.2817 43.9523 20.2288L43.9545 20.2133C43.947 20.1773 43.9434 20.1406 43.944 20.1038L43.9424 20.0894H43.944C43.9492 19.9596 44.0007 19.8296 44.085 19.7453V19.7453ZM40.9718 23.4446C41.7204 23.6759 42.9553 24.3059 42.5652 25.2785C42.0205 26.1717 40.576 25.5152 39.8761 25.2267C39.2472 25.0184 38.9197 25.8997 39.5278 26.1653C44.5527 28.1533 44.5342 22.9068 41.154 22.9838C40.7819 22.9923 40.7702 23.3677 40.9718 23.4446V23.4446ZM34.3237 16.6036L34.4513 16.5664C35.1148 16.3742 35.7921 16.0422 36.3812 16.5601C36.6125 16.7635 36.6602 17.1861 36.4947 17.4397C36.1176 18.0175 35.5584 17.9293 34.9495 17.9786C34.4859 18.0161 34.029 18.1523 33.5963 18.3225C33.2426 18.4617 32.9145 18.6576 32.6049 18.8761C32.3006 19.0909 32.0927 19.4269 31.7807 19.6201C31.6663 19.6911 31.5342 19.6182 31.4931 19.5032C31.3475 19.0954 31.5935 18.5874 31.8016 18.2399C32.0556 17.816 32.4416 17.4693 32.8566 17.2069C33.311 16.9196 33.8134 16.7537 34.3237 16.6035V16.6036ZM43.9916 16.1648C45.1131 16.1644 46.1923 16.7882 46.8195 17.7026C47.0327 18.0133 46.8765 18.4735 46.5705 18.6524C46.2273 18.8532 45.8603 18.7086 45.6341 18.4209L45.6206 18.4034C45.2609 17.9245 44.7972 17.5471 44.2474 17.3015C43.9792 17.1815 43.6826 17.0843 43.3925 17.035L43.2988 17.0189C43.1674 16.9969 43.015 16.9759 42.8961 16.9964C42.8338 17.0046 42.7739 17.0255 42.7201 17.0579C42.746 17.1145 42.6791 17.1826 42.6173 17.1487C42.3386 16.9957 42.3728 16.7226 42.603 16.5104C42.9286 16.2101 43.571 16.1649 43.9916 16.1648V16.1648Z" fill="black"/>
</svg>
