<svg width="60" height="59" viewBox="0 0 60 59" fill="none" xmlns="http://www.w3.org/2000/svg">
<path fill-rule="evenodd" clip-rule="evenodd" d="M60.1094 90.5358C59.7659 88.5957 59.451 86.6506 59.1648 84.7011C59.0289 83.7756 58.8964 82.8492 58.7773 81.9212C58.6938 81.2711 58.5667 80.5276 59.0091 80.0462C59.6315 79.3685 60.1969 78.7884 60.2731 77.8176C60.3447 76.9042 60.0359 75.9085 59.8428 75.0219C59.4378 73.1626 58.9336 71.3263 58.3764 69.5073C57.8104 67.6594 57.1898 65.8288 56.5602 64.0016C55.9717 62.2934 55.4058 60.5696 54.6392 58.9306C53.1843 55.8203 50.7229 53.5168 47.681 51.9788C46.9244 51.5963 45.3813 50.2308 44.5909 49.9251C43.8643 49.644 43.8669 50.4648 43.1518 50.1556C42.5801 49.9085 42.0477 49.5789 41.7276 49.0269C41.3801 48.4275 40.5084 47.5892 40.3757 46.8915C40.0946 45.4127 40.3992 44.154 39.3437 43.041C38.4067 42.0526 37.1473 41.3755 35.8442 41.012C32.9775 40.2125 29.1544 40.7715 27.4248 43.4353C26.5987 44.7074 26.31 46.2451 25.1953 47.2832C24.2219 48.1897 24.4398 48.8095 23.1791 49.2767C23.1077 49.3032 21.1723 48.888 21.1009 48.9146C19.7218 48.6195 18.4036 49.4456 17.1384 49.9251C15.252 50.6396 13.4561 51.5698 11.7689 52.6753C8.3666 54.9044 5.45268 57.799 3.05047 61.0745C0.628307 64.3771 -1.25104 68.0787 -2.58919 71.9475C-2.91433 72.8872 -3.20599 73.8383 -3.46362 74.7988C-3.60766 75.3363 -3.76166 75.8938 -3.58618 76.4441C-3.44266 76.8943 -3.1234 77.2295 -2.74848 77.4996C-2.24027 77.8658 -1.22087 78.1039 -1.24081 78.8404C-1.2559 79.4003 -1.44587 79.9897 -1.5386 80.5431C-1.64897 81.202 -1.73973 81.8649 -1.83033 82.5268C-2.24283 85.5398 -2.56388 88.5696 -2.70587 91.608C-2.84564 94.5994 -2.96164 97.6523 -2.75411 100.643C-2.74047 100.84 -2.68166 101.021 -2.58672 101.174C-2.67536 101.208 -2.68218 101.373 -2.57189 101.396C-2.49468 101.413 -2.41763 101.43 -2.34041 101.446C-2.18002 101.567 -1.97999 101.641 -1.74979 101.649C-1.59382 101.654 -1.43786 101.661 -1.28189 101.668C0.362995 102.013 2.0078 102.337 3.67424 102.584C5.69993 102.882 7.73157 103.126 9.76953 103.324C13.9572 103.732 18.1118 103.596 22.305 103.377C26.4917 103.157 30.6759 103.106 34.867 103.215C39.0617 103.324 43.2549 103.507 47.4506 103.582C52.138 103.665 56.8182 103.537 61.4921 103.164C62.1329 103.114 62.5294 102.603 62.403 101.967C61.6457 98.1534 60.7876 94.3659 60.1094 90.5358Z" fill="#694D3D"/>
<path fill-rule="evenodd" clip-rule="evenodd" d="M17.1384 49.9251L17.2299 49.8898C18.4672 49.4065 19.755 48.6266 21.101 48.9146C21.1486 48.8969 22.0244 49.0755 22.6242 49.1886L22.0549 49.7829L21.05 49.9762C24.5165 55.6974 28.6164 58.5579 33.3495 58.5579C38.0828 58.5579 41.6744 55.6974 44.1244 49.9762L44.4587 49.8837C44.5 49.8933 44.544 49.9068 44.591 49.9251C45.3814 50.2308 46.9244 51.5962 47.681 51.9787C50.7229 53.5168 53.1843 55.8202 54.6392 58.9306C55.3803 60.515 55.9337 62.1785 56.5014 63.8307L56.5602 64.0016C57.1898 65.8287 57.8104 67.6593 58.3764 69.5073C58.9094 71.2472 59.3939 73.0029 59.7894 74.7795L59.8428 75.0219C60.0359 75.9085 60.3448 76.9041 60.2731 77.8176C60.246 78.1634 60.1567 78.4597 60.0249 78.7284L53.1687 81.1955L56.4351 103.473C53.4431 103.602 50.4483 103.635 47.4506 103.582C43.2549 103.507 39.0617 103.324 34.867 103.215C30.8029 103.109 26.7454 103.155 22.6856 103.357L21.6546 103.41C17.6819 103.609 13.7406 103.71 9.76953 103.324L9.49894 103.298V100.039L10.8939 81.8928L3.82467 80.5622L-3.1147 77.1918C-3.32436 76.9822 -3.4926 76.7376 -3.58618 76.4441C-3.74871 75.9344 -3.62862 75.4185 -3.4955 74.9181L-3.46354 74.7987C-3.2059 73.8383 -2.91424 72.8872 -2.5891 71.9475C-1.25104 68.0787 0.628311 64.377 3.05047 61.0745C5.45277 57.799 8.36669 54.9044 11.7689 52.6752C13.4561 51.5698 15.252 50.6396 17.1384 49.9251Z" fill="#9DDADB"/>
<path fill-rule="evenodd" clip-rule="evenodd" d="M19.7929 48.8208C20.2263 48.802 20.6683 48.8721 21.1008 48.9146C21.1384 48.9183 21.1527 48.9764 21.1103 48.9853C20.3364 49.147 19.5709 49.3681 18.8109 49.5928L18.4854 49.6891C17.6283 49.9427 16.7963 50.2042 15.9665 50.5424C14.3127 51.2164 12.7421 52.1261 11.2966 53.1712C5.73019 57.1958 1.7015 63.289 -0.840833 69.5976C-1.53167 71.3114 -2.11588 73.0662 -2.59012 74.8521C-2.70514 75.2865 -2.81396 75.7226 -2.91654 76.1601C-2.94671 76.2884 -3.07822 76.6168 -3.00603 76.7481C-2.94237 76.8641 -2.69453 76.9357 -2.57938 76.9961L-2.19066 77.1977C-1.4324 77.5884 -0.169327 78.2309 -0.0426793 78.2934L0.154878 78.3907C3.38584 79.9746 6.83823 81.3178 10.4741 81.4108L10.5026 81.1003C10.6647 79.3837 10.8774 77.6581 11.3417 75.9942C11.3667 75.9048 11.4805 75.935 11.4909 76.0144C11.7495 77.9841 11.6669 79.9692 11.5766 81.948C11.4168 85.4529 11.2046 88.9557 11.016 92.4585C10.9216 94.2117 10.7995 95.9622 10.6893 97.7145C10.5789 99.4693 10.5432 101.267 10.2912 103.007C10.235 103.395 9.78062 103.606 9.43647 103.565C9.05567 103.52 8.76275 103.184 8.76096 102.8C8.75636 101.786 8.88377 100.76 8.95459 99.7489C9.02184 98.7875 9.09403 97.827 9.168 96.8665C9.43834 93.3611 9.74934 89.86 10.037 86.3554C10.1389 85.1128 10.249 83.8713 10.3624 82.6297C6.5107 82.5055 2.91232 81.0789 -0.520463 79.412C-0.570151 80.5402 -0.690066 81.6663 -0.806316 82.7898C-1.13061 85.925 -1.41654 89.0588 -1.63046 92.2037C-1.73862 93.7923 -1.81728 95.3827 -1.8858 96.973C-1.93073 98.0153 -1.96445 99.0579 -1.98697 100.101L-1.99865 100.698C-2.00828 101.077 -2.04671 101.427 -2.36512 101.702C-2.68865 101.983 -3.12552 101.997 -3.44563 101.702C-3.87416 101.308 -3.79839 100.771 -3.78569 100.241C-3.75368 98.8997 -3.70325 97.5592 -3.63441 96.2196C-3.47367 93.0969 -3.15245 89.9869 -2.73271 86.8898L-2.5689 85.694C-2.26294 83.4713 -1.92697 81.198 -1.24294 79.0568C-1.5089 78.9245 -1.77439 78.7912 -2.03938 78.657C-2.50865 78.4194 -2.99384 78.1964 -3.4499 77.9342C-3.81186 77.7262 -4.12396 77.4408 -4.22461 77.0197C-4.33703 76.5505 -4.16521 76.0374 -4.05109 75.5797L-4.0412 75.5395C-3.92895 75.0786 -3.80905 74.6197 -3.68154 74.1628C-3.16592 72.31 -2.52842 70.4934 -1.78225 68.7211C-0.288219 65.1729 1.64022 61.8021 3.99582 58.7543C6.11627 56.0108 8.62102 53.5229 11.5568 51.6569C12.992 50.7446 14.5215 49.9956 16.139 49.466C16.8951 49.2185 17.7177 49.0032 18.5093 48.9146C18.9362 48.8668 19.3638 48.8395 19.7929 48.8208ZM27.473 43.1984C27.9881 42.6452 29.0116 43.2176 28.7642 43.9501C28.1825 45.6733 27.256 47.2451 25.8102 48.3775C24.4512 49.4419 22.8306 50.1332 21.0853 49.9857C21.073 49.9847 21.061 49.9815 21.0499 49.9762L21.2003 50.1803C22.381 51.7775 23.6267 53.3527 25.1282 54.6582C28.1872 57.3182 32.3523 58.7529 36.3742 57.7323C39.5385 56.9294 42.3263 54.4272 43.1462 51.2384C43.0286 51.291 42.8889 51.309 42.7356 51.2757C42.0796 51.1333 41.4302 50.4434 41.0071 49.9487C40.5494 49.4136 40.192 48.8357 39.93 48.1825C39.4505 46.9871 39.2968 45.448 39.9515 44.29C40.0323 44.1473 40.2186 44.2273 40.2345 44.3667L40.2593 44.5842C40.3856 45.6694 40.5428 46.7192 41.0545 47.7085C41.3049 48.1926 41.6051 48.6651 41.9705 49.0705C42.166 49.2874 42.3779 49.4947 42.6068 49.6766C42.8297 49.8538 43.0996 49.9819 43.2995 50.1852L43.3361 50.2242L43.3372 50.2173C43.3877 49.7876 43.689 49.5983 43.9838 49.6102C44.269 49.6217 44.6041 49.7472 44.7339 49.8074L44.7462 49.8132C46.7364 50.7686 48.5694 52.0138 50.2944 53.3954C53.8617 56.2525 56.5345 59.9876 57.8295 64.386C58.4652 66.5448 58.8299 68.7691 59.2148 70.9831L59.4519 72.3396C59.8112 74.3835 60.2127 76.4676 61.0239 78.3688C61.2337 78.8607 61.0719 79.3219 60.5574 79.5153C59.915 79.7569 59.2701 79.9907 58.6243 80.2217C58.9414 81.5822 59.1348 82.9898 59.3724 84.3568C59.8775 87.2631 60.4963 90.1506 61.0269 93.0534C61.2982 94.5372 61.543 96.0261 61.814 97.51C61.9445 98.225 62.0807 98.9384 62.2131 99.6526C62.2845 100.038 62.3491 100.425 62.4172 100.81L62.4291 100.875C62.4681 101.078 62.5171 101.288 62.4611 101.492C62.3973 101.724 62.216 101.888 62.0542 102.055C61.921 102.192 61.7284 102.193 61.5652 102.118L61.5115 102.093C61.2201 101.957 60.9916 101.821 60.8883 101.492C60.8228 101.284 60.7992 101.049 60.7564 100.835C60.6743 100.424 60.5965 100.011 60.5231 99.5989C60.3761 98.7728 60.2326 97.9461 60.0925 97.1188L59.9616 96.3441C59.5124 93.6739 59.0859 90.9875 58.8702 88.2892C58.7745 87.0918 58.6732 85.896 58.5708 84.6994L58.4941 83.8025C58.3969 82.6669 58.2782 81.5025 58.2614 80.3515L57.8751 80.4886L55.9908 81.1548C55.5235 81.3198 54.9287 81.6582 54.4258 81.5967C54.1797 81.5665 53.992 81.489 53.8471 81.3482C54.0206 83.7971 54.2555 86.2421 54.5686 88.6736C54.8534 90.8869 55.1692 93.0969 55.5421 95.2966C55.7268 96.3858 55.9166 97.4742 56.1228 98.56C56.2258 99.1029 56.3322 99.6449 56.4418 100.186C56.4964 100.456 56.5614 100.727 56.6041 100.999C56.6528 101.311 56.5669 101.503 56.3926 101.76C56.2495 101.971 55.9632 102.079 55.7312 101.933C55.4238 101.741 55.2635 101.574 55.1731 101.222C55.0909 100.903 55.041 100.57 54.9774 100.247C54.8601 99.6509 54.7466 99.0534 54.6371 98.456C54.4081 97.2048 54.197 95.952 54.0085 94.6941C53.3441 90.2648 52.9226 85.7989 52.7097 81.3254C52.6046 79.1183 52.5721 76.9092 52.5908 74.6997C52.6003 73.5672 52.6373 72.4315 52.7174 71.3018C52.7986 70.1583 52.9673 69.0377 53.118 67.9052C53.1233 67.8653 53.1795 67.863 53.1819 67.9052C53.2533 69.1749 53.3651 70.4431 53.4199 71.7162C53.4722 72.9309 53.4951 74.1475 53.5367 75.3627C53.5914 76.96 53.6671 78.5583 53.7674 80.1555C53.9491 79.9568 54.2228 79.8423 54.4967 79.887C54.8935 79.8037 55.3207 79.5955 55.699 79.4691L57.1252 78.9927C57.875 78.7423 58.6247 78.4936 59.3771 78.2524C58.7044 75.9894 58.2436 73.6926 57.8501 71.3623L57.6746 70.3143C57.3273 68.2514 56.9527 66.1877 56.3236 64.19C55.6621 62.0898 54.6723 60.1373 53.3592 58.3691C52.0649 56.6264 50.4901 55.092 48.8687 53.6568C47.4806 52.4281 45.9957 51.3188 44.5799 50.1239C44.5948 50.2031 44.5979 50.2903 44.5849 50.3861C44.2839 52.5892 43.1346 54.6409 41.5329 56.1669C38.3151 59.2326 33.552 59.8686 29.4337 58.431C25.4499 57.0405 21.9277 53.7471 20.6833 49.6718C20.662 49.6021 20.7554 49.5744 20.7929 49.6256C20.862 49.7202 20.9313 49.8148 21.0008 49.9094C20.9961 49.8718 21.0156 49.8309 21.062 49.813C22.5139 49.2524 23.9397 48.4573 25.028 47.3326C25.5585 46.7843 26.0214 46.1632 26.3869 45.4933C26.562 45.1724 26.7192 44.8401 26.8447 44.4967L26.8765 44.4079C27.0286 43.9778 27.1556 43.5392 27.473 43.1984Z" fill="black"/>
<path fill-rule="evenodd" clip-rule="evenodd" d="M42.5014 16.7885C36.9079 12.2326 27.9441 10.7533 21.9565 15.3497C17.3041 19.6633 15.3788 31.9212 16.2021 38.0807C16.4311 42.0314 19.443 46.5094 23.8644 45.2599C24.6152 45.1858 25.3442 44.8974 26.1019 44.837C27.0083 44.7324 27.9215 44.7306 28.8261 44.8587C30.7971 45.1381 32.5444 46.1868 34.4575 46.6771C38.0073 47.5868 41.968 46.9749 45.0236 44.9257C55.121 38.273 50.5472 23.2274 42.5014 16.7885Z" fill="#694D3D"/>
<path fill-rule="evenodd" clip-rule="evenodd" d="M41.7567 46.7865C41.8605 46.7506 41.9642 46.7132 42.0671 46.6749C42.0739 46.6987 42.0849 46.7217 42.0978 46.7439C42.1122 46.7797 42.1267 46.8146 42.1428 46.8495C42.0136 46.8504 41.8842 46.8273 41.7567 46.7865ZM41.5492 2.63709C41.5034 2.5344 41.4505 2.43501 41.3909 2.33964C41.5355 2.38652 41.6802 2.45129 41.8112 2.53482C41.7227 2.56464 41.6359 2.59874 41.5492 2.63709ZM19.4547 16.1165L19.4371 16.1137C19.5129 15.9112 19.648 15.7202 19.7973 15.5822C19.8241 15.5574 19.8531 15.5344 19.8812 15.5108C19.7218 15.6999 19.5791 15.9026 19.4547 16.1165ZM59.882 37.2827C59.8071 36.5719 59.7119 35.8637 59.5885 35.1596C59.4703 34.4856 59.3708 33.7646 59.0281 33.1663C58.6879 32.5705 58.3469 31.9917 57.9421 31.4677C57.9999 31.2001 58.0765 30.9487 58.1427 30.7458C58.5255 29.5782 58.9023 28.0952 58.107 27.0103C57.9225 26.7589 57.6972 26.5663 57.4394 26.3924C57.3297 26.3183 57.1478 26.2509 57.0635 26.1487C57.004 26.0762 57.0245 26.1154 57.0218 26.0796C57.0074 25.887 57.4581 25.4805 57.5636 25.3279C57.761 25.0457 57.908 24.7279 58.0203 24.4032C58.4642 23.118 58.1623 21.7023 57.8953 20.4145C57.7542 19.7319 57.5985 19.0475 57.5474 18.3504C57.4998 17.6958 57.5891 17.0566 57.6418 16.4055C57.6929 15.7628 57.6793 15.0998 57.4045 14.5048C57.2702 14.215 57.067 13.9594 56.8194 13.7599C56.578 13.5648 56.2768 13.4515 56.0413 13.2572C55.8065 13.0636 55.8737 12.8021 55.935 12.5344C56.0191 12.1714 56.1254 11.8109 56.1356 11.4359C56.1543 10.7822 55.8881 10.1455 55.4723 9.65121C55.0436 9.1407 54.4313 8.79552 53.7696 8.71797C53.4668 8.68217 53.1692 8.74268 52.8681 8.72138C52.5704 8.70092 52.5059 8.55178 52.4497 8.27905C52.3205 7.65433 52.3731 7.03729 52.0662 6.45433C51.794 5.93615 51.31 5.58501 50.7751 5.37791C49.7946 4.9978 48.6541 5.07621 47.6198 5.30035C47.0093 3.50035 45.1034 2.31996 43.2281 2.30547C42.9354 1.80774 42.4396 1.43615 41.8741 1.21797C40.9386 0.855752 39.9477 1.06712 38.9731 1.06712H38.9689C38.8712 1.06111 38.7733 1.05855 38.6755 1.05945C38.5834 1.05423 38.4915 1.04656 38.3998 1.03643C37.2908 0.905184 36.1937 0.450071 35.0949 0.895809C34.605 1.09439 34.2155 1.40035 33.9689 1.7907C33.5973 1.89212 33.2306 2.00803 32.871 2.14268C31.312 2.18359 29.7675 3.02138 28.9792 4.37905C27.8693 4.25291 26.6651 4.46683 25.931 5.37535C25.7398 5.61177 25.5918 5.88962 25.4936 6.1845C24.7452 6.42706 24.0527 6.85916 23.5995 7.51013C23.1859 8.10416 23.1064 8.87232 23.3862 9.50999C22.718 9.99493 22.1959 10.6894 21.9444 11.5092C21.7916 12.0074 21.7689 12.522 21.8672 13.0123C21.1832 13.1644 20.5289 13.4462 19.9492 13.8692C19.3417 14.3123 18.583 15.0175 18.543 15.8292C18.5401 15.8888 18.5424 15.9484 18.5471 16.0078C17.2098 15.9136 15.846 16.1407 14.9421 17.2151C14.2634 18.0213 13.9683 19.0594 14.1495 20.0046C12.5583 20.3285 11.0537 21.162 10.0042 22.3944C9.24132 23.2901 8.56349 24.4288 8.60431 25.6483C8.61707 26.0157 8.70297 26.3856 8.8518 26.7273V26.7281C8.78307 26.8579 8.71896 26.9901 8.65959 27.1245C7.67389 27.8156 6.95779 28.8989 6.55467 30.093C6.22894 31.0602 6.02397 32.3165 6.37182 33.3009C6.42367 33.4481 6.49006 33.5896 6.56998 33.7236C6.50449 33.7935 6.44241 33.8634 6.38202 33.9342C5.7178 34.7122 5.04508 35.6923 5.091 36.7636C5.10971 37.195 5.2696 37.6288 5.5307 37.9849C4.61218 38.9183 3.87236 40.0961 3.94541 41.4111C4.00835 42.5558 4.63523 43.7183 5.61745 44.268C5.4533 45.1501 5.67273 46.0807 6.35821 46.7694C6.7001 47.1137 7.10322 47.3404 7.53016 47.4614C7.62542 48.5004 8.54563 49.3364 9.52282 49.5767C9.70483 49.6219 9.88683 49.6492 10.068 49.6619C10.9474 50.0941 11.996 50.0446 12.8933 49.6483C13.1578 49.985 13.5022 50.2594 13.9036 50.4563C14.069 50.5373 14.2408 50.6043 14.4173 50.6565C15.6845 51.0324 16.984 50.5228 18.0922 49.9279C18.1279 49.9092 18.1934 49.8853 18.2512 49.8589C18.4043 50.0302 18.6833 50.1998 18.8287 50.2833C19.322 50.5671 19.925 50.6991 20.4914 50.6617C21.1556 50.6174 21.7416 50.3975 22.2842 50.0847C22.3634 50.0984 22.4432 50.106 22.5233 50.1103C23.0335 50.1375 23.4885 49.9756 23.8976 49.72C24.168 49.7558 24.4452 49.7523 24.7259 49.7029C25.3443 49.8605 25.9464 49.61 26.4303 49.212C26.6447 49.0356 26.8257 48.8285 27.0197 48.6308C27.2212 48.4253 27.3744 48.3776 27.6099 48.2396C28.167 47.9131 28.2341 47.0856 27.9926 46.4872C28.0385 46.3825 28.065 46.2657 28.065 46.1362C28.0632 45.006 27.5436 43.9697 26.9058 43.0654C26.6208 42.6623 26.3113 42.2676 25.9718 41.9097C25.6988 41.6224 25.3154 41.1563 24.9114 41.0395C24.8867 41.0217 24.8611 41.0037 24.8356 40.9867C24.9139 40.7122 24.9598 40.4327 24.9403 40.1472C24.9203 39.8599 24.8288 39.5821 24.6741 39.3393C25.1818 38.3532 25.3962 37.2717 25.2941 36.1433C25.7074 35.556 26.0204 34.9075 26.1819 34.1967C26.2814 33.7569 26.3385 33.2941 26.3307 32.8432C26.3273 32.6268 26.2483 32.3531 26.2466 32.129C26.2585 32.1998 26.3504 31.9356 26.3861 31.8699C26.796 31.1072 27.3224 30.5123 27.4101 29.6131C27.461 29.0872 27.3369 28.506 27.0222 28.0748C27.2237 27.2788 27.2212 26.4238 26.904 25.6646C26.8189 25.4617 26.7212 25.2631 26.6089 25.0748C26.6607 24.9163 26.7084 24.756 26.7696 24.6119C26.7935 24.5548 26.8172 24.4969 26.841 24.439C27.0715 24.2352 27.2859 24.0129 27.4662 23.7946C27.8659 23.3114 28.1713 22.7575 28.2095 22.119C28.2282 21.7994 28.1534 21.4935 28.0607 21.1901C28.0198 21.0529 27.9951 20.9004 27.9466 20.7665C27.9195 20.6923 27.854 20.6165 27.8311 20.5467L27.8182 20.5083C27.8216 20.4981 27.8243 20.4768 27.8243 20.4366C27.825 20.1307 27.865 19.8315 27.8668 19.5367C28.1466 19.8197 28.4834 20.031 28.8661 20.1546C29.6374 20.4026 30.442 20.2901 31.1249 19.9075C31.8598 20.412 32.6855 20.8687 33.5514 21.0521C34.0658 21.1611 34.5813 21.116 35.0974 21.1833C35.6103 21.2506 36.1062 21.4748 36.5892 21.6495C37.6643 22.039 38.7366 22.4386 39.815 22.818C40.6859 23.1239 41.6282 23.3668 42.54 23.1947C42.796 23.59 43.1286 23.9242 43.5546 24.1697C43.8604 24.344 44.1943 24.4631 44.5411 24.5217C44.8473 24.5737 45.2063 24.5532 45.4545 24.7637C45.6969 24.9683 45.8483 25.2733 46.066 25.5035C46.3085 25.7609 46.6078 25.9842 46.9216 26.1444C47.1657 26.2696 47.4242 26.3643 47.6913 26.4265C47.6684 27.0086 47.6462 27.5898 47.6394 28.1728C47.6267 29.4393 47.6317 30.7057 47.6148 31.9722C47.5978 33.2344 47.5578 34.4967 47.4915 35.7572C47.4285 36.9401 47.34 38.1273 47.0585 39.2813C46.1247 43.1106 42.6267 45.8523 38.7111 45.9921C37.5486 46.0339 36.3978 45.8702 35.2862 45.5275C34.1348 45.1722 33.1065 44.4409 31.926 44.216C31.6173 44.1579 31.3264 44.4691 31.5033 44.7682C31.8079 45.2822 32.1778 45.5958 32.6838 45.9051C33.2137 46.2282 33.8039 46.4677 34.3864 46.6773C35.458 47.0625 36.5918 47.2859 37.7289 47.3481C38.5963 47.3957 39.4672 47.3362 40.3168 47.1725C40.3764 47.3558 40.4819 47.534 40.5617 47.7036C40.5736 47.7283 40.6137 47.7111 40.606 47.6856C40.5932 47.643 40.5848 47.6055 40.5814 47.5748C40.8671 47.9481 41.3085 48.2063 41.7618 48.3317C42.0833 48.4206 42.4187 48.4472 42.7501 48.41C42.8564 48.398 42.9575 48.3802 43.058 48.358C43.393 48.6521 43.8216 48.8481 44.2519 48.9461C44.178 49.3961 44.3999 49.8871 44.9146 50.0149C45.1305 50.0686 45.338 50.0694 45.5456 50.0498C45.7131 50.1282 45.8934 50.1896 46.0848 50.2313C46.3339 50.2859 46.6316 50.2159 46.8195 50.0353C46.9224 50.1077 47.0185 50.158 47.1138 50.273C47.5059 50.747 48.3512 50.3694 48.3887 49.8214C48.5128 49.8214 48.6378 49.8231 48.7629 49.8273C48.7926 49.841 48.8224 49.8546 48.853 49.8691C49.3999 50.1239 49.9663 50.3464 50.5711 50.1461C50.6777 50.1111 50.7803 50.0648 50.8771 50.008C51.3032 50.0464 51.7234 50.0472 52.1555 49.9075C52.4106 49.8247 52.6504 49.6935 52.8502 49.5214C53.517 49.7174 54.2204 49.806 54.8838 49.5631C55.3804 49.3816 55.7802 49.0952 56.0616 48.7176C56.4921 48.733 56.9291 48.6291 57.3229 48.4237C57.9965 48.0742 58.4685 47.4103 58.7976 46.7448C59.5223 45.2763 59.9509 43.6987 60.1192 42.0717C60.2851 40.4694 60.0487 38.8756 59.882 37.2827Z" fill="black"/>
<path fill-rule="evenodd" clip-rule="evenodd" d="M35.8654 39.8364C36.2552 38.6347 40.4836 36.8661 41.1964 37.3804C41.9094 37.8947 40.9898 41.5686 40.9898 41.5686C40.9898 41.5686 37.0465 41.9775 36.7644 41.773C36.4823 41.5686 35.4756 41.0381 35.8654 39.8364Z" fill="white"/>
<path fill-rule="evenodd" clip-rule="evenodd" d="M43.0674 37.473C43.0929 37.5009 43.0367 37.5384 43.0087 37.5181C42.6841 37.2828 42.1727 37.4164 41.8593 37.5229C41.8593 37.5229 41.7448 41.2145 41.8715 41.302C41.9983 41.3894 43.7844 41.3375 43.7844 41.5565C43.7844 42.2725 42.7102 42.5413 42.1272 42.4987C41.2092 42.4318 40.2631 42.3009 39.3464 42.4069C38.4297 42.513 36.4823 43.098 35.4854 42.2895C34.2965 41.3252 34.4573 39.7405 35.4465 38.7059C36.0701 38.0539 36.9877 37.6626 37.8924 37.3727C39.2164 36.9486 42.3368 36.6747 43.0674 37.473ZM40.6254 40.1833C40.1453 40.3702 37.7586 41.1584 37.1915 41.302C37.8543 41.2544 40.1174 41.2018 40.6254 40.9559C40.6824 40.7258 40.7188 40.1469 40.6254 40.1833ZM40.9898 37.6242C39.6907 37.8352 36.8853 38.7867 36.4823 39.2932C37.0947 39.1968 40.5115 38.7867 40.897 38.7867C40.953 38.4885 40.916 37.9659 40.9898 37.6242ZM41.4049 31.8438C42.0485 32.235 43.0292 33.1472 42.3368 34.117C41.5218 34.9721 40.3485 33.9917 39.7702 33.5482C39.2342 33.2046 38.6318 34.0885 39.1292 34.4897C43.3073 37.5831 45.0029 31.9461 41.7305 31.3838C41.3701 31.3219 41.2363 31.7228 41.4049 31.8438ZM42.8319 26.1355C43.2097 26.1324 43.4303 26.3776 43.7136 26.596C44.0054 26.8209 44.3571 27.0003 44.6981 27.1377C45.0536 27.2808 45.4338 27.3944 45.8081 27.4755C46.1961 27.5593 46.5531 27.52 46.9384 27.591C47.9596 27.7793 47.7179 29.482 46.6938 29.3978C45.7722 29.3221 44.7828 28.7558 44.0838 28.1687C43.7498 27.8881 43.4679 27.5667 43.1936 27.2307L43.1422 27.1675C42.8986 26.867 42.6711 26.5594 42.7933 26.1649C42.7958 26.1566 42.8008 26.1492 42.8078 26.1439C42.8147 26.1386 42.8231 26.1357 42.8319 26.1355ZM34.3142 31.1051C34.3154 30.5616 34.6319 29.3207 35.4143 29.3207C35.9031 29.3207 36.1998 30.1652 36.2512 31.0358L36.253 31.0713C36.2757 31.6126 36.1271 32.7956 35.4143 32.7956C34.6939 32.7956 34.3217 31.6751 34.3143 31.1243L34.3142 31.1051H34.3142ZM45.8333 31.1051C45.8321 30.5616 45.5156 29.3207 44.7332 29.3207C44.2566 29.3207 43.9627 30.1236 43.9006 30.9705L43.8963 31.0358C43.8654 31.5588 44.0043 32.7956 44.7332 32.7956C45.4535 32.7956 45.8258 31.6751 45.8332 31.1243L45.8333 31.1051ZM36.8746 26.2167C37.3625 26.0061 37.9217 26.0658 38.2154 26.5682C38.4935 27.0436 38.3042 27.6165 37.8638 27.9091C37.4313 28.1963 36.8506 28.3526 36.3532 28.5169L36.2983 28.5353C35.8193 28.6972 35.331 28.8303 34.836 28.9337C34.3708 29.0305 33.9019 29.1022 33.4305 29.1594L33.289 29.1762C32.9212 29.2186 32.4082 29.3615 32.0772 29.1522C32.0628 29.1435 32.0523 29.1295 32.048 29.1131C32.0438 29.0968 32.046 29.0795 32.0542 29.0648C32.2469 28.7311 32.7584 28.5982 33.0866 28.4292C33.5081 28.212 33.9236 27.9808 34.3352 27.7456C34.7517 27.5078 35.166 27.2662 35.5781 27.0207C36.0058 26.7658 36.4198 26.4128 36.8746 26.2167Z" fill="black"/>
</svg>
