<svg width="60" height="53" viewBox="0 0 60 53" fill="none" xmlns="http://www.w3.org/2000/svg">
<path fill-rule="evenodd" clip-rule="evenodd" d="M60.1094 84.5358C59.7659 82.5957 59.451 80.6506 59.1648 78.7011C59.0289 77.7756 58.8964 76.8492 58.7773 75.9212C58.6938 75.2711 58.5667 74.5276 59.0091 74.0462C59.6315 73.3685 60.1969 72.7884 60.2731 71.8176C60.3447 70.9042 60.0359 69.9085 59.8428 69.0219C59.4378 67.1626 58.9336 65.3263 58.3764 63.5073C57.8104 61.6594 57.1898 59.8288 56.5602 58.0016C55.9717 56.2934 55.4058 54.5696 54.6392 52.9306C53.1843 49.8203 50.7229 47.5168 47.681 45.9788C46.9244 45.5963 45.3813 44.2308 44.5909 43.9251C43.8643 43.644 43.8669 44.4648 43.1518 44.1556C42.5801 43.9085 42.0477 43.5789 41.7276 43.0269C41.3801 42.4275 40.5084 41.5892 40.3757 40.8915C40.0946 39.4127 40.3992 38.154 39.3437 37.041C38.4067 36.0526 37.1473 35.3755 35.8442 35.012C32.9775 34.2125 29.1544 34.7715 27.4248 37.4353C26.5987 38.7074 26.31 40.2451 25.1953 41.2832C24.2219 42.1897 24.4398 42.8095 23.1791 43.2767C23.1077 43.3032 21.1723 42.888 21.1009 42.9146C19.7218 42.6195 18.4036 43.4456 17.1384 43.9251C15.252 44.6396 13.4561 45.5698 11.7689 46.6753C8.3666 48.9044 5.45268 51.799 3.05047 55.0745C0.628307 58.3771 -1.25104 62.0787 -2.58919 65.9475C-2.91433 66.8872 -3.20599 67.8383 -3.46362 68.7988C-3.60766 69.3363 -3.76166 69.8938 -3.58618 70.4441C-3.44266 70.8943 -3.1234 71.2295 -2.74848 71.4996C-2.24027 71.8658 -1.22087 72.1039 -1.24081 72.8404C-1.2559 73.4003 -1.44587 73.9897 -1.5386 74.5431C-1.64897 75.202 -1.73973 75.8649 -1.83033 76.5268C-2.24283 79.5398 -2.56388 82.5696 -2.70587 85.608C-2.84564 88.5994 -2.96164 91.6523 -2.75411 94.6429C-2.74047 94.8398 -2.68166 95.0213 -2.58672 95.1739C-2.67536 95.208 -2.68218 95.3733 -2.57189 95.3963C-2.49468 95.4125 -2.41763 95.4296 -2.34041 95.4457C-2.18002 95.5668 -1.97999 95.6409 -1.74979 95.6486C-1.59382 95.6537 -1.43786 95.6605 -1.28189 95.6682C0.362995 96.0125 2.0078 96.3372 3.67424 96.5835C5.69993 96.8818 7.73157 97.1256 9.76953 97.3242C13.9572 97.7315 18.1118 97.596 22.305 97.377C26.4917 97.1571 30.6759 97.106 34.867 97.2151C39.0617 97.3242 43.2549 97.5065 47.4506 97.5815C52.138 97.6651 56.8182 97.5372 61.4921 97.1639C62.1329 97.1136 62.5294 96.6031 62.403 95.9673C61.6457 92.1534 60.7876 88.3659 60.1094 84.5358Z" fill="#D08B5B"/>
<path fill-rule="evenodd" clip-rule="evenodd" d="M17.1384 43.9251L17.2299 43.8898C18.4672 43.4065 19.755 42.6266 21.101 42.9146C21.1486 42.8969 22.0244 43.0755 22.6242 43.1886L22.0549 43.7829L21.05 43.9762C24.5165 49.6974 28.6164 52.5579 33.3495 52.5579C38.0828 52.5579 41.6744 49.6974 44.1244 43.9762L44.4587 43.8837C44.5 43.8933 44.544 43.9068 44.591 43.9251C45.3814 44.2308 46.9244 45.5962 47.681 45.9787C50.7229 47.5168 53.1843 49.8202 54.6392 52.9306C55.3803 54.515 55.9337 56.1785 56.5014 57.8307L56.5602 58.0016C57.1898 59.8287 57.8104 61.6593 58.3764 63.5073C58.9094 65.2472 59.3939 67.0029 59.7894 68.7795L59.8428 69.0219C60.0359 69.9085 60.3448 70.9041 60.2731 71.8176C60.246 72.1634 60.1567 72.4597 60.0249 72.7284L53.1687 75.1955L56.4351 97.4733C53.4431 97.602 50.4483 97.6352 47.4506 97.5815C43.2549 97.5065 39.0617 97.3242 34.867 97.2151C30.8029 97.1094 26.7454 97.1545 22.6856 97.3574L21.6546 97.4102C17.6819 97.6088 13.7406 97.7102 9.76953 97.3241L9.49894 97.2977V94.0386L10.8939 75.8928L3.82467 74.5622L-3.1147 71.1918C-3.32436 70.9822 -3.4926 70.7376 -3.58618 70.4441C-3.74871 69.9344 -3.62862 69.4185 -3.4955 68.9181L-3.46354 68.7987C-3.2059 67.8383 -2.91424 66.8872 -2.5891 65.9475C-1.25104 62.0787 0.628311 58.377 3.05047 55.0745C5.45277 51.799 8.36669 48.9044 11.7689 46.6752C13.4561 45.5698 15.252 44.6396 17.1384 43.9251Z" fill="#FDEA6B"/>
<path fill-rule="evenodd" clip-rule="evenodd" d="M19.7929 42.8208C20.2263 42.802 20.6683 42.8721 21.1008 42.9146C21.1384 42.9183 21.1527 42.9764 21.1103 42.9853C20.3364 43.147 19.5709 43.3681 18.8109 43.5928L18.4854 43.6891C17.6283 43.9427 16.7963 44.2042 15.9665 44.5424C14.3127 45.2164 12.7421 46.1261 11.2966 47.1712C5.73019 51.1958 1.7015 57.289 -0.840833 63.5976C-1.53167 65.3114 -2.11588 67.0662 -2.59012 68.8521C-2.70514 69.2865 -2.81396 69.7226 -2.91654 70.1601C-2.94671 70.2884 -3.07822 70.6168 -3.00603 70.7481C-2.94237 70.8641 -2.69453 70.9357 -2.57938 70.9961L-2.19066 71.1977C-1.4324 71.5884 -0.169327 72.2309 -0.0426793 72.2934L0.154878 72.3907C3.38584 73.9746 6.83823 75.3178 10.4741 75.4108L10.5026 75.1003C10.6647 73.3837 10.8774 71.6581 11.3417 69.9942C11.3667 69.9048 11.4805 69.935 11.4909 70.0144C11.7495 71.9841 11.6669 73.9692 11.5766 75.948C11.4168 79.4529 11.2046 82.9557 11.016 86.4585C10.9216 88.2117 10.7995 89.9622 10.6893 91.7145C10.5789 93.4693 10.5432 95.2668 10.2912 97.0071C10.235 97.3949 9.78062 97.6063 9.43647 97.5654C9.05567 97.5202 8.76275 97.1844 8.76096 96.8C8.75636 95.7858 8.88377 94.7597 8.95459 93.7489C9.02184 92.7875 9.09403 91.827 9.168 90.8665C9.43834 87.3611 9.74934 83.86 10.037 80.3554C10.1389 79.1128 10.249 77.8713 10.3624 76.6297C6.5107 76.5055 2.91232 75.0789 -0.520463 73.412C-0.570151 74.5402 -0.690066 75.6663 -0.806316 76.7898C-1.13061 79.925 -1.41654 83.0588 -1.63046 86.2037C-1.73862 87.7923 -1.81728 89.3827 -1.8858 90.973C-1.93073 92.0153 -1.96445 93.0579 -1.98697 94.1009L-1.99865 94.6983C-2.00828 95.0767 -2.04671 95.427 -2.36512 95.7023C-2.68865 95.9827 -3.12552 95.9972 -3.44563 95.7023C-3.87416 95.3077 -3.79839 94.7708 -3.78569 94.2406C-3.75368 92.8997 -3.70325 91.5592 -3.63441 90.2196C-3.47367 87.0969 -3.15245 83.9869 -2.73271 80.8898L-2.5689 79.694C-2.26294 77.4713 -1.92697 75.198 -1.24294 73.0568C-1.5089 72.9245 -1.77439 72.7912 -2.03938 72.657C-2.50865 72.4194 -2.99384 72.1964 -3.4499 71.9342C-3.81186 71.7262 -4.12396 71.4408 -4.22461 71.0197C-4.33703 70.5505 -4.16521 70.0374 -4.05109 69.5797L-4.0412 69.5395C-3.92895 69.0786 -3.80905 68.6197 -3.68154 68.1628C-3.16592 66.31 -2.52842 64.4934 -1.78225 62.7211C-0.288219 59.1729 1.64022 55.8021 3.99582 52.7543C6.11627 50.0108 8.62102 47.5229 11.5568 45.6569C12.992 44.7446 14.5215 43.9956 16.139 43.466C16.8951 43.2185 17.7177 43.0032 18.5093 42.9146C18.9362 42.8668 19.3638 42.8395 19.7929 42.8208ZM27.473 37.1984C27.9881 36.6452 29.0116 37.2176 28.7642 37.9501C28.1825 39.6733 27.256 41.2451 25.8102 42.3775C24.4512 43.4419 22.8306 44.1332 21.0853 43.9857C21.073 43.9847 21.061 43.9815 21.0499 43.9762L21.2003 44.1803C22.381 45.7775 23.6267 47.3527 25.1282 48.6582C28.1872 51.3182 32.3523 52.7529 36.3742 51.7323C39.5385 50.9294 42.3263 48.4272 43.1462 45.2384C43.0286 45.291 42.8889 45.309 42.7356 45.2757C42.0796 45.1333 41.4302 44.4434 41.0071 43.9487C40.5494 43.4136 40.192 42.8357 39.93 42.1825C39.4505 40.9871 39.2968 39.448 39.9515 38.29C40.0323 38.1473 40.2186 38.2273 40.2345 38.3667L40.2593 38.5842C40.3856 39.6694 40.5428 40.7192 41.0545 41.7085C41.3049 42.1926 41.6051 42.6651 41.9705 43.0705C42.166 43.2874 42.3779 43.4947 42.6068 43.6766C42.8297 43.8538 43.0996 43.9819 43.2995 44.1852L43.3361 44.2242L43.3372 44.2173C43.3877 43.7876 43.689 43.5983 43.9838 43.6102C44.269 43.6217 44.6041 43.7472 44.7339 43.8074L44.7462 43.8132C46.7364 44.7686 48.5694 46.0138 50.2944 47.3954C53.8617 50.2525 56.5345 53.9876 57.8295 58.386C58.4652 60.5448 58.8299 62.7691 59.2148 64.9831L59.4519 66.3396C59.8112 68.3835 60.2127 70.4676 61.0239 72.3688C61.2337 72.8607 61.0719 73.3219 60.5574 73.5153C59.915 73.7569 59.2701 73.9907 58.6243 74.2217C58.9414 75.5822 59.1348 76.9898 59.3724 78.3568C59.8775 81.2631 60.4963 84.1506 61.0269 87.0534C61.2982 88.5372 61.543 90.0261 61.814 91.51C61.9445 92.225 62.0807 92.9384 62.2131 93.6526C62.2845 94.0378 62.3491 94.4247 62.4172 94.81L62.4291 94.8747C62.4681 95.0776 62.5171 95.2881 62.4611 95.4918C62.3973 95.7244 62.216 95.8881 62.0542 96.0551C61.921 96.1923 61.7284 96.1932 61.5652 96.1182L61.5115 96.0935C61.2201 95.9571 60.9916 95.8207 60.8883 95.4918C60.8228 95.2838 60.7992 95.0494 60.7564 94.8347C60.6743 94.4239 60.5965 94.0114 60.5231 93.5989C60.3761 92.7728 60.2326 91.9461 60.0925 91.1188L59.9616 90.3441C59.5124 87.6739 59.0859 84.9875 58.8702 82.2892C58.7745 81.0918 58.6732 79.896 58.5708 78.6994L58.4941 77.8025C58.3969 76.6669 58.2782 75.5025 58.2614 74.3515L57.8751 74.4886L55.9908 75.1548C55.5235 75.3198 54.9287 75.6582 54.4258 75.5967C54.1797 75.5665 53.992 75.489 53.8471 75.3482C54.0206 77.7971 54.2555 80.2421 54.5686 82.6736C54.8534 84.8869 55.1692 87.0969 55.5421 89.2966C55.7268 90.3858 55.9166 91.4742 56.1228 92.56C56.2258 93.1029 56.3322 93.6449 56.4418 94.1861C56.4964 94.4563 56.5614 94.7273 56.6041 94.9992C56.6528 95.3111 56.5669 95.5028 56.3926 95.7602C56.2495 95.9707 55.9632 96.079 55.7312 95.9333C55.4238 95.7406 55.2635 95.5736 55.1731 95.2225C55.0909 94.9029 55.041 94.5705 54.9774 94.2475C54.8601 93.6509 54.7466 93.0534 54.6371 92.456C54.4081 91.2048 54.197 89.952 54.0085 88.6941C53.3441 84.2648 52.9226 79.7989 52.7097 75.3254C52.6046 73.1183 52.5721 70.9092 52.5908 68.6997C52.6003 67.5672 52.6373 66.4315 52.7174 65.3018C52.7986 64.1583 52.9673 63.0377 53.118 61.9052C53.1233 61.8653 53.1795 61.863 53.1819 61.9052C53.2533 63.1749 53.3651 64.4431 53.4199 65.7162C53.4722 66.9309 53.4951 68.1475 53.5367 69.3627C53.5914 70.96 53.6671 72.5583 53.7674 74.1555C53.9491 73.9568 54.2228 73.8423 54.4967 73.887C54.8935 73.8037 55.3207 73.5955 55.699 73.4691L57.1252 72.9927C57.875 72.7423 58.6247 72.4936 59.3771 72.2524C58.7044 69.9894 58.2436 67.6926 57.8501 65.3623L57.6746 64.3143C57.3273 62.2514 56.9527 60.1877 56.3236 58.19C55.6621 56.0898 54.6723 54.1373 53.3592 52.3691C52.0649 50.6264 50.4901 49.092 48.8687 47.6568C47.4806 46.4281 45.9957 45.3188 44.5799 44.1239C44.5948 44.2031 44.5979 44.2903 44.5849 44.3861C44.2839 46.5892 43.1346 48.6409 41.5329 50.1669C38.3151 53.2326 33.552 53.8686 29.4337 52.431C25.4499 51.0405 21.9277 47.7471 20.6833 43.6718C20.662 43.6021 20.7554 43.5744 20.7929 43.6256C20.862 43.7202 20.9313 43.8148 21.0008 43.9094C20.9961 43.8718 21.0156 43.8309 21.062 43.813C22.5139 43.2524 23.9397 42.4573 25.028 41.3326C25.5585 40.7843 26.0214 40.1632 26.3869 39.4933C26.562 39.1724 26.7192 38.8401 26.8447 38.4967L26.8765 38.4079C27.0286 37.9778 27.1556 37.5392 27.473 37.1984Z" fill="black"/>
<path fill-rule="evenodd" clip-rule="evenodd" d="M49.9126 25.2892C50.4394 21.4793 49.3144 17.8025 47.8569 14.3205C47.7769 14.1084 47.6499 13.9247 47.4867 13.7942C43.3736 5.48648 37.3298 4.73418 28.8983 5.30639C28.6492 5.30077 28.6344 5.3052 28.4453 5.2204C28.414 1.84557 24.5677 0.0579289 21.6408 1.17142C8.65983 7.21651 12.7416 24.2351 15.3247 35.3458C16.2463 39.6468 17.1681 43.9475 18.0899 48.2483C18.1208 48.3922 18.186 48.5165 18.2727 48.6214C18.1405 48.6715 18.0075 48.7193 17.8736 48.7648C17.5737 48.8671 17.6929 49.3151 18.005 49.2425C18.3109 49.1713 18.6057 49.076 18.8973 48.9721C19.352 49.0709 19.7332 48.7732 20.0901 48.5358C24.2699 46.8795 26.0246 41.4359 27.0967 37.4257C31.4554 40.5076 38.4202 42.8157 43.4039 40.0444C48.0737 37.2263 49.7554 31.3478 49.4237 26.1592C49.7644 26.002 49.902 25.6594 49.9109 25.3022H49.9129C49.9128 25.2979 49.9126 25.2936 49.9126 25.2892Z" fill="#D08B5B"/>
<path fill-rule="evenodd" clip-rule="evenodd" d="M24.1686 0.884063C23.3222 0.778296 22.4466 0.864886 21.6408 1.17145C8.77023 7.16514 12.6734 23.9464 15.2585 35.061L15.3248 35.3458C16.0156 38.5701 16.7066 41.7943 17.3976 45.0184L18.0899 48.2483C18.1209 48.3922 18.186 48.5166 18.2728 48.6214C18.1405 48.6715 18.0075 48.7193 17.8736 48.7648C17.5737 48.8671 17.6929 49.3151 18.005 49.2425C18.3109 49.1714 18.6057 49.076 18.8973 48.9721C19.3113 49.0622 19.6644 48.8234 19.9936 48.6008C20.026 48.5789 20.0582 48.5571 20.0901 48.5358C21.7758 47.8679 23.067 46.5839 24.0782 45.0262C24.8641 42.3388 26.7739 38.0746 26.7739 38.0746L25.9693 36.2154L22.2998 31.0523C22.2998 31.0523 19.2386 30.5818 19.2386 27.5369C19.2386 24.492 20.0377 24.65 20.0377 24.65L19.4717 18.8357C19.4717 18.8357 21.1701 11.6768 22.4584 10.4202C23.7465 9.16364 27.668 6.32719 27.668 6.32719C27.668 6.32719 28.0401 4.17989 27.8416 3.10347C27.6955 2.86775 27.5266 2.647 27.3374 2.4444C26.5116 2.08142 24.5928 1.10148 24.1686 0.884063Z" fill="#724133"/>
<path fill-rule="evenodd" clip-rule="evenodd" d="M20.4429 1.48882C21.4066 0.863254 22.6435 0.630414 23.7788 0.67601C24.3844 0.7003 24.9497 0.851578 25.5079 1.07879C26.0254 1.28948 26.4816 1.59212 26.9854 1.82274C27.016 1.83672 26.9929 1.87976 26.964 1.87388C26.3673 1.7532 25.6669 1.82615 25.0619 1.91249L25.0017 1.92118C24.4072 2.00769 23.8021 2.05243 23.2161 2.18965C22.1365 2.4426 21.1324 2.9936 20.5398 3.95198C19.7661 5.20362 19.5678 6.82379 19.6505 8.26789C19.6924 8.99854 19.8361 9.71735 20.06 10.4139C20.1943 10.8319 20.5066 11.2525 20.6524 11.6912C20.7633 11.4836 20.878 11.2782 20.9966 11.0749C20.4561 10.8197 20.3046 10.1102 20.2766 9.47002C20.1933 9.38939 20.1397 9.27272 20.138 9.16558C20.1332 8.8776 20.2009 8.61689 20.3158 8.37834C20.3814 7.70266 20.5206 7.02902 20.7601 6.39587C21.7001 3.90996 24.18 1.66959 26.9924 1.89092C27.7653 1.95178 28.5173 2.28067 28.917 2.97987C29.238 3.54135 29.2402 4.21865 29.0187 4.81584C28.9553 4.98676 28.8708 5.14909 28.7673 5.29908C29.0709 5.22241 29.3749 5.14755 29.6794 5.0745C30.7337 4.81985 31.7933 4.62024 32.8727 4.50936C34.3428 4.35834 35.8431 4.58683 37.1901 5.17482C37.5596 5.27001 37.9272 5.37227 38.2927 5.48155C39.9009 5.96206 41.5508 6.58967 42.8497 7.68646C43.4473 8.1911 43.875 8.77814 44.2222 9.4228C45.5225 10.5845 46.7659 11.9015 47.6436 13.4079C49.4519 16.5118 49.8838 20.3512 49.9581 23.8799C50.0264 27.1214 49.7423 30.3962 49.1361 33.5812C48.8609 35.0267 48.416 36.37 47.516 37.5555C46.5138 38.8756 45.1771 39.9156 43.6772 40.6134C40.6236 42.0342 36.8442 42.2408 33.876 40.4806C32.9833 39.9513 33.7871 38.5714 34.6889 39.0871C37.6192 40.7627 41.3589 40.38 44.1784 38.6035C45.3695 37.8531 46.3959 36.8269 47.048 35.5702C47.5242 34.6523 47.7285 33.5997 47.9054 32.5749L47.9995 32.0267C48.5458 28.8752 48.7927 25.6426 48.6613 22.4454C48.5302 19.2562 48.0254 15.802 46.2228 13.0906C45.2719 11.6605 44.0594 10.4077 42.7858 9.2653C42.6964 9.1851 42.6068 9.10513 42.517 9.02538C42.0192 8.72564 41.5033 8.46391 40.9957 8.24053L40.8877 8.19374C40.5957 8.06896 40.1873 7.90789 39.8084 7.77902C39.2668 7.59485 38.7165 7.43121 38.1638 7.28377C37.8742 7.20704 37.5833 7.13504 37.2913 7.0678C37.3934 7.1612 37.4942 7.25607 37.5935 7.35237C38.0642 7.81064 38.4375 8.35524 38.8838 8.83575C38.9342 8.88996 38.8706 8.96905 38.8065 8.93607C38.1279 8.58715 37.3754 8.36129 36.6668 8.0786C35.9969 7.81132 35.3459 7.50365 34.6879 7.20877C34.5231 7.13479 34.3587 7.05578 34.1949 6.97763C33.5477 6.98428 32.9006 6.99953 32.2549 7.03644C33.0355 7.59323 33.7484 8.25127 34.3388 8.97289C34.3876 9.03229 34.3433 9.12749 34.2613 9.10644C33.0252 8.78922 31.8497 8.32311 30.6748 7.83459L30.1127 7.60013C29.6995 7.57916 29.2857 7.56936 28.8719 7.5755L28.6714 7.57882C28.2369 7.58709 27.8033 7.60439 27.3727 7.67036C27.2703 7.68595 27.1699 7.70078 27.0703 7.71442C26.4643 7.96226 25.8812 8.26107 25.3566 8.6549L25.4932 8.64681C26.3228 8.5995 27.1686 8.6711 27.9719 8.8857C29.5329 9.30289 30.8648 10.3075 31.834 11.5883C31.863 11.6267 31.8066 11.68 31.7686 11.654C30.5493 10.8175 29.135 10.3961 27.6861 10.1673C26.9857 10.0566 26.2644 10.0185 25.5574 10.0736C24.9719 10.1192 24.3663 10.3259 23.7838 10.2256C23.6248 10.4244 23.472 10.6281 23.3257 10.8365C23.4028 10.8315 23.4803 10.827 23.5583 10.8233C24.3948 10.784 25.2468 10.8377 26.0636 11.0307C27.695 11.4164 29.0583 12.3978 30.3055 13.4754C30.3301 13.4967 30.2983 13.5347 30.2716 13.5193C28.9191 12.7371 27.3471 12.5033 25.815 12.3622C25.0434 12.2911 24.2632 12.2589 23.4899 12.3206C23.1357 12.3488 22.7854 12.4074 22.4322 12.4438C22.4036 12.4467 22.3739 12.4475 22.3445 12.4489C22.0917 12.928 21.8591 13.4175 21.6471 13.9161C22.2861 13.7442 22.9756 13.6541 23.6354 13.6986C24.9755 13.789 26.3048 14.4048 27.3746 15.1923C27.4082 15.217 27.3894 15.2826 27.3439 15.2654C26.1795 14.8245 25.0251 14.8209 23.8099 14.991C23.2401 15.0708 22.6762 15.179 22.1258 15.3488C21.849 15.4342 21.5755 15.5274 21.3128 15.65C21.1936 15.7056 21.0775 15.7704 20.9601 15.8315C20.8665 16.1511 20.782 16.4733 20.7067 16.7977C22.693 16.9099 24.5643 17.8495 26.1928 18.9278C26.2322 18.9538 26.2076 19.0265 26.159 19.0081C25.1868 18.6405 24.1292 18.4705 23.098 18.3716C22.1964 18.2851 21.3115 18.3321 20.415 18.3573C20.3668 18.6984 20.3284 19.0408 20.3 19.3841C20.4441 19.4246 20.5856 19.4682 20.7216 19.5092C21.1689 19.6439 21.6152 19.8251 22.0326 20.0353C22.8803 20.4622 23.5672 21.0393 24.2584 21.6808C24.2945 21.7143 24.2569 21.7874 24.208 21.7675C23.4057 21.4426 22.5292 21.2344 21.6846 21.0503C21.248 20.955 20.8098 20.867 20.3702 20.7863C20.3273 20.7787 20.2843 20.7717 20.2411 20.7654C20.237 21.5475 20.2811 22.3298 20.3784 23.1058L20.3973 23.2512C20.45 23.6439 20.4069 24.0238 20.1474 24.295C20.5063 24.056 20.9169 23.8904 21.3721 23.8269C22.5704 23.6598 23.6801 24.1396 24.4342 25.0677C24.4695 25.1111 24.4151 25.168 24.3722 25.1298C23.6404 24.4773 22.5126 24.3618 21.6037 24.669C20.7622 24.9534 20.1296 25.6324 19.8761 26.4821C19.6067 27.385 19.7301 28.3818 20.2214 29.1867C20.4662 29.5877 20.8197 29.9461 21.2621 30.1225C21.3167 30.1443 21.3723 30.1624 21.4286 30.1782C21.6956 30.0804 21.983 30.1247 22.2576 30.2487L22.2932 30.2655C22.4684 30.2644 22.6429 30.2591 22.8124 30.2606C23.1423 30.2638 23.3009 30.6147 23.1624 30.876C23.2409 31.0201 23.2984 31.182 23.3674 31.3232C23.492 31.5781 23.6224 31.8313 23.7536 32.0829C23.9391 32.2961 24.1162 32.5168 24.2365 32.7742C24.2878 32.8827 24.3317 32.9945 24.3681 33.1089C24.4714 33.2647 24.5764 33.4193 24.6833 33.5725C25.0303 34.0692 25.3958 34.5398 25.801 34.9907C26.0446 35.2617 26.3248 35.5037 26.5827 35.7635C26.6608 35.7739 26.7375 35.8272 26.7616 35.9039L26.7827 35.9773C26.8658 36.0712 26.9453 36.1678 27.0169 36.2708C27.1758 36.4991 27.1323 36.7307 26.9927 36.8977C27.2137 38.2797 27.0632 39.7501 26.7675 41.0902C26.5763 41.9561 26.3531 42.8212 26.0534 43.6566C25.9011 44.0812 25.7166 44.489 25.4618 44.862C25.322 45.0664 25.14 45.3044 24.9359 45.4989C24.9049 45.7253 24.8646 45.9498 24.8068 46.1698C24.1221 48.7775 21.3193 49.5714 18.9726 49.9045C18.5195 49.9687 18.0712 49.8591 17.8245 49.4362C17.7685 49.34 17.7293 49.2348 17.7087 49.1252C17.6037 49.0972 17.5055 49.0481 17.4199 48.981C17.4054 49.1457 17.3877 49.3102 17.3667 49.4742C17.3131 49.8885 16.7549 50.0131 16.615 49.5761C16.0246 47.7316 15.7038 45.7868 15.2993 43.8914C14.8955 42.0001 14.4447 40.1188 14.0276 38.2303L13.4994 35.8469C12.2105 30.0109 11.0034 24.1002 11.2997 18.0979C11.4614 14.8214 12.0613 11.5535 13.3454 8.5257C14.4149 6.0034 16.2202 3.16967 19.1364 2.65396C19.1564 2.65047 19.1743 2.65252 19.191 2.65678C19.5373 2.2055 19.951 1.80808 20.4429 1.48882ZM22.2026 33.2125C22.4377 33.9943 22.6056 34.7958 22.6969 35.6137C22.8491 36.9769 22.7737 38.3734 22.7076 39.7403C22.6468 40.996 22.5024 42.2627 22.2567 43.4957C22.0209 44.6797 21.6513 45.8405 21.1018 46.9175C21.013 47.0909 20.918 47.2611 20.8171 47.4277C21.1209 47.3262 21.3954 47.2081 21.6811 47.0443C22.0407 46.838 22.3699 46.5721 22.5499 46.2916C22.8389 45.8417 22.9358 45.3418 22.9781 44.8056C23.0868 43.4264 23.1371 42.0432 23.2064 40.6617L23.2218 40.3609C23.3339 38.2024 23.4808 35.9889 23.2613 33.8281C22.9525 33.7468 22.6739 33.5872 22.4168 33.3869C22.3442 33.3303 22.2728 33.2721 22.2026 33.2125ZM19.854 30.5988C19.9189 31.2554 19.981 31.9121 20.0372 32.5692C20.2366 34.902 20.3598 37.2477 20.2465 39.5886C20.1875 40.8076 20.0689 42.03 19.8639 43.2335C19.7716 43.776 19.6598 44.3183 19.5351 44.8548L19.493 45.0335C19.3664 45.565 19.2857 46.2292 18.8802 46.6157L18.8833 46.6959C19.1679 46.263 19.4312 45.7762 19.6198 45.3231C20.46 43.3041 20.6135 41.1063 20.7654 38.9535C20.8589 37.6268 20.9281 36.2984 21.0364 34.9727L21.089 34.3348C21.1493 33.5924 21.2012 32.8554 21.1942 32.1137C21.0323 31.8719 20.9008 31.6177 20.8192 31.3567C20.8064 31.3152 20.797 31.2728 20.7908 31.2298C20.4485 31.0673 20.1263 30.8454 19.854 30.5988ZM24.4529 35.2184C24.6217 35.7813 24.7595 36.3514 24.8577 36.9239C25.014 37.8351 25.1078 38.7521 25.149 39.6721L25.2353 39.347C25.4524 38.534 25.6832 37.72 25.9691 36.931C25.5168 36.6136 25.1388 36.1152 24.81 35.6986C24.6865 35.5419 24.5674 35.3818 24.4529 35.2184ZM17.9749 10.1838C17.801 10.7461 17.6491 11.3148 17.492 11.8818C17.1231 13.2135 16.8836 14.5818 16.7174 15.9526C16.0543 21.4257 16.6066 26.921 17.3289 32.3583C17.6283 34.6112 17.9536 36.8608 18.233 39.1163C18.2403 38.895 18.2466 38.6737 18.2505 38.4526C18.3354 33.665 17.5313 28.9445 17.2093 24.1816L17.19 23.8913C17.044 21.6644 16.9547 19.3959 17.2189 17.1771C17.3548 16.0351 17.5943 14.9174 17.9129 13.8139L18.1026 13.1656C18.2309 12.7298 18.3671 12.2823 18.5289 11.8485C18.5073 11.8069 18.4867 11.7649 18.4676 11.7229C18.2438 11.23 18.0881 10.7118 17.9749 10.1838ZM18.5351 3.73209C16.8659 5.88868 15.4653 8.1795 14.6179 10.8144C12.6784 16.8447 13.1114 23.2931 14.2353 29.4399C14.7649 32.3361 15.4478 35.1985 16.071 38.0746C15.404 32.9099 14.5438 27.7565 14.4069 22.5422C14.3321 19.6963 14.479 16.8371 15.0022 14.0351L15.0331 13.8704C15.2573 12.6862 15.535 11.4316 16.1036 10.3675C16.4123 9.78962 16.7531 9.25039 17.1573 8.73425C17.3276 8.51658 17.519 8.34203 17.722 8.1824C17.6625 6.69578 17.8868 5.08371 18.5351 3.73217V3.73209ZM21.2583 26.7092C22.0887 26.7419 22.9183 26.9739 23.5723 27.5148C24.0838 27.9377 23.3543 28.6526 22.8469 28.2416C22.2951 27.7946 21.8002 27.2869 21.212 26.8804C21.1419 26.8319 21.1612 26.7054 21.2583 26.7092ZM19.8807 24.492C19.6961 24.5874 19.5126 24.6066 19.3035 24.5552C19.296 24.5533 19.2886 24.5512 19.2813 24.5489L19.2385 24.535C19.2568 24.7334 19.276 24.9318 19.2951 25.1302C19.4638 24.8921 19.6595 24.6764 19.8807 24.492ZM19.0541 12.5183C18.9812 13.1338 18.9322 13.7519 18.9072 14.3713C18.8825 14.9745 18.8721 15.5797 18.8693 16.1851L18.8685 16.4445L18.8696 16.4396C19.1564 15.2132 19.5599 14.0172 20.0748 12.8681C19.9859 12.8829 19.8957 12.8806 19.807 12.8698C19.6039 12.8452 19.4091 12.7549 19.2348 12.6493C19.1715 12.6101 19.1111 12.5663 19.0541 12.5183ZM27.5244 5.3861C27.1695 5.54683 26.8268 5.73161 26.4706 5.88868C25.7643 6.20027 25.0732 6.56249 24.4195 6.97371C23.758 7.38987 23.1207 7.82803 22.5347 8.34706C22.466 8.40791 22.398 8.46945 22.3301 8.5309C22.316 8.66548 22.3067 8.8005 22.3019 8.93573C22.2996 9.01167 22.2991 9.08766 22.3003 9.16362C23.4062 7.79087 24.7432 6.7078 26.4394 6.02641C26.7334 5.90837 27.0322 5.80311 27.3338 5.70587C27.4067 5.60515 27.4705 5.49814 27.5244 5.3861ZM27.4929 4.06925C27.2956 3.80692 26.7287 3.82831 26.3713 3.88678C25.7933 3.98138 25.2842 4.18388 24.7888 4.47706C24.2032 4.82342 23.6981 5.29269 23.3029 5.84462C23.4976 5.73435 23.696 5.63097 23.8979 5.53465L24.0365 5.46902C24.8029 5.10902 25.633 4.76675 26.4712 4.6551C26.859 4.60354 27.2761 4.52879 27.6679 4.5709C27.6486 4.37999 27.5919 4.20101 27.4929 4.06925Z" fill="black"/>
<path fill-rule="evenodd" clip-rule="evenodd" d="M41.0749 33.0016C41.2057 32.7743 41.5067 32.5637 41.7822 32.596C43.0162 32.7407 43.014 34.2368 42.5375 35.1102C42.1151 35.8847 41.2407 36.3393 40.3656 36.2729C39.4462 36.2031 38.6629 35.6626 38.3182 34.8025C38.0902 34.2337 37.9849 33.1834 38.5913 32.8012C38.6026 32.794 38.6212 32.7958 38.6301 32.8061C38.9209 33.1444 38.9323 33.6522 39.1869 34.0289C39.4237 34.3791 39.7915 34.6684 40.2224 34.7131C40.5442 34.7465 40.8698 34.6304 40.9957 34.3415C41.0638 34.1852 41.056 34.1004 41.0305 33.9928L41.0072 33.8993C40.9266 33.5719 40.8904 33.3227 41.0749 33.0016ZM41.4049 26.4404C42.0484 26.8316 43.029 27.7438 42.3367 28.7137C41.5217 29.5687 40.3484 28.5883 39.7702 28.1448C39.234 27.8012 38.6316 28.685 39.1291 29.0864C43.3072 32.1797 45.0028 26.5427 41.7303 25.9804C41.3701 25.9185 41.2362 26.3194 41.4049 26.4404ZM34.6086 23.7579C35.0036 23.1653 35.9053 23.2525 36.1229 23.9558C36.2408 24.3368 36.078 24.6793 36.0864 25.0597C36.0935 25.3811 36.0724 25.7392 35.9739 26.0505C35.7493 26.7602 35.1109 27.2616 34.3557 27.2408C33.603 27.22 32.94 26.7436 32.6247 26.0726C32.3084 25.3991 32.3754 24.702 32.6063 24.0171C32.6174 23.9842 32.6605 23.9683 32.6865 23.996C32.9595 24.2861 33.1594 24.5924 33.3662 24.9173L33.5782 25.2503C33.7401 25.501 33.9755 25.8213 34.2779 25.8012L34.3232 25.7968C34.4074 25.7895 34.3944 25.8062 34.4593 25.6917C34.4893 25.6387 34.4838 25.5401 34.4983 25.4776L34.5033 25.4564L34.5006 25.445C34.4942 25.4147 34.4878 25.3577 34.4827 25.2585L34.4816 25.2367C34.4597 24.7733 34.3287 24.1779 34.6086 23.7579ZM44.6221 24.1525C44.5513 23.3944 45.617 23.2261 45.9712 23.787C46.156 24.0795 46.2098 24.4469 46.2507 24.795L46.2698 24.9602C46.3117 25.3178 46.3284 25.6897 46.1732 26.0232C45.9287 26.5485 45.3972 26.8261 44.8237 26.7821C44.2762 26.74 43.7766 26.4226 43.5132 25.9406C43.2784 25.5106 43.045 24.6709 43.3301 24.2223C43.3474 24.1952 43.3818 24.1917 43.4054 24.2126C43.6749 24.4519 43.7188 24.8882 43.879 25.1999C44.0443 25.5214 44.2949 25.8347 44.6748 25.8835C45.0382 25.9302 45.177 25.7317 45.0843 25.3853C44.9647 24.938 44.6671 24.6337 44.6221 24.1525ZM34.8964 19.2514L35.0707 19.1846C35.6678 18.9591 36.4876 18.6983 36.973 19.1838C37.2725 19.4833 37.3295 19.9243 37.1158 20.2897C36.8568 20.7323 36.3922 20.7431 35.9436 20.8084C35.4333 20.8825 34.9144 21.0235 34.4393 21.2245C33.9042 21.4509 33.4076 21.7332 32.921 22.0485C32.4585 22.348 31.9977 22.8377 31.4442 22.93C31.4216 22.9337 31.3959 22.924 31.3901 22.8992C31.2643 22.358 31.6137 21.8253 31.9255 21.4032C32.3027 20.892 32.7598 20.4724 33.2706 20.0962C33.7636 19.7331 34.327 19.4707 34.8964 19.2514ZM45.7431 21.1756L45.7963 21.1662C46.1584 21.1059 46.4865 21.1198 46.7594 21.4065C46.9677 21.6254 47.048 21.9089 46.9487 22.1981C46.8571 22.465 46.6522 22.7361 46.3549 22.792C45.351 22.9808 44.239 22.9496 43.2301 22.8066C42.7685 22.7412 42.3027 22.6612 41.8531 22.5348L41.6462 22.4748C41.2709 22.3676 40.8412 22.2556 40.5685 21.9796C40.4705 21.8803 40.527 21.7384 40.6443 21.6924C41.12 21.5062 41.7721 21.6053 42.2794 21.5906C42.8695 21.5738 43.4605 21.5296 44.0478 21.4687C44.6218 21.409 45.1771 21.2794 45.7431 21.1755V21.1756Z" fill="black"/>
</svg>
