<svg width="60" height="53" viewBox="0 0 60 53" fill="none" xmlns="http://www.w3.org/2000/svg">
<path fill-rule="evenodd" clip-rule="evenodd" d="M60.1094 84.5358C59.7659 82.5957 59.451 80.6506 59.1648 78.7011C59.0289 77.7756 58.8964 76.8492 58.7773 75.9212C58.6938 75.2711 58.5667 74.5276 59.0091 74.0462C59.6315 73.3685 60.1969 72.7884 60.2731 71.8176C60.3447 70.9042 60.0359 69.9085 59.8428 69.0219C59.4378 67.1626 58.9336 65.3263 58.3764 63.5073C57.8104 61.6594 57.1898 59.8288 56.5602 58.0016C55.9717 56.2934 55.4058 54.5696 54.6392 52.9306C53.1843 49.8203 50.7229 47.5168 47.681 45.9788C46.9244 45.5963 45.3813 44.2308 44.5909 43.9251C43.8643 43.644 43.8669 44.4648 43.1518 44.1556C42.5801 43.9085 42.0477 43.5789 41.7276 43.0269C41.3801 42.4275 40.5084 41.5892 40.3757 40.8915C40.0946 39.4127 40.3992 38.154 39.3437 37.041C38.4067 36.0526 37.1473 35.3755 35.8442 35.012C32.9775 34.2125 29.1544 34.7715 27.4248 37.4353C26.5987 38.7074 26.31 40.2451 25.1953 41.2832C24.2219 42.1897 24.4398 42.8095 23.1791 43.2767C23.1077 43.3032 21.1723 42.888 21.1009 42.9146C19.7218 42.6195 18.4036 43.4456 17.1384 43.9251C15.252 44.6396 13.4561 45.5698 11.7689 46.6753C8.3666 48.9044 5.45268 51.799 3.05047 55.0745C0.628307 58.3771 -1.25104 62.0787 -2.58919 65.9475C-2.91433 66.8872 -3.20599 67.8383 -3.46362 68.7988C-3.60766 69.3363 -3.76166 69.8938 -3.58618 70.4441C-3.44266 70.8943 -3.1234 71.2295 -2.74848 71.4996C-2.24027 71.8658 -1.22087 72.1039 -1.24081 72.8404C-1.2559 73.4003 -1.44587 73.9897 -1.5386 74.5431C-1.64897 75.202 -1.73973 75.8649 -1.83033 76.5268C-2.24283 79.5398 -2.56388 82.5696 -2.70587 85.608C-2.84564 88.5994 -2.96164 91.6523 -2.75411 94.6429C-2.74047 94.8398 -2.68166 95.0213 -2.58672 95.1739C-2.67536 95.208 -2.68218 95.3733 -2.57189 95.3963C-2.49468 95.4125 -2.41763 95.4296 -2.34041 95.4457C-2.18002 95.5668 -1.97999 95.6409 -1.74979 95.6486C-1.59382 95.6537 -1.43786 95.6605 -1.28189 95.6682C0.362995 96.0125 2.0078 96.3372 3.67424 96.5835C5.69993 96.8818 7.73157 97.1256 9.76953 97.3242C13.9572 97.7315 18.1118 97.596 22.305 97.377C26.4917 97.1571 30.6759 97.106 34.867 97.2151C39.0617 97.3242 43.2549 97.5065 47.4506 97.5815C52.138 97.6651 56.8182 97.5372 61.4921 97.1639C62.1329 97.1136 62.5294 96.6031 62.403 95.9673C61.6457 92.1534 60.7876 88.3659 60.1094 84.5358Z" fill="#694D3D"/>
<path fill-rule="evenodd" clip-rule="evenodd" d="M17.1384 43.9251L17.2299 43.8898C18.4672 43.4065 19.755 42.6266 21.101 42.9146C21.1486 42.8969 22.0244 43.0755 22.6242 43.1886L22.0549 43.7829L21.05 43.9762C24.5165 49.6974 28.6164 52.5579 33.3495 52.5579C38.0828 52.5579 41.6744 49.6974 44.1244 43.9762L44.4587 43.8837C44.5 43.8933 44.544 43.9068 44.591 43.9251C45.3814 44.2308 46.9244 45.5962 47.681 45.9787C50.7229 47.5168 53.1843 49.8202 54.6392 52.9306C55.3803 54.515 55.9337 56.1785 56.5014 57.8307L56.5602 58.0016C57.1898 59.8287 57.8104 61.6593 58.3764 63.5073C58.9094 65.2472 59.3939 67.0029 59.7894 68.7795L59.8428 69.0219C60.0359 69.9085 60.3448 70.9041 60.2731 71.8176C60.246 72.1634 60.1567 72.4597 60.0249 72.7284L53.1687 75.1955L56.4351 97.4733C53.4431 97.602 50.4483 97.6352 47.4506 97.5815C43.2549 97.5065 39.0617 97.3242 34.867 97.2151C30.8029 97.1094 26.7454 97.1545 22.6856 97.3574L21.6546 97.4102C17.6819 97.6088 13.7406 97.7102 9.76953 97.3241L9.49894 97.2977V94.0386L10.8939 75.8928L3.82467 74.5622L-3.1147 71.1918C-3.32436 70.9822 -3.4926 70.7376 -3.58618 70.4441C-3.74871 69.9344 -3.62862 69.4185 -3.4955 68.9181L-3.46354 68.7987C-3.2059 67.8383 -2.91424 66.8872 -2.5891 65.9475C-1.25104 62.0787 0.628311 58.377 3.05047 55.0745C5.45277 51.799 8.36669 48.9044 11.7689 46.6752C13.4561 45.5698 15.252 44.6396 17.1384 43.9251Z" fill="#FFCF77"/>
<path fill-rule="evenodd" clip-rule="evenodd" d="M19.7929 42.8208C20.2263 42.802 20.6683 42.8721 21.1008 42.9146C21.1384 42.9183 21.1527 42.9764 21.1103 42.9853C20.3364 43.147 19.5709 43.3681 18.8109 43.5928L18.4854 43.6891C17.6283 43.9427 16.7963 44.2042 15.9665 44.5424C14.3127 45.2164 12.7421 46.1261 11.2966 47.1712C5.73019 51.1958 1.7015 57.289 -0.840833 63.5976C-1.53167 65.3114 -2.11588 67.0662 -2.59012 68.8521C-2.70514 69.2865 -2.81396 69.7226 -2.91654 70.1601C-2.94671 70.2884 -3.07822 70.6168 -3.00603 70.7481C-2.94237 70.8641 -2.69453 70.9357 -2.57938 70.9961L-2.19066 71.1977C-1.4324 71.5884 -0.169327 72.2309 -0.0426793 72.2934L0.154878 72.3907C3.38584 73.9746 6.83823 75.3178 10.4741 75.4108L10.5026 75.1003C10.6647 73.3837 10.8774 71.6581 11.3417 69.9942C11.3667 69.9048 11.4805 69.935 11.4909 70.0144C11.7495 71.9841 11.6669 73.9692 11.5766 75.948C11.4168 79.4529 11.2046 82.9557 11.016 86.4585C10.9216 88.2117 10.7995 89.9622 10.6893 91.7145C10.5789 93.4693 10.5432 95.2668 10.2912 97.0071C10.235 97.3949 9.78062 97.6063 9.43647 97.5654C9.05567 97.5202 8.76275 97.1844 8.76096 96.8C8.75636 95.7858 8.88377 94.7597 8.95459 93.7489C9.02184 92.7875 9.09403 91.827 9.168 90.8665C9.43834 87.3611 9.74934 83.86 10.037 80.3554C10.1389 79.1128 10.249 77.8713 10.3624 76.6297C6.5107 76.5055 2.91232 75.0789 -0.520463 73.412C-0.570151 74.5402 -0.690066 75.6663 -0.806316 76.7898C-1.13061 79.925 -1.41654 83.0588 -1.63046 86.2037C-1.73862 87.7923 -1.81728 89.3827 -1.8858 90.973C-1.93073 92.0153 -1.96445 93.0579 -1.98697 94.1009L-1.99865 94.6983C-2.00828 95.0767 -2.04671 95.427 -2.36512 95.7023C-2.68865 95.9827 -3.12552 95.9972 -3.44563 95.7023C-3.87416 95.3077 -3.79839 94.7708 -3.78569 94.2406C-3.75368 92.8997 -3.70325 91.5592 -3.63441 90.2196C-3.47367 87.0969 -3.15245 83.9869 -2.73271 80.8898L-2.5689 79.694C-2.26294 77.4713 -1.92697 75.198 -1.24294 73.0568C-1.5089 72.9245 -1.77439 72.7912 -2.03938 72.657C-2.50865 72.4194 -2.99384 72.1964 -3.4499 71.9342C-3.81186 71.7262 -4.12396 71.4408 -4.22461 71.0197C-4.33703 70.5505 -4.16521 70.0374 -4.05109 69.5797L-4.0412 69.5395C-3.92895 69.0786 -3.80905 68.6197 -3.68154 68.1628C-3.16592 66.31 -2.52842 64.4934 -1.78225 62.7211C-0.288219 59.1729 1.64022 55.8021 3.99582 52.7543C6.11627 50.0108 8.62102 47.5229 11.5568 45.6569C12.992 44.7446 14.5215 43.9956 16.139 43.466C16.8951 43.2185 17.7177 43.0032 18.5093 42.9146C18.9362 42.8668 19.3638 42.8395 19.7929 42.8208ZM27.473 37.1984C27.9881 36.6452 29.0116 37.2176 28.7642 37.9501C28.1825 39.6733 27.256 41.2451 25.8102 42.3775C24.4512 43.4419 22.8306 44.1332 21.0853 43.9857C21.073 43.9847 21.061 43.9815 21.0499 43.9762L21.2003 44.1803C22.381 45.7775 23.6267 47.3527 25.1282 48.6582C28.1872 51.3182 32.3523 52.7529 36.3742 51.7323C39.5385 50.9294 42.3263 48.4272 43.1462 45.2384C43.0286 45.291 42.8889 45.309 42.7356 45.2757C42.0796 45.1333 41.4302 44.4434 41.0071 43.9487C40.5494 43.4136 40.192 42.8357 39.93 42.1825C39.4505 40.9871 39.2968 39.448 39.9515 38.29C40.0323 38.1473 40.2186 38.2273 40.2345 38.3667L40.2593 38.5842C40.3856 39.6694 40.5428 40.7192 41.0545 41.7085C41.3049 42.1926 41.6051 42.6651 41.9705 43.0705C42.166 43.2874 42.3779 43.4947 42.6068 43.6766C42.8297 43.8538 43.0996 43.9819 43.2995 44.1852L43.3361 44.2242L43.3372 44.2173C43.3877 43.7876 43.689 43.5983 43.9838 43.6102C44.269 43.6217 44.6041 43.7472 44.7339 43.8074L44.7462 43.8132C46.7364 44.7686 48.5694 46.0138 50.2944 47.3954C53.8617 50.2525 56.5345 53.9876 57.8295 58.386C58.4652 60.5448 58.8299 62.7691 59.2148 64.9831L59.4519 66.3396C59.8112 68.3835 60.2127 70.4676 61.0239 72.3688C61.2337 72.8607 61.0719 73.3219 60.5574 73.5153C59.915 73.7569 59.2701 73.9907 58.6243 74.2217C58.9414 75.5822 59.1348 76.9898 59.3724 78.3568C59.8775 81.2631 60.4963 84.1506 61.0269 87.0534C61.2982 88.5372 61.543 90.0261 61.814 91.51C61.9445 92.225 62.0807 92.9384 62.2131 93.6526C62.2845 94.0378 62.3491 94.4247 62.4172 94.81L62.4291 94.8747C62.4681 95.0776 62.5171 95.2881 62.4611 95.4918C62.3973 95.7244 62.216 95.8881 62.0542 96.0551C61.921 96.1923 61.7284 96.1932 61.5652 96.1182L61.5115 96.0935C61.2201 95.9571 60.9916 95.8207 60.8883 95.4918C60.8228 95.2838 60.7992 95.0494 60.7564 94.8347C60.6743 94.4239 60.5965 94.0114 60.5231 93.5989C60.3761 92.7728 60.2326 91.9461 60.0925 91.1188L59.9616 90.3441C59.5124 87.6739 59.0859 84.9875 58.8702 82.2892C58.7745 81.0918 58.6732 79.896 58.5708 78.6994L58.4941 77.8025C58.3969 76.6669 58.2782 75.5025 58.2614 74.3515L57.8751 74.4886L55.9908 75.1548C55.5235 75.3198 54.9287 75.6582 54.4258 75.5967C54.1797 75.5665 53.992 75.489 53.8471 75.3482C54.0206 77.7971 54.2555 80.2421 54.5686 82.6736C54.8534 84.8869 55.1692 87.0969 55.5421 89.2966C55.7268 90.3858 55.9166 91.4742 56.1228 92.56C56.2258 93.1029 56.3322 93.6449 56.4418 94.1861C56.4964 94.4563 56.5614 94.7273 56.6041 94.9992C56.6528 95.3111 56.5669 95.5028 56.3926 95.7602C56.2495 95.9707 55.9632 96.079 55.7312 95.9333C55.4238 95.7406 55.2635 95.5736 55.1731 95.2225C55.0909 94.9029 55.041 94.5705 54.9774 94.2475C54.8601 93.6509 54.7466 93.0534 54.6371 92.456C54.4081 91.2048 54.197 89.952 54.0085 88.6941C53.3441 84.2648 52.9226 79.7989 52.7097 75.3254C52.6046 73.1183 52.5721 70.9092 52.5908 68.6997C52.6003 67.5672 52.6373 66.4315 52.7174 65.3018C52.7986 64.1583 52.9673 63.0377 53.118 61.9052C53.1233 61.8653 53.1795 61.863 53.1819 61.9052C53.2533 63.1749 53.3651 64.4431 53.4199 65.7162C53.4722 66.9309 53.4951 68.1475 53.5367 69.3627C53.5914 70.96 53.6671 72.5583 53.7674 74.1555C53.9491 73.9568 54.2228 73.8423 54.4967 73.887C54.8935 73.8037 55.3207 73.5955 55.699 73.4691L57.1252 72.9927C57.875 72.7423 58.6247 72.4936 59.3771 72.2524C58.7044 69.9894 58.2436 67.6926 57.8501 65.3623L57.6746 64.3143C57.3273 62.2514 56.9527 60.1877 56.3236 58.19C55.6621 56.0898 54.6723 54.1373 53.3592 52.3691C52.0649 50.6264 50.4901 49.092 48.8687 47.6568C47.4806 46.4281 45.9957 45.3188 44.5799 44.1239C44.5948 44.2031 44.5979 44.2903 44.5849 44.3861C44.2839 46.5892 43.1346 48.6409 41.5329 50.1669C38.3151 53.2326 33.552 53.8686 29.4337 52.431C25.4499 51.0405 21.9277 47.7471 20.6833 43.6718C20.662 43.6021 20.7554 43.5744 20.7929 43.6256C20.862 43.7202 20.9313 43.8148 21.0008 43.9094C20.9961 43.8718 21.0156 43.8309 21.062 43.813C22.5139 43.2524 23.9397 42.4573 25.028 41.3326C25.5585 40.7843 26.0214 40.1632 26.3869 39.4933C26.562 39.1724 26.7192 38.8401 26.8447 38.4967L26.8765 38.4079C27.0286 37.9778 27.1556 37.5392 27.473 37.1984Z" fill="black"/>
<path fill-rule="evenodd" clip-rule="evenodd" d="M26.3939 3.34122L27.1285 4.21659C26.7358 4.49332 26.3516 4.78209 25.9766 5.0825L25.9763 5.08164C27.6492 3.98775 29.5021 3.34122 31.5036 3.34122C35.3587 3.34122 43.1892 6.65971 44.9593 9.05332C45.8377 10.2412 47.4702 13.8878 48.317 17.8524C48.9973 21.0379 50.0093 30.0374 48.9973 33.419C47.7022 37.7469 43.4413 41.7469 39.0477 41.7469C34.6542 41.7469 27.833 38.5683 22.9783 31.6025C22.7563 31.284 20.2071 30.9148 18.3886 29.7192L18.866 34.9904L19.2289 38.0567L19.1488 38.2749C17.8464 41.8047 16.8143 43.6462 16.0525 43.7995C15.2752 43.9558 13.6922 42.679 11.3035 39.9688L10.9983 38.685C10.223 35.4101 9.83545 33.6522 9.83545 33.4114L9.83596 33.3675C9.84736 32.8132 10.0379 29.6761 10.0418 28.8319L10.0419 16.1787C12.6108 7.62039 15.0624 3.34122 17.3964 3.34122H26.3939Z" fill="#694D3D"/>
<path fill-rule="evenodd" clip-rule="evenodd" d="M20.307 0.426536C21.0623 0.133354 21.9373 0.188752 22.6543 0.630229C24.0619 0.569718 25.4618 1.39472 26.1957 2.59898C26.211 2.61602 26.2272 2.63307 26.2417 2.65012L26.3972 2.83182C26.5445 3.00526 26.6998 3.19651 26.8229 3.39389C26.2201 3.4077 25.7179 3.65392 25.3673 4.15122C25.1172 4.50611 25.6901 4.84327 25.9458 4.50764L25.9548 4.49537C26.1653 4.19682 26.483 4.08117 26.8367 4.0752C26.9383 4.0735 27.0153 4.03446 27.0698 3.97702C27.0915 4.05628 27.1108 4.13622 27.1286 4.21659C28.9097 3.52242 30.8297 3.33858 32.742 3.50324C32.6574 3.64035 32.5877 3.78616 32.5342 3.93816C32.473 4.11176 32.6035 4.31111 32.7718 4.35747C32.9538 4.40759 33.1183 4.30071 33.1842 4.13554L33.1902 4.11935C33.2637 3.91071 33.3837 3.73165 33.5448 3.59281C34.445 3.71512 35.3388 3.9096 36.2108 4.16043C37.2589 4.46196 38.2971 4.83006 39.3123 5.25151C39.1404 5.31909 38.9918 5.4333 38.8878 5.62395C38.6801 6.00458 39.251 6.3454 39.4676 5.98156L39.4753 5.9681C39.4966 5.92915 39.5154 5.90563 39.5291 5.89225L39.5341 5.88773L39.564 5.87392L39.6198 5.8579L39.6412 5.8527C39.6601 5.84844 39.6679 5.84869 39.7177 5.84588C39.7838 5.84213 39.8501 5.84247 39.9164 5.84247C40.0722 5.8423 40.1716 5.75529 40.2166 5.64398C40.7163 5.86991 41.2103 6.10839 41.6981 6.35921L41.8136 6.41912C43.3133 7.2044 44.7341 8.23565 45.5584 9.75295C45.6129 9.85437 45.6298 9.96517 45.6163 10.0709C45.7923 10.2822 45.9624 10.5004 46.1257 10.722C46.624 11.4004 46.9889 12.1717 47.3342 12.9362C48.029 14.4737 48.4968 16.053 48.8616 17.6995C49.2147 19.2865 49.4995 20.8905 49.7641 22.4944C50.0574 24.2765 50.3015 26.074 50.3526 27.8816C50.4428 31.1041 49.8142 34.3453 48.0086 37.0581C46.3979 39.4785 43.9724 41.4004 41.096 42.0157C38.1703 42.6413 35.0746 42.0311 32.7691 40.0777C32.3973 39.7632 32.4484 39.1282 32.7691 38.8061C33.1322 38.443 33.6679 38.4933 34.0379 38.8061C36.2091 40.6461 39.3695 40.9299 41.9856 39.9924C44.4044 39.1248 46.2992 37.1237 47.4618 34.8762C48.8804 32.1353 49.1194 28.987 48.9016 25.9547C48.7826 24.2893 48.5351 22.6376 48.2799 20.9885L48.1259 19.9958C47.9579 18.9206 47.7814 17.8468 47.5511 16.7825L47.4972 16.5346C47.2159 15.2511 46.8862 13.9348 46.3766 12.7282C46.1095 12.095 45.7881 11.4848 45.459 10.8822C45.3942 10.7636 45.3287 10.6454 45.2624 10.5277C45.1723 10.5592 45.0694 10.5643 44.9614 10.5302C44.0318 10.2405 43.0767 10.0461 42.1047 9.98136C41.6622 9.95224 41.2184 9.94658 40.7753 9.9644C40.017 9.92017 39.2374 9.98699 38.515 10.22C38.4442 10.1595 38.3729 10.0995 38.301 10.0403C38.2816 10.0389 38.2622 10.0364 38.243 10.0328C38.0587 9.99654 37.9291 9.86528 37.8511 9.69952C37.8471 9.69085 37.8433 9.68207 37.8398 9.67318C37.7474 9.60237 37.6541 9.53259 37.5601 9.46386C37.3308 9.52344 37.1299 9.33227 37.0759 9.12279C37.0248 9.08827 36.9729 9.05486 36.9214 9.02102C36.8822 9.03128 36.8421 9.0383 36.8017 9.04199C36.6329 9.05418 36.4699 9.02827 36.3203 8.94756C36.1309 8.84537 36.0099 8.68054 35.9289 8.4933C35.6425 8.51094 35.3526 8.41779 35.0965 8.24938C34.8887 8.11276 34.7295 7.92415 34.5712 7.73588C32.6425 6.87381 30.5459 6.36483 28.4444 6.23443C28.2375 6.27422 28.0322 6.32179 27.8288 6.37702C27.7808 6.39014 27.7126 6.41588 27.6341 6.44673C28.1026 6.38997 28.5772 6.38435 29.0584 6.45381C31.3423 6.78475 33.1211 8.49833 34.652 10.1159C35.0162 10.0421 35.3843 10.5147 35.0472 10.8277L32.4195 13.2678C32.484 13.5407 32.1717 13.8097 31.8981 13.7441C31.4393 13.6339 30.9799 13.5261 30.52 13.4207C30.0403 13.6533 29.4372 13.6135 29.0021 13.2763C28.9819 13.2607 28.9379 13.2356 28.8997 13.2107C28.864 13.2403 28.816 13.2699 28.7968 13.2826C28.6421 13.3852 28.4537 13.4153 28.2729 13.3865C28.087 13.357 27.9192 13.2624 27.7746 13.1447C27.6825 13.0698 27.4679 12.757 27.3485 12.7339L27.3368 12.7326C27.4165 12.7349 27.1603 12.9734 27.0915 13.0228C26.931 13.1376 26.7535 13.1979 26.5537 13.1759C26.2055 13.1376 25.9062 12.8196 25.7359 12.526L25.723 12.5034L25.7177 12.4894L25.7132 12.5046C25.7123 12.5072 25.7114 12.5101 25.7102 12.5133C25.6847 12.5824 25.6046 12.661 25.5501 12.7093C25.395 12.8468 25.203 12.9072 24.9978 12.8713C24.8242 12.8411 24.6782 12.736 24.5609 12.6088L24.5426 12.5885C24.5079 12.5493 24.2791 12.2413 24.3153 12.1674L24.3194 12.1612L24.308 12.1588C24.1689 12.1931 24.0521 12.1588 23.9666 12.0869C23.4891 11.9821 23.0179 11.8599 22.5617 11.7047C22.5259 11.8052 22.491 11.9058 22.4571 12.0072C22.7062 12.1615 22.9366 12.3814 23.1484 12.5382C23.5499 12.8348 23.9513 13.1314 24.3518 13.4288L25.939 14.602L26.1205 14.5532C26.3524 14.4908 26.5514 14.6262 26.6365 14.8329L26.6435 14.8508C26.6764 14.9392 26.7173 15.0244 26.7657 15.1054C27.1625 15.0895 27.4984 15.3336 27.607 15.6838C27.7066 15.6814 27.8062 15.6856 27.9052 15.6964C28.1824 15.727 28.3692 15.9332 28.319 16.2164L28.3152 16.2359L28.3085 16.2674C28.4691 16.3357 28.5857 16.4678 28.6115 16.6674C28.6558 16.733 28.6895 16.8052 28.7114 16.8814C28.8274 17.2892 28.6018 17.7931 28.4817 18.1837L28.4725 18.2143C28.3951 18.4707 28.3159 18.7266 28.2348 18.9819L28.0337 19.6159C27.4761 21.3828 26.9325 23.2458 27.3838 25.0981C27.48 25.4902 26.9798 25.6674 26.7629 25.3606C26.2372 24.6178 25.6691 23.9178 25.0727 23.2459L25.0438 23.2413C24.6261 23.1572 24.4639 22.8615 24.2722 22.5601C24.1581 22.5943 24.0375 22.6006 23.9205 22.5786C23.7505 22.5458 23.5983 22.4486 23.4781 22.3258C23.3763 22.2216 23.283 21.9545 23.1627 21.8883C23.0122 21.8055 22.7096 21.9238 22.5298 21.8972C22.3836 21.8757 22.2471 21.8254 22.1147 21.7622C21.8712 22.0947 21.7099 22.4856 21.6704 22.9069C21.655 23.0672 21.6073 23.2027 21.5385 23.3152C21.7919 23.3058 22.0462 23.3237 22.2972 23.3706C23.2259 23.5436 23.8918 24.118 24.266 24.9737C24.2821 25.0112 24.2336 25.0419 24.2115 25.0061C23.6562 24.1495 22.4476 24.1061 21.5699 24.4078C20.6378 24.7282 20.1148 25.5507 19.9286 26.489C19.7245 27.5177 19.9863 28.6265 20.5452 29.5027C20.8045 29.9101 21.1584 30.2816 21.6286 30.4316C22.1875 30.6098 22.7036 30.291 23.276 30.4555C23.6655 30.5672 23.8374 30.9447 23.7667 31.3223C23.7386 31.4706 23.6868 31.6001 23.617 31.7126C23.8229 32.1217 24.0133 32.5427 24.2557 32.9297C24.6299 33.5271 25.0825 34.0214 25.5757 34.52C26.0851 35.0348 26.6039 35.5393 27.149 36.0166C27.6713 36.4743 28.27 36.7998 28.8177 37.2191C29.2022 37.5132 29.3926 37.9257 29.2029 38.3978C29.0465 38.7882 28.5191 39.1206 28.0922 38.9441C27.2749 38.6066 26.5597 38.0322 25.9083 37.4407C25.3044 36.8919 24.7788 36.2356 24.3816 35.5231C24.007 34.8514 23.7309 34.0886 23.4979 33.3537L23.469 33.262C23.3593 32.9126 23.2437 32.5197 23.1689 32.1234C22.7207 32.3689 22.1125 32.4047 21.6329 32.3382C20.8581 32.2316 20.1513 31.8405 19.6172 31.2703C19.3683 31.005 19.1483 30.7023 18.9583 30.3743C18.9756 30.574 18.9858 30.7672 18.9969 30.943C19.4409 31.4303 19.619 32.1336 19.4614 32.7753C19.8329 33.1585 19.937 33.7337 19.7431 34.2234C20.1497 34.6276 20.1344 35.2707 19.9586 35.8547C20.4393 36.3931 20.4848 37.2318 20.1095 37.8393L20.0982 37.883C20.4771 38.5184 20.3917 39.3397 19.9169 39.9008C20.2411 40.5312 20.191 41.379 19.3805 41.6236C19.0852 41.7127 18.7989 41.6366 18.5847 41.4708C18.7803 42.4457 18.8678 43.4355 18.607 44.4149C18.5031 44.8035 18.1238 45.0873 17.7249 45.0873C17.3915 45.0873 17.1492 44.9194 16.9817 44.6723C17.0013 45.164 16.9715 45.6584 16.8669 46.1569C16.8038 46.458 16.5251 46.6928 16.2292 46.7655C16.3359 46.8861 16.3785 47.0606 16.2761 47.2422C15.8423 48.0118 14.7941 47.6926 14.7233 46.9553C14.4272 46.7339 14.2896 46.3703 14.2326 45.9775C14.1496 45.4046 14.1195 44.8412 14.0254 44.2756L13.9895 44.3094L13.9709 44.3254L13.965 44.3663C13.9111 44.6459 13.7537 44.8416 13.5495 44.9584C13.5939 45.446 13.5118 45.9427 13.203 46.313C12.9974 46.5598 12.6471 46.657 12.3468 46.6034C12.3279 46.6044 12.3086 46.6043 12.2885 46.6016C11.6084 46.5111 11.2149 45.8646 11.3939 45.2712C11.1201 44.9349 11.0047 44.5082 11.0858 44.0865C10.5559 43.7349 10.5667 42.9625 10.7502 42.3422C10.1947 41.9028 9.9857 41.0815 10.2648 40.4287C9.76415 39.8056 9.69449 38.9373 10.0347 38.2278C9.48383 37.7743 9.48698 36.8988 10.0333 36.435C9.74238 35.8562 9.56692 35.1627 9.8577 34.633C9.65257 34.4061 9.53996 34.0828 9.56369 33.7703C9.59848 33.3115 9.90141 32.9944 10.2773 32.7832L10.3033 32.6396C10.3916 32.6506 10.4857 32.6259 10.5686 32.5461C10.6456 32.4717 10.7308 32.4062 10.8225 32.351C10.8688 32.3504 10.9145 32.34 10.9566 32.3205C10.9986 32.3009 11.036 32.2727 11.0664 32.2376C11.2302 32.1819 11.4063 32.1572 11.6017 32.155C12.0236 32.1504 12.0385 31.5181 11.6458 31.4771C11.6145 31.4451 11.5772 31.4196 11.536 31.402C11.4948 31.3845 11.4506 31.3753 11.4058 31.375L11.3333 31.3754C11.1638 31.377 10.9926 31.3875 10.8352 31.455C10.7395 31.4951 10.6568 31.5611 10.5964 31.6456C10.5856 31.7678 10.5193 31.8897 10.3756 31.9904C10.2097 32.1066 9.98281 32.1202 9.80523 32.015C9.55663 31.8677 9.55408 31.6379 9.58274 31.388C9.64551 30.8413 9.33185 30.3269 9.40652 29.7676C9.43961 29.5204 9.52176 29.3069 9.65571 29.1345C9.37327 28.7108 9.32343 28.1639 9.5409 27.6988C9.08785 27.2104 9.00952 26.4575 9.29843 25.8697C9.3026 25.8555 9.30583 25.8409 9.31034 25.8268C9.34299 25.7269 9.38798 25.6368 9.43757 25.5507C9.3129 25.3349 9.24776 25.0897 9.24882 24.8404C9.24988 24.591 9.31711 24.3465 9.4436 24.1317C9.05315 23.6756 9.04073 22.9497 9.38798 22.4583C9.39002 22.4176 9.39428 22.3768 9.39776 22.3361C9.23839 21.9214 9.27666 21.4501 9.47881 21.0645C9.40442 20.8922 9.34964 20.712 9.31552 20.5274C9.22444 20.0348 9.2713 19.5558 9.40737 19.0751C9.4294 18.9993 9.45407 18.9234 9.48043 18.8476C9.48485 18.5183 9.49735 18.1905 9.51385 17.8634C9.44922 17.5864 9.43876 17.282 9.43731 16.9995L9.43689 16.8163C9.43374 16.35 9.40134 15.6672 9.69551 15.2708C9.50662 14.8426 9.58427 14.3032 9.89954 13.9638C9.67825 13.5824 9.63181 13.1141 9.85421 12.6909C9.88993 12.6228 9.93135 12.5594 9.97677 12.4994C9.9584 12.1119 10.0398 11.7122 10.2459 11.3271C10.3797 11.0764 10.5797 10.8593 10.8174 10.6856C10.8131 10.6346 10.8112 10.5835 10.8118 10.5324C10.8159 10.3068 10.8659 10.0804 10.9499 9.86912C10.7991 9.61122 10.7292 9.32051 10.8174 9.00722C10.916 8.65267 11.1755 8.34756 11.4995 8.1754C11.5256 7.84114 11.5777 7.50884 11.6522 7.18097C11.4531 6.73668 11.6116 6.15031 12.0616 5.88858C12.0029 5.53352 12.0558 5.16534 12.3137 4.88801C12.4081 4.78603 12.5229 4.70508 12.6505 4.6504C12.5908 4.29338 12.6581 3.92196 12.9045 3.63125C13.1057 3.39389 13.4039 3.24969 13.7074 3.22847C13.8242 2.6075 14.4162 2.14318 15.0408 2.18017C15.1189 1.90676 15.3054 1.66838 15.5947 1.54753C15.6664 1.51757 15.7415 1.49653 15.8182 1.48489C16.3262 0.971479 17.0823 0.623496 17.7369 0.445286C18.3935 0.267246 19.0592 0.250115 19.6229 0.457047L19.664 0.472559L19.7099 0.466593C19.909 0.444434 20.108 0.43165 20.307 0.426536ZM15.3172 42.5063C15.1419 42.4515 14.9463 42.5712 14.8987 42.7443C14.8485 42.9274 14.9603 43.1088 15.1363 43.1637C15.3557 43.2323 15.5861 43.2494 15.8147 43.2496C15.9985 43.2497 16.1549 43.0928 16.1549 42.9087C16.1549 42.7236 15.9991 42.5679 15.8147 42.5677C15.6288 42.5676 15.4915 42.5608 15.3172 42.5063ZM13.7572 38.8859C13.495 38.8862 13.2701 38.9489 13.0757 39.133C12.9461 39.2558 12.9429 39.493 13.0757 39.6152C13.2099 39.7386 13.4046 39.7458 13.5423 39.6283L13.5688 39.6045C13.5721 39.6016 13.5745 39.5993 13.5765 39.5973C13.5875 39.5902 13.5987 39.5828 13.6104 39.5767L13.5883 39.5913C13.5713 39.6035 13.6105 39.5835 13.6325 39.5741L13.6394 39.5712L13.6416 39.5707L13.6592 39.5694C13.6918 39.5677 13.7246 39.5678 13.7572 39.5678C13.9351 39.5676 14.1056 39.4111 14.0974 39.2268C14.0891 39.0422 13.9479 38.8858 13.7572 38.8859ZM18.7051 36.723C19.0734 36.4968 18.7444 35.9181 18.3751 36.1264L18.3618 36.1343C18.1724 36.2507 17.9396 36.2349 17.7251 36.235C17.2874 36.2353 17.2866 36.9171 17.7251 36.9168L17.7976 36.9166C18.112 36.9142 18.4301 36.8922 18.7051 36.723ZM15.8071 34.2345C15.5289 34.1821 15.2172 34.1352 14.9245 34.1672L14.8759 34.1732H14.7859C14.7076 34.1732 14.6318 34.2047 14.571 34.2543C14.4748 34.2944 14.3836 34.3481 14.3004 34.4203C13.969 34.7083 14.452 35.1888 14.7815 34.9025C14.7998 34.8866 14.8211 34.8734 14.8447 34.8627L14.8628 34.855H15.2267C15.2598 34.855 15.2921 34.8481 15.3234 34.8382C15.4416 34.8544 15.5516 34.8779 15.6262 34.8919C16.0542 34.9726 16.2375 34.3156 15.8071 34.2345ZM15.4964 27.6907C14.9632 27.4429 14.3726 27.4447 13.8794 27.7888C13.5267 28.035 13.8543 28.6154 14.2101 28.3862L14.2228 28.3776C14.267 28.3467 14.3124 28.3209 14.3583 28.2975C14.6087 28.37 14.8607 28.3734 15.1027 28.2843L15.1343 28.2721L15.1531 28.2794C15.5477 28.4628 15.8937 27.8753 15.4964 27.6907ZM21.3032 26.6225C20.7645 26.562 20.7602 25.7092 21.3032 25.7702C22.4497 25.8991 23.49 26.4099 24.252 27.287C24.6064 27.6949 24.0228 28.2918 23.6617 27.902L23.6506 27.8897C23.0447 27.1922 22.2271 26.7263 21.3033 26.6225H21.3032ZM15.2683 22.2441C15.1486 22.231 15.0291 22.2244 14.9115 22.2301C14.6289 22.2438 14.2848 22.4326 14.4088 22.7739C14.5083 23.0473 14.8342 23.0581 14.9951 22.9123C15.062 22.9139 15.1289 22.9184 15.1954 22.9252C15.3731 22.9435 15.5491 22.9774 15.7242 23.012C16.1519 23.0963 16.335 22.4393 15.9051 22.3545L15.7149 22.3168C15.6509 22.3043 15.5862 22.2919 15.5213 22.2807C15.4823 22.2607 15.4398 22.2486 15.3962 22.245L15.3737 22.2441H15.2683ZM11.8881 16.9545L11.8482 16.9491C11.2737 16.8755 10.3515 16.9432 10.2817 17.676C10.2432 18.0819 10.8283 18.1074 10.9438 17.7603C11.3639 17.684 11.7927 17.669 12.2171 17.7156C12.3778 17.5519 12.3791 17.2374 12.1115 17.1589C12.0738 17.0571 11.9949 16.9699 11.8881 16.9545ZM25.0199 15.7167C24.8871 15.5946 24.6694 15.5784 24.5388 15.7167C24.4638 15.7957 24.4005 15.8851 24.3509 15.9821L24.3178 16.0479C24.3122 16.0588 24.3064 16.0697 24.3005 16.0803C24.2893 16.1002 24.2768 16.1191 24.2647 16.1384L24.2565 16.1465L24.2448 16.1586C24.1225 16.2882 24.1069 16.5138 24.2448 16.6407C24.3776 16.7628 24.5952 16.779 24.7259 16.6407C24.8009 16.5616 24.8641 16.4723 24.9138 16.3753L24.9469 16.3097C24.9524 16.2988 24.9582 16.2879 24.9642 16.2772C24.9753 16.2572 24.9879 16.2383 25 16.2191L25.0135 16.2055L25.0199 16.1989C25.1423 16.0693 25.1577 15.8436 25.0199 15.7167ZM18.0438 14.8289C17.5644 14.4885 16.9945 14.4727 16.5538 14.8822C16.2358 15.1778 16.7031 15.6514 17.0237 15.3745L17.0349 15.3643C17.0466 15.3534 17.0584 15.3439 17.0701 15.3347C17.1296 15.3864 17.2055 15.4149 17.2842 15.415C17.3061 15.4151 17.3278 15.415 17.3496 15.4155L17.3823 15.4166L17.3998 15.4181L17.402 15.4185L17.4173 15.4251C17.4453 15.4377 17.4839 15.4572 17.4309 15.424C17.4427 15.4302 17.4538 15.4375 17.465 15.4447L17.4846 15.4625C17.6128 15.584 17.8347 15.6001 17.962 15.4657C18.1875 15.3893 18.3072 15.0158 18.0438 14.8289ZM22.7301 13.7121L22.7388 13.7093C23.1591 13.589 22.9804 12.931 22.5579 13.0518C22.1096 13.18 21.8956 13.5981 21.8059 14.0263C21.7683 14.2063 21.8587 14.3948 22.0436 14.4457C22.2125 14.4921 22.4241 14.3886 22.4621 14.2075C22.4887 14.0803 22.5193 13.9723 22.5679 13.8721L22.5973 13.8148C22.611 13.7887 22.6158 13.7845 22.6622 13.7438C22.67 13.737 22.7054 13.7205 22.7301 13.7121ZM15.6112 10.2781L15.5454 10.2631C15.1359 10.1732 14.5925 10.1263 14.3452 10.533C14.1199 10.9036 14.6884 11.2409 14.9225 10.8907C14.9261 10.8906 14.9302 10.8907 14.9349 10.891L14.9427 10.8918L15.0476 10.8833C15.1784 10.8824 15.3035 10.9056 15.4303 10.9357C15.856 11.0366 16.0378 10.3794 15.6112 10.2781ZM30.3104 7.65705C30.6204 7.34639 30.1395 6.86409 29.8294 7.175C29.5842 7.42071 29.3477 7.66813 29.1883 7.98031C29.1047 8.14412 29.1456 8.3502 29.3103 8.44676C29.4623 8.53582 29.6918 8.48895 29.7758 8.32446C29.9139 8.05386 30.0883 7.87983 30.3104 7.65705ZM26.3987 6.84159C26.0925 7.0233 25.8942 7.32261 25.7739 7.66906C25.7135 7.84293 25.8427 8.04193 26.0115 8.08838C26.1929 8.13833 26.3587 8.03188 26.4239 7.86645L26.43 7.85026C26.4622 7.75761 26.5137 7.64818 26.5774 7.5656C26.6319 7.49511 26.7165 7.42455 26.7803 7.40111C26.9336 7.34469 27.0423 7.20543 27.0281 7.04281C26.7759 7.13017 26.5418 7.02509 26.3987 6.84159ZM17.2309 5.35864C16.9219 5.07125 16.5074 5.03315 16.1328 5.2071C15.9661 5.28449 15.9243 5.52543 16.0108 5.67355C16.1108 5.84494 16.3089 5.87358 16.4762 5.79585C16.4332 5.8158 16.5108 5.78946 16.5443 5.77983C16.5486 5.78188 16.6047 5.77932 16.6241 5.77957L16.6475 5.78102C16.6476 5.78119 16.6418 5.78102 16.6303 5.78068C16.6466 5.78438 16.6627 5.78879 16.6787 5.79389L16.6989 5.80097C16.6887 5.79884 16.7346 5.82884 16.7474 5.83881L16.7498 5.84068C17.0704 6.13898 17.5527 5.65787 17.2309 5.35864Z" fill="black"/>
<path fill-rule="evenodd" clip-rule="evenodd" d="M34.9433 28.0284C37.2027 28.0284 39.0342 26.4258 39.0342 24.4489C39.0342 22.4719 37.2027 20.8693 34.9433 20.8693C32.6839 20.8693 30.2388 22.4069 30.2388 24.3838C30.2388 25.2226 30.8997 26.6885 31.452 27.2987C32.2012 28.1267 33.6427 28.0284 34.9433 28.0284ZM44.681 27.3434C46.4106 27.3434 47.8126 25.8941 47.8126 24.1063C47.8126 22.3186 46.4106 20.8693 44.681 20.8693C42.9514 20.8693 41.0797 22.2598 41.0797 24.0475C41.0797 24.8061 41.5856 26.1317 42.0083 26.6834C42.5819 27.4322 43.6853 27.3434 44.681 27.3434Z" fill="white"/>
<path fill-rule="evenodd" clip-rule="evenodd" d="M34.8863 30.2521C34.9042 30.2355 34.9325 30.2297 34.9541 30.2433C35.3229 30.4765 35.3665 31.2606 35.3707 31.7135C35.5232 31.7533 35.6739 31.7984 35.8164 31.83C36.119 31.8969 36.4232 31.9552 36.7269 32.0169L36.9545 32.0638C37.7153 32.2241 38.4902 32.3428 39.2655 32.4022C40.0179 32.4598 40.7921 32.4808 41.5423 32.3839C41.8652 32.3416 42.1842 32.2734 42.4961 32.1799C42.8641 32.0701 43.1572 31.8882 43.4995 31.7288C44.3564 31.3297 45.0745 32.4993 44.2498 33.0125C43.5419 33.4529 42.5761 33.6116 41.759 33.6798C40.9237 33.7495 40.0918 33.673 39.2666 33.5409C38.3745 33.398 37.5008 33.1785 36.6547 32.8603C36.2969 32.7257 35.9507 32.5626 35.6127 32.3843L35.5208 32.3353C35.4646 32.3051 35.406 32.2745 35.3472 32.2435C35.2838 32.8083 35.1014 33.3538 34.8809 33.8782L34.8757 33.869C34.7551 34.2827 34.3194 34.5387 33.8859 34.3559C33.3771 34.1416 33.3385 33.5789 33.6345 33.1795L33.6487 33.161C33.9967 32.7132 34.2148 32.1577 34.4044 31.6281C34.5024 31.3556 34.5909 31.0797 34.6697 30.801C34.7262 30.6001 34.7282 30.3981 34.8863 30.2521ZM47.997 25.7544C47.6954 26.6658 47.0377 27.3676 46.1215 27.6762C45.2135 27.982 44.2036 27.8706 43.2754 27.7052C43.0698 27.669 42.865 27.6281 42.6612 27.5825C42.8293 27.6866 42.9778 27.8332 43.1199 27.9882C43.33 28.2174 43.5206 28.4588 43.5784 28.7457C43.6358 29.0302 43.5454 29.2467 43.3806 29.4102C43.127 29.6615 42.718 29.797 42.3717 29.8718C41.5959 30.0394 40.8189 30.0133 40.047 29.8414C39.85 29.7976 39.7162 29.6919 39.6412 29.5541C39.5501 29.3867 39.5426 29.1784 39.595 28.9887C39.6472 28.7992 39.7601 28.6245 39.924 28.5277C40.0589 28.4481 40.2277 28.4263 40.4192 28.49C40.8036 28.6179 41.1852 28.7026 41.5912 28.7124C41.7636 28.7167 41.936 28.7111 42.1077 28.6956C42.2048 28.6866 42.3016 28.6744 42.3978 28.6588C42.3411 28.5832 42.2859 28.5066 42.2322 28.4288C42.1685 28.3371 42.1069 28.2439 42.0475 28.1493C41.8766 27.8755 41.7342 27.5941 41.6091 27.2969C41.5636 27.1886 41.5207 27.0791 41.4806 26.9687C41.4696 26.9595 41.4587 26.9502 41.4478 26.9408C41.2031 26.7291 40.998 26.4683 40.8528 26.1453C40.4599 25.2704 40.5239 24.1844 40.7623 23.2759C40.9534 22.5477 41.3751 21.8741 41.9322 21.4166C42.0295 21.2565 42.0937 21.1594 42.1724 21.0776C42.4926 20.7445 42.9395 20.5199 43.3755 20.3832C44.3493 20.0778 45.4099 20.2968 46.2354 20.8783C46.9976 21.4152 47.5943 22.2203 47.9168 23.1158C48.2222 23.9638 48.2818 24.894 47.997 25.7544ZM34.7322 20.2157C35.8904 20.2058 37.0687 20.5477 38.0085 21.232C38.9077 21.8868 39.6135 22.8536 39.6127 24.0051C39.6118 25.1262 39.0125 26.2286 38.3478 27.0966C37.6018 28.0711 36.6268 28.541 35.4008 28.5518C34.7636 28.5575 34.1218 28.5011 33.489 28.4235L33.1497 28.3807C32.6822 28.3205 32.2099 28.2491 31.7669 28.0885C29.6581 27.3236 29.5928 24.5632 30.3738 22.7988C30.9769 21.4365 32.5032 20.108 34.0252 20.2675C34.2595 20.2349 34.4957 20.2176 34.7322 20.2157ZM36.6883 21.5138C35.238 20.8628 33.4758 21.0578 32.069 21.7524C31.5116 22.3604 31.1044 23.1267 30.9395 23.8302C30.7635 24.5811 30.7893 25.39 31.0539 26.1179C31.3769 27.0064 32.1726 27.2264 33.0308 27.3629L33.3641 27.4153L33.5039 27.4365C34.3471 27.5623 35.2691 27.66 36.0795 27.5026C36.9827 27.327 37.5562 26.5974 38.0078 25.8493L38.0288 25.8142C38.4977 25.0304 38.8901 24.0771 38.4969 23.179C38.1625 22.4156 37.4322 21.8477 36.6883 21.5138ZM45.2485 21.7407C44.7508 21.4648 44.1831 21.4147 43.6456 21.5993C43.4144 21.6787 43.2147 21.8074 43.0209 21.9518L42.9436 22.0102C42.7054 22.1931 42.4829 22.2857 42.3042 22.5327L42.2811 22.5658C42.1909 22.7005 42.0331 22.7544 41.8895 22.7365C41.722 23.1981 41.6529 23.6974 41.6515 24.1889L41.6517 24.254L41.6525 24.3204C41.6633 24.9014 41.7646 25.6121 42.2217 26.0015C42.6387 26.3566 43.27 26.4418 43.8336 26.4912L44.268 26.5275L44.3835 26.5362C44.9775 26.5775 45.6285 26.5634 46.1264 26.2118C46.56 25.9055 46.7645 25.3856 46.8175 24.8723C46.9429 23.6596 46.3291 22.3393 45.2485 21.7406V21.7407ZM34.4146 21.8526C35.2133 21.4449 36.1727 21.547 36.8492 22.0581C36.7891 22.0698 36.73 22.0848 36.671 22.1144C36.5175 22.1914 36.4222 22.3454 36.3859 22.5094C36.345 22.6948 36.441 22.8703 36.624 22.9287C36.7832 22.9795 36.972 23.0028 37.1199 22.9061C37.1949 22.8576 37.2532 22.7873 37.287 22.7047L37.292 22.6923L37.2983 22.6833L37.3006 22.679C37.3012 22.6774 37.2984 22.6805 37.294 22.6874C37.2985 22.6769 37.3027 22.6664 37.3069 22.6558C37.3131 22.6431 37.3191 22.6303 37.3239 22.6171C37.3325 22.6097 37.3404 22.6014 37.3483 22.5931C37.476 22.7899 37.5708 23.0062 37.6289 23.2334C38.0222 24.7586 36.4097 26.3413 34.9691 26.4997C34.4247 26.5595 33.9282 26.4299 33.5162 26.1744C33.52 26.1693 33.5241 26.1648 33.5275 26.1595C33.6931 26.1893 33.8906 26.1152 33.9507 25.9306C34.104 25.4597 33.9468 24.9089 33.4337 24.7551C33.1035 24.656 32.7657 24.7655 32.5297 24.9912C32.3512 24.5544 32.2874 24.0626 32.3719 23.5701C32.491 22.8752 32.9102 22.2491 33.5625 21.96C33.8801 21.8191 34.1539 21.7895 34.4146 21.8526ZM42.8254 22.7936L42.8497 22.7552C43.0965 22.3754 43.5683 21.9096 44.0572 22.0376C44.1266 22.0559 44.1929 22.0845 44.2539 22.1222C44.5225 22.0858 44.8038 22.1468 45.0348 22.2889L45.0285 22.3048C45.0274 22.3075 45.0266 22.3102 45.0259 22.313C45.0049 22.4054 45.0171 22.4908 45.0602 22.5756C45.107 22.6676 45.1738 22.7548 45.2641 22.8075C45.3267 22.8439 45.398 22.8624 45.4704 22.8612C45.5751 22.8594 45.6673 22.8133 45.743 22.7429C45.7842 22.7047 45.8129 22.6487 45.8287 22.5911C45.8661 22.6269 45.9023 22.6668 45.9368 22.712C46.5037 23.4574 46.4253 24.6552 45.7603 25.3196C45.7335 25.3464 45.7049 25.3706 45.6767 25.3953C45.4067 25.767 44.9905 26.0193 44.4907 26.0703C44.0279 26.1176 43.5651 25.9807 43.2102 25.7002C43.2388 25.685 43.2654 25.6653 43.2885 25.6392C43.3491 25.5706 43.3989 25.5029 43.4357 25.4192C43.4449 25.398 43.4539 25.3768 43.4623 25.3554L43.4747 25.3231C43.4768 25.3172 43.4957 25.2627 43.4907 25.2722L43.4895 25.2745L43.4962 25.2588C43.5597 25.1002 43.5341 24.919 43.3833 24.8195L43.3667 24.8092C43.3174 24.7805 43.2564 24.7669 43.1946 24.7668C43.0407 24.5783 42.8116 24.5351 42.5966 24.5902L42.589 24.5293C42.5878 24.5192 42.5869 24.509 42.5862 24.4988C42.4196 23.9464 42.4999 23.3187 42.8254 22.7936ZM35.4279 17.2325L35.4833 17.2239C35.9016 17.1634 36.186 17.233 36.458 17.5905C36.5876 17.7609 36.5477 18.0182 36.458 18.1922C36.1684 18.7549 35.3717 18.6386 34.8351 18.7503C34.3112 18.8593 33.7886 19.0077 33.2985 19.2237C32.7982 19.4441 32.3287 19.7048 31.8709 20.0025C31.4567 20.2718 31.0811 20.6768 30.608 20.8334C30.5867 20.8406 30.5611 20.8215 30.5624 20.7989C30.5961 20.2609 31.0455 19.767 31.3935 19.3838C31.7962 18.9406 32.2859 18.5473 32.7957 18.2345C33.3219 17.9118 33.8907 17.6462 34.4796 17.4609C34.79 17.3627 35.1069 17.2864 35.4279 17.2325ZM41.8009 17.9631C42.3276 17.1929 43.637 17.3406 44.4095 17.5463C45.3782 17.8043 46.4279 18.326 47.1072 19.0811C47.7156 19.7575 46.8053 20.6364 46.1211 20.0672L45.9385 19.9157L45.8217 19.8197C45.2964 19.3907 44.7763 19.0024 44.1361 18.7165C43.3856 18.3813 42.6251 18.2179 41.8319 18.0393C41.8007 18.0324 41.7824 17.9901 41.8009 17.9631Z" fill="black"/>
</svg>
