<svg width="60" height="55" viewBox="0 0 60 55" fill="none" xmlns="http://www.w3.org/2000/svg">
<path fill-rule="evenodd" clip-rule="evenodd" d="M60.1094 86.5358C59.7659 84.5957 59.451 82.6506 59.1648 80.7011C59.0289 79.7756 58.8964 78.8492 58.7773 77.9212C58.6938 77.2711 58.5667 76.5276 59.0091 76.0462C59.6315 75.3685 60.1969 74.7884 60.2731 73.8176C60.3447 72.9042 60.0359 71.9085 59.8428 71.0219C59.4378 69.1626 58.9336 67.3263 58.3764 65.5073C57.8104 63.6594 57.1898 61.8288 56.5602 60.0016C55.9717 58.2934 55.4058 56.5696 54.6392 54.9306C53.1843 51.8203 50.7229 49.5168 47.681 47.9788C46.9244 47.5963 45.3813 46.2308 44.5909 45.9251C43.8643 45.644 43.8669 46.4648 43.1518 46.1556C42.5801 45.9085 42.0477 45.5789 41.7276 45.0269C41.3801 44.4275 40.5084 43.5892 40.3757 42.8915C40.0946 41.4127 40.3992 40.154 39.3437 39.041C38.4067 38.0526 37.1473 37.3755 35.8442 37.012C32.9775 36.2125 29.1544 36.7715 27.4248 39.4353C26.5987 40.7074 26.31 42.2451 25.1953 43.2832C24.2219 44.1897 24.4398 44.8095 23.1791 45.2767C23.1077 45.3032 21.1723 44.888 21.1009 44.9146C19.7218 44.6195 18.4036 45.4456 17.1384 45.9251C15.252 46.6396 13.4561 47.5698 11.7689 48.6753C8.3666 50.9044 5.45268 53.799 3.05047 57.0745C0.628307 60.3771 -1.25104 64.0787 -2.58919 67.9475C-2.91433 68.8872 -3.20599 69.8383 -3.46362 70.7988C-3.60766 71.3363 -3.76166 71.8938 -3.58618 72.4441C-3.44266 72.8943 -3.1234 73.2295 -2.74848 73.4996C-2.24027 73.8658 -1.22087 74.1039 -1.24081 74.8404C-1.2559 75.4003 -1.44587 75.9897 -1.5386 76.5431C-1.64897 77.202 -1.73973 77.8649 -1.83033 78.5268C-2.24283 81.5398 -2.56388 84.5696 -2.70587 87.608C-2.84564 90.5994 -2.96164 93.6523 -2.75411 96.6429C-2.74047 96.8398 -2.68166 97.0213 -2.58672 97.1739C-2.67536 97.208 -2.68218 97.3733 -2.57189 97.3963C-2.49468 97.4125 -2.41763 97.4296 -2.34041 97.4457C-2.18002 97.5668 -1.97999 97.6409 -1.74979 97.6486C-1.59382 97.6537 -1.43786 97.6605 -1.28189 97.6682C0.362995 98.0125 2.0078 98.3372 3.67424 98.5835C5.69993 98.8818 7.73157 99.1256 9.76953 99.3242C13.9572 99.7315 18.1118 99.596 22.305 99.377C26.4917 99.1571 30.6759 99.106 34.867 99.2151C39.0617 99.3242 43.2549 99.5065 47.4506 99.5815C52.138 99.6651 56.8182 99.5372 61.4921 99.1639C62.1329 99.1136 62.5294 98.6031 62.403 97.9673C61.6457 94.1534 60.7876 90.3659 60.1094 86.5358Z" fill="#FFDBB4"/>
<path fill-rule="evenodd" clip-rule="evenodd" d="M17.1384 45.9251L17.2299 45.8898C18.4672 45.4065 19.755 44.6266 21.101 44.9146C21.1486 44.8969 22.0244 45.0755 22.6242 45.1886L22.0549 45.7829L21.05 45.9762C24.5165 51.6974 28.6164 54.5579 33.3495 54.5579C38.0828 54.5579 41.6744 51.6974 44.1244 45.9762L44.4587 45.8837C44.5 45.8933 44.544 45.9068 44.591 45.9251C45.3814 46.2308 46.9244 47.5962 47.681 47.9787C50.7229 49.5168 53.1843 51.8202 54.6392 54.9306C55.3803 56.515 55.9337 58.1785 56.5014 59.8307L56.5602 60.0016C57.1898 61.8287 57.8104 63.6593 58.3764 65.5073C58.9094 67.2472 59.3939 69.0029 59.7894 70.7795L59.8428 71.0219C60.0359 71.9085 60.3448 72.9041 60.2731 73.8176C60.246 74.1634 60.1567 74.4597 60.0249 74.7284L53.1687 77.1955L56.4351 99.4733C53.4431 99.602 50.4483 99.6352 47.4506 99.5815C43.2549 99.5065 39.0617 99.3242 34.867 99.2151C30.8029 99.1094 26.7454 99.1545 22.6856 99.3574L21.6546 99.4102C17.6819 99.6088 13.7406 99.7102 9.76953 99.3241L9.49894 99.2977V96.0386L10.8939 77.8928L3.82467 76.5622L-3.1147 73.1918C-3.32436 72.9822 -3.4926 72.7376 -3.58618 72.4441C-3.74871 71.9344 -3.62862 71.4185 -3.4955 70.9181L-3.46354 70.7987C-3.2059 69.8383 -2.91424 68.8872 -2.5891 67.9475C-1.25104 64.0787 0.628311 60.377 3.05047 57.0745C5.45277 53.799 8.36669 50.9044 11.7689 48.6752C13.4561 47.5698 15.252 46.6396 17.1384 45.9251Z" fill="#FFCF77"/>
<path fill-rule="evenodd" clip-rule="evenodd" d="M19.7929 44.8208C20.2263 44.802 20.6683 44.8721 21.1008 44.9146C21.1384 44.9183 21.1527 44.9764 21.1103 44.9853C20.3364 45.147 19.5709 45.3681 18.8109 45.5928L18.4854 45.6891C17.6283 45.9426 16.7963 46.2042 15.9665 46.5424C14.3127 47.2164 12.7421 48.1261 11.2966 49.1712C5.73019 53.1957 1.7015 59.289 -0.840833 65.5976C-1.53167 67.3114 -2.11588 69.0662 -2.59012 70.8521C-2.70514 71.2865 -2.81396 71.7226 -2.91654 72.1601C-2.94671 72.2883 -3.07822 72.6168 -3.00603 72.7481C-2.94237 72.8641 -2.69453 72.9357 -2.57938 72.9961L-2.19066 73.1976C-1.4324 73.5884 -0.169327 74.2308 -0.0426793 74.2934L0.154878 74.3907C3.38584 75.9746 6.83823 77.3178 10.4741 77.4108L10.5026 77.1003C10.6647 75.3837 10.8774 73.658 11.3417 71.9942C11.3667 71.9048 11.4805 71.935 11.4909 72.0144C11.7495 73.9841 11.6669 75.9691 11.5766 77.948C11.4168 81.4528 11.2046 84.9557 11.016 88.4585C10.9216 90.2116 10.7995 91.9622 10.6893 93.7145C10.5789 95.4693 10.5432 97.2668 10.2912 99.0071C10.235 99.3949 9.78062 99.6063 9.43647 99.5653C9.05567 99.5202 8.76275 99.1844 8.76096 98.8C8.75636 97.7858 8.88377 96.7597 8.95459 95.7489C9.02184 94.7875 9.09403 93.827 9.168 92.8665C9.43834 89.3611 9.74934 85.8599 10.037 82.3554C10.1389 81.1128 10.249 79.8713 10.3624 78.6297C6.5107 78.5055 2.91232 77.0789 -0.520463 75.412C-0.570151 76.5402 -0.690066 77.6663 -0.806316 78.7897C-1.13061 81.925 -1.41654 85.0588 -1.63046 88.2037C-1.73862 89.7923 -1.81728 91.3827 -1.8858 92.973C-1.93073 94.0152 -1.96445 95.0579 -1.98697 96.1008L-1.99865 96.6983C-2.00828 97.0767 -2.04671 97.427 -2.36512 97.7023C-2.68865 97.9827 -3.12552 97.9972 -3.44563 97.7023C-3.87416 97.3077 -3.79839 96.7707 -3.78569 96.2406C-3.75368 94.8997 -3.70325 93.5592 -3.63441 92.2196C-3.47367 89.0969 -3.15245 85.9869 -2.73271 82.8898L-2.5689 81.694C-2.26294 79.4713 -1.92697 77.198 -1.24294 75.0568C-1.5089 74.9245 -1.77439 74.7912 -2.03938 74.657C-2.50865 74.4194 -2.99384 74.1964 -3.4499 73.9342C-3.81186 73.7261 -4.12396 73.4408 -4.22461 73.0197C-4.33703 72.5505 -4.16521 72.0374 -4.05109 71.5797L-4.0412 71.5395C-3.92895 71.0786 -3.80905 70.6196 -3.68154 70.1628C-3.16592 68.31 -2.52842 66.4934 -1.78225 64.7211C-0.288219 61.1729 1.64022 57.8021 3.99582 54.7543C6.11627 52.0108 8.62102 49.5229 11.5568 47.6569C12.992 46.7446 14.5215 45.9956 16.139 45.466C16.8951 45.2185 17.7177 45.0032 18.5093 44.9145C18.9362 44.8668 19.3638 44.8395 19.7929 44.8208ZM27.473 39.1983C27.9881 38.6452 29.0116 39.2176 28.7642 39.9501C28.1825 41.6733 27.256 43.2451 25.8102 44.3774C24.4512 45.4419 22.8306 46.1332 21.0853 45.9857C21.073 45.9847 21.061 45.9815 21.0499 45.9762L21.2003 46.1803C22.381 47.7775 23.6267 49.3527 25.1282 50.6582C28.1872 53.3182 32.3523 54.7529 36.3742 53.7323C39.5385 52.9294 42.3263 50.4272 43.1462 47.2383C43.0286 47.291 42.8889 47.309 42.7356 47.2757C42.0796 47.1333 41.4302 46.4433 41.0071 45.9487C40.5494 45.4135 40.192 44.8357 39.93 44.1825C39.4505 42.9871 39.2968 41.448 39.9515 40.29C40.0323 40.1473 40.2186 40.2273 40.2345 40.3666L40.2593 40.5841C40.3856 41.6694 40.5428 42.7192 41.0545 43.7085C41.3049 44.1926 41.6051 44.6651 41.9705 45.0705C42.166 45.2874 42.3779 45.4947 42.6068 45.6766C42.8297 45.8537 43.0996 45.9819 43.2995 46.1852L43.3361 46.2242L43.3372 46.2172C43.3877 45.7876 43.689 45.5983 43.9838 45.6102C44.269 45.6217 44.6041 45.7472 44.7339 45.8074L44.7462 45.8132C46.7364 46.7686 48.5694 48.0138 50.2944 49.3954C53.8617 52.2525 56.5345 55.9876 57.8295 60.386C58.4652 62.5447 58.8299 64.7691 59.2148 66.983L59.4519 68.3396C59.8112 70.3834 60.2127 72.4676 61.0239 74.3688C61.2337 74.8607 61.0719 75.3219 60.5574 75.5153C59.915 75.7568 59.2701 75.9907 58.6243 76.2217C58.9414 77.5822 59.1348 78.9898 59.3724 80.3568C59.8775 83.2631 60.4963 86.1506 61.0269 89.0534C61.2982 90.5372 61.543 92.0261 61.814 93.5099C61.9445 94.225 62.0807 94.9384 62.2131 95.6526C62.2845 96.0378 62.3491 96.4247 62.4172 96.8099L62.4291 96.8747C62.4681 97.0775 62.5171 97.2881 62.4611 97.4918C62.3973 97.7244 62.216 97.8881 62.0542 98.0551C61.921 98.1923 61.7284 98.1932 61.5652 98.1182L61.5115 98.0935C61.2201 97.9571 60.9916 97.8207 60.8883 97.4918C60.8228 97.2838 60.7992 97.0494 60.7564 96.8347C60.6743 96.4239 60.5965 96.0114 60.5231 95.5989C60.3761 94.7728 60.2326 93.946 60.0925 93.1187L59.9616 92.344C59.5124 89.6739 59.0859 86.9875 58.8702 84.2892C58.7745 83.0918 58.6732 81.896 58.5708 80.6994L58.4941 79.8025C58.3969 78.6668 58.2782 77.5025 58.2614 76.3515L57.8751 76.4886L55.9908 77.1547C55.5235 77.3198 54.9287 77.6582 54.4258 77.5966C54.1797 77.5665 53.992 77.489 53.8471 77.3482C54.0206 79.797 54.2555 82.242 54.5686 84.6736C54.8534 86.8869 55.1692 89.0969 55.5421 91.2966C55.7268 92.3858 55.9166 93.4741 56.1228 94.5599C56.2258 95.1028 56.3322 95.6449 56.4418 96.1861C56.4964 96.4562 56.5614 96.7273 56.6041 96.9991C56.6528 97.3111 56.5669 97.5028 56.3926 97.7602C56.2495 97.9707 55.9632 98.079 55.7312 97.9332C55.4238 97.7406 55.2635 97.5736 55.1731 97.2224C55.0909 96.9028 55.041 96.5704 54.9774 96.2474C54.8601 95.6508 54.7466 95.0534 54.6371 94.456C54.4081 93.2048 54.197 91.952 54.0085 90.694C53.3441 86.2648 52.9226 81.7989 52.7097 77.3254C52.6046 75.1182 52.5721 72.9091 52.5908 70.6997C52.6003 69.5672 52.6373 68.4315 52.7174 67.3018C52.7986 66.1583 52.9673 65.0376 53.118 63.9051C53.1233 63.8653 53.1795 63.863 53.1819 63.9051C53.2533 65.1749 53.3651 66.4431 53.4199 67.7162C53.4722 68.9309 53.4951 70.1475 53.5367 71.3627C53.5914 72.96 53.6671 74.5583 53.7674 76.1555C53.9491 75.9568 54.2228 75.8422 54.4967 75.887C54.8935 75.8037 55.3207 75.5955 55.699 75.4691L57.1252 74.9927C57.875 74.7423 58.6247 74.4936 59.3771 74.2524C58.7044 71.9894 58.2436 69.6926 57.8501 67.3623L57.6746 66.3143C57.3273 64.2514 56.9527 62.1876 56.3236 60.19C55.6621 58.0898 54.6723 56.1373 53.3592 54.3691C52.0649 52.6264 50.4901 51.092 48.8687 49.6568C47.4806 48.4281 45.9957 47.3188 44.5799 46.1239C44.5948 46.2031 44.5979 46.2903 44.5849 46.3861C44.2839 48.5892 43.1346 50.6409 41.5329 52.1669C38.3151 55.2326 33.552 55.8686 29.4337 54.431C25.4499 53.0405 21.9277 49.7471 20.6833 45.6718C20.662 45.6021 20.7554 45.5744 20.7929 45.6256C20.862 45.7202 20.9313 45.8148 21.0008 45.9094C20.9961 45.8718 21.0156 45.8309 21.062 45.813C22.5139 45.2524 23.9397 44.4573 25.028 43.3326C25.5585 42.7843 26.0214 42.1632 26.3869 41.4933C26.562 41.1724 26.7192 40.8401 26.8447 40.4967L26.8765 40.4079C27.0286 39.9778 27.1556 39.5392 27.473 39.1983Z" fill="black"/>
<path fill-rule="evenodd" clip-rule="evenodd" d="M50.2723 31.5414C48.8355 25.0138 48.5555 17.8452 44.763 12.1455C43.1056 9.82144 40.4428 6.79093 37.332 7.74607C37.4605 6.36995 37.5809 4.99308 37.6931 3.61553C37.7572 2.82761 38.0515 1.77769 37.386 1.17181C36.2873 0.282637 34.4684 1.64312 33.6192 2.40335C31.7795 4.16874 31.053 5.88335 28.6296 7.06238C27.6581 6.36863 26.7114 5.64079 25.7254 4.96579C24.7208 4.27801 23.2836 3.16068 22.241 4.43039C21.3574 5.50673 21.9219 7.20309 22.2723 8.38732C22.4515 8.99286 22.6295 9.65389 22.8786 10.2767C22.8996 10.7502 22.9361 11.2228 22.9898 11.694C21.1945 12.0141 19.3471 12.2834 17.6318 12.9116C16.6965 13.4193 16.779 14.5724 17.4426 15.2625C18.4356 16.2262 19.6921 16.9798 21.0639 17.4856C20.8149 18.3495 20.2177 19.082 19.467 19.561C19.2151 19.7209 19.0739 19.9556 19.0228 20.2059C18.6379 20.3976 18.2259 20.5358 17.7906 20.6255C17.2538 20.7366 16.9435 21.3715 17.082 21.8762C17.4718 23.1026 18.8456 22.4016 19.7382 22.315C19.7651 23.1714 19.779 24.0639 20.1671 24.8572C18.0928 25.4027 16.296 27.3916 16.7756 29.6326C17.2112 31.7749 19.5188 32.4295 21.3454 32.9163C21.4838 32.998 21.4834 33.0782 21.5273 33.2804C21.8287 34.6692 21.575 36.1971 21.0998 37.5155C20.9703 37.8749 21.1606 38.3247 21.4483 38.5402C22.9359 39.4894 23.4291 36.5989 25.1248 38.4387C24.9983 38.4197 24.6834 38.262 24.6996 38.4905C26.8996 42.3595 33.3954 42.5973 37.3753 42.6922C37.8529 42.9251 38.4029 42.7931 38.9492 42.6444C39.4705 42.6167 39.9911 42.5765 40.5105 42.5239C41.4587 42.3524 43.1266 42.5557 43.1861 41.2174C45.635 40.2493 47.7407 38.5769 49.1766 36.361C50.2417 34.8905 50.6623 33.3341 50.2723 31.5414Z" fill="#FFDBB4"/>
<path fill-rule="evenodd" clip-rule="evenodd" d="M21.6189 35.314C21.7788 36.2683 22.1537 37.1803 22.7859 37.9855C22.8215 38.0307 22.8578 38.0759 22.8946 38.1208L22.8521 38.1437L22.8087 38.1663C22.4754 38.3365 22.1365 38.4265 21.8247 38.1626C21.5494 37.9295 21.6746 37.4524 21.6981 37.1308L21.7058 37.0122L21.7237 36.7623L21.7304 36.661C21.75 36.3394 21.754 36.0114 21.6707 35.7117C21.6557 35.6575 21.6242 35.6185 21.585 35.5943C21.5958 35.5162 21.6056 35.4378 21.6142 35.3593L21.6189 35.314ZM19.4684 19.5636C19.2371 20.4101 19.0862 21.2701 18.997 22.1463C18.7379 22.1522 18.4786 22.1788 18.2198 22.1168C18.0472 22.0762 17.8816 22.0098 17.7288 21.9198C17.674 21.8873 17.5954 21.8028 17.5299 21.7684C17.671 21.6889 17.8365 21.4055 17.9466 21.2934C18.1164 21.1205 18.2931 20.9545 18.4763 20.7958C18.7146 20.5891 19.2505 20.3103 19.297 19.9826C19.2995 19.9649 19.2954 19.947 19.2786 19.9375C19.2376 19.9143 19.1926 19.899 19.1459 19.8924C19.2198 19.769 19.3199 19.6634 19.439 19.583L19.4684 19.5636ZM24.2932 4.86965L24.3334 4.88985L24.5313 4.98522C24.9016 5.16573 25.2639 5.35852 25.6258 5.55608C26.5062 6.03599 27.376 6.53517 28.2346 7.05326C28.3032 7.09468 28.3984 7.00894 28.3492 6.93846C28.312 6.88519 28.2743 6.83235 28.2362 6.77994L28.2559 6.79451C28.3914 6.89755 28.6144 7.11991 28.2005 7.41829C27.2202 8.125 26.3363 8.96892 25.4995 9.83866C24.1948 11.1949 23.0526 12.7115 22.1682 14.3719C21.4226 15.1859 20.8149 16.1672 20.3376 17.1913C20.1929 17.1265 20.0497 17.0587 19.9079 16.9879C20.0246 16.9717 20.1266 16.9274 20.2566 16.8546L20.2872 16.8373L20.3419 16.8053C20.5376 16.6902 20.5984 16.3823 20.4171 16.2219C20.2598 16.0826 20.1928 15.976 19.9851 15.9091C19.8027 15.8503 19.6111 15.8241 19.4267 15.7724C19.038 15.6638 18.6768 15.4917 18.3408 15.2687C18.0394 15.0688 17.765 14.8201 17.5396 14.5361L17.4832 14.4635L17.4275 14.3928C17.321 14.2561 17.1944 14.0734 17.2595 13.9245C17.3264 13.7714 17.6389 13.6091 17.7868 13.5176L17.8698 13.4655C19.33 12.5635 21.0267 12.4418 22.6635 12.0817C22.7292 12.0673 22.7073 11.9778 22.6486 11.9718C22.3464 11.9417 22.0432 11.9229 21.7396 11.9155C22.1582 11.8418 22.5763 11.7705 22.9915 11.6964C22.9644 11.4578 22.9416 11.2187 22.923 10.9794C23.1081 11.137 23.3585 11.1811 23.7058 11.0019C23.9848 10.8581 24.0789 10.4877 23.9636 10.2135C23.9249 10.1213 23.8716 10.0479 23.8079 9.99113L23.7884 9.9746L23.5848 9.05142L23.1379 7.00093L23.1245 6.94213L23.1095 6.87991L23.0181 6.52144C22.8519 5.85846 22.6755 4.95718 23.2502 4.63971C23.566 4.46542 23.9866 4.71386 24.2932 4.86965ZM37.0037 1.86855L37.0177 1.93247L37.0502 2.07377C37.1195 2.38741 37.1642 2.70872 37.1995 3.02721C37.2818 3.76911 37.2968 4.51937 37.2492 5.26409C37.2258 5.62903 37.1864 5.99679 37.1403 6.359C37.091 6.74721 36.9808 7.12963 36.9521 7.51963C36.836 7.66809 36.7287 7.8296 36.6067 7.9634C36.2798 8.32127 35.8963 8.59042 35.3957 8.59639C34.4414 8.60764 33.6402 7.8642 32.7141 7.70099L32.6511 7.69059C32.4968 7.66136 31.2823 7.34738 31.4312 6.81786L31.4372 6.79843C31.4862 6.655 31.4314 6.4738 31.3245 6.37093C31.2744 6.32247 31.2172 6.28192 31.155 6.25068C32.0908 4.57894 33.3545 3.15267 35.0864 2.21968L35.3242 2.09389L35.4539 2.0263C35.8497 1.82252 36.3002 1.61602 36.7122 1.58108C36.9206 1.56335 36.9659 1.70125 37.0037 1.86855Z" fill="#D6B370"/>
<path fill-rule="evenodd" clip-rule="evenodd" d="M35.4208 0.682781L35.5637 0.620139C36.0567 0.406304 36.5948 0.201162 37.1345 0.318179C37.756 0.452838 38.1153 0.988577 38.2692 1.57255C38.4473 2.24798 38.5269 2.96704 38.5757 3.66233C38.6261 4.3825 38.6066 5.10096 38.5526 5.82003C38.5074 6.4213 38.414 7.11804 38.1907 7.70091C38.2002 7.69193 38.2123 7.68623 38.2252 7.68463C39.1043 7.59429 39.9143 7.64696 40.7538 7.93068C41.5359 8.19488 42.294 8.56579 42.9745 9.0342C44.4445 10.046 45.5818 11.5742 46.3742 13.1563C47.9839 16.3705 48.3235 20.0064 48.7746 23.5214L48.7883 23.6279C49.031 25.5074 49.3534 27.3586 49.8707 29.1818L49.96 29.4927C50.4347 31.1606 50.718 32.7833 50.3395 34.5102C49.6074 37.8494 47.027 40.3698 44.042 41.8247C42.518 42.5676 40.8689 43.1157 39.2033 43.4317C37.495 43.7559 35.6461 43.8102 34.0884 42.9246C33.3162 42.4855 33.9961 41.3641 34.7765 41.7448C36.3872 42.5305 38.2125 42.2718 39.8844 41.8398C41.5473 41.4102 43.1783 40.8086 44.6517 39.9152C47.1803 38.3821 49.3078 35.7354 49.3776 32.6618C49.4168 30.9322 48.6792 29.2808 48.3237 27.611C48.0103 26.1397 47.8158 24.6466 47.6322 23.1539L47.4961 22.045C47.1013 18.8649 46.6068 15.5912 44.9772 12.7807C43.5386 10.2998 41.0609 8.32699 38.2092 7.80233C38.2022 7.80138 38.1954 7.79894 38.1893 7.79518C38.1832 7.79142 38.178 7.78642 38.174 7.78051C38.0868 8.25122 37.5691 8.69005 37.2378 8.96091C36.7684 9.34494 36.1997 9.62321 35.5811 9.61076C34.3882 9.58681 33.3639 8.65988 32.5463 7.88346C32.4541 7.79602 32.5539 7.67397 32.6588 7.68983C33.6077 7.83301 34.4213 8.60559 35.394 8.59409C35.8946 8.58812 36.2781 8.31897 36.605 7.96111C36.727 7.8273 36.8343 7.66579 36.9504 7.51733C36.9791 7.12733 37.0893 6.74483 37.1386 6.3567C37.1847 5.99449 37.2241 5.62665 37.2475 5.2617C37.2951 4.51707 37.2801 3.76682 37.1978 3.02491C37.1625 2.70642 37.1178 2.38503 37.0485 2.07139L37.016 1.93008C36.973 1.73576 36.9449 1.55875 36.7105 1.57869C36.1895 1.62284 35.6071 1.94142 35.1515 2.18176C33.3852 3.11389 32.1011 4.55508 31.1533 6.24838C31.2128 6.27821 31.2696 6.31741 31.3228 6.36855C31.4297 6.47142 31.4845 6.6527 31.4355 6.79605C31.2463 7.35037 30.5736 7.36656 30.1003 7.58363C29.5846 7.82005 29.1001 8.12397 28.6414 8.45687C27.7383 9.11218 26.9087 9.88196 26.1198 10.6694C24.8774 11.9093 23.7236 13.2287 22.6094 14.5826L22.3723 15.1134C22.1356 15.644 21.9041 16.1764 21.7126 16.7291C21.4008 17.6279 21.1396 18.5468 20.9388 19.4769C20.7367 20.4131 20.605 21.3707 20.5551 22.3272C20.5105 23.1807 20.6235 24.0335 20.6188 24.882C20.6945 25.0239 20.7219 25.1838 20.6862 25.3469C20.9294 25.4156 21.1607 25.5211 21.3721 25.6597C21.4249 25.6945 21.3914 25.7773 21.3291 25.7619C21.0542 25.6941 20.7793 25.6791 20.51 25.7053C20.3671 25.8819 20.1358 25.9943 19.9113 25.9894L19.8156 25.9872C19.7455 25.9854 19.676 25.9747 19.6087 25.9552C19.2299 26.1302 18.8813 26.382 18.5863 26.683C17.8769 27.4067 17.5344 28.355 17.5847 29.3679C17.6345 30.367 18.1656 31.2681 19.0451 31.748C19.4375 31.962 19.8734 32.0748 20.3194 32.0831C20.7485 32.0908 21.3116 31.9602 21.6641 32.2403C21.7037 32.2718 21.7298 32.3138 21.7459 32.3601C21.7705 32.2561 21.7966 32.1523 21.8251 32.0489C21.8469 31.9699 21.9781 31.9607 21.9942 32.0489L22.0148 32.1639C22.3103 33.8326 22.4141 35.5506 23.5877 36.8862C24.1366 37.5109 24.7983 38.0744 25.4772 38.5527L25.5895 38.6312C25.8796 38.8318 26.1929 39.0267 26.5387 39.0993C26.9229 39.18 27.2406 39.1578 27.5939 39.3694C27.76 39.4689 27.862 39.6887 27.8009 39.8792C27.4089 41.1024 25.864 40.553 25.0852 40.0695C24.6521 39.8006 24.2307 39.4756 23.8392 39.1177C23.4977 39.3262 23.0922 39.4607 22.7438 39.5129C22.2064 39.5935 21.6358 39.4816 21.2074 39.1337C20.7542 38.7659 20.5991 38.2307 20.6761 37.6625C20.7144 37.3797 20.7876 37.1039 20.8664 36.8301L20.9317 36.6064C21.0267 36.2807 21.1011 35.9445 21.2928 35.6601C21.3896 35.5166 21.6193 35.5301 21.669 35.7093C21.7829 36.1195 21.7337 36.5826 21.7041 37.0098L21.6978 37.1078C21.6785 37.4292 21.5418 37.9222 21.823 38.1603C22.1616 38.447 22.5323 38.316 22.8929 38.1184C22.8561 38.0735 22.8198 38.0284 22.7842 37.9832C21.6173 36.497 21.3271 34.6469 21.6467 32.8384C21.3456 33.2343 20.5606 33.3199 20.144 33.2891C19.49 33.2409 18.8465 33.0417 18.2894 32.6914C17.1226 31.958 16.4664 30.6716 16.4385 29.3033C16.4113 27.9746 17.0045 26.6308 18.0984 25.8571C18.3875 25.6527 18.7067 25.4949 19.0445 25.3894C18.8813 24.7403 18.8641 24.0232 18.8995 23.3215C18.5082 23.3749 18.0845 23.3056 17.7307 23.1849L17.6758 23.1656C17.1306 22.97 16.438 22.5766 16.336 21.9627C16.2103 21.2076 17.1402 20.7735 17.6797 20.4719C17.932 20.3309 18.1902 20.199 18.458 20.0901L18.5387 20.0581C18.7699 19.9689 19.0422 19.8028 19.2769 19.9352C19.2936 19.9447 19.2977 19.9626 19.2953 19.9802C19.2488 20.3079 18.7129 20.5868 18.4746 20.7935C18.2914 20.9521 18.1147 21.1181 17.9449 21.291C17.8348 21.4032 17.6693 21.6866 17.5281 21.7661C17.5937 21.8005 17.6723 21.885 17.7271 21.9175C17.8799 22.0075 18.0455 22.0739 18.2181 22.1145C18.4769 22.1765 18.7362 22.1498 18.9953 22.1439C19.1005 21.1105 19.2915 20.0996 19.5991 19.1068C20.1149 17.4411 20.9603 15.6864 22.1665 14.3695C23.0509 12.7091 24.1931 11.1925 25.4978 9.83628C26.3346 8.96653 27.2185 8.1227 28.1988 7.41599C28.6334 7.1027 29.0905 6.82042 29.5757 6.59304L29.7369 6.51889C30.0062 6.39403 30.3338 6.23193 30.6462 6.18557C30.8483 5.38204 31.2083 4.61355 31.6451 3.91699C32.2469 2.95716 33.0389 2.14767 33.9657 1.50088C34.423 1.18139 34.9103 0.907416 35.4208 0.682866V0.682781ZM19.3438 28.669C20.1214 28.1456 21.0751 27.9408 22.0043 28.0182C22.4652 28.0565 22.9212 28.1647 23.3531 28.3303L23.5312 28.4008C23.9438 28.5665 24.3866 28.7709 24.4014 29.271C24.4073 29.4685 24.2614 29.6257 24.0854 29.6871C23.656 29.8366 23.3081 29.4784 22.9535 29.2879C22.5955 29.0953 22.215 28.9683 21.823 28.8654C21.7855 28.8555 21.7478 28.8466 21.7102 28.8376C21.7306 28.8786 21.7422 28.9239 21.7382 28.9728C21.7285 29.0897 21.6945 29.1766 21.6615 29.2862C21.6516 29.3195 21.6274 29.5224 21.6025 29.5475C21.6106 29.6165 21.6114 29.6818 21.6136 29.7513C21.6195 29.9566 21.5943 30.1301 21.4897 30.3119C21.2291 30.7647 20.4841 30.8064 20.2347 30.3119C19.9853 29.8174 20.1802 29.3335 20.5592 28.9779C20.6626 28.8811 20.8003 28.7825 20.95 28.7145C20.4244 28.6664 19.8929 28.6891 19.3679 28.7583C19.3167 28.7652 19.3089 28.6926 19.3438 28.669ZM19.3903 12.0799C20.4568 11.8982 21.5705 11.862 22.6469 11.9694C22.7056 11.9754 22.7275 12.0649 22.6618 12.0793C21.025 12.4394 19.3283 12.5611 17.8681 13.4631L17.8009 13.5053C17.6607 13.5946 17.3272 13.7633 17.2578 13.9222C17.1759 14.1097 17.3977 14.3507 17.5008 14.486C17.7328 14.7899 18.0209 15.0553 18.339 15.2664C18.675 15.4893 19.0364 15.6614 19.4249 15.7701C19.6094 15.8217 19.8009 15.848 19.9833 15.9068C20.191 15.9736 20.258 16.0802 20.4153 16.2195C20.5967 16.3799 20.5358 16.6878 20.3402 16.8029L20.2854 16.8349C20.0285 16.9822 19.8857 17.0256 19.5593 16.968C19.3039 16.9228 19.0601 16.8334 18.8211 16.7341C18.3858 16.5532 17.9784 16.3108 17.6116 16.0142L17.5563 15.9691C16.896 15.4222 15.7772 14.2257 16.5141 13.3547C17.1646 12.5861 18.4427 12.2413 19.3903 12.0799ZM22.0169 3.79281C23.0397 2.58531 24.4844 3.4098 25.5093 4.13176C26.614 4.90971 27.5725 5.82736 28.3475 6.93608C28.3967 7.00656 28.3014 7.0923 28.2329 7.05088C27.3743 6.53279 26.5045 6.0336 25.6241 5.55369C25.2622 5.35613 24.8999 5.16335 24.5296 4.98284L24.3317 4.88738C24.0224 4.7344 23.5783 4.45528 23.2485 4.63733C22.5374 5.03005 22.9763 6.31665 23.1228 6.93974L23.1362 6.99855L23.5831 9.04903L23.7867 9.97221C23.8591 10.031 23.9193 10.1097 23.9619 10.2111C24.0772 10.4853 23.9831 10.8557 23.7041 10.9995C22.8808 11.4241 22.602 10.5949 22.447 9.9717C22.3208 9.46548 22.1939 8.95945 22.0661 8.45363L21.8551 7.61764C21.5319 6.35218 21.073 4.90699 22.0169 3.79281Z" fill="black"/>
<path fill-rule="evenodd" clip-rule="evenodd" d="M41.4203 30.7102C43.8209 30.7102 45.7669 28.726 45.7669 26.2784C45.7669 23.8308 43.8209 21.8466 41.4203 21.8466C39.0197 21.8466 37.0737 23.8308 37.0737 26.2784C37.0737 28.726 39.0197 30.7102 41.4203 30.7102Z" fill="white"/>
<path fill-rule="evenodd" clip-rule="evenodd" d="M44.1596 32.1446C44.1802 32.08 44.2699 32.0802 44.2906 32.1446C44.4779 32.7285 44.5879 33.3003 44.8676 33.8493C44.9369 33.9216 44.9868 34.0101 45.0128 34.1068C45.143 34.3239 45.2898 34.5305 45.4519 34.725C45.6568 34.9705 45.8058 35.201 45.6972 35.536C45.6437 35.7011 45.5055 35.8067 45.3313 35.8147C44.853 35.8363 44.5805 35.3802 44.4113 34.9046C43.2277 35.2977 41.9244 35.5202 40.6838 35.4224C39.6754 35.3428 38.5769 35.0902 37.674 34.5753C37.6794 34.7698 37.6868 34.9644 37.6936 35.1592C37.7062 35.5193 37.8031 35.9135 37.7656 36.2672C37.7285 36.6182 37.5292 36.8897 37.1681 36.9441C36.8573 36.9908 36.4726 36.7833 36.412 36.4504C36.3418 36.0639 36.4718 35.794 36.5788 35.4293C36.6733 35.1069 36.7474 34.7776 36.8289 34.4518C36.9111 34.1228 36.9783 33.791 37.0393 33.4577C37.0839 33.2137 37.0517 32.9387 37.1381 32.7089C37.1449 32.6909 37.1625 32.678 37.1824 32.6837C37.6422 32.8159 37.6683 33.5561 37.6664 33.9534L37.6663 33.973C37.6656 34.0539 37.6664 34.1349 37.6672 34.2158L37.8429 34.2542C38.8074 34.4629 39.7443 34.6215 40.7583 34.5639C41.9479 34.4965 42.994 34.0616 44.1229 33.7636C44.0292 33.2274 44.0004 32.6425 44.1596 32.1446ZM40.1814 21.579C40.7093 21.3983 41.28 21.3129 41.8352 21.3403C43.0251 21.3991 44.1587 21.9418 44.9389 22.8461C45.6755 23.6999 46.0758 24.7706 46.0706 25.9002C46.065 27.0605 45.7602 28.3672 45.1863 29.383C43.9804 31.5172 41.1638 31.532 39.1397 30.6811C36.9796 29.7731 36.1007 27.4831 36.621 25.2691C37.0122 23.6041 38.3466 21.6063 40.1814 21.5791V21.579ZM43.7006 23.2273C43.0633 22.7157 42.2607 22.4858 41.4498 22.544C41.0469 22.5729 40.6376 22.6787 40.2718 22.8506C40.0774 22.9419 39.9037 23.0695 39.7122 23.1646C39.5415 23.2493 39.3568 23.2987 39.1807 23.37L39.1151 23.3979C38.826 23.5271 38.5347 23.3422 38.5203 23.0728C37.8912 23.9555 37.5928 25.1523 37.5976 26.2141C37.6012 26.9959 37.7875 27.8082 38.2363 28.4591C38.7351 29.1826 39.5628 29.5643 40.3929 29.7669C41.1879 29.961 42.0547 30.0283 42.8516 29.8078C43.6787 29.5791 44.213 28.9514 44.5171 28.1689C45.1768 26.4716 45.2312 24.4561 43.7006 23.2274V23.2273ZM40.8603 25.332C41.2213 24.8393 41.8687 24.8132 42.2252 25.332C42.4495 25.6586 42.4165 25.9733 42.3987 26.3491L42.3952 26.4336C42.3847 26.731 42.3861 27.0443 42.2747 27.3192C42.1316 27.6721 41.8535 27.8982 41.4596 27.8514C41.2277 27.8237 41.0334 27.6853 40.9208 27.4944L40.9168 27.4966C40.7588 27.1811 40.7181 26.8611 40.6913 26.5168L40.673 26.2643C40.6507 25.9323 40.6495 25.6199 40.8603 25.332Z" fill="black"/>
<path fill-rule="evenodd" clip-rule="evenodd" d="M41.6386 40.8577C41.6386 40.8577 37.8553 41.4137 36.1619 40.628C34.4735 39.8447 32.8312 39.0869 31.2996 38.0495C29.7306 36.9865 28.3994 35.7244 27.4491 34.1087C26.5653 32.6054 25.8306 31.0102 25.0908 29.4274C25.0476 29.3349 24.6229 28.4154 24.4729 28.107C24.242 27.6289 23.567 27.7789 23.567 28.5212C23.567 29.2634 23.5337 34.8843 24.8309 37.0954C26.0011 39.0923 27.9843 40.4877 29.9548 41.7056C32.1349 43.0522 35.0309 44.508 37.632 44.8926C39.986 45.2404 42.6724 44.2636 44.3769 42.6536C46.159 40.97 46.6636 38.6826 47.5832 36.492C47.7886 36.0023 47.0605 35.707 46.8468 36.1885C46.4446 37.0954 41.6386 40.8577 41.6386 40.8577Z" fill="black"/>
</svg>
