<svg width="60" height="60" viewBox="0 0 60 60" fill="none" xmlns="http://www.w3.org/2000/svg">
<g clip-path="url(#clip0_244_7215)">
<mask id="mask0_244_7215" style="mask-type:alpha" maskUnits="userSpaceOnUse" x="0" y="0" width="60" height="60">
<path d="M60 0H0V60H60V0Z" fill="white"/>
</mask>
<g mask="url(#mask0_244_7215)">
<path fill-rule="evenodd" clip-rule="evenodd" d="M60.1094 91.5358C59.7659 89.5957 59.451 87.6506 59.1648 85.7011C59.0289 84.7756 58.8964 83.8492 58.7773 82.9212C58.6938 82.2711 58.5667 81.5276 59.0091 81.0462C59.6315 80.3685 60.1969 79.7884 60.2731 78.8176C60.3447 77.9042 60.0359 76.9085 59.8428 76.0219C59.4378 74.1626 58.9336 72.3263 58.3764 70.5073C57.8104 68.6594 57.1898 66.8288 56.5602 65.0016C55.9717 63.2934 55.4058 61.5696 54.6392 59.9306C53.1843 56.8203 50.7229 54.5168 47.681 52.9788C46.9244 52.5963 45.3813 51.2308 44.5909 50.9251C43.8643 50.644 43.8669 51.4648 43.1518 51.1556C42.5801 50.9085 42.0477 50.5789 41.7276 50.0269C41.3801 49.4275 40.5084 48.5892 40.3757 47.8915C40.0946 46.4127 40.3992 45.154 39.3437 44.041C38.4067 43.0526 37.1473 42.3755 35.8442 42.012C32.9775 41.2125 29.1544 41.7715 27.4248 44.4353C26.5987 45.7074 26.31 47.2451 25.1953 48.2832C24.2219 49.1897 24.4398 49.8095 23.1791 50.2767C23.1077 50.3032 21.1723 49.888 21.1009 49.9146C19.7218 49.6195 18.4036 50.4456 17.1384 50.9251C15.252 51.6396 13.4561 52.5698 11.7689 53.6753C8.3666 55.9044 5.45268 58.799 3.05047 62.0745C0.628307 65.3771 -1.25104 69.0787 -2.58919 72.9475C-2.91433 73.8872 -3.20599 74.8383 -3.46362 75.7988C-3.60766 76.3363 -3.76166 76.8938 -3.58618 77.4441C-3.44266 77.8943 -3.1234 78.2295 -2.74848 78.4996C-2.24027 78.8658 -1.22087 79.1039 -1.24081 79.8404C-1.2559 80.4003 -1.44587 80.9897 -1.5386 81.5431C-1.64897 82.202 -1.73973 82.8649 -1.83033 83.5268C-2.24283 86.5398 -2.56388 89.5696 -2.70587 92.608C-2.84564 95.5994 -2.96164 98.6523 -2.75411 101.643C-2.74047 101.84 -2.68166 102.021 -2.58672 102.174C-2.67536 102.208 -2.68218 102.373 -2.57189 102.396C-2.49468 102.413 -2.41763 102.43 -2.34041 102.446C-2.18002 102.567 -1.97999 102.641 -1.74979 102.649C-1.59382 102.654 -1.43786 102.661 -1.28189 102.668C0.362995 103.013 2.0078 103.337 3.67424 103.584C5.69993 103.882 7.73157 104.126 9.76953 104.324C13.9572 104.732 18.1118 104.596 22.305 104.377C26.4917 104.157 30.6759 104.106 34.867 104.215C39.0617 104.324 43.2549 104.507 47.4506 104.582C52.138 104.665 56.8182 104.537 61.4921 104.164C62.1329 104.114 62.5294 103.603 62.403 102.967C61.6457 99.1534 60.7876 95.3659 60.1094 91.5358Z" fill="#FFDBB4"/>
<path fill-rule="evenodd" clip-rule="evenodd" d="M17.1384 50.9251L17.2299 50.8898C18.4672 50.4065 19.755 49.6266 21.101 49.9146C21.1486 49.8969 22.0244 50.0755 22.6242 50.1886L22.0549 50.7829L21.05 50.9762C24.5165 56.6974 28.6164 59.5579 33.3495 59.5579C38.0828 59.5579 41.6744 56.6974 44.1244 50.9762L44.4587 50.8837C44.5 50.8933 44.544 50.9068 44.591 50.9251C45.3814 51.2308 46.9244 52.5962 47.681 52.9787C50.7229 54.5168 53.1843 56.8202 54.6392 59.9306C55.3803 61.515 55.9337 63.1785 56.5014 64.8307L56.5602 65.0016C57.1898 66.8287 57.8104 68.6593 58.3764 70.5073C58.9094 72.2472 59.3939 74.0029 59.7894 75.7795L59.8428 76.0219C60.0359 76.9085 60.3448 77.9041 60.2731 78.8176C60.246 79.1634 60.1567 79.4597 60.0249 79.7284L53.1687 82.1955L56.4351 104.473C53.4431 104.602 50.4483 104.635 47.4506 104.582C43.2549 104.507 39.0617 104.324 34.867 104.215C30.8029 104.109 26.7454 104.155 22.6856 104.357L21.6546 104.41C17.6819 104.609 13.7406 104.71 9.76953 104.324L9.49894 104.298V101.039L10.8939 82.8928L3.82467 81.5622L-3.1147 78.1918C-3.32436 77.9822 -3.4926 77.7376 -3.58618 77.4441C-3.74871 76.9344 -3.62862 76.4185 -3.4955 75.9181L-3.46354 75.7987C-3.2059 74.8383 -2.91424 73.8872 -2.5891 72.9475C-1.25104 69.0787 0.628311 65.377 3.05047 62.0745C5.45277 58.799 8.36669 55.9044 11.7689 53.6752C13.4561 52.5698 15.252 51.6396 17.1384 50.9251Z" fill="#E279C7"/>
<path fill-rule="evenodd" clip-rule="evenodd" d="M19.7929 49.8208C20.2263 49.802 20.6683 49.8721 21.1008 49.9146C21.1384 49.9183 21.1527 49.9764 21.1103 49.9853C20.3364 50.147 19.5709 50.3681 18.8109 50.5928L18.4854 50.6891C17.6283 50.9426 16.7963 51.2042 15.9665 51.5424C14.3127 52.2164 12.7421 53.1261 11.2966 54.1712C5.73019 58.1957 1.7015 64.289 -0.840833 70.5976C-1.53167 72.3114 -2.11588 74.0662 -2.59012 75.8521C-2.70514 76.2865 -2.81396 76.7226 -2.91654 77.1601C-2.94671 77.2883 -3.07822 77.6168 -3.00603 77.7481C-2.94237 77.8641 -2.69453 77.9357 -2.57938 77.9961L-2.19066 78.1976C-1.4324 78.5884 -0.169327 79.2308 -0.0426793 79.2934L0.154878 79.3907C3.38584 80.9746 6.83823 82.3178 10.4741 82.4108L10.5026 82.1003C10.6647 80.3837 10.8774 78.658 11.3417 76.9942C11.3667 76.9048 11.4805 76.935 11.4909 77.0144C11.7495 78.9841 11.6669 80.9691 11.5766 82.948C11.4168 86.4528 11.2046 89.9557 11.016 93.4585C10.9216 95.2116 10.7995 96.9622 10.6893 98.7145C10.5789 100.469 10.5432 102.267 10.2912 104.007C10.235 104.395 9.78062 104.606 9.43647 104.565C9.05567 104.52 8.76275 104.184 8.76096 103.8C8.75636 102.786 8.88377 101.76 8.95459 100.749C9.02184 99.7875 9.09403 98.827 9.168 97.8665C9.43834 94.3611 9.74934 90.8599 10.037 87.3554C10.1389 86.1128 10.249 84.8713 10.3624 83.6297C6.5107 83.5055 2.91232 82.0789 -0.520463 80.412C-0.570151 81.5402 -0.690066 82.6663 -0.806316 83.7897C-1.13061 86.925 -1.41654 90.0588 -1.63046 93.2037C-1.73862 94.7923 -1.81728 96.3827 -1.8858 97.973C-1.93073 99.0152 -1.96445 100.058 -1.98697 101.101L-1.99865 101.698C-2.00828 102.077 -2.04671 102.427 -2.36512 102.702C-2.68865 102.983 -3.12552 102.997 -3.44563 102.702C-3.87416 102.308 -3.79839 101.771 -3.78569 101.241C-3.75368 99.8997 -3.70325 98.5592 -3.63441 97.2196C-3.47367 94.0969 -3.15245 90.9869 -2.73271 87.8898L-2.5689 86.694C-2.26294 84.4713 -1.92697 82.198 -1.24294 80.0568C-1.5089 79.9245 -1.77439 79.7912 -2.03938 79.657C-2.50865 79.4194 -2.99384 79.1964 -3.4499 78.9342C-3.81186 78.7261 -4.12396 78.4408 -4.22461 78.0197C-4.33703 77.5505 -4.16521 77.0374 -4.05109 76.5797L-4.0412 76.5395C-3.92895 76.0786 -3.80905 75.6196 -3.68154 75.1628C-3.16592 73.31 -2.52842 71.4934 -1.78225 69.7211C-0.288219 66.1729 1.64022 62.8021 3.99582 59.7543C6.11627 57.0108 8.62102 54.5229 11.5568 52.6569C12.992 51.7446 14.5215 50.9956 16.139 50.466C16.8951 50.2185 17.7177 50.0032 18.5093 49.9145C18.9362 49.8668 19.3638 49.8395 19.7929 49.8208ZM27.473 44.1983C27.9881 43.6452 29.0116 44.2176 28.7642 44.9501C28.1825 46.6733 27.256 48.2451 25.8102 49.3774C24.4512 50.4419 22.8306 51.1332 21.0853 50.9857C21.073 50.9847 21.061 50.9815 21.0499 50.9762L21.2003 51.1803C22.381 52.7775 23.6267 54.3527 25.1282 55.6582C28.1872 58.3182 32.3523 59.7529 36.3742 58.7323C39.5385 57.9294 42.3263 55.4272 43.1462 52.2383C43.0286 52.291 42.8889 52.309 42.7356 52.2757C42.0796 52.1333 41.4302 51.4433 41.0071 50.9487C40.5494 50.4135 40.192 49.8357 39.93 49.1825C39.4505 47.9871 39.2968 46.448 39.9515 45.29C40.0323 45.1473 40.2186 45.2273 40.2345 45.3666L40.2593 45.5841C40.3856 46.6694 40.5428 47.7192 41.0545 48.7085C41.3049 49.1926 41.6051 49.6651 41.9705 50.0705C42.166 50.2874 42.3779 50.4947 42.6068 50.6766C42.8297 50.8537 43.0996 50.9819 43.2995 51.1852L43.3361 51.2242L43.3372 51.2172C43.3877 50.7876 43.689 50.5983 43.9838 50.6102C44.269 50.6217 44.6041 50.7472 44.7339 50.8074L44.7462 50.8132C46.7364 51.7686 48.5694 53.0138 50.2944 54.3954C53.8617 57.2525 56.5345 60.9876 57.8295 65.386C58.4652 67.5447 58.8299 69.7691 59.2148 71.983L59.4519 73.3396C59.8112 75.3834 60.2127 77.4676 61.0239 79.3688C61.2337 79.8607 61.0719 80.3219 60.5574 80.5153C59.915 80.7568 59.2701 80.9907 58.6243 81.2217C58.9414 82.5822 59.1348 83.9898 59.3724 85.3568C59.8775 88.2631 60.4963 91.1506 61.0269 94.0534C61.2982 95.5372 61.543 97.0261 61.814 98.5099C61.9445 99.225 62.0807 99.9384 62.2131 100.653C62.2845 101.038 62.3491 101.425 62.4172 101.81L62.4291 101.875C62.4681 102.078 62.5171 102.288 62.4611 102.492C62.3973 102.724 62.216 102.888 62.0542 103.055C61.921 103.192 61.7284 103.193 61.5652 103.118L61.5115 103.093C61.2201 102.957 60.9916 102.821 60.8883 102.492C60.8228 102.284 60.7992 102.049 60.7564 101.835C60.6743 101.424 60.5965 101.011 60.5231 100.599C60.3761 99.7728 60.2326 98.946 60.0925 98.1187L59.9616 97.344C59.5124 94.6739 59.0859 91.9875 58.8702 89.2892C58.7745 88.0918 58.6732 86.896 58.5708 85.6994L58.4941 84.8025C58.3969 83.6668 58.2782 82.5025 58.2614 81.3515L57.8751 81.4886L55.9908 82.1547C55.5235 82.3198 54.9287 82.6582 54.4258 82.5966C54.1797 82.5665 53.992 82.489 53.8471 82.3482C54.0206 84.797 54.2555 87.242 54.5686 89.6736C54.8534 91.8869 55.1692 94.0969 55.5421 96.2966C55.7268 97.3858 55.9166 98.4741 56.1228 99.5599C56.2258 100.103 56.3322 100.645 56.4418 101.186C56.4964 101.456 56.5614 101.727 56.6041 101.999C56.6528 102.311 56.5669 102.503 56.3926 102.76C56.2495 102.971 55.9632 103.079 55.7312 102.933C55.4238 102.741 55.2635 102.574 55.1731 102.222C55.0909 101.903 55.041 101.57 54.9774 101.247C54.8601 100.651 54.7466 100.053 54.6371 99.456C54.4081 98.2048 54.197 96.952 54.0085 95.694C53.3441 91.2648 52.9226 86.7989 52.7097 82.3254C52.6046 80.1182 52.5721 77.9091 52.5908 75.6997C52.6003 74.5672 52.6373 73.4315 52.7174 72.3018C52.7986 71.1583 52.9673 70.0376 53.118 68.9051C53.1233 68.8653 53.1795 68.863 53.1819 68.9051C53.2533 70.1749 53.3651 71.4431 53.4199 72.7162C53.4722 73.9309 53.4951 75.1475 53.5367 76.3627C53.5914 77.96 53.6671 79.5583 53.7674 81.1555C53.9491 80.9568 54.2228 80.8422 54.4967 80.887C54.8935 80.8037 55.3207 80.5955 55.699 80.4691L57.1252 79.9927C57.875 79.7423 58.6247 79.4936 59.3771 79.2524C58.7044 76.9894 58.2436 74.6926 57.8501 72.3623L57.6746 71.3143C57.3273 69.2514 56.9527 67.1876 56.3236 65.19C55.6621 63.0898 54.6723 61.1373 53.3592 59.3691C52.0649 57.6264 50.4901 56.092 48.8687 54.6568C47.4806 53.4281 45.9957 52.3188 44.5799 51.1239C44.5948 51.2031 44.5979 51.2903 44.5849 51.3861C44.2839 53.5892 43.1346 55.6409 41.5329 57.1669C38.3151 60.2326 33.552 60.8686 29.4337 59.431C25.4499 58.0405 21.9277 54.7471 20.6833 50.6718C20.662 50.6021 20.7554 50.5744 20.7929 50.6256C20.862 50.7202 20.9313 50.8148 21.0008 50.9094C20.9961 50.8718 21.0156 50.8309 21.062 50.813C22.5139 50.2524 23.9397 49.4573 25.028 48.3326C25.5585 47.7843 26.0214 47.1632 26.3869 46.4933C26.562 46.1724 26.7192 45.8401 26.8447 45.4967L26.8765 45.4079C27.0286 44.9778 27.1556 44.5392 27.473 44.1983Z" fill="black"/>
<path fill-rule="evenodd" clip-rule="evenodd" d="M48.8815 34.0571C48.3482 30.2011 47.1284 26.4573 46.9532 22.5435L46.6408 17.5188C46.6012 16.4727 45.2452 16.1198 44.7273 17.0466C43.55 15.7382 41.4418 15.9309 39.8335 15.9706C30.3653 16.3068 21.3678 22.7218 18.1177 31.6664C18.0395 31.8796 18.0632 32.1066 18.1515 32.3097C16.6366 37.3722 21.9941 40.632 25.6481 42.8892C27.1304 44.4589 28.8728 45.763 30.8402 46.6562C33.1034 47.7232 35.6226 48.3181 38.1231 48.375C38.672 48.3876 39.0017 47.9429 39.0414 47.4826C39.8391 47.2965 41.2042 47.5113 41.626 46.6921C46.4369 44.5982 49.5715 39.2909 48.8815 34.0571Z" fill="#FFDBB4"/>
<path fill-rule="evenodd" clip-rule="evenodd" d="M46.6307 20.3825C46.6171 20.2575 46.7972 20.2537 46.8343 20.3549C47.1392 21.1873 47.4553 22.014 47.6969 22.8675C47.9297 23.69 48.0975 24.5312 48.2673 25.3688C48.5494 26.7599 48.7909 28.1588 48.9916 29.564C49.4198 29.2289 49.9798 29.1984 50.5072 29.4591C50.7547 29.5814 50.8494 29.9049 50.7901 30.1558C50.7424 30.3581 50.6838 30.5577 50.6143 30.7536C50.7673 30.8893 50.8925 31.0536 50.9829 31.2372C51.2257 31.7316 51.1474 32.2504 50.9296 32.722C50.9462 32.7501 50.9626 32.7784 50.9781 32.8084C51.2934 33.422 51.1247 33.9714 50.8943 34.5701C50.7218 35.018 50.8181 35.5224 50.446 35.8606C50.3167 36.277 50.1226 36.6643 49.8401 37.0141C49.7759 37.1318 49.6798 37.2264 49.5658 37.2961C49.5371 37.9532 49.4679 38.6082 49.3377 39.2575C48.8321 41.7784 47.2274 44.0246 45.241 45.6088C43.2971 47.1591 41.0142 48.0854 38.5509 48.3848C37.3548 48.5303 36.1569 48.4844 34.9705 48.2767L34.8227 48.2503C33.7281 48.0514 32.4034 47.722 31.6465 46.8945C31.2484 46.4594 31.4811 45.5016 32.1849 45.592C32.5578 45.6398 32.8823 45.6997 33.2334 45.8376C33.5071 45.9452 33.7814 46.0488 34.0625 46.1366C34.6008 46.3046 35.1577 46.4356 35.7166 46.508C36.8812 46.6588 38.0914 46.6189 39.2427 46.3913C41.336 45.9775 43.3697 45.0228 44.9583 43.5856C46.805 41.9149 47.8875 39.7526 48.0468 37.2586C48.2242 34.4811 47.9041 31.6369 47.6385 28.8737C47.5 27.4361 47.325 26.0022 47.1135 24.5735C46.9071 23.1778 46.7834 21.7841 46.6307 20.3825ZM30.2882 11.4136L30.3776 11.3998C33.9326 10.8578 37.673 10.8961 41.0145 12.3663C41.6549 12.6484 42.2817 12.9885 42.872 13.3831C43.2947 13.3388 43.72 13.303 44.1376 13.297C44.6631 13.2902 45.1759 13.5638 45.2405 14.0963C45.733 14.1577 46.1863 14.3392 46.4764 14.7024C46.5871 14.8415 46.6648 15.0042 46.7034 15.1779C47.0092 15.2506 47.305 15.3602 47.5844 15.5043C47.9263 15.6807 48.1236 16.1716 48.0029 16.5348C47.975 16.6172 47.9433 16.6976 47.9078 16.7761L47.8804 16.8347L47.8966 16.8568C48.1696 17.2966 47.9799 17.8736 47.5615 18.1361C47.2477 18.333 46.8973 18.4898 46.5367 18.5657C46.5664 18.7105 46.5936 18.8563 46.6158 19.0037C46.6243 19.0635 46.5478 19.1061 46.5137 19.0472C46.5137 19.0472 46.643 19.4503 46.8378 19.8944C46.9143 20.0691 46.6693 20.2242 46.5759 20.0478C46.3275 19.5773 46.1735 19.0949 45.9481 18.61C45.7398 18.5963 45.5322 18.5486 45.3324 18.4574C45.2014 18.3978 45.102 18.2972 45.0306 18.177C45.0262 18.1821 45.0237 18.1881 45.0194 18.1941C44.3484 19.0591 43.037 19.3625 42.0232 19.6361C40.9347 19.9302 39.8205 20.1117 38.7022 20.2455C36.7494 20.4782 34.7814 20.5216 32.8194 20.612C32.6895 20.6179 32.5598 20.6245 32.43 20.6308C31.6331 21.3314 30.6067 21.7667 29.5538 21.8991C29.0203 21.9661 28.3892 21.949 27.791 21.8125C27.5734 22.0353 27.3015 22.1973 27.0022 22.2825C26.9484 23.3989 26.3273 24.4559 25.3882 25.072L25.4048 25.1384C25.6382 26.0916 25.6352 27.1337 24.7986 27.7963C24.6847 27.8859 24.5616 27.9631 24.4314 28.0266L24.46 28.0924C24.8921 29.1044 25.0301 30.2223 24.2178 31.062C23.8885 31.4024 23.3103 31.3218 23.0633 30.9311L23.0512 30.9113C23.0375 30.8881 23.0227 30.8657 23.0085 30.8429C22.9865 30.8881 22.9528 30.9262 22.9028 30.9475C22.5941 31.0805 22.4708 30.9824 22.1893 30.8452C21.929 30.7174 21.6543 30.6219 21.3738 30.5478C21.1484 30.4885 20.919 30.4461 20.6874 30.4208C19.2365 30.9765 18.2993 32.681 18.5221 34.2807C18.6429 35.1517 19.12 36.0142 19.9518 36.3756C20.3158 36.5341 20.7436 36.6006 21.1373 36.5469C21.6706 36.4745 22.0804 36.1379 22.6324 36.3304C22.8501 36.4063 22.9863 36.5777 22.9981 36.812C23.0177 37.1801 22.8875 37.4563 22.6681 37.6608C23.0551 37.9847 23.3672 38.4347 23.7031 38.7936C24.1233 39.2426 24.5493 39.6918 25.0035 40.106C25.4321 40.4989 25.8881 40.8637 26.3711 41.1876L26.4218 41.2211C27.027 41.6161 27.7897 41.9668 27.8186 42.7924C27.8279 43.0413 27.6774 43.2696 27.4733 43.3966C26.7105 43.8705 25.8803 43.2483 25.2825 42.7924C25.0428 42.6102 24.8094 42.4201 24.5825 42.2222C24.432 42.2341 24.2678 42.2095 24.0969 42.1336C23.9872 42.0858 23.88 42.0296 23.7746 41.9699C23.4318 42.056 23.1086 41.9801 22.8424 41.8003C22.4589 41.8949 22.0523 41.906 21.7071 41.8301C21.3916 41.7603 21.11 41.6111 20.8778 41.4108C20.3931 41.5659 19.8547 41.537 19.3768 41.2429C19.0901 41.0666 18.8665 40.8151 18.7449 40.5211C18.6829 40.424 18.6433 40.3106 18.6403 40.1858V40.1384C18.2236 40.1478 17.806 40.0046 17.4837 39.674C17.1877 39.3705 17.0431 38.9922 17.027 38.6077C16.5919 38.4853 16.2079 38.2252 15.9324 37.8662C15.4494 37.2407 15.3847 36.4676 15.6331 35.7773C15.6169 35.7407 15.6024 35.7032 15.5897 35.6657C15.2044 35.1211 14.9501 34.464 14.9705 33.8051C14.9731 33.7029 14.9867 33.6024 15.0071 33.5027C14.6278 33.3006 14.3488 32.9461 14.3191 32.4952C14.2961 32.1415 14.4228 31.7955 14.6516 31.5338C14.5402 31.2671 14.4909 30.9773 14.5249 30.6875C14.5598 30.3901 14.6644 30.1318 14.8174 29.9163C14.814 29.8379 14.8183 29.7586 14.8311 29.6776C14.8157 29.5983 14.803 29.5165 14.7962 29.4331C14.7239 28.5193 15.3532 27.7199 16.1195 27.298C16.3211 27.1872 16.5388 27.0969 16.7565 27.0202C16.9147 26.964 17.1529 26.9452 17.2923 26.8421C17.2864 26.8378 17.3442 26.7629 17.3544 26.7228C17.3655 26.6733 17.3774 26.6247 17.3833 26.5745C17.4063 26.3631 17.3893 26.1458 17.385 25.9336C17.3663 24.9705 17.3961 24.0032 17.4973 23.0452C17.6852 21.2691 18.1488 19.5313 19.052 17.9793C19.8097 16.6787 20.8473 15.5801 22.037 14.6691C24.407 12.8553 27.3644 11.8689 30.2882 11.4136ZM19.3052 33.5018C18.9968 32.7588 20.4491 32.7515 20.8331 32.7868L20.8444 32.7879C21.7088 32.874 23.0601 33.2906 23.4137 34.1646C23.5601 34.5264 23.1268 34.9186 22.78 34.7996C22.4406 34.6832 22.2503 34.4331 21.9778 34.2143C21.9061 34.1572 21.8321 34.1029 21.756 34.0515C21.796 34.179 21.86 34.2968 21.9487 34.3848L21.9696 34.4045C22.3879 34.7811 21.6399 35.3728 21.3623 34.8741C21.2145 34.6088 21.1553 34.3177 21.2014 34.0164C21.2151 33.9275 21.2389 33.8462 21.2735 33.7687C21.2459 33.7549 21.2188 33.7399 21.1909 33.7266L21.1412 33.7034C20.8082 33.552 19.3877 32.9577 19.3992 33.4891C19.4005 33.5479 19.3244 33.548 19.3052 33.5018Z" fill="black"/>
<path fill-rule="evenodd" clip-rule="evenodd" d="M41.8495 41.5606C41.3047 41.565 40.6923 41.3606 40.2828 41.2006L40.176 41.1583C39.8216 41.0163 39.4576 40.8534 39.186 40.5799C39.0993 40.491 39.0068 40.3904 38.9599 40.2846C38.9324 40.2227 38.9209 40.1586 38.9475 40.0948C39.0411 40.0859 39.1343 40.0731 39.2269 40.0565C39.2688 40.0488 39.309 40.0409 39.3398 40.0407C39.4534 40.0399 39.5657 40.0544 39.6781 40.0686C39.6943 40.0706 39.7105 40.0728 39.7268 40.0747C39.8143 40.0855 39.9012 40.0972 39.988 40.1089C40.2406 40.1428 40.4919 40.1765 40.7481 40.1888C40.9331 40.1976 41.1271 40.1872 41.3228 40.1766C41.8303 40.149 42.3551 40.1112 42.7462 40.4668C42.8486 40.5598 42.8914 40.6771 42.8914 40.7966C42.8914 40.9418 42.8303 41.0896 42.7371 41.2055C42.526 41.468 42.2011 41.5577 41.8495 41.5606ZM44.8198 36.9822C44.5829 37.3377 44.188 37.5664 43.647 37.5415C42.5717 37.4923 41.2884 37.0867 40.3878 36.5C40.1533 36.3473 40.0012 36.1031 39.974 35.8416L39.9255 35.3761L39.6632 35.7637C39.636 35.8041 39.6083 35.8444 39.5808 35.8846C39.5049 35.9956 39.429 36.1065 39.3574 36.2202C39.0827 36.6568 38.8308 37.0976 38.6022 37.56C38.4402 37.8874 38.3218 38.2537 38.2031 38.6231C38.0027 39.247 37.8091 39.8605 37.3809 40.299C37.3162 40.3653 37.2166 40.389 37.1255 40.3773C37.0452 40.367 36.9666 40.3276 36.9279 40.2491C36.4163 39.2087 37.1045 37.9549 37.6628 37.0832L37.7218 36.9922C38.2394 36.2046 39.0848 35.1621 40.053 35.0205L40.1639 35.1972L40.3249 35.0898C40.5885 34.914 40.9364 34.9221 41.241 35.0597L41.5456 35.1972C42.1127 35.4517 42.672 35.6864 43.2855 35.815C43.3721 35.8332 43.4591 35.8491 43.5465 35.8628C43.5373 35.8209 43.5275 35.7793 43.5177 35.7378C43.5074 35.6937 43.4967 35.6498 43.4856 35.6059C43.4739 35.5607 43.4618 35.5156 43.4493 35.4707C43.4008 35.2914 43.3439 35.1146 43.2788 34.9407C43.0311 34.288 42.6356 33.6775 42.2507 33.0952L42.2055 33.0267C42.1471 32.9392 42.0877 32.8523 42.0274 32.7661C41.7273 32.334 41.3945 31.865 41.3709 31.3942C41.7693 31.4194 42.1026 31.6668 42.396 31.8822C42.7987 32.1777 43.1718 32.5157 43.5103 32.8828C44.1669 33.595 44.7562 34.5055 45.0147 35.4466C45.1626 35.9856 45.0975 36.5656 44.8198 36.9822ZM34.3143 31.6128L34.3142 31.5937C34.3154 31.0502 34.6319 29.8093 35.4143 29.8093C35.9031 29.8093 36.1999 30.6538 36.2512 31.5244L36.253 31.5598C36.2757 32.1011 36.1272 33.2842 35.4143 33.2842C34.694 33.2842 34.3217 32.1637 34.3143 31.6128ZM45.8333 31.4424L45.8333 31.4232C45.8322 30.8797 45.5156 29.6388 44.7332 29.6388C44.2566 29.6388 43.9626 30.4417 43.9006 31.2886L43.8963 31.3539C43.8654 31.8769 44.0044 33.1137 44.7332 33.1137C45.4536 33.1137 45.8258 31.9932 45.8333 31.4424ZM36.9493 27.9348C36.8456 27.947 36.7424 27.9629 36.6393 27.9793C36.3384 28.0272 36.0392 28.0847 35.742 28.1518C35.1776 28.2792 34.6177 28.4401 34.0685 28.6219C33.5546 28.7921 33.0487 28.9844 32.5429 29.1767L32.462 29.2076C32.2833 29.2754 32.1054 29.3516 31.9267 29.4279C31.655 29.544 31.3821 29.661 31.1035 29.7491C31.8374 28.7344 32.9683 27.9826 34.0564 27.4445C34.6772 27.1376 35.3358 26.8901 35.9984 26.6872L36.3673 26.5763C36.9106 26.4161 37.5047 26.268 38.015 26.5876C38.2168 26.714 38.3457 26.9105 38.3863 27.1229C38.426 27.3312 38.3806 27.5546 38.2368 27.741C38.1114 27.9034 37.9553 27.9958 37.7891 28.0276C37.6056 28.0625 37.4111 28.0242 37.2342 27.9296C37.0924 27.919 37.0505 27.9228 37.0086 27.9275L36.9493 27.9348ZM45.1224 28.0381C44.7588 27.959 44.3987 27.9273 44.0257 27.9386C43.8569 27.9437 43.6937 27.9697 43.5309 27.996C43.2781 28.0367 43.0263 28.0788 42.7539 28.0294C42.6118 28.0036 42.4908 27.9205 42.3973 27.812C42.2881 27.6851 42.2158 27.523 42.1926 27.3688C42.1687 27.2097 42.1924 27.0704 42.2513 26.9474C42.321 26.8022 42.4382 26.6798 42.5799 26.5724C43.0087 26.2479 43.7443 26.3259 44.2504 26.3916C44.7504 26.4566 45.2477 26.6116 45.6898 26.8579C46.1259 27.1011 46.505 27.4285 46.8008 27.8288C47.0502 28.1662 47.1677 28.5544 47.289 28.9497C46.7184 28.4711 45.8452 28.195 45.1224 28.038V28.0381Z" fill="black"/>
</g>
</g>
<defs>
<clipPath id="clip0_244_7215">
<rect width="60" height="60" fill="white"/>
</clipPath>
</defs>
</svg>
