<svg width="60" height="51" viewBox="0 0 60 51" fill="none" xmlns="http://www.w3.org/2000/svg">
<path fill-rule="evenodd" clip-rule="evenodd" d="M60.1094 82.5358C59.7659 80.5957 59.451 78.6506 59.1648 76.7011C59.0289 75.7756 58.8964 74.8492 58.7773 73.9212C58.6938 73.2711 58.5667 72.5276 59.0091 72.0462C59.6315 71.3685 60.1969 70.7884 60.2731 69.8176C60.3447 68.9042 60.0359 67.9085 59.8428 67.0219C59.4378 65.1626 58.9336 63.3263 58.3764 61.5073C57.8104 59.6594 57.1898 57.8288 56.5602 56.0016C55.9717 54.2934 55.4058 52.5696 54.6392 50.9306C53.1843 47.8203 50.7229 45.5168 47.681 43.9788C46.9244 43.5963 45.3813 42.2308 44.5909 41.9251C43.8643 41.644 43.8669 42.4648 43.1518 42.1556C42.5801 41.9085 42.0477 41.5789 41.7276 41.0269C41.3801 40.4275 40.5084 39.5892 40.3757 38.8915C40.0946 37.4127 40.3992 36.154 39.3437 35.041C38.4067 34.0526 37.1473 33.3755 35.8442 33.012C32.9775 32.2125 29.1544 32.7715 27.4248 35.4353C26.5987 36.7074 26.31 38.2451 25.1953 39.2832C24.2219 40.1897 24.4398 40.8095 23.1791 41.2767C23.1077 41.3032 21.1723 40.888 21.1009 40.9146C19.7218 40.6195 18.4036 41.4456 17.1384 41.9251C15.252 42.6396 13.4561 43.5698 11.7689 44.6753C8.3666 46.9044 5.45268 49.799 3.05047 53.0745C0.628307 56.3771 -1.25104 60.0787 -2.58919 63.9475C-2.91433 64.8872 -3.20599 65.8383 -3.46362 66.7988C-3.60766 67.3363 -3.76166 67.8938 -3.58618 68.4441C-3.44266 68.8943 -3.1234 69.2295 -2.74848 69.4996C-2.24027 69.8658 -1.22087 70.1039 -1.24081 70.8404C-1.2559 71.4003 -1.44587 71.9897 -1.5386 72.5431C-1.64897 73.202 -1.73973 73.8649 -1.83033 74.5268C-2.24283 77.5398 -2.56388 80.5696 -2.70587 83.608C-2.84564 86.5994 -2.96164 89.6523 -2.75411 92.6429C-2.74047 92.8398 -2.68166 93.0213 -2.58672 93.1739C-2.67536 93.208 -2.68218 93.3733 -2.57189 93.3963C-2.49468 93.4125 -2.41763 93.4296 -2.34041 93.4457C-2.18002 93.5668 -1.97999 93.6409 -1.74979 93.6486C-1.59382 93.6537 -1.43786 93.6605 -1.28189 93.6682C0.362995 94.0125 2.0078 94.3372 3.67424 94.5835C5.69993 94.8818 7.73157 95.1256 9.76953 95.3242C13.9572 95.7315 18.1118 95.596 22.305 95.377C26.4917 95.1571 30.6759 95.106 34.867 95.2151C39.0617 95.3242 43.2549 95.5065 47.4506 95.5815C52.138 95.6651 56.8182 95.5372 61.4921 95.1639C62.1329 95.1136 62.5294 94.6031 62.403 93.9673C61.6457 90.1534 60.7876 86.3659 60.1094 82.5358Z" fill="#694D3D"/>
<path fill-rule="evenodd" clip-rule="evenodd" d="M17.1384 41.9251L17.2299 41.8898C18.4672 41.4065 19.755 40.6266 21.101 40.9146C21.1486 40.8969 22.0244 41.0755 22.6242 41.1886L22.0549 41.7829L21.05 41.9762C24.5165 47.6974 28.6164 50.5579 33.3495 50.5579C38.0828 50.5579 41.6744 47.6974 44.1244 41.9762L44.4587 41.8837C44.5 41.8933 44.544 41.9068 44.591 41.9251C45.3814 42.2308 46.9244 43.5962 47.681 43.9787C50.7229 45.5168 53.1843 47.8202 54.6392 50.9306C55.3803 52.515 55.9337 54.1785 56.5014 55.8307L56.5602 56.0016C57.1898 57.8287 57.8104 59.6593 58.3764 61.5073C58.9094 63.2472 59.3939 65.0029 59.7894 66.7795L59.8428 67.0219C60.0359 67.9085 60.3448 68.9041 60.2731 69.8176C60.246 70.1634 60.1567 70.4597 60.0249 70.7284L53.1687 73.1955L56.4351 95.4733C53.4431 95.602 50.4483 95.6352 47.4506 95.5815C43.2549 95.5065 39.0617 95.3242 34.867 95.2151C30.8029 95.1094 26.7454 95.1545 22.6856 95.3574L21.6546 95.4102C17.6819 95.6088 13.7406 95.7102 9.76953 95.3241L9.49894 95.2977V92.0386L10.8939 73.8928L3.82467 72.5622L-3.1147 69.1918C-3.32436 68.9822 -3.4926 68.7376 -3.58618 68.4441C-3.74871 67.9344 -3.62862 67.4185 -3.4955 66.9181L-3.46354 66.7987C-3.2059 65.8383 -2.91424 64.8872 -2.5891 63.9475C-1.25104 60.0787 0.628311 56.377 3.05047 53.0745C5.45277 49.799 8.36669 46.9044 11.7689 44.6752C13.4561 43.5698 15.252 42.6396 17.1384 41.9251Z" fill="#E78276"/>
<path fill-rule="evenodd" clip-rule="evenodd" d="M19.7929 40.8208C20.2263 40.802 20.6683 40.8721 21.1008 40.9146C21.1384 40.9183 21.1527 40.9764 21.1103 40.9853C20.3364 41.147 19.5709 41.3681 18.8109 41.5928L18.4854 41.6891C17.6283 41.9426 16.7963 42.2042 15.9665 42.5424C14.3127 43.2164 12.7421 44.1261 11.2966 45.1712C5.73019 49.1957 1.7015 55.289 -0.840833 61.5976C-1.53167 63.3114 -2.11588 65.0662 -2.59012 66.8521C-2.70514 67.2865 -2.81396 67.7226 -2.91654 68.1601C-2.94671 68.2883 -3.07822 68.6168 -3.00603 68.7481C-2.94237 68.8641 -2.69453 68.9357 -2.57938 68.9961L-2.19066 69.1976C-1.4324 69.5884 -0.169327 70.2308 -0.0426793 70.2934L0.154878 70.3907C3.38584 71.9746 6.83823 73.3178 10.4741 73.4108L10.5026 73.1003C10.6647 71.3837 10.8774 69.658 11.3417 67.9942C11.3667 67.9048 11.4805 67.935 11.4909 68.0144C11.7495 69.9841 11.6669 71.9691 11.5766 73.948C11.4168 77.4528 11.2046 80.9557 11.016 84.4585C10.9216 86.2116 10.7995 87.9622 10.6893 89.7145C10.5789 91.4693 10.5432 93.2668 10.2912 95.0071C10.235 95.3949 9.78062 95.6063 9.43647 95.5653C9.05567 95.5202 8.76275 95.1844 8.76096 94.8C8.75636 93.7858 8.88377 92.7597 8.95459 91.7489C9.02184 90.7875 9.09403 89.827 9.168 88.8665C9.43834 85.3611 9.74934 81.8599 10.037 78.3554C10.1389 77.1128 10.249 75.8713 10.3624 74.6297C6.5107 74.5055 2.91232 73.0789 -0.520463 71.412C-0.570151 72.5402 -0.690066 73.6663 -0.806316 74.7897C-1.13061 77.925 -1.41654 81.0588 -1.63046 84.2037C-1.73862 85.7923 -1.81728 87.3827 -1.8858 88.973C-1.93073 90.0152 -1.96445 91.0579 -1.98697 92.1008L-1.99865 92.6983C-2.00828 93.0767 -2.04671 93.427 -2.36512 93.7023C-2.68865 93.9827 -3.12552 93.9972 -3.44563 93.7023C-3.87416 93.3077 -3.79839 92.7707 -3.78569 92.2406C-3.75368 90.8997 -3.70325 89.5592 -3.63441 88.2196C-3.47367 85.0969 -3.15245 81.9869 -2.73271 78.8898L-2.5689 77.694C-2.26294 75.4713 -1.92697 73.198 -1.24294 71.0568C-1.5089 70.9245 -1.77439 70.7912 -2.03938 70.657C-2.50865 70.4194 -2.99384 70.1964 -3.4499 69.9342C-3.81186 69.7261 -4.12396 69.4408 -4.22461 69.0197C-4.33703 68.5505 -4.16521 68.0374 -4.05109 67.5797L-4.0412 67.5395C-3.92895 67.0786 -3.80905 66.6196 -3.68154 66.1628C-3.16592 64.31 -2.52842 62.4934 -1.78225 60.7211C-0.288219 57.1729 1.64022 53.8021 3.99582 50.7543C6.11627 48.0108 8.62102 45.5229 11.5568 43.6569C12.992 42.7446 14.5215 41.9956 16.139 41.466C16.8951 41.2185 17.7177 41.0032 18.5093 40.9145C18.9362 40.8668 19.3638 40.8395 19.7929 40.8208ZM27.473 35.1983C27.9881 34.6452 29.0116 35.2176 28.7642 35.9501C28.1825 37.6733 27.256 39.2451 25.8102 40.3774C24.4512 41.4419 22.8306 42.1332 21.0853 41.9857C21.073 41.9847 21.061 41.9815 21.0499 41.9762L21.2003 42.1803C22.381 43.7775 23.6267 45.3527 25.1282 46.6582C28.1872 49.3182 32.3523 50.7529 36.3742 49.7323C39.5385 48.9294 42.3263 46.4272 43.1462 43.2383C43.0286 43.291 42.8889 43.309 42.7356 43.2757C42.0796 43.1333 41.4302 42.4433 41.0071 41.9487C40.5494 41.4135 40.192 40.8357 39.93 40.1825C39.4505 38.9871 39.2968 37.448 39.9515 36.29C40.0323 36.1473 40.2186 36.2273 40.2345 36.3666L40.2593 36.5841C40.3856 37.6694 40.5428 38.7192 41.0545 39.7085C41.3049 40.1926 41.6051 40.6651 41.9705 41.0705C42.166 41.2874 42.3779 41.4947 42.6068 41.6766C42.8297 41.8537 43.0996 41.9819 43.2995 42.1852L43.3361 42.2242L43.3372 42.2172C43.3877 41.7876 43.689 41.5983 43.9838 41.6102C44.269 41.6217 44.6041 41.7472 44.7339 41.8074L44.7462 41.8132C46.7364 42.7686 48.5694 44.0138 50.2944 45.3954C53.8617 48.2525 56.5345 51.9876 57.8295 56.386C58.4652 58.5447 58.8299 60.7691 59.2148 62.983L59.4519 64.3396C59.8112 66.3834 60.2127 68.4676 61.0239 70.3688C61.2337 70.8607 61.0719 71.3219 60.5574 71.5153C59.915 71.7568 59.2701 71.9907 58.6243 72.2217C58.9414 73.5822 59.1348 74.9898 59.3724 76.3568C59.8775 79.2631 60.4963 82.1506 61.0269 85.0534C61.2982 86.5372 61.543 88.0261 61.814 89.5099C61.9445 90.225 62.0807 90.9384 62.2131 91.6526C62.2845 92.0378 62.3491 92.4247 62.4172 92.8099L62.4291 92.8747C62.4681 93.0775 62.5171 93.2881 62.4611 93.4918C62.3973 93.7244 62.216 93.8881 62.0542 94.0551C61.921 94.1923 61.7284 94.1932 61.5652 94.1182L61.5115 94.0935C61.2201 93.9571 60.9916 93.8207 60.8883 93.4918C60.8228 93.2838 60.7992 93.0494 60.7564 92.8347C60.6743 92.4239 60.5965 92.0114 60.5231 91.5989C60.3761 90.7728 60.2326 89.946 60.0925 89.1187L59.9616 88.344C59.5124 85.6739 59.0859 82.9875 58.8702 80.2892C58.7745 79.0918 58.6732 77.896 58.5708 76.6994L58.4941 75.8025C58.3969 74.6668 58.2782 73.5025 58.2614 72.3515L57.8751 72.4886L55.9908 73.1547C55.5235 73.3198 54.9287 73.6582 54.4258 73.5966C54.1797 73.5665 53.992 73.489 53.8471 73.3482C54.0206 75.797 54.2555 78.242 54.5686 80.6736C54.8534 82.8869 55.1692 85.0969 55.5421 87.2966C55.7268 88.3858 55.9166 89.4741 56.1228 90.5599C56.2258 91.1028 56.3322 91.6449 56.4418 92.1861C56.4964 92.4562 56.5614 92.7273 56.6041 92.9991C56.6528 93.3111 56.5669 93.5028 56.3926 93.7602C56.2495 93.9707 55.9632 94.079 55.7312 93.9332C55.4238 93.7406 55.2635 93.5736 55.1731 93.2224C55.0909 92.9028 55.041 92.5704 54.9774 92.2474C54.8601 91.6508 54.7466 91.0534 54.6371 90.456C54.4081 89.2048 54.197 87.952 54.0085 86.694C53.3441 82.2648 52.9226 77.7989 52.7097 73.3254C52.6046 71.1182 52.5721 68.9091 52.5908 66.6997C52.6003 65.5672 52.6373 64.4315 52.7174 63.3018C52.7986 62.1583 52.9673 61.0376 53.118 59.9051C53.1233 59.8653 53.1795 59.863 53.1819 59.9051C53.2533 61.1749 53.3651 62.4431 53.4199 63.7162C53.4722 64.9309 53.4951 66.1475 53.5367 67.3627C53.5914 68.96 53.6671 70.5583 53.7674 72.1555C53.9491 71.9568 54.2228 71.8422 54.4967 71.887C54.8935 71.8037 55.3207 71.5955 55.699 71.4691L57.1252 70.9927C57.875 70.7423 58.6247 70.4936 59.3771 70.2524C58.7044 67.9894 58.2436 65.6926 57.8501 63.3623L57.6746 62.3143C57.3273 60.2514 56.9527 58.1876 56.3236 56.19C55.6621 54.0898 54.6723 52.1373 53.3592 50.3691C52.0649 48.6264 50.4901 47.092 48.8687 45.6568C47.4806 44.4281 45.9957 43.3188 44.5799 42.1239C44.5948 42.2031 44.5979 42.2903 44.5849 42.3861C44.2839 44.5892 43.1346 46.6409 41.5329 48.1669C38.3151 51.2326 33.552 51.8686 29.4337 50.431C25.4499 49.0405 21.9277 45.7471 20.6833 41.6718C20.662 41.6021 20.7554 41.5744 20.7929 41.6256C20.862 41.7202 20.9313 41.8148 21.0008 41.9094C20.9961 41.8718 21.0156 41.8309 21.062 41.813C22.5139 41.2524 23.9397 40.4573 25.028 39.3326C25.5585 38.7843 26.0214 38.1632 26.3869 37.4933C26.562 37.1724 26.7192 36.8401 26.8447 36.4967L26.8765 36.4079C27.0286 35.9778 27.1556 35.5392 27.473 35.1983Z" fill="black"/>
<path fill-rule="evenodd" clip-rule="evenodd" d="M37.8151 39.6122C36.0546 39.6073 34.4432 39.2636 32.9143 38.511C31.0683 37.9074 29.0524 37.5785 27.5543 36.2424C26.8248 36.3974 26.077 35.6469 25.4718 35.2001C24.4848 38.8395 19.3479 38.2341 17.1774 35.882C15.8496 34.7583 15.3155 31.9786 17.6213 31.2433C13.8435 28.672 12.479 24.2303 12.7388 19.4241C13.0119 11.3617 19.197 2.97979 27.1468 1.58138C28.7151 1.30491 30.3256 1.33422 31.8872 1.66295C32.7592 1.85249 33.6021 2.21999 34.5353 2.20329C38.1548 1.62996 42.1301 1.69584 45.1197 4.01718C49.8979 7.22079 50.5621 13.6306 50.0037 18.7842L50.0264 18.8324C49.7486 20.7241 49.287 22.4567 48.414 23.5972C48.346 25.2369 47.7775 28.737 47.7354 30.1208C47.8373 36.5597 44.188 39.4175 37.815 39.6122" fill="#694D3D"/>
<path fill-rule="evenodd" clip-rule="evenodd" d="M25.4486 2.79178C28.7091 1.68638 30.7667 2.2574 33.8095 2.86797L33.997 2.90539L34.2921 2.96317C37.3454 2.75794 39.9754 2.08635 42.9233 3.55184C49.0572 6.13627 50.1925 13.2706 49.77 19.2283L49.745 19.3391C49.5452 20.2083 49.2641 21.1064 48.6733 21.7974C47.6816 16.9056 44.4933 13.6762 40.5728 10.5928L40.4327 10.4229C39.9459 9.83479 39.415 9.2238 38.7729 8.80891C38.794 8.61877 38.8045 8.4282 38.8011 8.24027C38.7964 7.98067 38.4265 7.76232 38.2337 7.98809L38.1968 8.03377C37.9452 8.33999 36.6227 9.81195 35.9534 10.5673L35.87 10.6617L35.6681 10.8917L35.3273 11.3006C31.6479 15.7087 27.767 20.1338 22.2792 22.2495C20.9642 21.4162 19.369 22.15 18.5473 23.324C16.2122 26.0514 18.919 31.1944 22.508 29.7992C22.7259 31.6854 23.6679 33.8119 24.9458 35.2346C23.5456 37.1924 21.3054 37.5457 19.2098 36.4376C17.1643 35.5218 15.8405 33.5994 17.0962 31.473C17.1226 31.4576 17.1497 31.4428 17.1774 31.4283C18.1401 32.072 19.2621 32.4938 20.4223 32.5792L20.5102 32.5851C21.235 32.6194 21.2234 31.4756 20.4879 31.4171C15.6235 30.7975 13.4639 25.2307 13.4591 20.8652C13.2524 13.1805 18.033 5.27385 25.4486 2.79187L25.4486 2.79178Z" fill="#4A312C"/>
<path fill-rule="evenodd" clip-rule="evenodd" d="M16.7895 31.1544C5.34626 21.0222 17.0858 -1.77964 31.9747 1.24567C33.4816 1.75133 35.0118 1.92681 36.5724 1.55215C44.4364 0.321555 50.8699 7.00857 50.5373 14.7451C50.5927 16.0683 50.582 17.3927 50.4393 18.7107C50.2761 20.443 49.8303 22.2957 48.8363 23.7358C48.8248 24.7031 48.2565 28.3315 48.1653 30.0386L48.1477 30.3951C48.0572 32.1495 47.8617 33.9389 47.0921 35.5387C44.7254 39.8361 38.6288 40.7583 34.2574 39.5064L34.0756 39.4466C33.2636 39.1761 32.343 38.8156 31.8275 38.1341C31.555 37.774 32.0061 37.3143 32.3812 37.4122C32.8641 37.5383 33.2644 37.8333 33.7152 38.0429C36.6557 39.3452 40.1336 38.9091 43.0362 37.6926L43.124 37.6555C48.3225 35.5409 46.8985 28.0185 47.5828 23.7293C47.7384 18.2827 43.2052 14.5736 39.7898 10.9712L39.6876 10.8571C39.3367 10.4672 38.966 10.0871 38.4781 10.0039C38.3445 10.4102 38.0159 10.7559 37.7111 11.0523L37.0218 11.7988C36.3324 12.5444 35.6415 13.2869 34.9407 14.0229C31.5383 17.4864 28.0717 22.1889 22.8271 22.543C23.1495 22.8354 23.4322 23.1694 23.7701 23.4447C23.9126 23.5876 23.7673 23.8275 23.5761 23.7785C23.2196 23.6872 22.9916 23.3483 22.7576 23.0835C19.925 21.892 17.5988 26.2952 19.9987 28.1182C20.8889 29.0628 23.4905 28.344 22.8889 29.5089C23.5455 31.5723 24.5561 33.6475 26.2656 35.0277C26.7676 35.4075 27.5516 35.5998 27.8846 36.1589C27.965 36.2937 27.924 36.5136 27.773 36.5852C27.0468 36.9245 26.2667 36.3539 25.7089 35.924C22.7636 41.6936 11.9629 35.3191 16.7895 31.1544ZM34.2922 2.96181L33.997 2.90394C30.8501 2.28008 28.7756 1.66244 25.4486 2.79042C18.033 5.27249 13.2524 13.1791 13.4591 20.8638C13.464 25.2293 15.6236 30.7961 20.4879 31.4157C21.2234 31.4743 21.2349 32.618 20.5102 32.5837L20.488 32.5823C19.2889 32.5073 18.1282 32.0715 17.1388 31.401C15.8113 33.5554 17.1417 35.5103 19.2098 36.4363C21.3054 37.5443 23.5456 37.191 24.9459 35.2333C23.6679 33.8105 22.726 31.6841 22.5081 29.7978C18.9191 31.193 16.2123 26.0501 18.5473 23.3226C19.3691 22.1486 20.9642 21.4148 22.2792 22.2481C27.9366 20.067 31.8864 15.4313 35.6681 10.8903L35.87 10.6603C36.5321 9.91082 38.0546 8.21803 38.2235 7.99917C38.4132 7.75312 38.7964 7.97462 38.8011 8.23891C38.8039 8.42887 38.7945 8.6188 38.773 8.80755C39.4771 9.26258 40.0477 9.95352 40.5728 10.5914C44.4933 13.6749 47.6816 16.9042 48.6733 21.796C49.2893 21.0757 49.5686 20.1301 49.77 19.2269C50.1925 13.2692 49.0572 6.13491 42.9234 3.55048C39.9755 2.08499 37.3454 2.75658 34.2922 2.96181ZM20.3821 25.3369C20.1267 25.1084 21.8142 25.0808 21.9735 25.2597L22.0098 25.2722C22.614 25.485 23.7202 26.1713 23.177 26.8838C22.4024 27.6153 21.8629 25.4435 20.3821 25.3369Z" fill="black"/>
<path fill-rule="evenodd" clip-rule="evenodd" d="M34.9756 30.1358C36.3329 29.0818 43.554 28.7645 44.2704 29.4502C44.9868 30.1358 46.6705 32.1179 43.4489 33.3744C40.2273 34.631 36.1255 34.5564 34.9756 33.3744C33.8256 32.1924 33.6181 31.1897 34.9756 30.1358Z" fill="white"/>
<path fill-rule="evenodd" clip-rule="evenodd" d="M41.1593 28.571C41.8836 28.5464 42.613 28.4902 43.3334 28.5958C44.5302 28.7711 45.7422 29.6214 45.7383 30.9439C45.7319 33.1624 43.2319 34.0019 41.45 34.2913L41.2521 34.3232C39.1068 34.6667 36.5493 34.9774 34.6244 33.761C33.7174 33.1878 33.1423 32.2191 33.4078 31.1313C33.6608 30.0947 34.5357 29.3501 35.5178 29.0284C36.6635 28.653 37.849 28.8458 39.0148 29.0003C39.0998 29.0116 39.1845 29.0223 39.2692 29.0332C39.5404 28.9466 39.807 28.8299 40.0789 28.7498C40.437 28.6442 40.7853 28.5836 41.1593 28.571ZM40.8958 31.4142L39.7718 31.5614C39.3511 31.6167 38.9302 31.6698 38.5094 31.7212C38.5633 32.2944 38.5726 32.8739 38.5535 33.4596C39.3117 33.4432 40.0739 33.3452 40.818 33.2199C40.8673 32.6192 40.8964 32.0177 40.8958 31.4142ZM37.5719 31.8403C36.5505 31.9521 35.5277 32.0505 34.5038 32.1355C34.7347 32.5816 35.3266 32.8645 35.78 33.0245C36.2985 33.2074 36.8335 33.3176 37.3764 33.3744C37.4707 32.8691 37.5317 32.356 37.5719 31.8403ZM44.9865 30.988C44.2144 31.1147 43.4188 31.1697 42.6483 31.2667L41.7481 31.3801C41.8409 31.9279 41.9098 32.4796 41.9544 33.0335L42.0947 33.0061C42.7261 32.8795 43.3606 32.7101 43.9186 32.3893L43.9658 32.3615C44.4119 32.092 45.0008 31.5564 44.9865 30.988ZM37.6572 30.1358C37.1522 30.1812 36.6186 30.19 36.1321 30.2971C35.4211 30.4535 34.5658 30.8455 34.4313 31.6459C34.4101 31.7672 34.4152 31.8916 34.4463 32.0108C35.4983 31.8119 36.5529 31.6275 37.61 31.4575C37.6353 31.0166 37.6482 30.5749 37.6572 30.1358ZM40.3908 29.8801L39.6991 29.9403C39.1893 29.9848 38.6789 29.9992 38.1685 30.0371C38.2915 30.4359 38.3801 30.8382 38.4408 31.2437C38.8602 31.1789 39.28 31.1156 39.7002 31.0541L40.8958 30.8791L40.8942 30.5772C40.8933 30.373 40.8895 30.1687 40.8827 29.9645L40.8329 29.9605C40.6833 29.9439 40.5365 29.9149 40.3908 29.8801ZM44.6458 30.3556C44.1678 29.9264 43.2729 29.9561 42.7013 29.9737C42.2728 29.9867 41.8382 30.0315 41.4072 30.0309C41.4879 30.2898 41.5645 30.5504 41.6274 30.8176L42.5486 30.6832C43.2412 30.5823 43.9443 30.4432 44.6458 30.3556ZM41.4046 24.4404C42.0482 24.8316 43.0288 25.7437 42.3364 26.7136C41.5215 27.5687 40.3481 26.5883 39.7699 26.1448C39.2338 25.8012 38.6314 26.685 39.1288 27.0863C43.307 30.1797 45.0026 24.5426 41.7301 23.9804C41.3698 23.9184 41.2359 24.3193 41.4046 24.4404ZM47.709 22.2591C47.4888 23.698 45.227 25.7042 44.9201 25.7042C44.6131 25.7042 41.9851 23.1515 41.9851 22.016C41.9851 20.8804 43.1203 19.3562 44.9201 21.2754C45.9435 19.9939 47.9291 20.8203 47.709 22.2591ZM37.6605 20.9802C38.1927 21.7572 37.9901 22.7239 37.4484 23.4323C36.969 24.0594 35.3565 25.4626 35.1039 25.4987C34.7927 25.5433 33.3678 23.932 33.0383 23.6616C32.7087 23.3911 31.795 22.522 32.012 21.7168C32.2208 20.9423 33.3376 19.6325 34.9683 20.9802C35.4869 19.6948 37.1798 20.2784 37.6605 20.9802ZM32.3616 18.4785C33.1968 17.5425 34.9659 16.5548 35.9409 17.8197C36.1899 18.143 35.9241 18.6712 35.5606 18.7547C35.1104 18.8582 34.6556 18.7952 34.2136 18.9237C33.8086 19.0413 33.4207 19.2771 33.0736 19.5122C32.6777 19.7801 32.3131 20.0793 31.978 20.4201C31.7788 20.623 31.5277 21.1032 31.2204 21.1122C30.9148 21.1211 31.325 20.1656 31.3589 20.083C31.5995 19.495 31.9385 18.9524 32.3616 18.4785ZM42.4711 16.1894C42.9521 15.9653 43.4213 16.065 43.9055 16.1974L44.1141 16.2554C44.63 16.3988 45.1809 16.5751 45.6235 16.8844L45.6583 16.909C46.2151 17.3085 47.0665 18.1657 46.6601 18.9104C46.6329 18.9601 46.5753 18.965 46.5289 18.9447C46.0053 18.7155 45.6171 18.2574 45.0601 18.0658L44.9573 18.0309C44.4179 17.8491 43.7506 17.6581 43.17 17.6755C42.7618 17.8082 42.2104 17.6982 42.1042 17.2013L42.0994 17.177L42.0902 17.1255C42.029 16.7859 42.12 16.3531 42.4711 16.1894Z" fill="black"/>
</svg>
