<svg width="60" height="58" viewBox="0 0 60 58" fill="none" xmlns="http://www.w3.org/2000/svg">
<path fill-rule="evenodd" clip-rule="evenodd" d="M60.1094 89.5358C59.7659 87.5957 59.451 85.6506 59.1648 83.7011C59.0289 82.7756 58.8964 81.8492 58.7773 80.9212C58.6938 80.2711 58.5667 79.5276 59.0091 79.0462C59.6315 78.3685 60.1969 77.7884 60.2731 76.8176C60.3447 75.9042 60.0359 74.9085 59.8428 74.0219C59.4378 72.1626 58.9336 70.3263 58.3764 68.5073C57.8104 66.6594 57.1898 64.8288 56.5602 63.0016C55.9717 61.2934 55.4058 59.5696 54.6392 57.9306C53.1843 54.8203 50.7229 52.5168 47.681 50.9788C46.9244 50.5963 45.3813 49.2308 44.5909 48.9251C43.8643 48.644 43.8669 49.4648 43.1518 49.1556C42.5801 48.9085 42.0477 48.5789 41.7276 48.0269C41.3801 47.4275 40.5084 46.5892 40.3757 45.8915C40.0946 44.4127 40.3992 43.154 39.3437 42.041C38.4067 41.0526 37.1473 40.3755 35.8442 40.012C32.9775 39.2125 29.1544 39.7715 27.4248 42.4353C26.5987 43.7074 26.31 45.2451 25.1953 46.2832C24.2219 47.1897 24.4398 47.8095 23.1791 48.2767C23.1077 48.3032 21.1723 47.888 21.1009 47.9146C19.7218 47.6195 18.4036 48.4456 17.1384 48.9251C15.252 49.6396 13.4561 50.5698 11.7689 51.6753C8.3666 53.9044 5.45268 56.799 3.05047 60.0745C0.628307 63.3771 -1.25104 67.0787 -2.58919 70.9475C-2.91433 71.8872 -3.20599 72.8383 -3.46362 73.7988C-3.60766 74.3363 -3.76166 74.8938 -3.58618 75.4441C-3.44266 75.8943 -3.1234 76.2295 -2.74848 76.4996C-2.24027 76.8658 -1.22087 77.1039 -1.24081 77.8404C-1.2559 78.4003 -1.44587 78.9897 -1.5386 79.5431C-1.64897 80.202 -1.73973 80.8649 -1.83033 81.5268C-2.24283 84.5398 -2.56388 87.5696 -2.70587 90.608C-2.84564 93.5994 -2.96164 96.6523 -2.75411 99.6429C-2.74047 99.8398 -2.68166 100.021 -2.58672 100.174C-2.67536 100.208 -2.68218 100.373 -2.57189 100.396C-2.49468 100.413 -2.41763 100.43 -2.34041 100.446C-2.18002 100.567 -1.97999 100.641 -1.74979 100.649C-1.59382 100.654 -1.43786 100.661 -1.28189 100.668C0.362995 101.013 2.0078 101.337 3.67424 101.584C5.69993 101.882 7.73157 102.126 9.76953 102.324C13.9572 102.732 18.1118 102.596 22.305 102.377C26.4917 102.157 30.6759 102.106 34.867 102.215C39.0617 102.324 43.2549 102.507 47.4506 102.582C52.138 102.665 56.8182 102.537 61.4921 102.164C62.1329 102.114 62.5294 101.603 62.403 100.967C61.6457 97.1534 60.7876 93.3659 60.1094 89.5358Z" fill="#EDB98A"/>
<path fill-rule="evenodd" clip-rule="evenodd" d="M17.1384 48.9251L17.2299 48.8898C18.4672 48.4065 19.755 47.6266 21.101 47.9146C21.1486 47.8969 22.0244 48.0755 22.6242 48.1886L22.0549 48.7829L21.05 48.9762C24.5165 54.6974 28.6164 57.5579 33.3495 57.5579C38.0828 57.5579 41.6744 54.6974 44.1244 48.9762L44.4587 48.8837C44.5 48.8933 44.544 48.9068 44.591 48.9251C45.3814 49.2308 46.9244 50.5962 47.681 50.9787C50.7229 52.5168 53.1843 54.8202 54.6392 57.9306C55.3803 59.515 55.9337 61.1785 56.5014 62.8307L56.5602 63.0016C57.1898 64.8287 57.8104 66.6593 58.3764 68.5073C58.9094 70.2472 59.3939 72.0029 59.7894 73.7795L59.8428 74.0219C60.0359 74.9085 60.3448 75.9041 60.2731 76.8176C60.246 77.1634 60.1567 77.4597 60.0249 77.7284L53.1687 80.1955L56.4351 102.473C53.4431 102.602 50.4483 102.635 47.4506 102.582C43.2549 102.507 39.0617 102.324 34.867 102.215C30.8029 102.109 26.7454 102.155 22.6856 102.357L21.6546 102.41C17.6819 102.609 13.7406 102.71 9.76953 102.324L9.49894 102.298V99.0386L10.8939 80.8928L3.82467 79.5622L-3.1147 76.1918C-3.32436 75.9822 -3.4926 75.7376 -3.58618 75.4441C-3.74871 74.9344 -3.62862 74.4185 -3.4955 73.9181L-3.46354 73.7987C-3.2059 72.8383 -2.91424 71.8872 -2.5891 70.9475C-1.25104 67.0787 0.628311 63.377 3.05047 60.0745C5.45277 56.799 8.36669 53.9044 11.7689 51.6752C13.4561 50.5698 15.252 49.6396 17.1384 48.9251Z" fill="#E279C7"/>
<path fill-rule="evenodd" clip-rule="evenodd" d="M19.7929 47.8208C20.2263 47.802 20.6683 47.8721 21.1008 47.9146C21.1384 47.9183 21.1527 47.9764 21.1103 47.9853C20.3364 48.147 19.5709 48.3681 18.8109 48.5928L18.4854 48.6891C17.6283 48.9426 16.7963 49.2042 15.9665 49.5424C14.3127 50.2164 12.7421 51.1261 11.2966 52.1712C5.73019 56.1957 1.7015 62.289 -0.840833 68.5976C-1.53167 70.3114 -2.11588 72.0662 -2.59012 73.8521C-2.70514 74.2865 -2.81396 74.7226 -2.91654 75.1601C-2.94671 75.2883 -3.07822 75.6168 -3.00603 75.7481C-2.94237 75.8641 -2.69453 75.9357 -2.57938 75.9961L-2.19066 76.1976C-1.4324 76.5884 -0.169327 77.2308 -0.0426793 77.2934L0.154878 77.3907C3.38584 78.9746 6.83823 80.3178 10.4741 80.4108L10.5026 80.1003C10.6647 78.3837 10.8774 76.658 11.3417 74.9942C11.3667 74.9048 11.4805 74.935 11.4909 75.0144C11.7495 76.9841 11.6669 78.9691 11.5766 80.948C11.4168 84.4528 11.2046 87.9557 11.016 91.4585C10.9216 93.2116 10.7995 94.9622 10.6893 96.7145C10.5789 98.4693 10.5432 100.267 10.2912 102.007C10.235 102.395 9.78062 102.606 9.43647 102.565C9.05567 102.52 8.76275 102.184 8.76096 101.8C8.75636 100.786 8.88377 99.7597 8.95459 98.7489C9.02184 97.7875 9.09403 96.827 9.168 95.8665C9.43834 92.3611 9.74934 88.8599 10.037 85.3554C10.1389 84.1128 10.249 82.8713 10.3624 81.6297C6.5107 81.5055 2.91232 80.0789 -0.520463 78.412C-0.570151 79.5402 -0.690066 80.6663 -0.806316 81.7897C-1.13061 84.925 -1.41654 88.0588 -1.63046 91.2037C-1.73862 92.7923 -1.81728 94.3827 -1.8858 95.973C-1.93073 97.0152 -1.96445 98.0579 -1.98697 99.1008L-1.99865 99.6983C-2.00828 100.077 -2.04671 100.427 -2.36512 100.702C-2.68865 100.983 -3.12552 100.997 -3.44563 100.702C-3.87416 100.308 -3.79839 99.7707 -3.78569 99.2406C-3.75368 97.8997 -3.70325 96.5592 -3.63441 95.2196C-3.47367 92.0969 -3.15245 88.9869 -2.73271 85.8898L-2.5689 84.694C-2.26294 82.4713 -1.92697 80.198 -1.24294 78.0568C-1.5089 77.9245 -1.77439 77.7912 -2.03938 77.657C-2.50865 77.4194 -2.99384 77.1964 -3.4499 76.9342C-3.81186 76.7261 -4.12396 76.4408 -4.22461 76.0197C-4.33703 75.5505 -4.16521 75.0374 -4.05109 74.5797L-4.0412 74.5395C-3.92895 74.0786 -3.80905 73.6196 -3.68154 73.1628C-3.16592 71.31 -2.52842 69.4934 -1.78225 67.7211C-0.288219 64.1729 1.64022 60.8021 3.99582 57.7543C6.11627 55.0108 8.62102 52.5229 11.5568 50.6569C12.992 49.7446 14.5215 48.9956 16.139 48.466C16.8951 48.2185 17.7177 48.0032 18.5093 47.9145C18.9362 47.8668 19.3638 47.8395 19.7929 47.8208ZM27.473 42.1983C27.9881 41.6452 29.0116 42.2176 28.7642 42.9501C28.1825 44.6733 27.256 46.2451 25.8102 47.3774C24.4512 48.4419 22.8306 49.1332 21.0853 48.9857C21.073 48.9847 21.061 48.9815 21.0499 48.9762L21.2003 49.1803C22.381 50.7775 23.6267 52.3527 25.1282 53.6582C28.1872 56.3182 32.3523 57.7529 36.3742 56.7323C39.5385 55.9294 42.3263 53.4272 43.1462 50.2383C43.0286 50.291 42.8889 50.309 42.7356 50.2757C42.0796 50.1333 41.4302 49.4433 41.0071 48.9487C40.5494 48.4135 40.192 47.8357 39.93 47.1825C39.4505 45.9871 39.2968 44.448 39.9515 43.29C40.0323 43.1473 40.2186 43.2273 40.2345 43.3666L40.2593 43.5841C40.3856 44.6694 40.5428 45.7192 41.0545 46.7085C41.3049 47.1926 41.6051 47.6651 41.9705 48.0705C42.166 48.2874 42.3779 48.4947 42.6068 48.6766C42.8297 48.8537 43.0996 48.9819 43.2995 49.1852L43.3361 49.2242L43.3372 49.2172C43.3877 48.7876 43.689 48.5983 43.9838 48.6102C44.269 48.6217 44.6041 48.7472 44.7339 48.8074L44.7462 48.8132C46.7364 49.7686 48.5694 51.0138 50.2944 52.3954C53.8617 55.2525 56.5345 58.9876 57.8295 63.386C58.4652 65.5447 58.8299 67.7691 59.2148 69.983L59.4519 71.3396C59.8112 73.3834 60.2127 75.4676 61.0239 77.3688C61.2337 77.8607 61.0719 78.3219 60.5574 78.5153C59.915 78.7568 59.2701 78.9907 58.6243 79.2217C58.9414 80.5822 59.1348 81.9898 59.3724 83.3568C59.8775 86.2631 60.4963 89.1506 61.0269 92.0534C61.2982 93.5372 61.543 95.0261 61.814 96.5099C61.9445 97.225 62.0807 97.9384 62.2131 98.6526C62.2845 99.0378 62.3491 99.4247 62.4172 99.8099L62.4291 99.8747C62.4681 100.078 62.5171 100.288 62.4611 100.492C62.3973 100.724 62.216 100.888 62.0542 101.055C61.921 101.192 61.7284 101.193 61.5652 101.118L61.5115 101.093C61.2201 100.957 60.9916 100.821 60.8883 100.492C60.8228 100.284 60.7992 100.049 60.7564 99.8347C60.6743 99.4239 60.5965 99.0114 60.5231 98.5989C60.3761 97.7728 60.2326 96.946 60.0925 96.1187L59.9616 95.344C59.5124 92.6739 59.0859 89.9875 58.8702 87.2892C58.7745 86.0918 58.6732 84.896 58.5708 83.6994L58.4941 82.8025C58.3969 81.6668 58.2782 80.5025 58.2614 79.3515L57.8751 79.4886L55.9908 80.1547C55.5235 80.3198 54.9287 80.6582 54.4258 80.5966C54.1797 80.5665 53.992 80.489 53.8471 80.3482C54.0206 82.797 54.2555 85.242 54.5686 87.6736C54.8534 89.8869 55.1692 92.0969 55.5421 94.2966C55.7268 95.3858 55.9166 96.4741 56.1228 97.5599C56.2258 98.1028 56.3322 98.6449 56.4418 99.1861C56.4964 99.4562 56.5614 99.7273 56.6041 99.9991C56.6528 100.311 56.5669 100.503 56.3926 100.76C56.2495 100.971 55.9632 101.079 55.7312 100.933C55.4238 100.741 55.2635 100.574 55.1731 100.222C55.0909 99.9028 55.041 99.5704 54.9774 99.2474C54.8601 98.6508 54.7466 98.0534 54.6371 97.456C54.4081 96.2048 54.197 94.952 54.0085 93.694C53.3441 89.2648 52.9226 84.7989 52.7097 80.3254C52.6046 78.1182 52.5721 75.9091 52.5908 73.6997C52.6003 72.5672 52.6373 71.4315 52.7174 70.3018C52.7986 69.1583 52.9673 68.0376 53.118 66.9051C53.1233 66.8653 53.1795 66.863 53.1819 66.9051C53.2533 68.1749 53.3651 69.4431 53.4199 70.7162C53.4722 71.9309 53.4951 73.1475 53.5367 74.3627C53.5914 75.96 53.6671 77.5583 53.7674 79.1555C53.9491 78.9568 54.2228 78.8422 54.4967 78.887C54.8935 78.8037 55.3207 78.5955 55.699 78.4691L57.1252 77.9927C57.875 77.7423 58.6247 77.4936 59.3771 77.2524C58.7044 74.9894 58.2436 72.6926 57.8501 70.3623L57.6746 69.3143C57.3273 67.2514 56.9527 65.1876 56.3236 63.19C55.6621 61.0898 54.6723 59.1373 53.3592 57.3691C52.0649 55.6264 50.4901 54.092 48.8687 52.6568C47.4806 51.4281 45.9957 50.3188 44.5799 49.1239C44.5948 49.2031 44.5979 49.2903 44.5849 49.3861C44.2839 51.5892 43.1346 53.6409 41.5329 55.1669C38.3151 58.2326 33.552 58.8686 29.4337 57.431C25.4499 56.0405 21.9277 52.7471 20.6833 48.6718C20.662 48.6021 20.7554 48.5744 20.7929 48.6256C20.862 48.7202 20.9313 48.8148 21.0008 48.9094C20.9961 48.8718 21.0156 48.8309 21.062 48.813C22.5139 48.2524 23.9397 47.4573 25.028 46.3326C25.5585 45.7843 26.0214 45.1632 26.3869 44.4933C26.562 44.1724 26.7192 43.8401 26.8447 43.4967L26.8765 43.4079C27.0286 42.9778 27.1556 42.5392 27.473 42.1983Z" fill="black"/>
<path fill-rule="evenodd" clip-rule="evenodd" d="M47.0768 18.0864C44.2724 14.1059 37.2253 13.6575 32.7714 13.6827C23.9758 13.6093 22.134 23.7407 21.6747 30.8401C20.7365 31 19.8242 31.3278 19.2051 32.0666C18.4513 32.9663 18.1909 34.5105 18.8977 35.5167C19.3671 36.1849 20.1082 36.4081 20.8835 36.4453C23.4512 36.1998 23.9777 38.4933 25.2423 40.2131C28.4873 44.6062 34.109 46.0313 39.265 46.0531C41.0163 46.0998 43.126 46.2315 44.2476 44.5802C47.79 38.4271 47.8671 30.2665 48.0854 23.2937C48.1154 21.5085 48.1079 19.6187 47.0768 18.0864Z" fill="#EDB98A"/>
<path fill-rule="evenodd" clip-rule="evenodd" d="M53.1292 21.5393C53.1648 21.6068 53.1911 21.6814 53.2056 21.7626C53.2518 22.0204 53.157 22.2176 53.0325 22.409C53.0489 22.5425 53.058 22.6718 53.065 22.7856C53.1047 23.4245 52.9585 24.3002 52.3965 24.561C52.3877 24.5716 52.3788 24.582 52.3695 24.5925C52.3261 24.6633 52.26 24.7245 52.173 24.7691C52.1518 24.7841 52.1299 24.798 52.1074 24.8108C52.1016 24.8157 52.0955 24.8202 52.0894 24.8246C52.0848 24.8278 52.0803 24.8311 52.0759 24.8346C52.0827 24.8274 52.0894 24.8201 52.096 24.8127L52.1106 24.7968C51.7997 24.9211 51.4994 24.9467 51.1788 24.909C50.9807 24.9807 50.7821 25.0343 50.6145 25.0758C50.0913 25.2053 49.4168 25.3089 48.9069 25.0882C48.7583 25.0239 48.6351 24.9388 48.5425 24.8373C48.5501 25.2327 48.5617 25.6281 48.5788 26.0236C48.6136 27.0233 48.6119 28.0222 48.6043 29.0227C48.5958 30.1486 48.5643 31.2753 48.5039 32.4003C48.4759 32.9653 48.4308 33.5295 48.3704 34.092C48.3194 34.64 48.2599 35.1872 48.191 35.7327C48.0285 36.8543 47.7606 37.9844 47.434 39.0685C47.292 39.5389 47.1364 40.0153 46.9595 40.4807C46.8846 40.6946 46.8055 40.906 46.7196 41.1156C46.2663 42.2142 45.7016 43.2744 44.9387 44.1898C44.522 44.6892 44.0619 45.1383 43.5482 45.5159C43.1357 45.8381 42.6892 46.1108 42.1985 46.3256C41.1439 46.7875 39.9669 46.8915 38.8264 46.8744C38.3913 46.8685 37.9302 46.7915 37.4989 46.7195L37.4724 46.7151C37.1356 46.6597 36.7946 46.5855 36.457 46.4986C36.1576 46.4287 35.8616 46.3477 35.5699 46.2531C35.2191 46.1602 34.8806 46.0261 34.5613 45.8534L33.9931 45.6395C33.7559 45.55 33.5254 45.4435 33.3017 45.3216L32.6843 45.0327C32.4281 44.9092 32.1783 44.773 31.9358 44.6244C31.9103 44.6108 31.8814 44.5878 31.8704 44.5622C31.8441 44.5476 31.8176 44.5333 31.7912 44.519C31.7541 44.4991 31.7173 44.4789 31.6807 44.4582C31.6705 44.4531 31.6782 44.4233 31.6918 44.3943C31.6807 44.3713 31.6824 44.3457 31.713 44.3227C31.736 44.3048 31.7726 44.3099 31.8108 44.3219C31.8074 44.3193 31.8049 44.3168 31.8023 44.3142C31.7598 44.2912 31.7181 44.269 31.6765 44.246C31.6664 44.2406 31.6579 44.2328 31.6517 44.2233C31.6454 44.2138 31.6417 44.2028 31.6407 44.1915C31.6398 44.1801 31.6417 44.1687 31.6463 44.1583C31.6509 44.1479 31.6581 44.1388 31.6671 44.1318C31.6782 44.1233 31.6909 44.119 31.7037 44.1182C31.7028 44.1182 31.702 44.1173 31.7011 44.1173C31.6935 44.1122 31.6994 44.0883 31.7105 44.0619C31.6892 44.0347 31.6824 44.0014 31.7198 43.9724C31.7711 43.9321 31.8861 43.9982 31.9398 44.029L31.9512 44.0355C31.9845 44.0541 32.0183 44.072 32.0518 44.0899L32.1127 44.1224C32.1161 44.1148 32.1229 44.1079 32.134 44.1011C32.0549 44.0594 31.9767 44.0168 31.8984 43.9741C31.8499 43.9486 31.787 43.8949 31.8508 43.8446C31.9018 43.8037 32.0336 43.8736 32.0966 43.9094C32.1042 43.9034 32.1127 43.9008 32.1229 43.8991C32.1119 43.8929 32.1007 43.8868 32.0894 43.8808C32.0726 43.872 32.056 43.8627 32.0396 43.8531C31.9631 43.8105 32.0149 43.6776 32.094 43.7219C32.0987 43.7248 32.1034 43.7276 32.1081 43.7304C32.1127 43.7331 32.1174 43.7359 32.1221 43.7389C32.1762 43.7341 32.2511 43.7762 32.2898 43.7979L32.2956 43.8011C32.5618 43.969 32.839 44.1156 33.1265 44.2418C33.3204 44.3338 33.5152 44.425 33.7108 44.5136C33.903 44.6091 34.1012 44.6918 34.3044 44.7616C34.8156 44.9611 35.3318 45.1469 35.8531 45.319C36.5837 45.5193 37.3398 45.6804 38.0984 45.7435C38.197 45.7511 38.2957 45.7579 38.3943 45.7614C38.502 45.7605 38.6097 45.7598 38.7173 45.7592C38.8255 45.7585 38.9336 45.7579 39.0416 45.7571C39.4222 45.7176 39.803 45.6789 40.1831 45.6402L40.2986 45.6284C40.4448 45.6079 40.5877 45.5824 40.7289 45.5526C40.803 45.5349 40.8768 45.5156 40.95 45.4946C40.967 45.4923 40.984 45.4893 41.001 45.4862C41.0095 45.4847 41.0181 45.4832 41.0266 45.4818C41.206 45.4341 41.3821 45.377 41.5581 45.3105C41.6687 45.2653 41.7784 45.2176 41.8872 45.1673C42.247 44.9994 42.6008 44.7778 42.9342 44.5239C43.143 44.3155 43.3518 44.1073 43.5606 43.8991C43.7693 43.6909 43.9781 43.4828 44.1869 43.2744L44.5688 42.7528C45.0621 42.0463 45.4524 41.2588 45.7765 40.4551L46.2919 38.967C46.3454 38.7881 46.3965 38.6091 46.4449 38.4293C46.5427 38.027 46.6405 37.6247 46.7383 37.2233C46.7707 37.0758 46.8021 36.9293 46.8328 36.7827C47.0207 35.8699 47.1245 34.9435 47.2138 34.017C47.3771 32.3312 47.4213 30.6403 47.4332 28.9477C47.4408 27.9361 47.4323 26.9244 47.4119 25.9136C47.4 25.3277 47.3915 24.7418 47.383 24.1558V24.1545C47.372 23.5324 47.36 22.9094 47.3439 22.2872C47.343 22.2736 47.3481 22.2616 47.3549 22.2514C47.3532 22.1781 47.3524 22.1048 47.3515 22.0307C47.3507 21.9821 47.3694 21.9608 47.3966 21.9565C47.3915 21.5125 47.3881 21.0693 47.3873 20.6261C47.3873 20.5972 47.4009 20.5784 47.4187 20.5673V20.4548C47.3447 20.1463 47.2444 19.8437 47.1143 19.5557C47.07 19.4517 47.0207 19.3503 46.9663 19.2514C46.8991 19.1031 46.8115 18.9685 46.7043 18.8449C46.6153 18.6953 46.5053 18.5592 46.3778 18.4409L46.2995 18.3847L46.2213 18.3284C46.1779 18.3054 46.1141 18.2653 46.058 18.2193C46.0074 18.1882 45.9569 18.1568 45.9066 18.1256C45.8562 18.0942 45.8058 18.0629 45.7552 18.0318C45.6965 18.0011 45.7348 17.9244 45.7765 17.904V17.9014C45.7671 17.8972 45.7569 17.892 45.7458 17.8827C45.6239 17.7672 45.4961 17.6579 45.3631 17.5554C45.351 17.5602 45.3378 17.5616 45.3249 17.5595C45.312 17.5574 45.3 17.5519 45.29 17.5435C45.2118 17.4702 45.1318 17.3994 45.0502 17.3312C44.8673 17.2111 44.6759 17.1011 44.4761 17.004C44.1555 16.8523 43.8272 16.7219 43.4904 16.6111C43.425 16.5899 43.3594 16.5697 43.2934 16.5506L43.2719 16.5442C43.2322 16.5423 43.1926 16.5402 43.1529 16.5383C43.0891 16.5351 43.0253 16.5318 42.9614 16.5291C39.1065 16.3597 35.2449 16.4307 31.3988 16.7416C30.4515 16.8183 29.5054 16.9095 28.561 17.0153C28.3829 17.0352 28.1972 17.0508 28.0079 17.0666C27.3137 17.1247 26.57 17.187 25.9698 17.4867C25.9374 17.5029 25.9067 17.52 25.8766 17.5377C25.9283 17.8701 26.0527 18.1958 26.1734 18.5122C26.1917 18.5602 26.21 18.6081 26.228 18.6558C26.4374 19.2128 26.6251 19.7806 26.6065 20.3838C26.5934 20.8045 26.5032 21.209 26.3732 21.6043C26.3066 22.1679 26.1314 22.7122 25.9453 23.247C25.0296 25.8783 24.5311 28.5724 24.5823 31.3655C24.5843 31.4336 24.5686 31.501 24.5369 31.5612L24.5384 31.5722C24.5547 31.6907 24.5709 31.8092 24.59 31.9273C24.6664 32.3981 24.047 32.6322 23.8333 32.3202C23.8191 32.3344 23.8006 32.3434 23.7806 32.3457C23.7262 32.3508 23.6369 32.2614 23.6114 32.2204C23.5782 32.1591 23.5434 32.0994 23.5059 32.0423C23.5008 32.0398 23.4966 32.0381 23.4923 32.0364L23.5261 32.1062C23.5378 32.1304 23.5496 32.1545 23.5612 32.1787C23.5986 32.2537 23.4549 32.2903 23.4124 32.2213C23.3741 32.1608 23.3358 32.1028 23.2976 32.0474C23.2755 32.0636 23.2508 32.0679 23.2346 32.0415C23.1052 31.8259 22.9476 31.6287 22.766 31.4551C22.493 31.2318 22.1945 31.0963 21.8552 31.017C21.5881 30.9787 21.3143 30.977 21.0498 31.0077C20.7462 31.0435 20.4264 31.1193 20.1517 31.2582C19.928 31.4125 19.7035 31.5668 19.4789 31.721C19.4237 31.779 19.3709 31.8395 19.3216 31.9025C19.166 32.1045 19.041 32.3202 18.938 32.5494L18.932 32.5699C18.9298 32.5773 18.9275 32.5847 18.9252 32.592C18.8623 32.7847 18.8214 32.9824 18.8036 33.1852L18.8002 33.5696C18.7992 33.6976 18.7981 33.8257 18.7968 33.954C18.8308 34.2872 18.9158 34.6111 19.046 34.9187C19.1072 35.1003 19.2033 35.2622 19.3334 35.4054C19.4032 35.5264 19.4823 35.6364 19.5707 35.7386C19.7502 35.8579 19.9458 35.9594 20.1541 36.0395C20.2052 36.0531 20.2562 36.0668 20.3081 36.077C20.576 36.1801 20.8532 36.2355 21.1398 36.2432C21.5021 36.2679 21.8569 36.2364 22.2039 36.1486C22.4182 36.1102 22.6257 36.048 22.8264 35.9619C23.0186 35.8648 23.1998 35.748 23.369 35.6116C23.3877 35.5997 23.4158 35.6065 23.4464 35.6219L23.466 35.6076C23.4968 35.5852 23.5276 35.563 23.5578 35.5383C23.5748 35.5264 23.5901 35.5409 23.5978 35.5562L23.608 35.5486C23.6752 35.5025 23.8597 35.6466 23.7764 35.7318C23.8121 35.754 23.8478 35.7804 23.8801 35.8077C24.0281 35.8136 24.3267 36.0864 24.2705 36.129C24.1872 36.2014 24.0996 36.2679 24.0103 36.331C24.0894 36.3898 24.1931 36.481 24.1446 36.5176C24.0579 36.6003 23.9635 36.6719 23.8631 36.7332C23.7951 36.7852 23.7254 36.8347 23.6522 36.8798C23.5731 36.9267 23.4923 36.9668 23.409 37.0043C23.5544 37.2864 23.693 37.571 23.8223 37.8608C23.9082 38.0662 24.0077 38.2648 24.1225 38.4557C24.2688 38.7463 24.444 39.019 24.649 39.273C24.8157 39.5543 25.0113 39.8125 25.235 40.0486C25.5114 40.3639 25.8082 40.6605 26.1237 40.9349C26.2496 41.0244 26.378 41.1114 26.5115 41.1915C26.8516 41.4483 27.2166 41.6701 27.601 41.8537C27.6461 41.8784 27.6818 41.9329 27.629 41.9756C27.6273 41.9764 27.6256 41.9764 27.6239 41.9781C27.7498 42.0497 27.8765 42.1204 28.0041 42.1903L28.0084 42.1926C28.0598 42.2205 28.1551 42.2722 28.0806 42.3327C28.0313 42.3736 27.8791 42.3003 27.7881 42.2526C27.7954 42.2565 27.803 42.2606 27.8108 42.265L27.8281 42.2747L27.8327 42.2772C27.8704 42.2975 28.0131 42.3743 27.9182 42.4239C27.868 42.4324 27.8204 42.4239 27.7745 42.3991C27.7268 42.3812 27.6792 42.3616 27.6324 42.3412C27.6341 42.3565 27.6256 42.371 27.601 42.3829C27.5814 42.3864 27.5627 42.3864 27.544 42.3847C27.6478 42.4435 27.7515 42.5014 27.8561 42.5585C27.8867 42.5747 28.0313 42.6548 27.9361 42.7043C27.8893 42.7136 27.8442 42.706 27.8008 42.6821C27.7217 42.6523 27.6435 42.6173 27.5678 42.579C27.5589 42.5739 27.5499 42.5689 27.541 42.5641C27.5321 42.5591 27.5232 42.5543 27.5142 42.5491C27.5006 42.5491 27.487 42.5474 27.4734 42.5449C27.5568 42.59 27.6409 42.6335 27.726 42.6761C27.7762 42.7034 27.8604 42.7588 27.7881 42.815C27.7379 42.8534 27.6027 42.7844 27.5227 42.7392C27.5176 42.7452 27.5117 42.752 27.5032 42.7588C27.451 42.7983 27.327 42.7268 27.2645 42.6906C27.2557 42.6855 27.248 42.6811 27.2421 42.6778C26.8202 42.4511 26.4129 42.2168 26.0208 41.9483C25.781 41.794 25.5471 41.6321 25.3183 41.4557C24.8803 41.1165 24.4823 40.7219 24.1174 40.306C23.8682 40.0213 23.733 39.8611 23.4915 39.5159C23.1037 38.9602 22.8111 38.3807 22.5296 37.7662C22.5253 37.7568 22.5338 37.7329 22.5466 37.7091C22.4888 37.5668 22.4326 37.4227 22.3765 37.2736C22.2302 37.2932 22.0831 37.3068 21.9377 37.3153C21.5949 37.3349 21.2624 37.3043 20.9401 37.2335C20.5497 37.1832 20.1636 37.0724 19.8217 36.8986C19.6167 36.7954 19.4194 36.6855 19.2323 36.5628C19.0627 36.4727 18.9008 36.3687 18.7484 36.2517C18.0893 35.7472 17.7312 34.9639 17.6436 34.1508C17.5764 33.7929 17.562 33.4247 17.6019 33.0693C17.6312 32.8104 17.6885 32.5555 17.7729 32.3091C17.9285 31.7628 18.2185 31.2574 18.6387 30.8747C18.7093 30.8023 18.7833 30.7332 18.8624 30.6685C19.0962 30.4767 19.3616 30.3224 19.6439 30.2099C19.6984 30.1835 19.7536 30.1588 19.8089 30.1358L19.7417 29.9807C19.7179 29.9875 19.6354 29.9739 19.6252 29.9449C19.6085 29.8994 19.5924 29.8532 19.5764 29.8072L19.5461 29.7207C19.5308 29.7301 19.5113 29.7352 19.49 29.7361V29.8222C19.4909 29.8469 19.4441 30.0003 19.4186 29.9202C19.4024 29.8753 19.3873 29.8299 19.3721 29.7845C19.3624 29.7555 19.3527 29.7265 19.3429 29.6977C19.3216 29.6841 19.3054 29.6679 19.2995 29.6491C19.2969 29.6415 19.2944 29.6338 19.291 29.6261C19.2893 29.6253 19.2867 29.6253 19.285 29.6244V29.6508C19.2859 29.667 19.2434 29.7898 19.2357 29.7659C19.0889 29.3605 18.9684 28.946 18.8751 28.525C18.8116 28.2933 18.7608 28.0583 18.7229 27.821C18.6812 27.6071 18.6446 27.3923 18.6132 27.1758L18.6055 27.1222C18.6051 27.1202 18.6047 27.1183 18.6042 27.1164L18.603 27.1102L18.6023 27.1039C18.6001 27.0827 18.5975 27.0615 18.5945 27.0403C18.5604 26.7957 18.5324 26.5503 18.5111 26.3031C18.466 25.7952 18.4482 25.2847 18.4533 24.775C18.4463 24.7776 18.4398 24.781 18.4331 24.7844L18.421 24.7903C18.2 24.8846 17.9665 24.9616 17.729 25.023C17.3204 25.6148 16.668 26.0153 15.886 26.0574C15.6163 26.0711 15.3462 26.0397 15.0868 25.9645C15.0601 25.9706 15.0325 25.9756 15.0039 25.9793C14.8696 25.9969 14.7615 25.9681 14.6497 25.9383C14.587 25.9216 14.5232 25.9046 14.4529 25.8952C14.4275 25.8918 14.4024 25.8886 14.3776 25.8854C14.0966 25.8492 13.857 25.8183 13.6705 25.6507C13.6098 25.652 13.5492 25.6436 13.4911 25.626C12.953 25.7553 12.3812 25.4703 12.192 24.873C11.8692 24.6835 11.612 24.4023 11.4392 24.076C11.1061 23.6482 10.8398 23.1236 10.6746 22.5725C10.6736 22.5704 10.6726 22.5683 10.6715 22.5662C10.6699 22.5632 10.6683 22.5601 10.6668 22.5569C10.5831 22.3748 10.5432 22.1796 10.5398 21.9837C10.4506 21.4258 10.4741 20.8672 10.6435 20.3762C10.6365 20.1101 10.6988 19.8327 10.8132 19.581C10.9517 19.2758 11.163 18.9249 11.4371 18.7214C11.4378 18.4086 11.5719 18.0643 11.7477 17.8309C12.0985 17.3648 12.6073 17.1184 13.1578 17.0828C13.4379 16.3636 14.2862 16.1956 15.018 16.435C15.3219 16.1237 15.7671 15.9751 16.2115 16.028C16.5872 16.0728 16.9084 16.2529 17.1742 16.501C17.2443 16.5211 17.3141 16.542 17.3839 16.5637C17.6211 16.4605 17.8858 16.4389 18.1366 16.5023C18.5672 16.6135 18.8481 16.9405 19.0425 17.3155C19.1045 17.3583 19.1649 17.4024 19.2241 17.4485C19.2884 17.4778 19.3481 17.5162 19.4015 17.5625C19.4792 17.604 19.5452 17.6722 19.5854 17.7713C19.6951 17.8846 19.7972 18.0045 19.8875 18.1331C19.9551 17.9765 20.0249 17.8209 20.0969 17.6663C20.2142 17.7016 20.356 17.6559 20.415 17.4989L20.4299 17.4589C20.8072 16.4557 21.4788 14.6696 22.1122 13.8407C21.3631 14.3518 20.4485 14.6212 19.54 14.5941C19.5008 14.5929 19.4616 14.5912 19.4224 14.5891C18.934 14.6735 18.438 14.6814 17.9825 14.5898C17.6759 14.4778 17.3769 14.3458 17.0874 14.1949C17.0169 14.1579 16.947 14.1199 16.8776 14.0808C16.8557 14.0624 16.8351 14.0425 16.8145 14.0226L16.7901 13.9991C16.7264 14.0038 16.6625 13.9977 16.6009 13.981C16.3502 13.9147 16.1183 13.7475 15.9729 13.5327C15.9469 13.4937 15.9241 13.4527 15.9047 13.4101C15.7469 13.2555 15.6102 13.0804 15.5098 12.8756C15.3916 12.6361 15.3193 12.3668 15.3116 12.0974C15.2623 11.8332 15.2657 11.5614 15.3575 11.3091C15.3639 11.2919 15.3711 11.275 15.3782 11.2581C15.3825 11.2481 15.3866 11.2382 15.3907 11.2281C15.3928 11.2211 15.3945 11.214 15.3964 11.2068C15.399 11.1966 15.4016 11.1862 15.4052 11.1761C15.4305 11.0907 15.4649 11.0083 15.5077 10.9302C15.523 10.8523 15.5483 10.775 15.5839 10.6997C15.5879 10.6633 15.5928 10.6269 15.5987 10.5906C15.3284 10.0798 15.4241 9.41158 15.8287 8.99627C15.7727 8.72781 15.8297 8.44315 15.9928 8.20494C16.1125 8.02988 16.2789 7.89173 16.4675 7.79585C16.4871 7.78587 16.5392 7.76874 16.6014 7.74897C16.6715 7.68598 16.7463 7.62859 16.8253 7.57732C16.8444 7.07789 17.3419 6.78982 17.7726 6.54036L17.8346 6.50448C17.9749 6.42283 18.0766 6.30556 18.1785 6.18829C18.2854 6.06505 18.3924 5.94181 18.5441 5.85965C18.8095 5.71604 19.1356 5.68306 19.4418 5.65204C19.5094 5.64522 19.5761 5.6384 19.6408 5.63065C20.4851 5.52872 21.3842 5.44997 22.2327 5.54201C22.7038 5.59315 23.0939 5.82122 23.2552 6.19468C23.6605 6.24266 24.0217 6.53559 24.3074 6.83704C24.6641 7.21315 24.9678 7.61346 25.0725 8.10778C25.1423 8.14553 25.2056 8.19173 25.2629 8.24389C25.2607 8.59144 25.2155 8.9396 25.1197 9.26764C25.1479 9.46366 25.0889 9.65099 24.9893 9.82076C25.004 9.98024 24.9941 10.141 24.96 10.2975C25.1539 10.6423 24.9724 11.1633 24.7008 11.5051L24.6987 11.6979C24.7149 11.6894 24.7306 11.6795 24.7453 11.667C25.5267 11.0006 26.3218 10.817 27.1807 10.6187C27.6767 10.504 28.1939 10.3846 28.7421 10.1644C30.0924 9.90326 31.4707 9.73698 32.8539 9.68167C32.8461 9.68052 32.8383 9.67944 32.8305 9.67843C32.8201 9.67707 32.8096 9.6757 32.7992 9.674C32.1021 9.55962 31.4326 9.27232 30.8568 8.85957C30.7044 8.82087 30.5599 8.75193 30.4306 8.63661C30.3049 8.52462 30.2179 8.39542 30.1679 8.25684C30.1451 8.23241 30.1225 8.20769 30.1003 8.18269C29.6681 8.07633 29.339 7.70158 29.3941 7.20897C29.1204 6.88425 29.0197 6.48352 29.1124 6.06607C28.9594 5.80732 28.9461 5.48099 29.0602 5.20766C28.8199 4.91516 28.8012 4.49994 28.9896 4.169C28.8176 3.92397 28.7796 3.59925 28.9918 3.30906C29.092 3.17201 29.2308 3.08559 29.382 3.04383C29.4247 2.8859 29.5116 2.73923 29.648 2.62596C29.7141 2.57107 29.7878 2.52605 29.8667 2.49232C29.895 2.32928 29.9869 2.17468 30.1638 2.05306C30.2377 2.00156 30.3205 1.9641 30.4079 1.94252C30.4852 1.75076 30.6201 1.58261 30.8098 1.47343C31.0389 1.34175 31.3054 1.32428 31.5482 1.39332C31.8653 0.913147 32.5609 0.72701 33.0432 1.08309C33.4448 0.834141 33.95 0.886641 34.311 1.18945C34.7474 0.930959 35.2894 1.03519 35.6318 1.3957C36.1802 1.09536 36.9041 1.31721 37.1978 1.88627C37.7513 1.82474 38.2729 2.18781 38.4205 2.71332C38.4444 2.73275 38.4681 2.75278 38.4917 2.77281L38.4981 2.77826C38.8297 2.7942 39.1448 2.92443 39.3306 3.23337C39.4235 3.38781 39.4664 3.56917 39.4601 3.74687C39.6583 3.85425 39.8185 4.03042 39.8871 4.25874C39.9514 4.47283 39.9272 4.68462 39.8426 4.86914C40.1187 5.16343 40.1917 5.62212 39.996 5.99176C40.0791 6.13558 40.1194 6.30013 40.1125 6.46613C40.1027 6.71917 39.9856 6.92312 39.8263 7.09724C40.0266 7.45945 39.9485 7.92411 39.6229 8.17809C39.4359 8.84252 38.9625 9.2846 38.2373 9.55579C37.873 9.69198 37.4919 9.7969 37.1035 9.87394C38.6577 10.0835 40.1868 10.4518 41.6556 11.0011C41.7355 11.0309 41.8033 11.0193 41.8551 10.9845C41.8691 10.992 41.8834 10.9991 41.8976 11.0064C41.9157 11.0156 41.9339 11.0249 41.9519 11.0347C42.3567 11.2571 42.753 11.4983 43.1391 11.7565C43.1391 11.7139 43.14 11.6713 43.1417 11.6278C43.1342 11.2771 43.171 10.9317 43.264 10.5987C43.1424 10.4325 43.0514 10.2432 43.0019 10.0481C42.8783 9.56107 43.1134 8.86809 43.5356 8.70173C43.6836 8.29042 44.0201 7.99281 44.4326 7.8757C44.4662 7.84503 44.5017 7.81664 44.539 7.79073C44.6238 7.7325 44.7185 7.69033 44.8185 7.6663C44.8693 7.44352 44.9933 7.23837 45.1992 7.09443C45.4896 6.89116 45.8331 6.86908 46.1349 6.97997C46.1923 6.96062 46.2505 6.94383 46.3093 6.92926C46.7951 6.51488 47.5523 6.54539 47.9797 7.03025C48.2731 6.89585 48.6189 6.88988 48.9193 7.07073C49.1597 7.21545 49.3092 7.4488 49.3678 7.70482C49.8228 7.71889 50.239 8.02144 50.3702 8.47298C50.7895 8.52053 51.1325 8.84934 51.2053 9.2632C51.4728 9.30053 51.7198 9.4265 51.8701 9.67698C51.9373 9.78932 51.9773 9.91584 51.9871 10.0464C52.1258 10.1128 52.2456 10.2133 52.3352 10.3385C52.4956 10.5639 52.5265 10.8269 52.4676 11.0745C52.4731 11.0858 52.4788 11.0969 52.4846 11.1079C52.4928 11.1241 52.5011 11.1401 52.5088 11.1565C52.5525 11.2496 52.5875 11.3494 52.6187 11.4507C52.7597 11.6544 52.8249 11.9036 52.8119 12.1539C52.8419 12.2597 52.8709 12.3658 52.8949 12.4724C52.9902 12.8909 53.0259 13.3366 52.9604 13.7628C52.9281 13.969 52.8813 14.1719 52.815 14.3687C52.8082 14.4062 52.7971 14.4412 52.7844 14.4744C52.7478 14.6295 52.701 14.7821 52.6415 14.9312C52.4986 15.1213 52.3489 15.3062 52.1916 15.4852C52.0589 15.6847 51.9075 15.8687 51.7366 16.0375C51.6117 16.1606 51.4772 16.2735 51.3343 16.375C51.049 16.6042 50.7297 16.7829 50.3891 16.8991C50.3283 16.8868 50.2672 16.876 50.2059 16.8666C49.8191 17.08 49.2105 17.1041 48.8383 17.1027C48.4282 17.1011 48.0527 16.9973 47.7404 16.8012L47.8042 16.9288L47.8489 17.0181C47.8399 17.0233 47.8302 17.028 47.8224 17.0341C47.7548 16.922 47.6795 16.8224 47.5907 16.7508C47.4695 16.6529 47.2741 16.6441 47.19 16.8026C47.1885 16.8053 47.187 16.8081 47.1856 16.8109C47.1408 16.8954 47.1471 16.9764 47.1813 17.0426C47.1938 17.0606 47.2062 17.0787 47.2186 17.0968C47.223 17.1019 47.2273 17.1074 47.2321 17.1121L47.2299 17.1124C47.346 17.206 47.4603 17.4355 47.5687 17.6585C47.6421 17.7887 47.7116 17.9211 47.7771 18.0555C47.8153 18.1119 47.8831 18.1614 47.9552 18.1758C47.9411 18.2832 47.9904 18.3943 48.0714 18.4493C48.0926 18.4064 48.1185 18.3624 48.1518 18.3171C48.5173 17.8195 49.2354 17.6048 49.7762 17.8322C49.8841 17.8134 49.9927 17.7994 50.1018 17.7903C50.4588 17.7667 50.8207 17.7948 51.1733 17.8689C51.2834 17.9345 51.3877 18.0095 51.4848 18.0932C51.5673 18.1648 51.6439 18.2398 51.7153 18.3173C51.7706 18.3588 51.825 18.4028 51.8783 18.4487C52.0945 18.5652 52.2533 18.7886 52.3866 19.0111C52.4929 19.1621 52.586 19.322 52.6649 19.489C53.0357 20.1248 53.4636 20.9142 53.1292 21.5393ZM23.3902 33.8261C23.5254 33.9824 23.6333 34.1605 23.7091 34.3528C23.7397 34.4151 23.7023 34.4525 23.6394 34.4415C23.6113 34.4372 23.573 34.4168 23.5339 34.3895C23.5399 34.404 23.5467 34.4168 23.5526 34.4312C23.5858 34.4969 23.5577 34.5437 23.482 34.519C23.4778 34.5165 23.4735 34.5139 23.4701 34.5114C23.5093 34.5812 23.545 34.6528 23.5756 34.7278C23.6088 34.7943 23.579 34.8403 23.5042 34.8148C23.465 34.7926 23.4276 34.767 23.3919 34.7389L23.4052 34.7679C23.4172 34.7938 23.4291 34.8196 23.4395 34.8463C23.4735 34.9136 23.4344 34.9486 23.3681 34.9332C23.3111 34.9017 23.2584 34.8642 23.209 34.8207C23.204 34.8168 23.1993 34.8125 23.1948 34.8083L23.1878 34.802C23.2099 34.8574 23.1682 34.8915 23.1129 34.8804C23.0347 34.8651 22.8876 34.7329 22.8518 34.6631C22.8493 34.6588 22.8476 34.6545 22.845 34.6503C22.8034 34.6222 22.7583 34.5829 22.7243 34.5454C22.6971 34.5847 22.6443 34.6136 22.6205 34.5659C22.5491 34.3707 22.4377 34.2037 22.2854 34.0631C22.1998 33.9374 22.093 33.8275 21.9699 33.7383C21.9036 33.6821 21.8347 33.6284 21.7641 33.5773C21.6391 33.5202 21.5089 33.4767 21.3729 33.4477C21.3574 33.443 21.3418 33.4389 21.3261 33.4354C21.3142 33.4325 21.3023 33.4297 21.2904 33.4264L21.2804 33.4245C21.2234 33.4141 21.1671 33.4037 21.1101 33.3957C20.8643 33.3616 20.6176 33.3557 20.371 33.3778C20.3268 33.3795 20.2843 33.3454 20.2655 33.3062C20.2103 33.3088 20.1558 33.3114 20.1006 33.3165C20.0096 33.3199 20.0291 33.1912 20.098 33.1784C20.1848 33.1622 20.2715 33.1503 20.3565 33.14C20.3546 33.1325 20.3543 33.1247 20.3557 33.117C20.2001 33.1094 20.0453 33.1128 19.8888 33.129C19.8208 33.1324 19.9015 33.0062 19.939 32.9994C19.9478 32.9976 19.9567 32.9964 19.9656 32.995C19.9739 32.9938 19.9823 32.9925 19.9908 32.9909C19.9894 32.9888 19.9882 32.9865 19.9874 32.9841H19.9832C19.8896 32.9883 19.8259 32.8392 19.9381 32.8187C19.9516 32.8163 19.9649 32.8142 19.9781 32.8122C19.9924 32.81 20.0065 32.8077 20.0206 32.8051C20.0155 32.7906 20.0147 32.7778 20.0198 32.7659C19.9713 32.7651 19.9237 32.765 19.8752 32.765C19.8879 32.7642 19.899 32.7373 19.9106 32.7091C19.9231 32.6788 19.9363 32.6471 19.9526 32.6449L19.9905 32.6397L20.0274 32.6347C20.0291 32.6031 20.0767 32.5298 20.0972 32.5256C20.2587 32.4983 20.4169 32.4795 20.5734 32.4736C20.5887 32.4378 20.6108 32.3901 20.6321 32.3901C20.8099 32.3875 20.9808 32.3892 21.1509 32.4071C21.1577 32.402 21.1645 32.3994 21.1705 32.4003C21.1985 32.4071 21.224 32.4131 21.2512 32.4199C21.3457 32.4335 21.4401 32.4531 21.5362 32.4812C21.7632 32.5486 21.9903 32.6551 22.1868 32.7872C22.3722 32.9116 22.5567 33.0412 22.7183 33.1963C22.7753 33.2449 22.8289 33.2977 22.8799 33.3523C22.9624 33.4204 23.0423 33.4903 23.1189 33.5594C23.2124 33.6454 23.3034 33.7341 23.3902 33.8261Z" fill="black"/>
<path fill-rule="evenodd" clip-rule="evenodd" d="M42.372 37.7111C41.8314 37.451 41.213 37.469 40.646 37.6411C39.9749 37.8449 39.3807 38.2684 38.8519 38.7191C38.6456 38.895 38.4495 39.0937 38.2527 39.2934C38.0026 39.5471 37.7517 39.8033 37.4731 40.011C37.565 39.2284 38.1142 38.4336 38.5857 37.8587C39.1644 37.1537 39.9701 36.5821 40.8411 36.3057C41.7687 36.0113 42.7258 36.1731 43.477 36.6512C44.2214 37.1249 44.7635 37.9094 44.8728 38.8688C44.8957 39.0703 44.8015 39.2548 44.6618 39.3945C44.4987 39.5576 44.2698 39.665 44.0563 39.665C43.8385 39.665 43.6453 39.5772 43.5019 39.4373C43.3476 39.2855 43.255 39.0819 43.242 38.8658C43.2328 38.6301 43.1781 38.4236 42.9801 38.1749C42.847 38.008 42.5969 37.8194 42.372 37.7111ZM43.7464 29.4746C43.5221 29.5562 43.2615 29.7531 43.1857 29.9687C43.169 30.0154 43.16 30.0644 43.159 30.1139C43.0859 29.9655 43.0581 29.7907 43.0677 29.6178C43.0978 29.0684 43.6218 28.6697 44.0682 28.4367C44.22 28.3568 44.3833 28.3005 44.5522 28.2699L45.127 28.1674L44.5873 27.9445C44.0876 27.7375 43.6219 27.4562 43.2062 27.1102C42.8082 26.7799 42.4404 26.3526 42.2245 25.8812C42.127 25.6683 42.0505 25.4601 41.9969 25.2351L41.9825 25.1718C41.9561 25.0506 41.9272 24.9887 41.8949 24.9201C41.8759 24.8799 41.8552 24.8366 41.8331 24.7661C41.8206 24.7266 41.8136 24.6934 41.8252 24.6676C41.8365 24.6426 41.8638 24.6319 41.8904 24.6218C42.0666 24.5552 42.3505 24.6005 42.471 24.6488C42.7624 24.7653 43.0185 25.0192 43.265 25.257C43.3852 25.373 43.503 25.4865 43.62 25.5835C44.3665 26.2024 45.2983 26.5545 46.2089 26.6404L46.2636 26.6452C46.5045 26.665 46.7278 26.7599 46.8859 26.918C47.0274 27.0595 47.1148 27.252 47.1148 27.4824C47.1148 27.7069 47.0138 27.923 46.8568 28.0799C46.707 28.2299 46.5043 28.3269 46.2842 28.3191C46.1302 28.3134 45.9766 28.3001 45.8238 28.2794L45.2571 28.2034L45.6898 28.5773C45.779 28.6541 45.8593 28.7407 45.9291 28.8355C46.3234 29.3724 46.4926 30.1909 46.478 30.848C46.4749 30.9765 46.4401 31.1023 46.3766 31.2141C46.3208 31.3114 46.2423 31.3955 46.1411 31.4479C46.0199 31.5108 45.9174 31.5443 45.7794 31.5469C45.6418 31.5509 45.507 31.507 45.398 31.4229C45.2674 31.3235 45.1715 31.1769 45.1056 31.017C45.0181 30.8042 45.0129 30.5797 45.0042 30.3551C44.9982 30.1999 44.9918 30.0445 44.9659 29.8913C44.929 29.6957 44.8406 29.4464 44.729 29.3677C44.5643 29.2515 44.126 29.341 43.8538 29.4362L43.7464 29.4746ZM41.4049 31.4404C42.0484 31.8316 43.0291 32.7437 42.3367 33.7136C41.5217 34.5687 40.3484 33.5883 39.7701 33.1448C39.2341 32.8012 38.6317 33.685 39.1291 34.0863C43.3072 37.1797 45.0028 31.5426 41.7304 30.9804C41.37 30.9184 41.2362 31.3193 41.4049 31.4404ZM36.84 30.1985C36.6641 30.0001 36.4928 29.8152 36.2283 29.7098C35.9152 29.5851 35.536 29.5717 35.2103 29.6652C34.8412 29.7711 34.549 30.0159 34.3323 30.3284C34.1421 30.6031 34.011 30.9299 33.9363 31.2524C33.7969 31.0991 33.7316 30.922 33.7002 30.7418C33.6484 30.4453 33.6851 30.1396 33.7862 29.8489C34.0112 29.2018 34.5535 28.6264 35.1858 28.3787C35.9076 28.096 36.8008 28.1904 37.464 28.5885C37.8023 28.7918 38.1922 29.1443 38.3887 29.4892C38.5228 29.7249 38.5306 29.9689 38.4453 30.1786C38.3515 30.4093 38.1489 30.5967 37.8902 30.6907C37.7677 30.7354 37.6416 30.7318 37.5219 30.7001C37.3662 30.6589 37.2207 30.5711 37.1021 30.4686C37.0032 30.3834 36.9208 30.2897 36.84 30.1985ZM37.9187 26.117C37.7705 26.3152 37.5523 26.4166 37.3249 26.4272C37.3016 26.4283 37.2784 26.4284 37.2551 26.4276L37.2048 26.485C37.1604 26.5355 37.1313 26.5688 37.1011 26.6009C36.9917 26.7173 36.8769 26.8285 36.7571 26.9341C36.4905 27.1697 36.2034 27.3763 35.8927 27.5497C35.3487 27.8537 34.752 28.0907 34.1385 28.2039C33.5296 28.3161 32.9287 28.3506 32.3156 28.2627L32.1669 28.2413C31.8127 28.1894 31.3485 28.1217 31.0576 27.9023C31.1722 27.8659 31.2882 27.8641 31.4013 27.8591C31.475 27.8564 31.5486 27.852 31.6221 27.8458C31.9652 27.8146 32.2986 27.7577 32.6308 27.6657C33.2766 27.487 33.8619 27.2402 34.432 26.8865C34.991 26.5399 35.5043 26.068 35.9133 25.5512L35.9623 25.4884C35.9832 25.4615 36.0037 25.4346 36.0242 25.4079C36.1915 25.1893 36.3451 24.9809 36.605 24.8422C36.8109 24.7324 37.0193 24.7027 37.2196 24.7343C37.4521 24.771 37.6729 24.888 37.8685 25.0518C38.0131 25.1728 38.08 25.3473 38.0907 25.5261C38.1032 25.7365 38.0392 25.9557 37.9187 26.117Z" fill="black"/>
</svg>
