<svg width="60" height="55" viewBox="0 0 60 55" fill="none" xmlns="http://www.w3.org/2000/svg">
<path fill-rule="evenodd" clip-rule="evenodd" d="M60.1094 86.5358C59.7659 84.5957 59.451 82.6506 59.1648 80.7011C59.0289 79.7756 58.8964 78.8492 58.7773 77.9212C58.6938 77.2711 58.5667 76.5276 59.0091 76.0462C59.6315 75.3685 60.1969 74.7884 60.2731 73.8176C60.3447 72.9042 60.0359 71.9085 59.8428 71.0219C59.4378 69.1626 58.9336 67.3263 58.3764 65.5073C57.8104 63.6594 57.1898 61.8288 56.5602 60.0016C55.9717 58.2934 55.4058 56.5696 54.6392 54.9306C53.1843 51.8203 50.7229 49.5168 47.681 47.9788C46.9244 47.5963 45.3813 46.2308 44.5909 45.9251C43.8643 45.644 43.8669 46.4648 43.1518 46.1556C42.5801 45.9085 42.0477 45.5789 41.7276 45.0269C41.3801 44.4275 40.5084 43.5892 40.3757 42.8915C40.0946 41.4127 40.3992 40.154 39.3437 39.041C38.4067 38.0526 37.1473 37.3755 35.8442 37.012C32.9775 36.2125 29.1544 36.7715 27.4248 39.4353C26.5987 40.7074 26.31 42.2451 25.1953 43.2832C24.2219 44.1897 24.4398 44.8095 23.1791 45.2767C23.1077 45.3032 21.1723 44.888 21.1009 44.9146C19.7218 44.6195 18.4036 45.4456 17.1384 45.9251C15.252 46.6396 13.4561 47.5698 11.7689 48.6753C8.3666 50.9044 5.45268 53.799 3.05047 57.0745C0.628307 60.3771 -1.25104 64.0787 -2.58919 67.9475C-2.91433 68.8872 -3.20599 69.8383 -3.46362 70.7988C-3.60766 71.3363 -3.76166 71.8938 -3.58618 72.4441C-3.44266 72.8943 -3.1234 73.2295 -2.74848 73.4996C-2.24027 73.8658 -1.22087 74.1039 -1.24081 74.8404C-1.2559 75.4003 -1.44587 75.9897 -1.5386 76.5431C-1.64897 77.202 -1.73973 77.8649 -1.83033 78.5268C-2.24283 81.5398 -2.56388 84.5696 -2.70587 87.608C-2.84564 90.5994 -2.96164 93.6523 -2.75411 96.6429C-2.74047 96.8398 -2.68166 97.0213 -2.58672 97.1739C-2.67536 97.208 -2.68218 97.3733 -2.57189 97.3963C-2.49468 97.4125 -2.41763 97.4296 -2.34041 97.4457C-2.18002 97.5668 -1.97999 97.6409 -1.74979 97.6486C-1.59382 97.6537 -1.43786 97.6605 -1.28189 97.6682C0.362995 98.0125 2.0078 98.3372 3.67424 98.5835C5.69993 98.8818 7.73157 99.1256 9.76953 99.3242C13.9572 99.7315 18.1118 99.596 22.305 99.377C26.4917 99.1571 30.6759 99.106 34.867 99.2151C39.0617 99.3242 43.2549 99.5065 47.4506 99.5815C52.138 99.6651 56.8182 99.5372 61.4921 99.1639C62.1329 99.1136 62.5294 98.6031 62.403 97.9673C61.6457 94.1534 60.7876 90.3659 60.1094 86.5358Z" fill="#D08B5B"/>
<path fill-rule="evenodd" clip-rule="evenodd" d="M17.1384 45.9251L17.2299 45.8898C18.4672 45.4065 19.755 44.6266 21.101 44.9146C21.1486 44.8969 22.0244 45.0755 22.6242 45.1886L22.0549 45.7829L21.05 45.9762C24.5165 51.6974 28.6164 54.5579 33.3495 54.5579C38.0828 54.5579 41.6744 51.6974 44.1244 45.9762L44.4587 45.8837C44.5 45.8933 44.544 45.9068 44.591 45.9251C45.3814 46.2308 46.9244 47.5962 47.681 47.9787C50.7229 49.5168 53.1843 51.8202 54.6392 54.9306C55.3803 56.515 55.9337 58.1785 56.5014 59.8307L56.5602 60.0016C57.1898 61.8287 57.8104 63.6593 58.3764 65.5073C58.9094 67.2472 59.3939 69.0029 59.7894 70.7795L59.8428 71.0219C60.0359 71.9085 60.3448 72.9041 60.2731 73.8176C60.246 74.1634 60.1567 74.4597 60.0249 74.7284L53.1687 77.1955L56.4351 99.4733C53.4431 99.602 50.4483 99.6352 47.4506 99.5815C43.2549 99.5065 39.0617 99.3242 34.867 99.2151C30.8029 99.1094 26.7454 99.1545 22.6856 99.3574L21.6546 99.4102C17.6819 99.6088 13.7406 99.7102 9.76953 99.3241L9.49894 99.2977V96.0386L10.8939 77.8928L3.82467 76.5622L-3.1147 73.1918C-3.32436 72.9822 -3.4926 72.7376 -3.58618 72.4441C-3.74871 71.9344 -3.62862 71.4185 -3.4955 70.9181L-3.46354 70.7987C-3.2059 69.8383 -2.91424 68.8872 -2.5891 67.9475C-1.25104 64.0787 0.628311 60.377 3.05047 57.0745C5.45277 53.799 8.36669 50.9044 11.7689 48.6752C13.4561 47.5698 15.252 46.6396 17.1384 45.9251Z" fill="#78E185"/>
<path fill-rule="evenodd" clip-rule="evenodd" d="M19.7929 44.8208C20.2263 44.802 20.6683 44.8721 21.1008 44.9146C21.1384 44.9183 21.1527 44.9764 21.1103 44.9853C20.3364 45.147 19.5709 45.3681 18.8109 45.5928L18.4854 45.6891C17.6283 45.9426 16.7963 46.2042 15.9665 46.5424C14.3127 47.2164 12.7421 48.1261 11.2966 49.1712C5.73019 53.1957 1.7015 59.289 -0.840833 65.5976C-1.53167 67.3114 -2.11588 69.0662 -2.59012 70.8521C-2.70514 71.2865 -2.81396 71.7226 -2.91654 72.1601C-2.94671 72.2883 -3.07822 72.6168 -3.00603 72.7481C-2.94237 72.8641 -2.69453 72.9357 -2.57938 72.9961L-2.19066 73.1976C-1.4324 73.5884 -0.169327 74.2308 -0.0426793 74.2934L0.154878 74.3907C3.38584 75.9746 6.83823 77.3178 10.4741 77.4108L10.5026 77.1003C10.6647 75.3837 10.8774 73.658 11.3417 71.9942C11.3667 71.9048 11.4805 71.935 11.4909 72.0144C11.7495 73.9841 11.6669 75.9691 11.5766 77.948C11.4168 81.4528 11.2046 84.9557 11.016 88.4585C10.9216 90.2116 10.7995 91.9622 10.6893 93.7145C10.5789 95.4693 10.5432 97.2668 10.2912 99.0071C10.235 99.3949 9.78062 99.6063 9.43647 99.5653C9.05567 99.5202 8.76275 99.1844 8.76096 98.8C8.75636 97.7858 8.88377 96.7597 8.95459 95.7489C9.02184 94.7875 9.09403 93.827 9.168 92.8665C9.43834 89.3611 9.74934 85.8599 10.037 82.3554C10.1389 81.1128 10.249 79.8713 10.3624 78.6297C6.5107 78.5055 2.91232 77.0789 -0.520463 75.412C-0.570151 76.5402 -0.690066 77.6663 -0.806316 78.7897C-1.13061 81.925 -1.41654 85.0588 -1.63046 88.2037C-1.73862 89.7923 -1.81728 91.3827 -1.8858 92.973C-1.93073 94.0152 -1.96445 95.0579 -1.98697 96.1008L-1.99865 96.6983C-2.00828 97.0767 -2.04671 97.427 -2.36512 97.7023C-2.68865 97.9827 -3.12552 97.9972 -3.44563 97.7023C-3.87416 97.3077 -3.79839 96.7707 -3.78569 96.2406C-3.75368 94.8997 -3.70325 93.5592 -3.63441 92.2196C-3.47367 89.0969 -3.15245 85.9869 -2.73271 82.8898L-2.5689 81.694C-2.26294 79.4713 -1.92697 77.198 -1.24294 75.0568C-1.5089 74.9245 -1.77439 74.7912 -2.03938 74.657C-2.50865 74.4194 -2.99384 74.1964 -3.4499 73.9342C-3.81186 73.7261 -4.12396 73.4408 -4.22461 73.0197C-4.33703 72.5505 -4.16521 72.0374 -4.05109 71.5797L-4.0412 71.5395C-3.92895 71.0786 -3.80905 70.6196 -3.68154 70.1628C-3.16592 68.31 -2.52842 66.4934 -1.78225 64.7211C-0.288219 61.1729 1.64022 57.8021 3.99582 54.7543C6.11627 52.0108 8.62102 49.5229 11.5568 47.6569C12.992 46.7446 14.5215 45.9956 16.139 45.466C16.8951 45.2185 17.7177 45.0032 18.5093 44.9145C18.9362 44.8668 19.3638 44.8395 19.7929 44.8208ZM27.473 39.1983C27.9881 38.6452 29.0116 39.2176 28.7642 39.9501C28.1825 41.6733 27.256 43.2451 25.8102 44.3774C24.4512 45.4419 22.8306 46.1332 21.0853 45.9857C21.073 45.9847 21.061 45.9815 21.0499 45.9762L21.2003 46.1803C22.381 47.7775 23.6267 49.3527 25.1282 50.6582C28.1872 53.3182 32.3523 54.7529 36.3742 53.7323C39.5385 52.9294 42.3263 50.4272 43.1462 47.2383C43.0286 47.291 42.8889 47.309 42.7356 47.2757C42.0796 47.1333 41.4302 46.4433 41.0071 45.9487C40.5494 45.4135 40.192 44.8357 39.93 44.1825C39.4505 42.9871 39.2968 41.448 39.9515 40.29C40.0323 40.1473 40.2186 40.2273 40.2345 40.3666L40.2593 40.5841C40.3856 41.6694 40.5428 42.7192 41.0545 43.7085C41.3049 44.1926 41.6051 44.6651 41.9705 45.0705C42.166 45.2874 42.3779 45.4947 42.6068 45.6766C42.8297 45.8537 43.0996 45.9819 43.2995 46.1852L43.3361 46.2242L43.3372 46.2172C43.3877 45.7876 43.689 45.5983 43.9838 45.6102C44.269 45.6217 44.6041 45.7472 44.7339 45.8074L44.7462 45.8132C46.7364 46.7686 48.5694 48.0138 50.2944 49.3954C53.8617 52.2525 56.5345 55.9876 57.8295 60.386C58.4652 62.5447 58.8299 64.7691 59.2148 66.983L59.4519 68.3396C59.8112 70.3834 60.2127 72.4676 61.0239 74.3688C61.2337 74.8607 61.0719 75.3219 60.5574 75.5153C59.915 75.7568 59.2701 75.9907 58.6243 76.2217C58.9414 77.5822 59.1348 78.9898 59.3724 80.3568C59.8775 83.2631 60.4963 86.1506 61.0269 89.0534C61.2982 90.5372 61.543 92.0261 61.814 93.5099C61.9445 94.225 62.0807 94.9384 62.2131 95.6526C62.2845 96.0378 62.3491 96.4247 62.4172 96.8099L62.4291 96.8747C62.4681 97.0775 62.5171 97.2881 62.4611 97.4918C62.3973 97.7244 62.216 97.8881 62.0542 98.0551C61.921 98.1923 61.7284 98.1932 61.5652 98.1182L61.5115 98.0935C61.2201 97.9571 60.9916 97.8207 60.8883 97.4918C60.8228 97.2838 60.7992 97.0494 60.7564 96.8347C60.6743 96.4239 60.5965 96.0114 60.5231 95.5989C60.3761 94.7728 60.2326 93.946 60.0925 93.1187L59.9616 92.344C59.5124 89.6739 59.0859 86.9875 58.8702 84.2892C58.7745 83.0918 58.6732 81.896 58.5708 80.6994L58.4941 79.8025C58.3969 78.6668 58.2782 77.5025 58.2614 76.3515L57.8751 76.4886L55.9908 77.1547C55.5235 77.3198 54.9287 77.6582 54.4258 77.5966C54.1797 77.5665 53.992 77.489 53.8471 77.3482C54.0206 79.797 54.2555 82.242 54.5686 84.6736C54.8534 86.8869 55.1692 89.0969 55.5421 91.2966C55.7268 92.3858 55.9166 93.4741 56.1228 94.5599C56.2258 95.1028 56.3322 95.6449 56.4418 96.1861C56.4964 96.4562 56.5614 96.7273 56.6041 96.9991C56.6528 97.3111 56.5669 97.5028 56.3926 97.7602C56.2495 97.9707 55.9632 98.079 55.7312 97.9332C55.4238 97.7406 55.2635 97.5736 55.1731 97.2224C55.0909 96.9028 55.041 96.5704 54.9774 96.2474C54.8601 95.6508 54.7466 95.0534 54.6371 94.456C54.4081 93.2048 54.197 91.952 54.0085 90.694C53.3441 86.2648 52.9226 81.7989 52.7097 77.3254C52.6046 75.1182 52.5721 72.9091 52.5908 70.6997C52.6003 69.5672 52.6373 68.4315 52.7174 67.3018C52.7986 66.1583 52.9673 65.0376 53.118 63.9051C53.1233 63.8653 53.1795 63.863 53.1819 63.9051C53.2533 65.1749 53.3651 66.4431 53.4199 67.7162C53.4722 68.9309 53.4951 70.1475 53.5367 71.3627C53.5914 72.96 53.6671 74.5583 53.7674 76.1555C53.9491 75.9568 54.2228 75.8422 54.4967 75.887C54.8935 75.8037 55.3207 75.5955 55.699 75.4691L57.1252 74.9927C57.875 74.7423 58.6247 74.4936 59.3771 74.2524C58.7044 71.9894 58.2436 69.6926 57.8501 67.3623L57.6746 66.3143C57.3273 64.2514 56.9527 62.1876 56.3236 60.19C55.6621 58.0898 54.6723 56.1373 53.3592 54.3691C52.0649 52.6264 50.4901 51.092 48.8687 49.6568C47.4806 48.4281 45.9957 47.3188 44.5799 46.1239C44.5948 46.2031 44.5979 46.2903 44.5849 46.3861C44.2839 48.5892 43.1346 50.6409 41.5329 52.1669C38.3151 55.2326 33.552 55.8686 29.4337 54.431C25.4499 53.0405 21.9277 49.7471 20.6833 45.6718C20.662 45.6021 20.7554 45.5744 20.7929 45.6256C20.862 45.7202 20.9313 45.8148 21.0008 45.9094C20.9961 45.8718 21.0156 45.8309 21.062 45.813C22.5139 45.2524 23.9397 44.4573 25.028 43.3326C25.5585 42.7843 26.0214 42.1632 26.3869 41.4933C26.562 41.1724 26.7192 40.8401 26.8447 40.4967L26.8765 40.4079C27.0286 39.9778 27.1556 39.5392 27.473 39.1983Z" fill="black"/>
<path fill-rule="evenodd" clip-rule="evenodd" d="M49.7701 16.8714C48.0942 6.71423 35.298 4.88295 26.9596 7.02079C26.8059 5.06704 25.5777 3.34068 24.0449 2.20511C17.534 -2.48998 9.82584 5.48133 11.369 12.3513C11.6459 14.4325 13.306 16.8074 15.6287 16.4512C12.709 21.9881 11.5682 33.1532 18.0009 36.6045C18.6215 37.0471 18.7245 37.946 19.2022 38.5224C19.9775 39.452 23.2902 40.636 25.0823 39.6871C25.6454 40.2056 26.2951 40.7102 27.0547 40.8896C30.9786 44.0372 36.7131 44.7474 41.4912 43.4486C44.4351 42.948 47.4867 41.6173 49.0013 38.8984C50.2845 36.8292 49.6932 34.4047 49.1048 32.2147C48.8505 31.0099 48.685 29.7955 48.5832 28.5708C48.7919 28.3267 48.8035 27.9876 48.8556 27.6789C49.0815 26.5845 49.5753 25.5688 49.8223 24.4775C50.3749 22.0003 50.2789 19.3537 49.7701 16.8714Z" fill="#D08B5B"/>
<path fill-rule="evenodd" clip-rule="evenodd" d="M13.3848 5.86426C14.8324 3.10162 17.6702 1.5429 20.5084 1.75673C23.412 1.97543 25.6343 3.98159 26.1488 7.22082L26.1638 7.31935L26.1948 7.5296L26.1666 7.53923L26.1802 7.5631L26.2045 7.60392C26.2333 7.65097 26.2687 7.70449 26.317 7.77437L26.3816 7.86668L26.5989 8.1723L26.6143 8.1942L26.6606 8.26102L26.7539 8.22795C31.3036 6.63591 36.3713 6.65227 40.9012 8.34514L41.0383 8.39696L41.1646 8.4458L41.2359 8.46438C44.0132 9.2004 46.2325 10.9704 47.7517 13.5046L47.7975 13.5817L47.8438 13.6608C49.2306 16.0474 49.9417 18.9974 49.8917 21.9593L49.8899 22.0499L49.8892 22.0644L49.8815 22.1537C49.8155 22.8645 49.637 23.4998 49.2677 24.4686L49.2205 24.5914L49.1474 24.7789L48.9197 25.3568L48.864 25.5007L48.2109 27.2191L48.3318 25.4944C48.3453 25.3026 48.3528 25.1341 48.3592 24.877L48.3604 24.8307L48.375 24.1008L48.3793 23.9377C48.3816 23.8619 48.3841 23.7934 48.387 23.7266L48.3917 23.6271L48.4004 23.4723L48.4025 23.4401L48.3983 23.4053C48.2593 22.3091 47.7571 21.3731 46.8929 20.4864L46.8478 20.4405L46.8021 20.3948L46.7476 20.341C46.1108 19.7169 45.467 19.2397 44.1333 18.3642L44.0758 18.3264L43.3008 17.8211L43.0107 17.6306C42.3712 17.2084 41.9816 16.935 41.5694 16.6163L41.4807 16.5472L41.4112 16.4924C40.6978 15.9265 40.1405 15.3704 39.7126 14.7705L39.6728 14.7142L39.5885 14.5931L39.6487 14.4639L39.6478 14.4656L39.6477 14.4651L39.6506 14.4513L39.6547 14.4282L39.6588 14.4002C39.6677 14.3305 39.6739 14.2606 39.6775 14.1905C39.6791 14.1609 39.6805 14.1306 39.6816 14.1L39.6831 14.0537L39.6837 14.0139L39.6678 14.0609C38.8417 16.4505 36.8839 18.4443 34.1243 19.9157L34.0404 19.9601L33.9456 20.0096C31.2257 21.4202 27.8985 22.23 25.0138 22.253L24.9209 22.2534L24.829 22.2536L24.7581 22.1951C24.4934 21.9765 24.0063 22.2486 24.0949 22.6379C24.9148 26.2396 25.0867 29.9675 24.586 33.5597L24.5683 33.6849L24.5663 33.6968L24.5473 33.7984C24.5297 33.895 24.5131 33.9918 24.4977 34.0888L24.4706 34.2614L24.3663 34.9607L24.3189 35.2603L24.2983 35.3818C24.1221 36.4014 23.8988 37.0949 23.4928 37.6932L23.454 37.7495L23.4141 37.7878L23.3751 37.827C23.2951 37.9095 23.2448 37.9763 23.2203 38.023L23.2151 38.0334L23.2121 38.0398L23.2192 38.0426C23.3482 38.0889 23.6122 38.0796 23.8322 38.0191L23.8595 38.0112L23.8852 38.0032L24.0633 37.9453L24.1875 38.1202L24.2245 38.1718C24.2992 38.2748 24.3752 38.3768 24.4528 38.4777L24.5576 38.6139L24.7998 38.9257L24.5775 39.0796C23.8272 39.599 22.7784 39.4958 21.6641 39.0088L21.6206 38.9896L21.6049 38.982C21.0735 38.7001 20.7255 38.3595 20.1523 37.6337L20.0851 37.5482L19.8299 37.2203L19.7328 37.0975C19.6728 37.022 19.6114 36.9476 19.5489 36.8742L19.5294 36.8516L19.4615 36.7739L19.4465 36.7438C19.1661 36.1781 18.7651 35.8018 18.063 35.397L17.964 35.3408L17.9005 35.2972C16.1193 34.0596 15.068 32.1073 14.6259 29.5753C14.2803 27.5961 14.3161 25.3692 14.6327 22.8683L14.648 22.749L14.6642 22.6247C14.9383 20.5199 15.5649 18.5548 16.515 16.7657L16.5644 16.6733L16.6089 16.5911L16.3861 16.4139L16.2946 16.3425C16.2359 16.2966 16.1755 16.2528 16.1135 16.2112L16.0867 16.1939L16.0617 16.1784L16.0548 16.1909L15.8848 16.1727C15.1668 16.0958 14.4588 15.785 13.8825 15.3058L13.835 15.2657L13.7888 15.2193C12.6749 14.0842 12.1279 12.5105 12.1274 10.7134C12.127 9.12489 12.5619 7.4344 13.3057 6.01222L13.3425 5.9425L13.3848 5.86426Z" fill="#ECDCBF"/>
<path fill-rule="evenodd" clip-rule="evenodd" d="M49.6359 22.0442C49.5391 23.2689 49.0211 24.3709 48.5874 25.5123C48.6348 24.8369 48.6125 24.1342 48.6597 23.4329C48.1554 19.0418 42.1963 17.8881 39.8831 14.5677C39.9707 14.3802 40.0022 12.7037 39.6573 13.1752C38.3192 19.0427 30.3663 21.9864 24.9214 21.9977C24.5096 21.6576 23.6929 22.0169 23.8472 22.6948C24.6614 26.2718 24.8397 30.0137 24.3168 33.6484C24.0704 34.9319 24.0289 36.4762 23.2604 37.5821C22.4448 38.3594 23.4254 38.4218 23.965 38.2464C24.1154 38.4583 24.2742 38.6641 24.4336 38.8692C23.6585 39.4058 22.5275 39.1131 21.7253 38.7559C20.8329 38.2826 20.3227 37.3653 19.6761 36.63C19.3231 35.9179 18.7876 35.5087 18.0993 35.123C14.2696 32.5147 14.3686 26.7931 14.9183 22.6578C16.5203 10.3521 30.1496 4.41462 41.0877 8.68962C46.9948 10.2033 49.7624 16.3237 49.6359 22.0442ZM14.0091 15.0775C11.6731 12.7462 12.1432 8.67062 13.6117 5.98306C16.5542 0.36769 24.9117 0.550163 25.9124 7.35658C21.6504 8.81968 18.054 11.957 15.9129 15.9184C15.2158 15.8438 14.5419 15.5326 14.009 15.0775H14.0091ZM49.77 16.8732C48.0942 6.7161 35.2981 4.88482 26.9596 7.02275C26.806 5.06891 25.5777 3.34263 24.0449 2.2069C17.534 -2.4881 9.82584 5.4832 11.369 12.3532C11.6459 14.4344 13.306 16.8092 15.6287 16.4531C12.709 21.99 11.5683 33.155 18.0009 36.6064C18.6215 37.0491 18.7245 37.948 19.2022 38.5242C19.9775 39.4538 23.2902 40.638 25.0823 39.689C25.5084 40.2129 27.9269 41.8061 27.7506 40.2443C27.5727 39.8236 27.0229 39.7138 26.6569 39.5058C25.8876 39.0802 25.2192 38.4804 24.694 37.7758C26.3435 33.1149 26.2178 27.9252 25.2938 23.126C30.8159 22.8477 37.3137 20.4221 39.7494 15.0958C41.3959 18.972 46.502 19.4708 47.7918 23.8045C47.8696 26.0807 47.3825 28.3231 47.7357 30.6004C47.8394 32.8309 49.016 35.0467 48.3358 37.2626C46.4353 42.0948 39.5938 42.8039 35.0738 42.6019C34.0002 42.5131 33.1091 41.9317 32.2265 41.3796C31.6975 41.1281 31.0678 41.6543 31.3919 42.2161C32.6294 43.9466 35.1748 44.0979 37.1294 44.0355C42.2019 43.7341 49.5326 42.2323 49.7959 35.9555C49.6286 33.4673 48.6543 31.0861 48.5832 28.5727C48.7919 28.3285 48.8035 27.9895 48.8556 27.6807C49.0815 26.5862 49.5754 25.5707 49.8223 24.4794C50.3749 22.0022 50.279 19.3556 49.7701 16.8732" fill="black"/>
<path fill-rule="evenodd" clip-rule="evenodd" d="M37.5979 32.8658C38.0746 32.0815 39.0909 34.0027 39.1988 34.3331C39.2937 34.6241 39.3577 34.9243 39.3897 35.2287C39.7593 35.3116 40.1431 35.3117 40.5219 35.2391C41.0848 35.1311 41.4288 34.8285 41.918 34.5686C42.256 34.3891 42.6819 34.5997 42.8576 34.8974C43.0643 35.248 42.9326 35.6117 42.6607 35.873C42.1452 36.3685 41.1308 36.4823 40.4579 36.3507C40.0723 36.2754 39.7189 36.1308 39.4069 35.9207C39.4048 35.9599 39.4034 35.9991 39.4004 36.0383L39.3944 36.1062C39.3427 36.6558 39.1916 37.3468 38.7648 37.7043C38.0647 38.2909 37.2007 37.1629 37.8809 36.5769L37.9021 36.5594C38.3249 36.2177 38.4171 35.3011 38.3943 34.7962C38.3795 34.4639 38.3192 34.1351 38.2154 33.8191L38.194 33.7566C38.1627 33.6679 37.8212 32.827 37.6978 32.9341L37.6919 32.9401C37.641 33.0009 37.5588 32.9301 37.5979 32.8658ZM41.4045 28.4404C42.048 28.8316 43.0286 29.7437 42.3363 30.7136C41.5214 31.5687 40.348 30.5883 39.7698 30.1448C39.2336 29.8012 38.6313 30.685 39.1287 31.0863C43.3068 34.1797 45.0024 28.5426 41.73 27.9804C41.3697 27.9184 41.2359 28.3193 41.4045 28.4404ZM34.5321 24.8244C35.1611 24.7129 35.8054 24.8693 36.3259 25.2373L36.3653 25.2656C36.8668 25.6324 37.4279 26.2763 37.14 26.9084C37.0246 27.1622 36.6787 27.202 36.4592 27.087C36.0939 26.8954 36.0277 26.424 35.7017 26.1631C35.4343 25.9493 35.0744 25.8195 34.7301 25.8508C33.9211 25.9243 33.4235 26.7221 33.1723 27.4096C33.1402 27.4976 33.011 27.5318 32.9606 27.4373C32.3682 26.33 33.4168 25.0223 34.5322 24.8244H34.5321ZM44.6069 24.4066C45.8117 24.3073 47.222 25.5564 46.9048 26.8281C46.7527 27.4383 45.8475 27.4209 45.6865 26.8281C45.598 26.502 45.6069 26.2134 45.3721 25.9425C45.1782 25.7189 44.9029 25.589 44.6069 25.6089C44.2806 25.6309 43.9797 25.794 43.751 26.0231C43.5445 26.2301 43.421 26.5329 43.2071 26.716C43.1544 26.761 43.084 26.7639 43.032 26.716C42.6638 26.3766 42.8848 25.6699 43.1182 25.3155C43.4523 24.8084 43.9963 24.4569 44.6069 24.4066ZM32.2377 22.5689C33.0107 21.8847 34.4151 21.224 35.4573 21.5606C36.0565 21.7542 36.3178 22.7197 35.6488 23.0258C34.8742 23.3802 33.9811 23.236 33.1927 23.6033C32.8615 23.7576 32.5502 23.9505 32.3197 24.2334C32.138 24.4563 31.9532 24.7497 31.6906 24.8782C31.6216 24.912 31.5281 24.9129 31.4728 24.8502C30.897 24.1989 31.735 23.0139 32.2378 22.5689H32.2377ZM43.2784 21.5267C43.7561 21.3927 44.286 21.3954 44.7713 21.4796C45.2564 21.5638 45.7489 21.7649 46.145 22.0581L46.191 22.0925C46.6234 22.4182 47.1393 22.8922 47.1116 23.4695C47.0885 23.9514 46.5815 24.2774 46.1438 24.0248C45.7869 23.8188 45.619 23.4061 45.3169 23.1314C45.0676 22.9046 44.7748 22.7257 44.4623 22.6004C44.1153 22.4613 43.7677 22.3961 43.3952 22.3899C43.1084 22.3851 42.8199 22.4792 42.5385 22.5092C42.5617 22.5569 42.3392 22.5347 42.2117 22.4925C42.1173 22.4523 42.1168 22.3329 42.1495 22.2554C42.3119 21.8716 42.9026 21.6321 43.2784 21.5267Z" fill="black"/>
<path fill-rule="evenodd" clip-rule="evenodd" d="M50.4624 26.2172C49.6498 31.7134 43.9776 32.3213 42.9698 26.8649C43.1316 26.794 43.2479 26.6546 43.2236 26.3839C43.2179 25.1948 43.587 23.9381 44.6597 23.2768C45.7682 22.5944 47.0654 22.5268 48.3482 22.544C50.7961 22.4857 50.7446 24.5317 50.4624 26.2173V26.2172ZM42.0818 23.8268C41.3136 23.7944 40.3417 23.8216 39.6535 24.2896C39.4642 23.7801 38.9727 23.2362 38.476 22.9452C40.3221 22.9993 42.2225 22.8176 44.0825 22.6765C43.6373 22.98 43.2231 23.436 42.9539 23.9631C42.7041 23.8299 42.3463 23.8423 42.0818 23.8268ZM38.6956 26.8C36.5653 34.1326 31.2479 30.9366 30.6682 29.9969C29.6225 28.4418 29.4258 24.6616 30.3367 23.6509C31.6405 22.7369 33.4862 22.9722 35.0265 22.9498C37.8561 22.9879 39.8658 23.8344 38.6956 26.8ZM52.9777 23.4275C52.3989 23.3518 51.7804 23.3365 51.2423 23.5914C51.0766 22.8871 50.5565 22.2985 49.9692 22.0394C49.8981 21.9501 49.9088 21.9022 49.666 21.9156C48.1749 21.4675 46.5064 21.7046 45.0736 22.1641C42.8106 22.3547 40.4364 22.505 38.1545 22.7675C36.0168 21.8075 29.5657 21.6667 29.1648 24.0329C28.6605 23.9575 27.8017 23.5606 27.3779 24.099C24.2696 23.572 21.0578 24.3044 17.936 24.6305C17.1502 24.7752 16.7454 26.3347 17.6375 26.3134C18.1389 26.1773 17.622 25.3423 18.2973 25.2796C21.3092 24.9506 24.2554 24.4839 27.2983 24.4292C27.1925 24.9546 29.3109 24.9888 29.3421 24.682C29.3467 24.6843 29.3514 24.6858 29.356 24.688C28.8326 26.6388 29.3051 29.4463 30.2511 30.656C31.5765 32.24 34.9042 32.6945 36.3798 31.6753C38.2832 30.7347 40.2633 26.0129 39.7071 24.4442C40.7165 24.1243 41.7144 24.2203 42.762 24.3833C42.5222 25.0608 42.1082 26.7285 42.7038 26.8731C42.5945 30.1842 45.6079 32.2502 48.3858 30.8919C50.7901 29.7633 51.631 26.1908 51.3367 24.0223C51.6361 24.6006 54.1492 23.971 52.9777 23.4274" fill="black"/>
</svg>
