<svg width="60" height="55" viewBox="0 0 60 55" fill="none" xmlns="http://www.w3.org/2000/svg">
<path fill-rule="evenodd" clip-rule="evenodd" d="M60.1094 86.5358C59.7659 84.5957 59.451 82.6506 59.1648 80.7011C59.0289 79.7756 58.8964 78.8492 58.7773 77.9212C58.6938 77.2711 58.5667 76.5276 59.0091 76.0462C59.6315 75.3685 60.1969 74.7884 60.2731 73.8176C60.3447 72.9042 60.0359 71.9085 59.8428 71.0219C59.4378 69.1626 58.9336 67.3263 58.3764 65.5073C57.8104 63.6594 57.1898 61.8288 56.5602 60.0016C55.9717 58.2934 55.4058 56.5696 54.6392 54.9306C53.1843 51.8203 50.7229 49.5168 47.681 47.9788C46.9244 47.5963 45.3813 46.2308 44.5909 45.9251C43.8643 45.644 43.8669 46.4648 43.1518 46.1556C42.5801 45.9085 42.0477 45.5789 41.7276 45.0269C41.3801 44.4275 40.5084 43.5892 40.3757 42.8915C40.0946 41.4127 40.3992 40.154 39.3437 39.041C38.4067 38.0526 37.1473 37.3755 35.8442 37.012C32.9775 36.2125 29.1544 36.7715 27.4248 39.4353C26.5987 40.7074 26.31 42.2451 25.1953 43.2832C24.2219 44.1897 24.4398 44.8095 23.1791 45.2767C23.1077 45.3032 21.1723 44.888 21.1009 44.9146C19.7218 44.6195 18.4036 45.4456 17.1384 45.9251C15.252 46.6396 13.4561 47.5698 11.7689 48.6753C8.3666 50.9044 5.45268 53.799 3.05047 57.0745C0.628307 60.3771 -1.25104 64.0787 -2.58919 67.9475C-2.91433 68.8872 -3.20599 69.8383 -3.46362 70.7988C-3.60766 71.3363 -3.76166 71.8938 -3.58618 72.4441C-3.44266 72.8943 -3.1234 73.2295 -2.74848 73.4996C-2.24027 73.8658 -1.22087 74.1039 -1.24081 74.8404C-1.2559 75.4003 -1.44587 75.9897 -1.5386 76.5431C-1.64897 77.202 -1.73973 77.8649 -1.83033 78.5268C-2.24283 81.5398 -2.56388 84.5696 -2.70587 87.608C-2.84564 90.5994 -2.96164 93.6523 -2.75411 96.6429C-2.74047 96.8398 -2.68166 97.0213 -2.58672 97.1739C-2.67536 97.208 -2.68218 97.3733 -2.57189 97.3963C-2.49468 97.4125 -2.41763 97.4296 -2.34041 97.4457C-2.18002 97.5668 -1.97999 97.6409 -1.74979 97.6486C-1.59382 97.6537 -1.43786 97.6605 -1.28189 97.6682C0.362995 98.0125 2.0078 98.3372 3.67424 98.5835C5.69993 98.8818 7.73157 99.1256 9.76953 99.3242C13.9572 99.7315 18.1118 99.596 22.305 99.377C26.4917 99.1571 30.6759 99.106 34.867 99.2151C39.0617 99.3242 43.2549 99.5065 47.4506 99.5815C52.138 99.6651 56.8182 99.5372 61.4921 99.1639C62.1329 99.1136 62.5294 98.6031 62.403 97.9673C61.6457 94.1534 60.7876 90.3659 60.1094 86.5358Z" fill="#694D3D"/>
<path fill-rule="evenodd" clip-rule="evenodd" d="M17.1384 45.9251L17.2299 45.8898C18.4672 45.4065 19.755 44.6266 21.101 44.9146C21.1486 44.8969 22.0244 45.0755 22.6242 45.1886L22.0549 45.7829L21.05 45.9762C24.5165 51.6974 28.6164 54.5579 33.3495 54.5579C38.0828 54.5579 41.6744 51.6974 44.1244 45.9762L44.4587 45.8837C44.5 45.8933 44.544 45.9068 44.591 45.9251C45.3814 46.2308 46.9244 47.5962 47.681 47.9787C50.7229 49.5168 53.1843 51.8202 54.6392 54.9306C55.3803 56.515 55.9337 58.1785 56.5014 59.8307L56.5602 60.0016C57.1898 61.8287 57.8104 63.6593 58.3764 65.5073C58.9094 67.2472 59.3939 69.0029 59.7894 70.7795L59.8428 71.0219C60.0359 71.9085 60.3448 72.9041 60.2731 73.8176C60.246 74.1634 60.1567 74.4597 60.0249 74.7284L53.1687 77.1955L56.4351 99.4733C53.4431 99.602 50.4483 99.6352 47.4506 99.5815C43.2549 99.5065 39.0617 99.3242 34.867 99.2151C30.8029 99.1094 26.7454 99.1545 22.6856 99.3574L21.6546 99.4102C17.6819 99.6088 13.7406 99.7102 9.76953 99.3241L9.49894 99.2977V96.0386L10.8939 77.8928L3.82467 76.5622L-3.1147 73.1918C-3.32436 72.9822 -3.4926 72.7376 -3.58618 72.4441C-3.74871 71.9344 -3.62862 71.4185 -3.4955 70.9181L-3.46354 70.7987C-3.2059 69.8383 -2.91424 68.8872 -2.5891 67.9475C-1.25104 64.0787 0.628311 60.377 3.05047 57.0745C5.45277 53.799 8.36669 50.9044 11.7689 48.6752C13.4561 47.5698 15.252 46.6396 17.1384 45.9251Z" fill="#78E185"/>
<path fill-rule="evenodd" clip-rule="evenodd" d="M19.7929 44.8208C20.2263 44.802 20.6683 44.8721 21.1008 44.9146C21.1384 44.9183 21.1527 44.9764 21.1103 44.9853C20.3364 45.147 19.5709 45.3681 18.8109 45.5928L18.4854 45.6891C17.6283 45.9426 16.7963 46.2042 15.9665 46.5424C14.3127 47.2164 12.7421 48.1261 11.2966 49.1712C5.73019 53.1957 1.7015 59.289 -0.840833 65.5976C-1.53167 67.3114 -2.11588 69.0662 -2.59012 70.8521C-2.70514 71.2865 -2.81396 71.7226 -2.91654 72.1601C-2.94671 72.2883 -3.07822 72.6168 -3.00603 72.7481C-2.94237 72.8641 -2.69453 72.9357 -2.57938 72.9961L-2.19066 73.1976C-1.4324 73.5884 -0.169327 74.2308 -0.0426793 74.2934L0.154878 74.3907C3.38584 75.9746 6.83823 77.3178 10.4741 77.4108L10.5026 77.1003C10.6647 75.3837 10.8774 73.658 11.3417 71.9942C11.3667 71.9048 11.4805 71.935 11.4909 72.0144C11.7495 73.9841 11.6669 75.9691 11.5766 77.948C11.4168 81.4528 11.2046 84.9557 11.016 88.4585C10.9216 90.2116 10.7995 91.9622 10.6893 93.7145C10.5789 95.4693 10.5432 97.2668 10.2912 99.0071C10.235 99.3949 9.78062 99.6063 9.43647 99.5653C9.05567 99.5202 8.76275 99.1844 8.76096 98.8C8.75636 97.7858 8.88377 96.7597 8.95459 95.7489C9.02184 94.7875 9.09403 93.827 9.168 92.8665C9.43834 89.3611 9.74934 85.8599 10.037 82.3554C10.1389 81.1128 10.249 79.8713 10.3624 78.6297C6.5107 78.5055 2.91232 77.0789 -0.520463 75.412C-0.570151 76.5402 -0.690066 77.6663 -0.806316 78.7897C-1.13061 81.925 -1.41654 85.0588 -1.63046 88.2037C-1.73862 89.7923 -1.81728 91.3827 -1.8858 92.973C-1.93073 94.0152 -1.96445 95.0579 -1.98697 96.1008L-1.99865 96.6983C-2.00828 97.0767 -2.04671 97.427 -2.36512 97.7023C-2.68865 97.9827 -3.12552 97.9972 -3.44563 97.7023C-3.87416 97.3077 -3.79839 96.7707 -3.78569 96.2406C-3.75368 94.8997 -3.70325 93.5592 -3.63441 92.2196C-3.47367 89.0969 -3.15245 85.9869 -2.73271 82.8898L-2.5689 81.694C-2.26294 79.4713 -1.92697 77.198 -1.24294 75.0568C-1.5089 74.9245 -1.77439 74.7912 -2.03938 74.657C-2.50865 74.4194 -2.99384 74.1964 -3.4499 73.9342C-3.81186 73.7261 -4.12396 73.4408 -4.22461 73.0197C-4.33703 72.5505 -4.16521 72.0374 -4.05109 71.5797L-4.0412 71.5395C-3.92895 71.0786 -3.80905 70.6196 -3.68154 70.1628C-3.16592 68.31 -2.52842 66.4934 -1.78225 64.7211C-0.288219 61.1729 1.64022 57.8021 3.99582 54.7543C6.11627 52.0108 8.62102 49.5229 11.5568 47.6569C12.992 46.7446 14.5215 45.9956 16.139 45.466C16.8951 45.2185 17.7177 45.0032 18.5093 44.9145C18.9362 44.8668 19.3638 44.8395 19.7929 44.8208ZM27.473 39.1983C27.9881 38.6452 29.0116 39.2176 28.7642 39.9501C28.1825 41.6733 27.256 43.2451 25.8102 44.3774C24.4512 45.4419 22.8306 46.1332 21.0853 45.9857C21.073 45.9847 21.061 45.9815 21.0499 45.9762L21.2003 46.1803C22.381 47.7775 23.6267 49.3527 25.1282 50.6582C28.1872 53.3182 32.3523 54.7529 36.3742 53.7323C39.5385 52.9294 42.3263 50.4272 43.1462 47.2383C43.0286 47.291 42.8889 47.309 42.7356 47.2757C42.0796 47.1333 41.4302 46.4433 41.0071 45.9487C40.5494 45.4135 40.192 44.8357 39.93 44.1825C39.4505 42.9871 39.2968 41.448 39.9515 40.29C40.0323 40.1473 40.2186 40.2273 40.2345 40.3666L40.2593 40.5841C40.3856 41.6694 40.5428 42.7192 41.0545 43.7085C41.3049 44.1926 41.6051 44.6651 41.9705 45.0705C42.166 45.2874 42.3779 45.4947 42.6068 45.6766C42.8297 45.8537 43.0996 45.9819 43.2995 46.1852L43.3361 46.2242L43.3372 46.2172C43.3877 45.7876 43.689 45.5983 43.9838 45.6102C44.269 45.6217 44.6041 45.7472 44.7339 45.8074L44.7462 45.8132C46.7364 46.7686 48.5694 48.0138 50.2944 49.3954C53.8617 52.2525 56.5345 55.9876 57.8295 60.386C58.4652 62.5447 58.8299 64.7691 59.2148 66.983L59.4519 68.3396C59.8112 70.3834 60.2127 72.4676 61.0239 74.3688C61.2337 74.8607 61.0719 75.3219 60.5574 75.5153C59.915 75.7568 59.2701 75.9907 58.6243 76.2217C58.9414 77.5822 59.1348 78.9898 59.3724 80.3568C59.8775 83.2631 60.4963 86.1506 61.0269 89.0534C61.2982 90.5372 61.543 92.0261 61.814 93.5099C61.9445 94.225 62.0807 94.9384 62.2131 95.6526C62.2845 96.0378 62.3491 96.4247 62.4172 96.8099L62.4291 96.8747C62.4681 97.0775 62.5171 97.2881 62.4611 97.4918C62.3973 97.7244 62.216 97.8881 62.0542 98.0551C61.921 98.1923 61.7284 98.1932 61.5652 98.1182L61.5115 98.0935C61.2201 97.9571 60.9916 97.8207 60.8883 97.4918C60.8228 97.2838 60.7992 97.0494 60.7564 96.8347C60.6743 96.4239 60.5965 96.0114 60.5231 95.5989C60.3761 94.7728 60.2326 93.946 60.0925 93.1187L59.9616 92.344C59.5124 89.6739 59.0859 86.9875 58.8702 84.2892C58.7745 83.0918 58.6732 81.896 58.5708 80.6994L58.4941 79.8025C58.3969 78.6668 58.2782 77.5025 58.2614 76.3515L57.8751 76.4886L55.9908 77.1547C55.5235 77.3198 54.9287 77.6582 54.4258 77.5966C54.1797 77.5665 53.992 77.489 53.8471 77.3482C54.0206 79.797 54.2555 82.242 54.5686 84.6736C54.8534 86.8869 55.1692 89.0969 55.5421 91.2966C55.7268 92.3858 55.9166 93.4741 56.1228 94.5599C56.2258 95.1028 56.3322 95.6449 56.4418 96.1861C56.4964 96.4562 56.5614 96.7273 56.6041 96.9991C56.6528 97.3111 56.5669 97.5028 56.3926 97.7602C56.2495 97.9707 55.9632 98.079 55.7312 97.9332C55.4238 97.7406 55.2635 97.5736 55.1731 97.2224C55.0909 96.9028 55.041 96.5704 54.9774 96.2474C54.8601 95.6508 54.7466 95.0534 54.6371 94.456C54.4081 93.2048 54.197 91.952 54.0085 90.694C53.3441 86.2648 52.9226 81.7989 52.7097 77.3254C52.6046 75.1182 52.5721 72.9091 52.5908 70.6997C52.6003 69.5672 52.6373 68.4315 52.7174 67.3018C52.7986 66.1583 52.9673 65.0376 53.118 63.9051C53.1233 63.8653 53.1795 63.863 53.1819 63.9051C53.2533 65.1749 53.3651 66.4431 53.4199 67.7162C53.4722 68.9309 53.4951 70.1475 53.5367 71.3627C53.5914 72.96 53.6671 74.5583 53.7674 76.1555C53.9491 75.9568 54.2228 75.8422 54.4967 75.887C54.8935 75.8037 55.3207 75.5955 55.699 75.4691L57.1252 74.9927C57.875 74.7423 58.6247 74.4936 59.3771 74.2524C58.7044 71.9894 58.2436 69.6926 57.8501 67.3623L57.6746 66.3143C57.3273 64.2514 56.9527 62.1876 56.3236 60.19C55.6621 58.0898 54.6723 56.1373 53.3592 54.3691C52.0649 52.6264 50.4901 51.092 48.8687 49.6568C47.4806 48.4281 45.9957 47.3188 44.5799 46.1239C44.5948 46.2031 44.5979 46.2903 44.5849 46.3861C44.2839 48.5892 43.1346 50.6409 41.5329 52.1669C38.3151 55.2326 33.552 55.8686 29.4337 54.431C25.4499 53.0405 21.9277 49.7471 20.6833 45.6718C20.662 45.6021 20.7554 45.5744 20.7929 45.6256C20.862 45.7202 20.9313 45.8148 21.0008 45.9094C20.9961 45.8718 21.0156 45.8309 21.062 45.813C22.5139 45.2524 23.9397 44.4573 25.028 43.3326C25.5585 42.7843 26.0214 42.1632 26.3869 41.4933C26.562 41.1724 26.7192 40.8401 26.8447 40.4967L26.8765 40.4079C27.0286 39.9778 27.1556 39.5392 27.473 39.1983Z" fill="black"/>
<path fill-rule="evenodd" clip-rule="evenodd" d="M33.8807 6.6983C38.7097 6.6983 45.778 9.92977 46.3096 13.0388C46.9359 16.7027 48.3272 30.48 47.5698 34.9885C46.8124 39.4969 43.8588 42.8282 37.3273 42.8282C30.7957 42.8282 25.9207 39.2588 24.8013 38.0331C23.682 36.8076 22.3257 32.9937 22.3257 32.9937C22.3257 32.9937 18.7496 32.3862 18.733 29.5296C18.7164 26.6728 20.5295 25.79 20.5295 25.79C20.5295 25.79 19.551 13.9393 21.6076 11.0041C23.6642 8.06892 29.0517 6.69821 33.8807 6.69821V6.6983Z" fill="#694D3D"/>
<path fill-rule="evenodd" clip-rule="evenodd" d="M48.4602 21.79C48.7246 24.6698 48.8241 27.5744 48.8752 30.4653C48.9246 33.2045 48.6839 36.0613 47.1266 38.4034C45.765 40.4522 43.6916 41.9394 41.3825 42.7423C40.0685 43.2 38.6134 43.3696 37.2254 43.4113C36.5085 43.4326 35.7898 43.402 35.0771 43.3279C34.9874 43.3184 34.8973 43.3104 34.8073 43.3023C34.2036 43.2484 33.6049 43.1949 33.1652 42.738C33.0266 42.594 33.0283 42.2982 33.2333 42.2045C33.6237 42.0264 33.8881 42.0076 34.316 42.0664C34.6705 42.1149 35.0261 42.1534 35.3832 42.1781C36.1486 42.2318 36.9193 42.2335 37.6847 42.1747C39.0914 42.0664 40.5304 41.6684 41.8077 41.065C43.8106 40.1173 45.5312 38.5644 46.4599 36.5267C47.5246 34.1936 47.4711 31.4955 47.4213 28.9832L47.4192 28.8801C47.3639 26.0931 47.261 23.3148 47.0195 20.5372C46.9279 19.4864 46.7975 18.4413 46.6671 17.3959C46.6303 17.1016 46.5936 16.8073 46.5577 16.5127C46.4715 15.8003 46.3589 15.0912 46.22 14.3872C46.1783 14.1746 46.1294 13.9638 46.0805 13.7532C46.0437 13.5946 46.007 13.4364 45.9734 13.2775C45.9164 13.2868 45.8585 13.292 45.7991 13.2945C45.4435 13.3065 45.0549 13.2196 44.7912 12.9664C44.69 13.0355 44.5615 13.0789 44.4068 13.0866C43.4615 13.1335 42.5064 13.1126 41.5535 13.0918C41.0328 13.0804 40.5129 13.069 39.9954 13.0688C38.5258 13.0679 37.0553 13.0687 35.5848 13.073C35.3606 13.0736 35.1363 13.0745 34.9121 13.0753C33.6665 13.0801 32.4191 13.0849 31.1752 13.0517C30.9116 13.0447 30.6462 13.0401 30.38 13.0355C29.2658 13.0161 28.1356 12.9965 27.047 12.7943C26.5937 14.4086 26.6097 16.1821 27.5547 17.6241C27.8217 18.0307 27.6048 18.5096 27.257 18.7636C26.9014 19.0228 26.2623 19.4202 25.7155 19.461C25.6943 19.5088 25.6728 19.5565 25.6514 19.604C25.6193 19.6752 25.5874 19.7463 25.5563 19.8172C25.2953 20.4132 25.0602 21.0129 24.8956 21.6439C24.8106 21.9707 24.7375 22.3004 24.6764 22.6324C24.6814 22.6907 24.6866 22.7487 24.6928 22.8068C24.6928 22.8121 24.6935 22.8173 24.6943 22.823L24.6945 22.8255C24.6979 22.8495 24.7022 22.8767 24.7047 22.892L24.7278 23.0149C24.7514 23.1409 24.7749 23.2669 24.8 23.3924C24.8791 23.7972 24.9402 24.2054 24.9837 24.6153C25.0628 25.3653 25.0551 26.3404 24.3254 26.7843C23.9351 27.0222 23.4673 26.9974 23.0547 26.8379C22.8248 26.749 22.6234 26.6293 22.4158 26.506C22.3732 26.4807 22.3303 26.4552 22.2868 26.4298C22.2197 26.3911 22.1518 26.354 22.083 26.3184C21.9972 26.273 21.9116 26.228 21.8292 26.1767C21.7885 26.1512 21.7493 26.1204 21.7128 26.088C21.4364 26.1468 21.1668 26.2568 21.0154 26.3318C20.6097 26.5338 20.2534 26.8261 19.9506 27.1619C19.3068 27.877 19.1137 28.8844 19.2039 29.8194C19.2881 30.6895 19.6291 31.6892 20.3154 32.2678C20.614 32.5201 20.9865 32.6676 21.3802 32.6634C21.5742 32.6617 21.7528 32.6207 21.9399 32.5713C22.0197 32.5503 22.1076 32.5411 22.1954 32.5319C22.3107 32.5198 22.4259 32.5078 22.5224 32.4691C22.7749 32.3676 23.0863 32.6769 22.9834 32.9309C22.9605 32.9874 22.9405 33.0419 22.9212 33.0945C22.8752 33.2199 22.8331 33.3347 22.7647 33.4397C23.469 34.592 24.2404 35.7085 25.061 36.7798C25.5814 37.4584 26.1665 38.061 26.7544 38.6663C27.0024 38.9216 27.2508 39.1776 27.4951 39.4397C27.8583 39.8301 28.0097 40.5988 27.3523 40.7659C26.774 40.914 26.3247 40.3827 25.9682 39.9611C25.9226 39.9067 25.8765 39.8528 25.8298 39.7994C24.2693 38.0207 23.0897 35.9786 22.5377 33.6732C22.2886 33.8505 22.0027 33.9469 21.7016 33.9886C21.1028 34.0717 20.4934 33.9521 19.9702 33.6486C17.98 32.4971 17.4987 29.3855 18.4308 27.4355C18.6571 26.9641 18.9856 26.5493 19.3923 26.2214C19.3578 26.1571 19.3492 26.0821 19.3683 26.0117C19.4043 25.8769 19.4438 25.7439 19.4853 25.6113C19.44 25.5911 19.4068 25.5492 19.4131 25.4872C19.4447 25.1627 19.4758 24.8382 19.5067 24.5137L19.5237 24.3366C19.5197 24.1608 19.5145 23.9849 19.5092 23.809C19.497 23.4055 19.4848 23.0015 19.4896 22.5954C19.4943 22.1634 19.509 21.7315 19.5237 21.2997C19.5407 20.803 19.5576 20.3063 19.5595 19.8093C19.5649 18.2 19.6001 16.5914 19.6354 14.9828C19.6711 13.3528 19.7069 11.7227 19.7116 10.0917C19.7167 8.50734 19.7201 6.9204 19.6784 5.33688C19.6779 5.32572 19.6777 5.31472 19.6775 5.30364L19.6767 5.27381C19.6716 5.0795 19.6592 4.87512 19.6466 4.66529C19.5768 3.50705 19.4973 2.18475 20.5442 1.49058C20.7475 1.35592 21.0009 1.35421 21.2221 1.44114C21.8582 0.997109 22.656 0.783189 23.4188 0.659609C24.5434 0.477564 25.6756 0.368473 26.8083 0.259382C27.1397 0.227422 27.471 0.195462 27.8022 0.161712C28.5658 0.0841548 29.3695 0.0544105 30.1383 0.0714559C30.5383 0.0802344 30.941 0.0658309 31.3443 0.0513423C31.7248 0.0377059 32.1059 0.0239844 32.4857 0.0296946C33.3735 0.0441832 34.2683 0.0774218 35.1595 0.150717L35.2223 0.144751C35.2435 0.142876 35.2646 0.141001 35.2855 0.138785C36.6357 0.00906957 37.9841 0.0776775 39.3332 0.146285C39.66 0.162905 39.9868 0.179524 40.3135 0.193331C41.9106 0.26066 43.5971 0.426001 45.0311 1.19219C45.2155 1.29046 45.3717 1.40228 45.505 1.52697C45.6918 1.5533 45.87 1.60631 46.0301 1.69563C46.4918 1.60214 47.0072 1.80941 47.1164 2.34626C47.2754 3.1329 47.3358 3.92629 47.2405 4.7241C47.2392 4.7344 47.238 4.74471 47.237 4.75504C47.2359 4.76407 47.2349 4.77336 47.2337 4.78282C47.4265 5.52293 47.4137 6.33123 47.2535 7.0612C47.3216 7.98326 47.3588 8.90737 47.3649 9.83194C47.3657 9.97171 47.3677 10.112 47.3697 10.2525C47.3769 10.7546 47.3841 11.2604 47.3377 11.758C47.2855 12.318 47.0556 12.761 46.6937 13.1863C46.6255 13.2664 46.5102 13.2797 46.4144 13.2603C46.3918 13.2558 46.3697 13.2492 46.3484 13.2403C46.527 13.624 46.6749 14.0267 46.8196 14.4207C46.8517 14.508 46.8837 14.595 46.9157 14.6811C47.1964 15.4362 47.4685 16.2041 47.6615 16.9865C48.0528 18.564 48.3104 20.1715 48.4602 21.7899V21.79ZM21.3584 28.9292C21.2776 28.8734 21.1962 28.8171 21.1081 28.7752C21.097 28.77 20.631 28.6184 20.7211 28.8187C20.7517 28.8852 20.6718 28.9593 20.6148 28.9005C20.4532 28.736 20.5434 28.5383 20.6973 28.3917C20.9753 28.1267 21.3904 28.1879 21.7315 28.2511C22.2061 28.3389 22.667 28.5468 23.0667 28.8136C23.4971 29.1008 24.0286 29.4988 24.1137 30.0434C24.1911 30.5437 23.6944 31.0951 23.1832 30.7602C22.9067 30.5786 22.713 30.3086 22.5187 30.0378C22.3801 29.8447 22.2412 29.6511 22.0717 29.4886C21.8717 29.2977 21.6557 29.1298 21.427 28.9763C21.4041 28.9609 21.3813 28.9451 21.3584 28.9292Z" fill="black"/>
<path fill-rule="evenodd" clip-rule="evenodd" d="M31.5849 30.4219C31.8813 29.7528 33.2158 28.7137 33.2158 28.7137C33.2158 28.7137 33.6209 31.0129 33.3068 31.7219C33.0478 32.3065 32.1153 33.3614 31.4316 33.0647C30.7477 32.7681 31.0977 31.5219 31.5849 30.4219ZM48.1746 29.8165C47.9309 29.251 46.8339 28.3728 46.8339 28.3728C46.8339 28.3728 46.501 30.3159 46.7592 30.9151C46.972 31.4092 47.7386 32.3007 48.3006 32.05C48.8627 31.7994 48.5751 30.746 48.1746 29.8165ZM36.8142 33.1163H44.3003L44.7482 34.3535C44.7482 34.3535 39.1619 35.6499 37.2003 34.8154L36.8142 33.1163Z" fill="white"/>
<path fill-rule="evenodd" clip-rule="evenodd" d="M42.3365 30.7137C43.0289 29.7438 42.0483 28.8316 41.4046 28.4404C41.2361 28.3194 41.3699 27.9185 41.7302 27.9804C45.0027 28.5427 43.3071 34.1797 39.1289 31.0863C38.6314 30.685 39.2338 29.8012 39.77 30.1448C39.7972 30.1657 39.8257 30.1877 39.8554 30.2107C40.4578 30.6764 41.5598 31.5285 42.3365 30.7137ZM35.7499 20.9519L35.5899 20.9798C35.0721 21.0698 34.5599 21.266 34.0918 21.5026C33.2148 21.9456 32.3393 22.6726 31.8875 23.5575C31.8385 23.6535 31.9433 23.7849 32.046 23.716C32.8286 23.191 33.5753 22.7129 34.4917 22.451C34.905 22.3319 35.3304 22.2595 35.7598 22.235C35.8942 22.2273 36.0259 22.2306 36.155 22.2337C36.531 22.2431 36.8836 22.2518 37.2105 21.9872C37.4602 21.7852 37.3962 21.3929 37.2105 21.1819C36.8603 20.784 36.2449 20.8662 35.7499 20.9518V20.9519ZM44.2867 20.6085L44.1642 20.5835C44.0202 20.5546 43.8754 20.5668 43.7481 20.6186C43.6184 20.671 43.5096 20.7647 43.4387 20.8853C43.3377 21.0552 43.3242 21.1977 43.3711 21.386C43.403 21.5195 43.4806 21.6376 43.5904 21.72C43.6998 21.8032 43.8384 21.8518 43.9824 21.8688C44.6467 21.9467 45.3008 22.0929 45.9369 22.3004C46.2348 22.3975 46.5161 22.5293 46.7948 22.666L47.035 22.7843C47.2566 22.8927 47.4855 22.9971 47.7748 23.0729C47.7975 23.0789 47.82 23.0845 47.8423 23.0898C47.913 23.0677 47.9319 23.0412 47.9471 23.0202L47.9531 23.012L47.96 23.0033C47.9806 22.9774 48.0061 22.9377 47.982 22.7527C47.3509 21.4436 45.6194 20.8871 44.2867 20.6085ZM37.3534 27.0475C37.0944 27.1987 36.8177 27.1254 36.5971 26.9499C36.4607 26.8414 36.3572 26.7026 36.2535 26.5635C36.1319 26.4005 36.0099 26.2369 35.8342 26.1213C35.5587 25.9399 35.1895 25.9304 34.8728 25.9828C34.3974 26.0615 33.9869 26.2858 33.5752 26.5108C33.3421 26.6383 33.1085 26.7658 32.8627 26.8673C32.7672 26.9067 32.7114 26.7844 32.7434 26.7124C33.1554 25.7865 34.0156 24.9606 35.0388 24.7952C36.1089 24.6222 37.2665 25.3269 37.6401 26.3428C37.7343 26.599 37.5778 26.9164 37.3534 27.0475ZM47.5196 25.9684C47.5417 25.9765 47.5639 25.9517 47.5575 25.9305C47.2869 25.0505 46.2679 24.68 45.4126 24.7534C44.8834 24.7988 44.3969 24.9923 43.9956 25.3457C43.613 25.6828 43.3149 26.3206 43.6613 26.787C44.0175 27.2665 44.7485 27.1114 44.7902 26.4813C44.8171 26.0726 45.5203 25.8204 45.8766 25.7575C46.4298 25.6599 47.0021 25.7765 47.5196 25.9684ZM37.6138 34.4097C37.8644 34.5089 39.9831 34.6063 41.2343 34.5492C42.0874 34.5109 44.3004 33.9937 44.3004 33.7719C44.3004 33.5499 44.2061 33.3495 44.1252 33.3579C43.7959 33.3935 41.1737 33.4223 39.3274 33.4427C38.5117 33.4517 37.8474 33.459 37.5993 33.4644C37.4775 33.4671 37.3496 33.4644 37.2201 33.461C37.1303 33.7387 37.3632 34.3104 37.6138 34.4097ZM41.8554 32.7949C42.8403 32.7863 44.0364 32.776 44.8888 32.8262C45.1931 32.8441 45.3431 33.2787 45.3644 33.485C45.5664 35.4017 44.0357 36.9307 42.3456 37.5231C40.7775 38.0728 38.7064 38.1767 37.3078 37.1498C36.7002 36.704 36.24 36.0861 35.94 35.3983C35.778 35.0276 35.6596 34.6432 35.5939 34.2444C35.5876 34.2067 35.5807 34.1673 35.5736 34.1267C35.5231 33.8401 35.462 33.4931 35.5598 33.231C35.7015 32.854 36.0765 32.8499 36.421 32.8461H36.4211C36.4496 32.8458 36.4779 32.8455 36.5059 32.8449C36.6445 32.8421 36.7832 32.8391 36.9219 32.8362H36.9224C37.288 32.8282 37.6535 32.8202 38.0186 32.816C38.8047 32.8071 39.5907 32.8048 40.3765 32.8025C40.6497 32.8016 40.9228 32.8009 41.1959 32.7998C41.3986 32.7988 41.6207 32.7969 41.8546 32.7949H41.8554ZM33.019 31.4016C32.891 31.8932 32.6215 32.4648 32.1645 32.7327C31.9199 32.8761 31.5571 32.929 31.4162 32.6343C31.1532 32.0845 31.5219 31.2368 31.7458 30.7423C31.9336 30.3274 32.1703 29.9315 32.4571 29.5772C32.6145 29.3828 32.7888 29.2044 32.9642 29.0266C32.9987 28.9917 33.0357 28.9595 33.0722 28.9276C33.1235 28.8831 33.1741 28.839 33.2159 28.7891C33.0875 29.0774 33.0823 29.4536 33.081 29.7387C33.0802 29.8927 33.0861 30.0467 33.0919 30.2004C33.1073 30.6035 33.1223 31.0046 33.019 31.4016ZM33.8602 28.6343C33.8392 28.4665 33.6867 28.3549 33.5236 28.4412C33.4288 28.4913 33.3553 28.5622 33.2968 28.6454C33.298 28.6417 33.2994 28.638 33.3006 28.6344C33.3032 28.6271 33.3058 28.6198 33.3077 28.6119C33.3107 28.5984 33.3037 28.5797 33.2881 28.5774C32.9107 28.5208 32.4271 29.0435 32.1611 29.3311L32.1611 29.3312L32.1081 29.3883C31.7323 29.7907 31.3967 30.2541 31.166 30.7552C30.8718 31.3945 30.5541 32.3608 30.9583 33.0234C31.5205 33.9449 32.6984 33.2497 33.145 32.6131C33.5192 32.0798 33.7126 31.4296 33.7344 30.7819C33.7407 30.5914 33.7332 30.401 33.7257 30.2106C33.7186 30.0304 33.7114 29.8501 33.7161 29.6698C33.72 29.5185 33.756 29.3663 33.7919 29.2148C33.8382 29.0189 33.8843 28.8242 33.8603 28.6343H33.8602ZM47.3296 31.7318C47.5932 31.9731 48.0512 32.0625 48.3575 31.8348C48.7644 31.5324 48.4136 30.9764 48.1892 30.6208C48.1666 30.5849 48.1452 30.551 48.1261 30.5198C47.8177 30.0146 47.5126 29.5073 47.2109 28.9981C47.1562 28.9059 47.0915 28.8092 47.0244 28.7095C47.0029 28.8532 46.9756 28.994 46.9506 29.1232C46.9288 29.2362 46.9086 29.3404 46.8956 29.4297C46.785 30.1832 46.7067 31.1618 47.3296 31.7318ZM48.4319 29.5633C48.7306 30.0339 49.0442 30.528 49.1806 31.0465C49.4452 32.0529 48.5719 32.7915 47.604 32.5754C46.594 32.3498 46.219 31.1752 46.2403 30.2578C46.2501 29.8354 46.3379 29.4073 46.4233 28.9911C46.435 28.9341 46.4467 28.8773 46.4581 28.8208C46.4813 28.7054 46.4982 28.586 46.5152 28.4658C46.5389 28.2983 46.5628 28.1294 46.6044 27.9683C46.557 27.8374 46.5291 27.705 46.534 27.5724C46.5419 27.3617 46.7533 27.2497 46.9368 27.3413C47.1977 27.4716 47.3335 27.7137 47.4713 27.9594C47.4996 28.0097 47.5279 28.0603 47.5575 28.11L47.8594 28.619L48.1615 29.128C48.2462 29.2708 48.3383 29.4159 48.4319 29.5633Z" fill="black"/>
</svg>
