<svg width="60" height="55" viewBox="0 0 60 55" fill="none" xmlns="http://www.w3.org/2000/svg">
<path fill-rule="evenodd" clip-rule="evenodd" d="M60.1094 86.5358C59.7659 84.5957 59.451 82.6506 59.1648 80.7011C59.0289 79.7756 58.8964 78.8492 58.7773 77.9212C58.6938 77.2711 58.5667 76.5276 59.0091 76.0462C59.6315 75.3685 60.1969 74.7884 60.2731 73.8176C60.3447 72.9042 60.0359 71.9085 59.8428 71.0219C59.4378 69.1626 58.9336 67.3263 58.3764 65.5073C57.8104 63.6594 57.1898 61.8288 56.5602 60.0016C55.9717 58.2934 55.4058 56.5696 54.6392 54.9306C53.1843 51.8203 50.7229 49.5168 47.681 47.9788C46.9244 47.5963 45.3813 46.2308 44.5909 45.9251C43.8643 45.644 43.8669 46.4648 43.1518 46.1556C42.5801 45.9085 42.0477 45.5789 41.7276 45.0269C41.3801 44.4275 40.5084 43.5892 40.3757 42.8915C40.0946 41.4127 40.3992 40.154 39.3437 39.041C38.4067 38.0526 37.1473 37.3755 35.8442 37.012C32.9775 36.2125 29.1544 36.7715 27.4248 39.4353C26.5987 40.7074 26.31 42.2451 25.1953 43.2832C24.2219 44.1897 24.4398 44.8095 23.1791 45.2767C23.1077 45.3032 21.1723 44.888 21.1009 44.9146C19.7218 44.6195 18.4036 45.4456 17.1384 45.9251C15.252 46.6396 13.4561 47.5698 11.7689 48.6753C8.3666 50.9044 5.45268 53.799 3.05047 57.0745C0.628307 60.3771 -1.25104 64.0787 -2.58919 67.9475C-2.91433 68.8872 -3.20599 69.8383 -3.46362 70.7988C-3.60766 71.3363 -3.76166 71.8938 -3.58618 72.4441C-3.44266 72.8943 -3.1234 73.2295 -2.74848 73.4996C-2.24027 73.8658 -1.22087 74.1039 -1.24081 74.8404C-1.2559 75.4003 -1.44587 75.9897 -1.5386 76.5431C-1.64897 77.202 -1.73973 77.8649 -1.83033 78.5268C-2.24283 81.5398 -2.56388 84.5696 -2.70587 87.608C-2.84564 90.5994 -2.96164 93.6523 -2.75411 96.6429C-2.74047 96.8398 -2.68166 97.0213 -2.58672 97.1739C-2.67536 97.208 -2.68218 97.3733 -2.57189 97.3963C-2.49468 97.4125 -2.41763 97.4296 -2.34041 97.4457C-2.18002 97.5668 -1.97999 97.6409 -1.74979 97.6486C-1.59382 97.6537 -1.43786 97.6605 -1.28189 97.6682C0.362995 98.0125 2.0078 98.3372 3.67424 98.5835C5.69993 98.8818 7.73157 99.1256 9.76953 99.3242C13.9572 99.7315 18.1118 99.596 22.305 99.377C26.4917 99.1571 30.6759 99.106 34.867 99.2151C39.0617 99.3242 43.2549 99.5065 47.4506 99.5815C52.138 99.6651 56.8182 99.5372 61.4921 99.1639C62.1329 99.1136 62.5294 98.6031 62.403 97.9673C61.6457 94.1534 60.7876 90.3659 60.1094 86.5358Z" fill="#D08B5B"/>
<path fill-rule="evenodd" clip-rule="evenodd" d="M17.1384 45.9251L17.2299 45.8898C18.4672 45.4065 19.755 44.6266 21.101 44.9146C21.1486 44.8969 22.0244 45.0755 22.6242 45.1886L22.0549 45.7829L21.05 45.9762C24.5165 51.6974 28.6164 54.5579 33.3495 54.5579C38.0828 54.5579 41.6744 51.6974 44.1244 45.9762L44.4587 45.8837C44.5 45.8933 44.544 45.9068 44.591 45.9251C45.3814 46.2308 46.9244 47.5962 47.681 47.9787C50.7229 49.5168 53.1843 51.8202 54.6392 54.9306C55.3803 56.515 55.9337 58.1785 56.5014 59.8307L56.5602 60.0016C57.1898 61.8287 57.8104 63.6593 58.3764 65.5073C58.9094 67.2472 59.3939 69.0029 59.7894 70.7795L59.8428 71.0219C60.0359 71.9085 60.3448 72.9041 60.2731 73.8176C60.246 74.1634 60.1567 74.4597 60.0249 74.7284L53.1687 77.1955L56.4351 99.4733C53.4431 99.602 50.4483 99.6352 47.4506 99.5815C43.2549 99.5065 39.0617 99.3242 34.867 99.2151C30.8029 99.1094 26.7454 99.1545 22.6856 99.3574L21.6546 99.4102C17.6819 99.6088 13.7406 99.7102 9.76953 99.3241L9.49894 99.2977V96.0386L10.8939 77.8928L3.82467 76.5622L-3.1147 73.1918C-3.32436 72.9822 -3.4926 72.7376 -3.58618 72.4441C-3.74871 71.9344 -3.62862 71.4185 -3.4955 70.9181L-3.46354 70.7987C-3.2059 69.8383 -2.91424 68.8872 -2.5891 67.9475C-1.25104 64.0787 0.628311 60.377 3.05047 57.0745C5.45277 53.799 8.36669 50.9044 11.7689 48.6752C13.4561 47.5698 15.252 46.6396 17.1384 45.9251Z" fill="#78E185"/>
<path fill-rule="evenodd" clip-rule="evenodd" d="M19.7929 44.8208C20.2263 44.802 20.6683 44.8721 21.1008 44.9146C21.1384 44.9183 21.1527 44.9764 21.1103 44.9853C20.3364 45.147 19.5709 45.3681 18.8109 45.5928L18.4854 45.6891C17.6283 45.9427 16.7963 46.2042 15.9665 46.5424C14.3127 47.2164 12.7421 48.1261 11.2966 49.1712C5.73019 53.1958 1.7015 59.289 -0.840833 65.5976C-1.53167 67.3114 -2.11588 69.0662 -2.59012 70.8521C-2.70514 71.2865 -2.81396 71.7226 -2.91654 72.1601C-2.94671 72.2884 -3.07822 72.6168 -3.00603 72.7481C-2.94237 72.8641 -2.69453 72.9357 -2.57938 72.9961L-2.19066 73.1977C-1.4324 73.5884 -0.169327 74.2309 -0.0426793 74.2934L0.154878 74.3907C3.38584 75.9746 6.83823 77.3178 10.4741 77.4108L10.5026 77.1003C10.6647 75.3837 10.8774 73.6581 11.3417 71.9942C11.3667 71.9048 11.4805 71.935 11.4909 72.0144C11.7495 73.9841 11.6669 75.9692 11.5766 77.948C11.4168 81.4529 11.2046 84.9557 11.016 88.4585C10.9216 90.2117 10.7995 91.9622 10.6893 93.7145C10.5789 95.4693 10.5432 97.2668 10.2912 99.0071C10.235 99.3949 9.78062 99.6063 9.43647 99.5654C9.05567 99.5202 8.76275 99.1844 8.76096 98.8C8.75636 97.7858 8.88377 96.7597 8.95459 95.7489C9.02184 94.7875 9.09403 93.827 9.168 92.8665C9.43834 89.3611 9.74934 85.86 10.037 82.3554C10.1389 81.1128 10.249 79.8713 10.3624 78.6297C6.5107 78.5055 2.91232 77.0789 -0.520463 75.412C-0.570151 76.5402 -0.690066 77.6663 -0.806316 78.7898C-1.13061 81.925 -1.41654 85.0588 -1.63046 88.2037C-1.73862 89.7923 -1.81728 91.3827 -1.8858 92.973C-1.93073 94.0153 -1.96445 95.0579 -1.98697 96.1009L-1.99865 96.6983C-2.00828 97.0767 -2.04671 97.427 -2.36512 97.7023C-2.68865 97.9827 -3.12552 97.9972 -3.44563 97.7023C-3.87416 97.3077 -3.79839 96.7708 -3.78569 96.2406C-3.75368 94.8997 -3.70325 93.5592 -3.63441 92.2196C-3.47367 89.0969 -3.15245 85.9869 -2.73271 82.8898L-2.5689 81.694C-2.26294 79.4713 -1.92697 77.198 -1.24294 75.0568C-1.5089 74.9245 -1.77439 74.7912 -2.03938 74.657C-2.50865 74.4194 -2.99384 74.1964 -3.4499 73.9342C-3.81186 73.7262 -4.12396 73.4408 -4.22461 73.0197C-4.33703 72.5505 -4.16521 72.0374 -4.05109 71.5797L-4.0412 71.5395C-3.92895 71.0786 -3.80905 70.6197 -3.68154 70.1628C-3.16592 68.31 -2.52842 66.4934 -1.78225 64.7211C-0.288219 61.1729 1.64022 57.8021 3.99582 54.7543C6.11627 52.0108 8.62102 49.5229 11.5568 47.6569C12.992 46.7446 14.5215 45.9956 16.139 45.466C16.8951 45.2185 17.7177 45.0032 18.5093 44.9146C18.9362 44.8668 19.3638 44.8395 19.7929 44.8208ZM27.473 39.1984C27.9881 38.6452 29.0116 39.2176 28.7642 39.9501C28.1825 41.6733 27.256 43.2451 25.8102 44.3775C24.4512 45.4419 22.8306 46.1332 21.0853 45.9857C21.073 45.9847 21.061 45.9815 21.0499 45.9762L21.2003 46.1803C22.381 47.7775 23.6267 49.3527 25.1282 50.6582C28.1872 53.3182 32.3523 54.7529 36.3742 53.7323C39.5385 52.9294 42.3263 50.4272 43.1462 47.2384C43.0286 47.291 42.8889 47.309 42.7356 47.2757C42.0796 47.1333 41.4302 46.4434 41.0071 45.9487C40.5494 45.4136 40.192 44.8357 39.93 44.1825C39.4505 42.9871 39.2968 41.448 39.9515 40.29C40.0323 40.1473 40.2186 40.2273 40.2345 40.3667L40.2593 40.5842C40.3856 41.6694 40.5428 42.7192 41.0545 43.7085C41.3049 44.1926 41.6051 44.6651 41.9705 45.0705C42.166 45.2874 42.3779 45.4947 42.6068 45.6766C42.8297 45.8538 43.0996 45.9819 43.2995 46.1852L43.3361 46.2242L43.3372 46.2173C43.3877 45.7876 43.689 45.5983 43.9838 45.6102C44.269 45.6217 44.6041 45.7472 44.7339 45.8074L44.7462 45.8132C46.7364 46.7686 48.5694 48.0138 50.2944 49.3954C53.8617 52.2525 56.5345 55.9876 57.8295 60.386C58.4652 62.5448 58.8299 64.7691 59.2148 66.9831L59.4519 68.3396C59.8112 70.3835 60.2127 72.4676 61.0239 74.3688C61.2337 74.8607 61.0719 75.3219 60.5574 75.5153C59.915 75.7569 59.2701 75.9907 58.6243 76.2217C58.9414 77.5822 59.1348 78.9898 59.3724 80.3568C59.8775 83.2631 60.4963 86.1506 61.0269 89.0534C61.2982 90.5372 61.543 92.0261 61.814 93.51C61.9445 94.225 62.0807 94.9384 62.2131 95.6526C62.2845 96.0378 62.3491 96.4247 62.4172 96.81L62.4291 96.8747C62.4681 97.0776 62.5171 97.2881 62.4611 97.4918C62.3973 97.7244 62.216 97.8881 62.0542 98.0551C61.921 98.1923 61.7284 98.1932 61.5652 98.1182L61.5115 98.0935C61.2201 97.9571 60.9916 97.8207 60.8883 97.4918C60.8228 97.2838 60.7992 97.0494 60.7564 96.8347C60.6743 96.4239 60.5965 96.0114 60.5231 95.5989C60.3761 94.7728 60.2326 93.9461 60.0925 93.1188L59.9616 92.3441C59.5124 89.6739 59.0859 86.9875 58.8702 84.2892C58.7745 83.0918 58.6732 81.896 58.5708 80.6994L58.4941 79.8025C58.3969 78.6669 58.2782 77.5025 58.2614 76.3515L57.8751 76.4886L55.9908 77.1548C55.5235 77.3198 54.9287 77.6582 54.4258 77.5967C54.1797 77.5665 53.992 77.489 53.8471 77.3482C54.0206 79.7971 54.2555 82.2421 54.5686 84.6736C54.8534 86.8869 55.1692 89.0969 55.5421 91.2966C55.7268 92.3858 55.9166 93.4742 56.1228 94.56C56.2258 95.1029 56.3322 95.6449 56.4418 96.1861C56.4964 96.4563 56.5614 96.7273 56.6041 96.9992C56.6528 97.3111 56.5669 97.5028 56.3926 97.7602C56.2495 97.9707 55.9632 98.079 55.7312 97.9333C55.4238 97.7406 55.2635 97.5736 55.1731 97.2225C55.0909 96.9029 55.041 96.5705 54.9774 96.2475C54.8601 95.6509 54.7466 95.0534 54.6371 94.456C54.4081 93.2048 54.197 91.952 54.0085 90.6941C53.3441 86.2648 52.9226 81.7989 52.7097 77.3254C52.6046 75.1183 52.5721 72.9092 52.5908 70.6997C52.6003 69.5672 52.6373 68.4315 52.7174 67.3018C52.7986 66.1583 52.9673 65.0377 53.118 63.9052C53.1233 63.8653 53.1795 63.863 53.1819 63.9052C53.2533 65.1749 53.3651 66.4431 53.4199 67.7162C53.4722 68.9309 53.4951 70.1475 53.5367 71.3627C53.5914 72.96 53.6671 74.5583 53.7674 76.1555C53.9491 75.9568 54.2228 75.8423 54.4967 75.887C54.8935 75.8037 55.3207 75.5955 55.699 75.4691L57.1252 74.9927C57.875 74.7423 58.6247 74.4936 59.3771 74.2524C58.7044 71.9894 58.2436 69.6926 57.8501 67.3623L57.6746 66.3143C57.3273 64.2514 56.9527 62.1877 56.3236 60.19C55.6621 58.0898 54.6723 56.1373 53.3592 54.3691C52.0649 52.6264 50.4901 51.092 48.8687 49.6568C47.4806 48.4281 45.9957 47.3188 44.5799 46.1239C44.5948 46.2031 44.5979 46.2903 44.5849 46.3861C44.2839 48.5892 43.1346 50.6409 41.5329 52.1669C38.3151 55.2326 33.552 55.8686 29.4337 54.431C25.4499 53.0405 21.9277 49.7471 20.6833 45.6718C20.662 45.6021 20.7554 45.5744 20.7929 45.6256C20.862 45.7202 20.9313 45.8148 21.0008 45.9094C20.9961 45.8718 21.0156 45.8309 21.062 45.813C22.5139 45.2524 23.9397 44.4573 25.028 43.3326C25.5585 42.7843 26.0214 42.1632 26.3869 41.4933C26.562 41.1724 26.7192 40.8401 26.8447 40.4967L26.8765 40.4079C27.0286 39.9778 27.1556 39.5392 27.473 39.1984Z" fill="black"/>
<path fill-rule="evenodd" clip-rule="evenodd" d="M48.3741 21.6107C48.2768 19.7457 48.1915 17.8186 47.8347 15.9821C47.6597 15.0819 47.3099 14.2507 46.7439 13.5281C46.2261 12.8668 45.5745 12.3539 44.9135 11.8445C43.585 10.8207 42.3077 9.68714 40.8207 8.89521C39.3939 8.13532 37.8514 7.67663 36.2529 7.47063C33.1744 7.0739 29.9409 7.73424 27.2675 9.31853C24.6744 10.8553 22.5898 13.2403 21.2999 15.9593C20.6588 17.3105 20.1773 18.7365 19.9179 20.2112C19.6087 21.9691 19.6367 23.7319 19.6478 25.5095C19.6517 26.1069 19.6463 26.704 19.6166 27.3C19.5665 27.5961 19.5415 27.8959 19.5419 28.1962C18.955 28.9701 18.7161 30.0045 19.084 30.9573C19.6707 32.4776 21.3355 33.169 22.847 32.9037C22.9146 33.2989 23.0776 33.6883 23.2806 34.0673C23.6277 34.7151 24.0157 35.3495 24.4275 35.9578C25.2794 37.2163 26.2516 38.3572 27.4116 39.3415C29.711 41.2927 32.6239 42.5712 35.6447 42.7563C38.3948 42.9247 41.2953 42.1409 43.5381 40.5242C44.7021 39.6852 45.7095 38.6569 46.458 37.4255C47.3324 35.9871 47.8069 34.3311 48.0531 32.6757C48.5935 29.0416 48.5646 25.2718 48.3741 21.6107Z" fill="#D08B5B"/>
<path fill-rule="evenodd" clip-rule="evenodd" d="M26.6878 2.33721C26.5839 1.16363 27.6634 0.280508 28.6651 0.609229C28.8489 0.632156 29.0277 0.690195 29.1874 0.788036C29.6484 1.07014 29.7492 1.52525 29.6288 1.91875C29.8452 2.08238 30.0157 2.3044 30.1015 2.5721C30.1898 2.84789 30.1807 3.11542 30.0975 3.34852C30.4117 3.55647 30.6493 3.87045 30.7045 4.25934C30.7307 4.44403 30.7201 4.62718 30.6764 4.79542C31.1522 4.95735 31.5404 5.31991 31.5345 5.86843C31.8108 5.88625 32.0875 5.89017 32.3691 5.8744C32.4092 5.76088 32.4585 5.65008 32.5315 5.54798C32.679 5.34258 32.8886 5.20136 33.1206 5.11332L33.1524 5.10164L33.1519 5.03926C32.9742 4.84196 32.891 4.59309 33.0803 4.32207C33.1124 4.27682 33.1516 4.23708 33.1964 4.20437C33.2121 4.08676 33.2374 3.97034 33.2686 3.85579C33.1117 3.63676 33.1287 3.27343 33.3918 3.1646C33.354 2.94681 33.3542 2.72409 33.3926 2.50639C33.5548 1.5919 34.4356 0.969059 35.3432 1.004C35.4568 1.00826 35.5674 1.02548 35.6742 1.05275C35.8952 1.07593 36.115 1.12545 36.3312 1.19909C36.5807 1.28414 36.6449 1.49295 36.59 1.66946C36.9288 2.12346 37.025 2.74025 36.6838 3.29457C36.6708 3.31562 36.6565 3.33565 36.6425 3.35585C36.7151 3.41057 36.774 3.4814 36.8147 3.56278C36.9258 3.78267 36.8984 4.0617 36.7289 4.2452C36.6838 4.29412 36.6255 4.33085 36.5616 4.35446L36.5605 4.37252C36.5384 4.66699 36.4917 4.96221 36.4035 5.24031C36.7627 5.57466 37.0013 6.02968 37.0436 6.52C37.1774 6.53244 37.3112 6.54701 37.4448 6.56218C37.4645 6.42778 37.5459 6.30676 37.6694 6.21301C37.7699 6.13658 37.8798 6.07337 37.9963 6.02491C38.0509 5.74306 38.1846 5.47306 38.4101 5.25872C38.4935 5.17967 38.5848 5.10942 38.6826 5.04906C38.6771 4.74352 38.7451 4.43824 38.914 4.14906C39.0545 3.90872 39.259 3.73434 39.4922 3.62338C39.6623 3.28076 39.9773 3.00122 40.4356 2.84235C40.7781 2.72372 41.1405 2.86468 41.4009 3.08645L41.4591 3.13758C41.698 3.34886 41.7844 3.73707 41.6962 4.03656C41.6548 4.17718 41.5857 4.34167 41.4853 4.47522C41.5914 4.94372 41.3804 5.33457 41.0571 5.5542C41.1676 5.7117 41.2605 5.88642 41.3389 6.07298C41.4744 6.39556 41.322 6.79724 41.0776 7.05139C41.1846 7.22235 41.2541 7.42179 41.2796 7.62207C41.3886 7.62846 41.497 7.64789 41.6038 7.67832C41.6632 7.47386 41.7788 7.29027 41.9374 7.14855C42.0082 7.00867 42.0944 6.8771 42.1942 6.75625C42.3471 6.57267 42.5453 6.44039 42.7615 6.38653C42.7917 6.31637 42.8324 6.25131 42.8824 6.19366C42.8308 5.59639 43.2257 4.97968 43.8341 4.97917C43.8774 4.83836 43.9303 4.70068 43.9924 4.5671C44.1156 4.30204 44.3768 4.14343 44.6601 4.09127C44.8264 3.68508 45.1533 3.38968 45.7141 3.34042C46.9671 3.23048 47.7554 4.75298 47.4494 5.8461C47.3584 6.17082 47.1453 6.46963 46.8625 6.65312C46.7885 6.7011 46.714 6.73596 46.6385 6.76477C46.5631 6.87037 46.4615 6.9642 46.331 7.04065C46.3021 7.05761 46.2723 7.07287 46.2417 7.0865C46.2447 7.57434 45.9086 7.97108 45.4916 8.0973C45.5184 8.40488 45.4399 8.71323 45.2067 8.95153L45.1902 8.96747L45.1562 8.99798L45.1535 9.01145C45.2364 9.22554 45.2278 9.46136 45.1087 9.65542C45.1192 9.83372 45.1506 10.008 45.2104 10.1737C45.4407 10.3604 45.644 10.5749 45.8257 10.8078C45.9471 10.6977 46.1303 10.648 46.2887 10.7081C46.3317 10.6935 46.3762 10.6837 46.4214 10.6791C46.4937 10.6718 46.5645 10.672 46.6341 10.6771C46.6662 10.6303 46.7031 10.5858 46.7452 10.5442C47.041 10.2511 47.4705 10.2571 47.8113 10.4392C47.8758 10.3923 47.9455 10.3531 48.019 10.3222C48.8879 9.95517 49.4575 11.0601 49.5422 11.7489C49.5884 12.1246 49.2657 12.3564 48.9345 12.3759C48.8673 12.6037 48.6513 12.7677 48.41 12.8233C48.4528 13.1047 48.2666 13.392 48.013 13.499C47.8998 13.5468 47.7902 13.5599 47.6872 13.546L47.6921 13.6126C47.7121 13.8769 47.5787 14.0451 47.3961 14.1197C47.364 14.2506 47.2748 14.3456 47.1631 14.3942C47.5899 15.3849 47.9267 16.4228 48.1985 17.4465C48.647 19.1364 48.9486 20.857 49.1508 22.5933C49.5066 25.6455 49.5205 28.7605 49.1643 31.814C48.9831 33.3679 48.6819 34.8866 48.0658 36.3298C47.5519 37.5335 46.8371 38.5782 46.0144 39.5889C44.38 41.5966 42.0405 43.0755 39.4621 43.4429C38.1087 43.6358 36.7205 43.5731 35.3998 43.2035C34.0847 42.8356 32.6825 42.2047 31.854 41.0842C31.6297 40.7808 31.7389 40.2887 31.9887 40.0384C32.2737 39.7528 32.6841 39.7344 33.0321 39.9035C33.6497 40.2036 34.2048 40.6138 34.8326 40.9002C35.3991 41.1587 36.0117 41.3242 36.6216 41.4411C37.8299 41.6728 39.1437 41.6136 40.3483 41.2905C42.5329 40.7047 44.4576 39.291 45.6794 37.3846C47.1229 35.1325 47.6382 32.4931 47.8741 29.8629C48.1322 26.9841 48.1053 24.0657 47.7628 21.1951C47.5931 19.7716 47.3318 18.3608 47.0225 16.9616C46.8023 15.9654 46.5539 14.9758 46.3201 13.983C46.1081 13.7805 45.9031 13.5706 45.7056 13.3539L45.6996 13.3534C45.6746 13.3597 45.6486 13.3643 45.6207 13.3665C44.4474 13.4561 43.1759 13.3381 42.175 12.6605C41.7682 12.3852 41.4241 12.0366 41.168 11.6353C40.8083 11.3855 40.4807 11.0703 40.2345 10.7061C40.0599 10.5136 39.894 10.3133 39.7373 10.1058C39.3459 9.58775 39.1378 9.04409 38.9044 8.44639C38.8993 8.4333 38.8954 8.41978 38.8927 8.40599C38.8483 8.33401 38.8173 8.25462 38.801 8.17162C38.2801 8.10965 37.7572 8.06849 37.2393 8.04377C37.0557 8.03524 36.8719 8.02808 36.6881 8.0223C36.7364 8.20238 36.7655 8.3892 36.7718 8.58105C36.9203 8.5877 37.0717 8.60491 37.2267 8.6298C37.9535 8.74571 38.4196 9.11875 38.861 9.70315C39.2907 10.272 39.6332 10.9561 39.8876 11.6214C40.0436 12.0288 39.8355 12.4792 39.4934 12.7414C38.6054 12.817 37.7328 13.0083 36.9155 13.3872C36.8867 13.4006 36.8659 13.424 36.8521 13.4516C36.1995 13.6464 35.542 13.8247 34.8849 13.9759C34.2505 14.122 33.6099 14.1828 32.9721 14.0216C32.6979 13.9523 32.4297 13.8497 32.166 13.7347C32.0243 13.7519 31.8709 13.7248 31.7148 13.6351C31.4732 13.4965 31.237 13.3485 31.0068 13.1917C30.5932 12.9929 30.1864 12.7794 29.7979 12.5354L29.7958 12.5324C29.486 12.1558 29.044 11.7721 28.5492 11.4816C28.4936 11.3976 28.4462 11.3085 28.4076 11.2155C28.1947 10.6966 28.2836 10.0689 28.7326 9.71193C28.7392 9.58877 28.7927 9.46818 28.9113 9.37144C29.0052 9.29496 29.1018 9.22199 29.2011 9.15267C29.1803 9.13724 29.1594 9.12233 29.1387 9.10656C29.098 9.07534 29.0585 9.04244 29.0204 9.00795C28.7206 9.17261 28.4182 9.33377 28.1089 9.4773C28.1011 9.48301 28.0937 9.48906 28.0854 9.49443C27.5038 9.87701 26.9533 10.3164 26.3644 10.6851C26.2234 10.7733 26.083 10.8589 25.9436 10.9447C25.8911 11.0163 25.8402 11.0889 25.7908 11.1627C25.769 11.2776 25.7379 11.3905 25.6979 11.5004C25.7769 11.564 25.8395 11.6458 25.8802 11.7388C26.0612 11.8078 26.2342 11.8963 26.3961 12.0028L26.5386 12.0661C26.7217 11.919 26.9152 11.786 27.123 11.6755C27.7754 11.7179 28.4805 12.1811 28.9761 12.6534C29.0108 12.6926 29.0448 12.7321 29.0772 12.7723C29.1085 12.7977 29.1402 12.8247 29.1717 12.8512C29.221 12.9042 29.2687 12.9587 29.3148 13.0145C29.364 13.0744 29.4196 13.1074 29.4761 13.1212C29.7797 13.4069 30.0642 13.7283 30.2588 14.0624C30.5713 14.5986 30.3523 15.267 30.1236 15.7932C30.0862 15.8791 30.0468 15.9637 30.0055 16.0473C29.5681 16.6377 29.1535 17.2446 28.7392 17.8516C28.46 18.1221 28.1827 18.3942 27.9175 18.6772C27.874 18.7063 27.8283 18.7343 27.7781 18.7602C27.0062 19.1583 26.2596 18.7101 25.5241 18.431L25.442 18.4006C24.6841 18.1259 23.7407 17.9455 23.6929 16.9565C23.6863 16.8218 23.6915 16.6837 23.7049 16.5441C23.892 16.0479 24.1052 15.562 24.3437 15.0884C24.2946 15.0355 24.2518 14.9771 24.2162 14.9143C24.14 14.8182 24.0762 14.7128 24.0263 14.6006C23.6743 15.2762 23.339 16.0007 22.8866 16.5933C22.6372 16.92 22.3266 17.0377 21.997 17.037C21.8579 17.1073 21.7023 17.1309 21.5524 17.1131L21.5682 17.2939C21.582 17.4447 21.598 17.5953 21.6212 17.7431C21.9399 17.738 22.2729 17.8255 22.5698 17.9432C23.4412 18.2884 24.2809 18.7666 25.1215 19.181C25.5275 19.3811 26.0852 19.5489 26.4168 19.8614C26.6709 20.1011 26.6418 20.3981 26.5453 20.7069C26.5287 20.7596 26.5107 20.8118 26.4935 20.8643L26.4924 20.8814C26.2214 21.2236 26.0357 21.6319 25.901 22.0534C25.6809 22.4284 25.5274 22.8493 25.4228 23.2617C25.3379 23.5967 25.2777 23.9387 25.2385 24.2838L25.2283 24.3781L25.2227 24.3892L25.2198 24.4706C25.164 25.0783 25.1707 25.6937 25.2212 26.2966C25.2353 26.4644 25.2528 26.6324 25.2747 26.7999C25.1799 27.0969 24.7301 27.1383 24.497 26.956C24.2406 26.756 23.9713 26.5732 23.6909 26.4087C23.3094 26.5829 22.8682 26.6127 22.4418 26.4699C22.4114 26.4598 22.3825 26.4475 22.3532 26.4359C22.0337 26.4756 21.7173 26.5503 21.4146 26.6387L21.3237 26.6656C20.8407 26.8112 20.3803 26.9934 20.0167 27.3633C19.3706 28.0205 19.1625 29.0827 19.2943 29.972C19.4225 30.8371 19.9234 31.8258 20.826 32.0774C21.1954 32.1803 21.5935 32.1773 21.9527 32.0335C22.0891 31.9788 22.206 31.8997 22.3212 31.8128C22.4625 31.7061 22.5742 31.586 22.7419 31.5185C22.8951 31.4569 23.1596 31.4617 23.2344 31.4581C23.4679 31.4468 23.6654 31.6299 23.7341 31.8394C23.9437 32.4787 23.629 32.9483 23.1234 33.2625C23.3361 33.5852 23.5355 33.9223 23.746 34.2271C24.1395 34.7968 24.5549 35.3474 24.9855 35.8891C25.4275 36.4453 25.8987 36.9747 26.4123 37.4658C26.6441 37.6875 26.8832 37.9015 27.1291 38.1074L27.2649 38.22C27.4944 38.412 27.6952 38.6077 27.6872 38.9429C27.6829 39.1307 27.5585 39.3051 27.3742 39.3551C26.7222 39.5319 26.0389 38.6754 25.6143 38.236L25.5809 38.2018C25.0659 37.6802 24.5898 37.1215 24.1566 36.5301C23.711 35.9209 23.3461 35.2481 23.0519 34.5541C22.9153 34.2316 22.7669 33.863 22.6619 33.4899C22.0954 33.7101 21.4375 33.7887 20.9872 33.737C20.5906 33.6923 20.2053 33.5765 19.8495 33.3952C19.7794 33.5526 19.6852 33.6989 19.5707 33.8206C19.1462 34.272 18.5283 34.4009 17.9298 34.3954C17.1634 34.3884 16.4755 33.904 16.4478 33.0869C16.4298 32.5572 16.7036 32.1026 17.1032 31.7927C17.2515 31.426 17.5329 31.1239 17.9407 31.0258C17.6709 30.1898 17.6233 29.2687 17.8261 28.4247C18.0268 27.5891 18.4849 26.7976 19.1625 26.2762L19.2011 26.247L19.1848 26.2557C19.0247 26.344 18.8686 26.4394 18.7102 26.5308L18.639 26.5714C17.9357 26.9693 17.1211 27.3112 16.3022 27.0984C15.0024 26.7605 14.89 25.136 16.0083 24.4949C16.3947 24.2733 16.8413 24.1897 17.2822 24.1343C17.3515 24.0434 17.4336 23.9632 17.5261 23.8961C17.5397 23.5976 17.6896 23.2991 17.9547 23.1116C18.2249 22.9204 18.5286 22.9014 18.8113 22.9892C18.9179 22.9081 19.0338 22.84 19.1565 22.7864C19.2629 22.7405 19.3735 22.7052 19.4869 22.6812C19.4849 22.5921 19.4839 22.5029 19.4825 22.4137C19.4647 22.3306 19.454 22.2435 19.4429 22.1529C19.4229 22.1495 19.4027 22.1462 19.383 22.142C19.0951 22.0789 18.8349 21.9495 18.6084 21.7749C18.2461 22.0043 17.8064 22.091 17.2837 21.9359C16.7984 21.7919 16.3409 21.3393 16.1147 20.8193C15.8047 20.7569 15.5038 20.6661 15.2402 20.4939C14.7522 20.6102 14.2263 20.4222 14.0284 19.9159C13.8817 19.5406 14.0581 19.0868 14.3726 18.8542C14.4642 18.7864 14.5633 18.7991 14.6421 18.8515C14.6607 18.7906 14.6825 18.7303 14.7094 18.6713C14.7202 18.6475 14.732 18.6243 14.7439 18.6012C14.7321 18.104 14.9122 17.6233 15.3626 17.3566C15.6968 17.1586 16.0956 17.137 16.4549 17.2514C16.6522 17.067 16.9023 16.9262 17.2129 16.8489C17.7589 16.7129 18.3337 16.868 18.7224 17.2784C18.8075 17.2535 18.8946 17.2356 18.9826 17.2248C19.0151 16.9959 19.0928 16.7757 19.2549 16.6039C19.3706 16.4818 19.5087 16.3832 19.6616 16.3135C19.7304 16.0542 19.8433 15.822 20.0323 15.6277C19.9395 15.5499 19.8563 15.4613 19.7844 15.3638C19.7048 15.3511 19.6262 15.3327 19.5492 15.3086C19.1384 15.1764 18.8552 14.917 18.663 14.5937C18.3074 14.6849 17.9307 14.6515 17.5605 14.4188C17.2927 14.2505 17.0909 13.9813 16.9844 13.6806L16.6804 13.5738C16.3938 13.4722 16.1882 13.2825 16.0709 13.0568C15.9216 13.1105 15.757 13.1086 15.6232 13.0049C14.8382 12.3978 15.3743 11.3918 16.2145 11.192C16.5563 11.1108 16.8547 11.157 17.1201 11.2809C17.3089 11.0986 17.5458 10.9617 17.8168 10.9C18.1329 10.8281 18.466 10.8808 18.7578 11.0206L18.8331 11.0196C19.1269 10.801 19.5039 10.703 19.9646 10.8086C20.4862 10.9282 20.8418 11.2208 21.0828 11.6018C21.1619 11.5305 21.2491 11.4688 21.3426 11.418C21.6124 11.2709 21.9005 11.2346 22.1765 11.2806C22.2692 11.148 22.3647 11.0173 22.4628 10.8887C22.2297 10.7062 22.0703 10.4231 22.0619 10.1091C21.9914 10.0651 21.9232 10.0151 21.858 9.96906C21.5388 9.7438 21.2682 9.46136 21.1451 9.08167C21.0837 8.8923 21.0614 8.69491 21.0685 8.49701C21.0341 8.4897 20.9999 8.48129 20.966 8.47179C19.6095 8.08076 19.0472 6.20721 20.1193 5.20162C20.6823 4.67363 21.5381 4.9727 22.095 5.36261C22.4748 5.62852 22.7764 5.95912 23.0498 6.3244C23.0626 6.32696 23.0751 6.32781 23.088 6.33105C23.4806 6.42394 23.7928 6.67639 24.0235 6.99906C24.4309 6.92815 24.8645 7.00698 25.251 7.29037C25.5327 7.49696 25.7097 7.75264 25.8016 8.03048C26.1676 7.83906 26.5444 7.67125 26.9293 7.52304C26.9545 7.46227 26.9809 7.40142 27.0114 7.34099C27.0692 7.22697 27.1459 7.12362 27.2382 7.03537C27.1379 6.92383 27.0524 6.79987 26.9836 6.6665C26.6522 6.01929 26.772 5.36423 27.1383 4.86863C26.9781 4.50727 26.9288 4.0975 27.0236 3.70767C27.0412 3.63522 27.0634 3.56576 27.0893 3.49886C26.8671 3.15173 26.7247 2.75218 26.6878 2.33738V2.33721ZM20.7398 28.5184C20.9749 28.461 21.0303 28.3858 21.2947 28.4075C21.5015 28.4245 21.7064 28.4591 21.9073 28.5108C22.381 28.6337 22.8229 28.8821 23.2121 29.1745C23.7642 29.5893 23.1033 30.3602 22.6637 29.9179L22.6504 29.9041C22.3549 29.5867 22.0233 29.3387 21.652 29.1177C21.4638 29.0057 21.2696 28.9248 21.0728 28.8306C20.9368 28.7656 20.8583 28.6591 20.7304 28.5914C20.7002 28.5754 20.7072 28.5264 20.7398 28.5184ZM22.0056 22.2714C21.8757 22.2255 21.7265 22.3236 21.6917 22.45C21.6544 22.5862 21.7336 22.7093 21.8562 22.7592L21.87 22.7645C22.0364 22.8233 22.1884 22.9211 22.3178 23.041L22.3452 23.067C22.5809 23.2964 22.9421 22.9352 22.7061 22.7053C22.5068 22.5114 22.2678 22.3634 22.0056 22.2714ZM28.1101 12.9635C27.9758 12.6691 27.5472 12.9163 27.6636 13.2079L27.6695 13.2216C27.7904 13.4866 27.7408 13.7943 27.609 14.044L27.596 14.0681C27.4356 14.3556 27.8762 14.6138 28.0366 14.3261C28.2746 13.8993 28.314 13.4106 28.1101 12.9635ZM31.8158 9.29866L31.8098 9.26917C31.7494 8.94608 31.2575 9.08287 31.3178 9.40502C31.418 9.94068 31.8063 10.2926 32.3042 10.4673C32.6149 10.5762 32.7483 10.0824 32.4399 9.97417C32.1099 9.85843 31.8892 9.63906 31.8158 9.29866ZM39.8569 8.78125L39.7703 8.7775L39.8363 8.86477C39.8426 8.83673 39.8494 8.80886 39.8569 8.78125Z" fill="black"/>
<path fill-rule="evenodd" clip-rule="evenodd" d="M42.3786 35.3947L42.4375 35.3811C42.9084 35.2701 43.3615 35.1191 43.8 35.4108C44.2179 35.6888 44.2759 36.2029 43.9504 36.5779C43.6157 36.9634 43.1712 36.9419 42.7021 36.9472L42.6727 36.9475C42.2832 36.9529 41.8871 36.9471 41.4991 36.9126C41.1357 36.8798 40.7741 36.8293 40.4156 36.7613L40.2041 36.7199C39.9881 36.6761 39.7753 36.6193 39.664 36.4101C39.4698 36.0456 40.9129 35.7596 41.0882 35.7096C41.5136 35.5881 41.9471 35.4925 42.3786 35.3947ZM43.1789 30.9996C42.9489 31.2381 42.645 31.4011 42.304 31.5025C41.4467 31.7573 40.3528 31.6216 39.6527 31.3619C39.5075 31.308 39.3717 31.1981 39.2937 31.0608C39.2225 30.9354 39.1984 30.7879 39.2526 30.6374C39.2681 30.5947 39.2868 30.5527 39.3057 30.5114C39.3571 30.399 39.4617 30.3114 39.5847 30.2615C39.7124 30.2095 39.8576 30.1989 39.974 30.2355L40.0222 30.2507C40.4658 30.3905 41.1934 30.6221 41.7962 30.5772C42.1579 30.5503 42.476 30.4225 42.6405 30.0915C42.7273 29.9169 42.7032 29.7443 42.6264 29.5863C42.5104 29.348 42.278 29.1407 42.0824 28.9978C41.8065 28.7964 41.5123 28.716 41.2079 28.631C41.0933 28.5991 40.9771 28.5666 40.8599 28.5278C40.821 28.5145 40.787 28.49 40.762 28.4574C40.737 28.4252 40.7209 28.3869 40.7154 28.3465C40.7097 28.3065 40.7168 28.2657 40.7356 28.2299C40.7549 28.1942 40.7858 28.1661 40.8231 28.1501C41.4185 27.8833 42.1886 28.0596 42.7699 28.4792C43.0603 28.689 43.3026 28.9584 43.452 29.2595C43.5905 29.5389 43.6494 29.8454 43.5951 30.158C43.5344 30.5081 43.3863 30.7845 43.1789 30.9996ZM33.4205 25.0473C33.5878 24.9736 33.7253 25.3187 33.7597 25.4128L33.8309 25.6079C33.9471 25.9227 34.0805 26.2427 34.3247 26.4763C34.5292 26.6719 34.8568 26.8377 35.094 26.6088C35.319 26.3918 35.2093 26.1472 35.2424 25.8809C35.3023 25.3992 35.9591 24.9178 36.3541 25.4204C37.2462 26.5562 35.8659 28.1356 34.5945 27.8585C33.9478 27.7176 33.4274 27.1991 33.2135 26.5826L33.2025 26.55C33.0745 26.1594 32.9451 25.257 33.4205 25.0473ZM44.9334 25.8383L44.9272 25.8239C44.5022 24.8573 46.0181 24.4419 46.1466 25.3098L46.1548 25.3683C46.2798 26.3318 46.0164 27.6274 44.8363 27.7234C43.5117 27.8313 42.9601 26.3534 43.0784 25.2689C43.0996 25.0747 43.3352 25.0479 43.408 25.2243L43.4235 25.2628C43.6373 25.8079 43.8404 26.856 44.594 26.855C45.0975 26.8542 45.0735 26.1746 44.9334 25.8383ZM45.8944 23.0403C46.6558 23.0132 46.6548 24.2048 45.8944 24.2227C43.3545 24.2825 40.8126 24.3619 38.2719 24.3755L37.8101 24.3784C35.4236 24.3944 33.0288 24.427 30.6493 24.2267C30.4462 24.2097 30.484 23.9244 30.6536 23.9359C33.1483 23.5809 35.6734 23.4771 38.1871 23.3422C40.7539 23.2043 43.3257 23.1314 45.8944 23.0402V23.0403Z" fill="black"/>
</svg>
