<svg width="23" height="23" viewBox="0 0 23 23" fill="none" xmlns="http://www.w3.org/2000/svg">
<path fill-rule="evenodd" clip-rule="evenodd" d="M0.0415039 11.5C0.0415039 5.17173 5.17157 0.0416641 11.4998 0.0416641C17.8281 0.0416641 22.9582 5.17173 22.9582 11.5C22.9582 17.8283 17.8281 22.9583 11.4998 22.9583C5.17157 22.9583 0.0415039 17.8283 0.0415039 11.5Z" fill="#08AD36"/>
<path fill-rule="evenodd" clip-rule="evenodd" d="M17.0316 7.37805C17.4384 7.78485 17.4384 8.44439 17.0316 8.85119L10.5658 15.622C10.159 16.0288 9.49949 16.0288 9.09269 15.622L5.96769 12.497C5.5609 12.0902 5.5609 11.4307 5.96769 11.0239C6.37449 10.6171 7.03404 10.6171 7.44083 11.0239L9.82926 13.4123L15.5584 7.37805C15.9652 6.97126 16.6248 6.97126 17.0316 7.37805Z" fill="white"/>
</svg>
