<svg width="624" height="450" viewBox="0 0 624 450" fill="none" xmlns="http://www.w3.org/2000/svg">
<path d="M105.231 0.0704727H23.8384V84.9171H105.231V0.0704727Z" fill="#E0E0E0"/>
<path d="M99.7176 0.0704727H18.3254V84.9171H99.7176V0.0704727Z" fill="#F5F5F5"/>
<path d="M99.7406 84.9413H18.3602V0H99.7997L99.7406 84.9413ZM18.3484 84.9413H99.6814V0.0946443H18.3602L18.3484 84.9413Z" fill="#E0E0E0"/>
<path d="M88.7745 11.4756H29.2683V73.5016H88.7745V11.4756Z" fill="white"/>
<path d="M29.2686 73.9276C28.8511 74.5464 28.3671 75.1176 27.8253 75.6311C26.8789 76.6367 25.5421 77.9972 24.0514 79.4641C22.5608 80.9311 21.1767 82.2561 20.1593 83.1907C19.6133 83.7313 19.0104 84.2113 18.3611 84.6221C18.772 83.9949 19.2609 83.4225 19.8162 82.9186C20.7745 81.913 22.1113 80.5525 23.6137 79.0737C25.1162 77.595 26.4885 76.2818 27.5059 75.3472C28.0303 74.8005 28.6227 74.3234 29.2686 73.9276Z" fill="#E0E0E0"/>
<path d="M88.7744 73.7739C89.4136 74.1925 90.0012 74.6849 90.5253 75.2409C91.5309 76.1873 92.8913 77.5241 94.3583 79.0147C95.8253 80.5053 97.1502 81.8895 98.0848 82.9069C98.625 83.4231 99.1051 83.9985 99.5163 84.6223C98.8891 84.2114 98.3167 83.7224 97.8127 83.1672C96.8072 82.2207 95.4467 80.8839 93.9679 79.3815C92.4891 77.879 91.176 76.4949 90.2414 75.4775C89.6802 74.9761 89.187 74.4034 88.7744 73.7739Z" fill="#E0E0E0"/>
<path d="M88.6091 11.6407C89.0318 11.019 89.5239 10.4474 90.0761 9.93719C91.0225 8.93162 92.3593 7.57114 93.8618 6.10418C95.3642 4.63723 96.7365 3.31224 97.7421 2.37765C98.2575 1.83203 98.8375 1.35132 99.4693 0.94619C99.0477 1.56878 98.5555 2.14045 98.0024 2.64975C97.0559 3.65532 95.7191 5.0158 94.2167 6.49459C92.7142 7.97337 91.3301 9.28652 90.3245 10.2211C89.8148 10.7647 89.2384 11.2416 88.6091 11.6407Z" fill="#E0E0E0"/>
<path d="M29.103 11.8303C28.4784 11.4113 27.9065 10.9188 27.3994 10.3634C26.3938 9.41693 25.0334 8.08012 23.5546 6.57767C22.0758 5.07523 20.7271 3.66743 19.8399 2.66185C19.2732 2.15361 18.776 1.57287 18.3611 0.934637C18.9957 1.34086 19.5795 1.82142 20.1001 2.3661C21.1057 3.31252 22.4662 4.64934 23.945 6.15178C25.4238 7.65423 26.7487 9.03837 27.6715 10.0439C28.2206 10.578 28.7014 11.178 29.103 11.8303Z" fill="#E0E0E0"/>
<path d="M88.6092 73.5138C88.6092 73.5138 88.6092 73.4073 88.6092 73.2062C88.6092 73.0051 88.6092 72.7093 88.6092 72.3426C88.6092 71.5618 88.6092 70.4498 88.6092 68.9946C88.6092 66.0607 88.6092 61.7782 88.5382 56.3481C88.5382 45.4879 88.5382 30.0139 88.4317 11.4759L88.6565 11.7125H29.3159L29.5762 11.4522C29.5762 34.2255 29.5762 55.52 29.5762 73.4901L29.3514 73.2654L72.3189 73.3718H84.3858H87.5799H88.408C88.5023 73.3596 88.5977 73.3596 88.692 73.3718H87.6273H84.4804H72.4609L29.3514 73.4901H29.0083V73.2654C29.0083 55.6028 29.0083 34.3083 29.0083 11.4759V11.2156H29.2804H88.621H88.8458V11.4404C88.8458 30.0376 88.763 45.5589 88.7393 56.4664C88.7393 61.8728 88.7393 66.1317 88.6683 69.0538C88.6683 70.4853 88.6683 71.5855 88.6683 72.3544C88.6683 72.7212 88.6683 72.9933 88.6683 73.1944C88.6554 73.302 88.6356 73.4087 88.6092 73.5138Z" fill="#E0E0E0"/>
<path d="M68.9352 32.569H49.084V52.4202H68.9352V32.569Z" fill="#E0E0E0"/>
<path d="M76.3284 228.455C81.5506 229.682 86.9768 229.764 92.2335 228.693C97.4903 227.623 102.453 225.427 106.779 222.255C101.687 219.691 95.8615 218.976 90.2999 220.233C84.787 221.487 79.7473 223.959 76.3284 228.455Z" fill="#E0E0E0"/>
<path d="M90.9988 213.559C90.4601 213.908 89.8989 214.22 89.3189 214.494C87.8078 215.352 86.3572 216.313 84.9772 217.369C82.9438 218.953 81.0372 220.693 79.275 222.574C77.2639 224.692 75.2054 227.152 73.0996 229.779C68.8881 235.067 64.9486 239.74 62.5944 243.478C61.6386 244.935 60.7581 246.439 59.9562 247.985C59.6823 248.563 59.3742 249.124 59.0334 249.665C59.0334 249.665 59.0335 249.5 59.1872 249.192C59.341 248.885 59.483 248.435 59.7433 247.879C60.4815 246.288 61.315 244.744 62.2394 243.253C64.5345 239.432 68.4385 234.688 72.6382 229.412C74.7559 226.774 76.838 224.313 78.8846 222.207C80.6834 220.322 82.6384 218.593 84.7288 217.038C86.1413 215.995 87.6415 215.077 89.2124 214.293C89.7685 214.021 90.2299 213.843 90.5256 213.713C90.8214 213.583 90.987 213.536 90.9988 213.559Z" fill="#E0E0E0"/>
<path d="M91.6252 225.272C90.456 225.529 89.27 225.703 88.0761 225.792C85.2309 226.076 82.4187 226.627 79.6766 227.437C76.9657 228.325 74.4226 229.66 72.1526 231.388C70.4135 232.725 69.5972 233.837 69.5144 233.754C69.6449 233.458 69.8249 233.186 70.0468 232.95C70.5969 232.258 71.2152 231.624 71.8923 231.057C74.1335 229.189 76.7116 227.767 79.4873 226.869C82.2678 226.044 85.1336 225.54 88.0288 225.366C89.2222 225.225 90.426 225.194 91.6252 225.272Z" fill="#E0E0E0"/>
<path d="M70.5671 232.489C70.3779 232.382 71.9749 229.945 73.2171 226.668C74.4593 223.391 74.6486 220.457 74.8615 220.481C74.9449 221.115 74.9249 221.758 74.8024 222.386C74.6239 223.91 74.2747 225.41 73.7613 226.857C73.2267 228.295 72.5406 229.671 71.7147 230.963C71.4131 231.527 71.026 232.042 70.5671 232.489Z" fill="#E0E0E0"/>
<path d="M31.0659 255.534C31.9414 270.996 36.6025 286.742 43.7716 302.642H74.9562C81.7941 286.896 86.1358 271.185 86.9048 255.534H31.0659Z" fill="#E0E0E0"/>
<path d="M81.8535 280.508C81.8535 280.673 71.5848 280.804 58.9264 280.804C46.268 280.804 35.9875 280.673 35.9875 280.508C35.9875 280.342 46.2562 280.212 58.9264 280.212C71.5966 280.212 81.8535 280.378 81.8535 280.508Z" fill="#FAFAFA"/>
<path d="M81.1552 286.114C81.1552 286.268 71.5372 286.398 59.6597 286.398C47.7821 286.398 38.1641 286.268 38.1641 286.114C38.1641 285.961 47.7821 285.819 59.6597 285.819C71.5372 285.819 81.1552 285.949 81.1552 286.114Z" fill="#FAFAFA"/>
<path d="M44.2804 265.625C44.659 270.409 44.659 275.215 44.2804 279.999C43.886 275.216 43.886 270.408 44.2804 265.625Z" fill="#FAFAFA"/>
<path d="M60.9491 265.625C61.3434 270.578 61.3434 275.555 60.9491 280.508C60.5547 275.555 60.5547 270.578 60.9491 265.625Z" fill="#FAFAFA"/>
<path d="M76.6719 265.506C76.9684 268.022 77.0673 270.558 76.9676 273.089C77.0673 275.621 76.9684 278.156 76.6719 280.673C76.3754 278.156 76.2765 275.621 76.3761 273.089C76.2765 270.558 76.3754 268.022 76.6719 265.506Z" fill="#FAFAFA"/>
<path d="M85.9233 265.625C85.9233 265.791 73.8801 265.921 59.0213 265.921C44.1625 265.921 32.1311 265.791 32.1311 265.625C32.1311 265.459 44.1625 265.341 59.0213 265.341C73.8801 265.341 85.9233 265.471 85.9233 265.625Z" fill="#FAFAFA"/>
<path d="M505.199 401.2V438.619H559.914H620.272V401.2H505.199Z" fill="#F5F5F5"/>
<path d="M500.373 390.742V401.2H624.307V390.742H559.915H500.373Z" fill="#E0E0E0"/>
<path d="M562.34 438.619H620.272V401.2H624.307V390.742H559.915V400.23L562.34 438.619Z" fill="#E0E0E0"/>
<path d="M544.629 407.234H521.288V412.865H544.629V407.234Z" fill="#E0E0E0"/>
<path d="M548.249 419.915H518.283V431.805H548.249V419.915Z" fill="white"/>
<path d="M522.897 353.37V390.789H577.624H637.982V353.37H522.897Z" fill="#F5F5F5"/>
<path d="M518.071 342.9V353.369H642.005V342.9H577.624H518.071Z" fill="#EBEBEB"/>
<path d="M580.037 390.789H637.982V353.369H642.004V342.9H577.624V352.399L580.037 390.789Z" fill="#EBEBEB"/>
<path d="M562.34 359.403H538.999V365.034H562.34V359.403Z" fill="#E0E0E0"/>
<path d="M565.96 372.073H535.994V383.963H565.96V372.073Z" fill="white"/>
<path d="M784.169 304.038C784.169 304.204 608.608 304.346 392.102 304.346C175.597 304.346 0 304.192 0 304.038C0 303.884 175.514 303.73 392.102 303.73C608.691 303.73 784.169 303.861 784.169 304.038Z" fill="#263238"/>
<path d="M767.335 439.021C767.335 439.187 599.345 439.329 392.103 439.329C184.86 439.329 16.835 439.187 16.835 439.021C16.835 438.856 184.825 438.714 392.103 438.714C599.381 438.714 767.335 438.903 767.335 439.021Z" fill="#263238"/>
<path d="M156.385 132.274C155.747 130.369 154.546 128.702 152.941 127.494C151.335 126.285 149.401 125.593 147.394 125.507C148.435 122.585 146.436 119.214 143.596 117.983C142.14 117.456 140.588 117.242 139.043 117.354C137.498 117.466 135.994 117.902 134.629 118.634C132.653 119.569 130.808 120.87 128.714 121.355C125.91 121.994 123.012 121.106 120.149 121.012C117.211 120.956 114.314 121.709 111.775 123.188C109.235 124.667 107.152 126.816 105.751 129.399C104.793 131.21 104.201 133.209 103.149 134.972C102.297 136.379 101.185 137.61 100.345 139.029C99.172 141.108 98.6385 143.486 98.811 145.866C98.9836 148.246 99.8546 150.522 101.315 152.409L141.644 143.146C143.302 144.293 145.276 144.893 147.291 144.863C149.306 144.834 151.262 144.176 152.885 142.981C154.508 141.787 155.718 140.115 156.345 138.2C156.973 136.285 156.987 134.221 156.385 132.298V132.274Z" fill="#263238"/>
<path d="M249.288 280.768L210.402 276.911L208.154 297.105L252.068 295.579L249.288 280.768Z" fill="#FFBF9D"/>
<path d="M278.828 292.598C278.58 292.948 278.235 293.218 277.835 293.373C277.436 293.529 276.999 293.564 276.58 293.473C276.4 293.425 276.225 293.358 276.059 293.272C274.876 292.693 275.409 290.22 275.409 290.22L269.706 288.351C269.706 288.351 261.331 292.042 258.113 294.869C254.895 297.697 248.412 293.97 248.412 293.97L247.986 281.123L260.29 273.09C260.29 273.09 259.532 273.575 260.562 271.907C261.591 270.239 264.868 271.422 264.868 271.422C265.542 270.605 267.802 270.629 267.802 270.629L277.065 273.208C278.009 273.47 278.882 273.941 279.619 274.586C280.356 275.231 280.939 276.034 281.324 276.935L284.317 283.879C284.317 283.879 285.713 288.765 285.204 289.794C284.988 290.208 284.628 290.528 284.192 290.694C283.756 290.859 283.274 290.859 282.838 290.693C282.838 290.693 281.892 293.604 281.099 293.592C280.298 293.423 279.536 293.106 278.851 292.657L278.828 292.598Z" fill="#FFBF9D"/>
<path d="M260.49 293.189C260.713 293.095 260.927 292.98 261.129 292.846L262.904 291.829C265.132 290.595 267.431 289.493 269.789 288.528H269.647L275.337 290.445L275.172 290.161C275.084 290.641 275.044 291.128 275.053 291.616C275.048 292.149 275.201 292.672 275.491 293.119C275.679 293.347 275.93 293.516 276.213 293.604C276.47 293.717 276.748 293.777 277.029 293.781C277.609 293.782 278.171 293.576 278.614 293.201C278.725 293.108 278.828 293.005 278.922 292.894L278.993 292.811L278.626 292.882L278.804 292.988C279.032 293.132 279.269 293.263 279.513 293.379C279.761 293.504 280.018 293.611 280.282 293.698C280.42 293.752 280.563 293.791 280.708 293.816C280.89 293.869 281.083 293.869 281.264 293.816C281.554 293.655 281.796 293.418 281.962 293.13C282.116 292.887 282.255 292.634 282.376 292.373C282.621 291.854 282.834 291.321 283.015 290.776L282.637 290.954C283.018 291.104 283.434 291.147 283.839 291.079C284.243 291.01 284.621 290.832 284.932 290.563C285.252 290.273 285.461 289.879 285.523 289.451C285.566 289.058 285.566 288.661 285.523 288.268C285.314 286.761 284.998 285.27 284.577 283.808L282.98 280.105L281.974 277.739C281.664 276.93 281.267 276.156 280.791 275.432C280.286 274.729 279.642 274.137 278.898 273.693C278.158 273.284 277.361 272.988 276.532 272.818L267.79 270.452H267.719C267.174 270.458 266.632 270.514 266.098 270.617C265.528 270.693 264.997 270.95 264.584 271.351H264.927C264.482 271.054 263.971 270.871 263.439 270.818C262.907 270.764 262.37 270.842 261.874 271.043C260.994 271.492 260.32 272.264 259.993 273.196L260.088 273.078L251.606 278.579L249.323 280.105C249.049 280.275 248.788 280.465 248.542 280.673C248.84 280.547 249.125 280.393 249.394 280.212L251.76 278.792L260.337 273.468V273.397C260.629 272.589 261.217 271.922 261.981 271.528C262.403 271.367 262.858 271.31 263.307 271.361C263.755 271.413 264.185 271.571 264.56 271.824L264.749 271.942L264.903 271.777C265.235 271.483 265.647 271.293 266.086 271.233C266.581 271.137 267.084 271.089 267.588 271.091L276.307 273.551C277.074 273.712 277.811 273.987 278.496 274.368C279.166 274.774 279.746 275.313 280.2 275.953C280.644 276.639 281.009 277.373 281.288 278.141C281.631 278.922 281.962 279.703 282.305 280.507L283.902 284.21C284.317 285.641 284.63 287.1 284.837 288.576C284.872 288.918 284.872 289.263 284.837 289.605C284.795 289.896 284.653 290.164 284.435 290.362C284.204 290.556 283.925 290.684 283.628 290.734C283.33 290.784 283.025 290.754 282.743 290.646L282.459 290.551L282.364 290.823C282.2 291.346 281.999 291.856 281.761 292.35C281.596 292.805 281.319 293.212 280.957 293.533C280.874 293.543 280.791 293.543 280.708 293.533L280.365 293.438C280.129 293.355 279.892 293.249 279.655 293.142C279.424 293.032 279.199 292.909 278.981 292.775L278.815 292.681L278.449 292.752V292.823C278.372 292.908 278.289 292.987 278.2 293.059C277.87 293.344 277.453 293.507 277.017 293.521C276.798 293.52 276.581 293.476 276.378 293.391C276.181 293.344 276.006 293.231 275.881 293.071C275.491 292.287 275.399 291.387 275.621 290.54V290.315L275.42 290.256L269.718 288.41H269.647H269.576C267.221 289.414 264.936 290.576 262.738 291.888C261.969 292.35 261.389 292.728 260.999 293C260.825 293.051 260.655 293.115 260.49 293.189Z" fill="#FF9A6C"/>
<path d="M265.944 274.971C266.84 275.556 267.811 276.018 268.831 276.343C271.308 277.276 273.898 277.881 276.532 278.141L276.248 277.881C276.343 278.378 276.426 278.887 276.556 279.407C277.227 282.343 278.456 285.122 280.176 287.594C280.694 288.334 281.264 289.038 281.879 289.7C282.317 290.173 282.589 290.398 282.625 290.374C282.66 290.35 281.749 289.25 280.543 287.345C278.972 284.861 277.832 282.129 277.171 279.265C277.053 278.768 276.958 278.26 276.875 277.787V277.538H276.639C274.05 277.285 271.497 276.758 269.02 275.965C268.015 275.574 266.988 275.243 265.944 274.971Z" fill="#FF9A6C"/>
<path d="M274.036 281.88C274.306 285.849 276.104 289.559 279.052 292.231C279.205 292.101 277.478 290.137 276.106 287.274C274.734 284.411 274.225 281.844 274.036 281.88Z" fill="#FF9A6C"/>
<path d="M247.146 289.841C247.146 289.841 247.229 289.936 247.418 290.066C247.7 290.253 247.992 290.423 248.294 290.575C249.44 291.134 250.679 291.479 251.949 291.592C253.9 291.769 255.862 291.388 257.604 290.492C259.827 289.353 261.586 287.481 262.585 285.192L262.206 285.37C264.388 286.155 266.67 286.625 268.985 286.766C269.844 286.813 270.705 286.813 271.564 286.766C272.425 286.768 273.28 286.628 274.096 286.351C274.551 286.198 274.935 285.882 275.172 285.464C275.272 285.249 275.329 285.016 275.339 284.778C275.35 284.541 275.313 284.303 275.231 284.08C275.063 283.638 274.727 283.281 274.297 283.086L273.256 282.637C270.499 281.454 267.956 280.59 265.814 279.892C263.673 279.194 261.899 278.709 260.68 278.402C260.053 278.204 259.406 278.073 258.752 278.011C259.358 278.257 259.978 278.467 260.609 278.638C261.792 279.017 263.543 279.573 265.672 280.318C267.802 281.063 270.298 282.01 273.031 283.181L274.06 283.631C274.338 283.761 274.554 283.994 274.663 284.281C274.724 284.425 274.755 284.58 274.755 284.737C274.755 284.893 274.724 285.048 274.663 285.192C274.489 285.478 274.215 285.689 273.894 285.784C273.131 286.032 272.331 286.152 271.528 286.139C270.7 286.139 269.86 286.139 269.009 286.139C266.752 286 264.526 285.546 262.395 284.79L262.123 284.695L262.017 284.955C261.067 287.142 259.397 288.937 257.285 290.043C255.631 290.919 253.77 291.328 251.902 291.226C250.681 291.147 249.482 290.867 248.353 290.397C247.572 290.09 247.17 289.841 247.146 289.841Z" fill="#FF9A6C"/>
<path d="M123.154 230.797C118.539 230.694 114.149 228.788 110.924 225.486C107.7 222.184 105.898 217.749 105.905 213.134L105.172 154.562C104.485 138.84 112.814 125.318 128.11 125.058H129.53C143.786 125.661 155.19 137.408 155.746 152.066C156.267 165.706 156.823 178.874 156.444 186.161C155.651 201.256 140.733 202.723 140.733 202.723C140.733 202.723 140.733 208.343 140.733 212.779C140.773 215.112 140.348 217.43 139.485 219.598C138.622 221.766 137.338 223.742 135.706 225.41C134.074 227.078 132.128 228.405 129.979 229.316C127.83 230.226 125.523 230.702 123.189 230.714L123.154 230.797Z" fill="#FFBF9D"/>
<path d="M140.733 202.901C133.929 202.59 127.368 200.286 121.863 196.276C121.863 196.276 126.004 207.822 140.697 207.077L140.733 202.901Z" fill="#FF9A6C"/>
<path d="M150.339 165.541C150.323 166.093 150.096 166.619 149.704 167.009C149.312 167.399 148.785 167.623 148.233 167.635C147.962 167.644 147.691 167.599 147.438 167.503C147.184 167.406 146.952 167.26 146.756 167.073C146.56 166.885 146.403 166.661 146.295 166.412C146.187 166.163 146.13 165.895 146.127 165.624C146.133 165.068 146.357 164.537 146.751 164.146C147.145 163.754 147.677 163.533 148.233 163.53C148.503 163.522 148.773 163.568 149.026 163.665C149.279 163.762 149.51 163.908 149.706 164.095C149.902 164.282 150.058 164.507 150.167 164.755C150.276 165.003 150.334 165.27 150.339 165.541Z" fill="#263238"/>
<path d="M152.362 158.656C152.09 158.928 150.552 157.65 148.293 157.567C146.033 157.484 144.341 158.561 144.105 158.265C143.868 157.969 144.282 157.638 145.016 157.082C146.016 156.433 147.196 156.114 148.387 156.171C149.56 156.204 150.69 156.62 151.605 157.354C152.279 158.017 152.492 158.525 152.362 158.656Z" fill="#263238"/>
<path d="M129.861 165.541C129.852 166.095 129.627 166.624 129.234 167.015C128.84 167.406 128.31 167.629 127.755 167.635C127.485 167.639 127.216 167.59 126.964 167.49C126.712 167.39 126.483 167.241 126.289 167.052C126.096 166.863 125.942 166.637 125.836 166.388C125.73 166.138 125.675 165.871 125.673 165.6C125.683 165.045 125.908 164.516 126.301 164.125C126.694 163.734 127.225 163.512 127.779 163.506C128.05 163.5 128.32 163.548 128.572 163.647C128.825 163.746 129.055 163.895 129.249 164.085C129.443 164.275 129.597 164.501 129.702 164.751C129.807 165.001 129.861 165.27 129.861 165.541Z" fill="#263238"/>
<path d="M130.239 158.254C129.967 158.526 128.417 157.248 126.17 157.165C123.922 157.082 122.218 158.159 121.982 157.863C121.745 157.567 122.147 157.236 122.893 156.68C123.893 156.031 125.073 155.712 126.264 155.769C127.436 155.807 128.565 156.221 129.482 156.952C130.145 157.615 130.369 158.135 130.239 158.254Z" fill="#263238"/>
<path d="M137.61 176.425C138.813 176.095 140.053 175.92 141.301 175.904C141.881 175.904 142.484 175.774 142.543 175.372C142.613 174.762 142.502 174.145 142.224 173.597C141.739 172.142 141.23 170.616 140.709 169.019C138.592 162.489 137.16 157.189 137.35 157.059C137.539 156.928 139.526 162.181 141.632 168.711C142.141 170.32 142.626 171.846 143.075 173.313C143.423 174.052 143.498 174.89 143.288 175.679C143.197 175.881 143.062 176.06 142.892 176.201C142.722 176.343 142.521 176.443 142.306 176.496C141.985 176.573 141.655 176.609 141.325 176.602C140.084 176.701 138.835 176.641 137.61 176.425Z" fill="#263238"/>
<path d="M131.257 151.037C130.925 151.617 128.76 150.895 126.099 150.73C123.437 150.564 121.201 150.883 120.952 150.256C120.846 149.961 121.319 149.452 122.277 149.073C123.534 148.538 124.903 148.319 126.264 148.434C127.626 148.512 128.949 148.918 130.121 149.617C131.008 150.173 131.399 150.753 131.257 151.037Z" fill="#263238"/>
<path d="M152.74 151.841C152.255 152.362 150.374 151.759 148.221 151.676C146.068 151.593 144.14 151.924 143.726 151.356C143.537 151.084 143.844 150.564 144.672 150.09C145.814 149.518 147.086 149.254 148.362 149.322C149.637 149.39 150.873 149.79 151.948 150.481C152.705 151.037 152.953 151.593 152.74 151.841Z" fill="#263238"/>
<path d="M105.905 165.789C105.656 165.671 95.9434 162.299 95.8488 172.627C95.7542 182.955 105.857 180.908 105.881 180.636C105.905 180.364 105.905 165.789 105.905 165.789Z" fill="#FFBF9D"/>
<path d="M102.864 176.685C102.864 176.685 102.686 176.815 102.391 176.945C102.183 177.032 101.959 177.077 101.734 177.077C101.509 177.077 101.285 177.032 101.077 176.945C100.025 176.531 99.1372 174.792 99.1136 172.923C99.0893 172.04 99.2632 171.163 99.6223 170.356C99.716 170.037 99.8855 169.746 100.116 169.507C100.347 169.268 100.632 169.088 100.947 168.984C101.151 168.93 101.368 168.952 101.557 169.046C101.746 169.139 101.895 169.298 101.977 169.492C102.118 169.776 102.047 169.989 102.107 170.001C102.166 170.013 102.32 169.835 102.237 169.41C102.191 169.152 102.052 168.92 101.846 168.759C101.716 168.647 101.563 168.564 101.397 168.517C101.232 168.47 101.058 168.46 100.888 168.487C100.471 168.568 100.082 168.756 99.7592 169.032C99.4359 169.307 99.1891 169.661 99.0426 170.06C98.6085 170.955 98.3936 171.941 98.4156 172.935C98.4156 175.017 99.4803 176.981 100.924 177.43C101.192 177.511 101.475 177.53 101.752 177.485C102.029 177.44 102.292 177.332 102.521 177.17C102.84 176.934 102.899 176.709 102.864 176.685Z" fill="#FF9A6C"/>
<path d="M113.121 139.999C113.356 138.678 113.947 137.447 114.831 136.437C115.715 135.428 116.858 134.68 118.137 134.274C120.341 133.532 122.731 133.561 124.916 134.356C130.583 136.415 140.295 139.503 142.768 137.527C146.388 134.688 147.263 132.795 147.263 132.795L149.263 134.972C150.883 134.049 146.009 128.631 142.011 126.761C135.977 123.946 126.761 122.207 121.189 123.827C114.482 125.779 108.91 129.198 105.538 135.48C102.291 141.893 100.762 149.039 101.102 156.219C101.102 158.407 100.758 164.677 102.864 165.162C104.509 165.529 106.603 166.263 106.484 169.409C106.402 170.558 106.776 171.693 107.525 172.568C109.359 174.579 111.607 172.686 112.648 170.794C114.86 166.748 115.109 161.921 115.298 157.283C115.613 153.994 115.401 150.675 114.671 147.452C113.908 145.402 113.364 143.277 113.05 141.111C113.035 140.739 113.059 140.367 113.121 139.999Z" fill="#263238"/>
<path d="M138 182.009C138.059 182.163 137.598 182.553 136.663 182.754C135.424 183.001 134.137 182.8 133.031 182.186C131.923 181.584 131.054 180.619 130.571 179.453C130.216 178.566 130.275 177.975 130.441 177.927C130.606 177.88 131.541 179.891 133.658 181.039C135.776 182.186 137.906 181.666 138 182.009Z" fill="#263238"/>
<path d="M148.493 319.831L100.439 309.255L69.5502 232.725C69.5502 232.725 28.2744 241.882 21.472 264.998C15.5569 284.932 3.41901 373.044 31.0545 427.357C34.576 434.199 39.9199 439.934 46.4961 443.93C53.0723 447.926 60.6249 450.026 68.3198 450H278.626C291.449 450.001 303.822 445.277 313.381 436.731C322.94 428.184 329.014 416.415 330.443 403.672C331.626 393.025 332.454 382.934 332.288 376.356L298.525 350.448L148.493 319.831Z" fill="#455A64"/>
<g opacity="0.3">
<path d="M276.97 346.449C291.77 365.78 309.776 383.123 331.307 394.504L332.336 368.264L292.562 339.955L276.97 346.449Z" fill="black"/>
</g>
<path d="M118.243 217.843C118.243 219.239 129.175 223.758 134.108 221.77C141.632 218.765 140.697 212.862 140.697 212.862L144.873 217.263L186.717 281.028L217.819 301.554L168.037 317.323L115.842 257.368L118.243 217.843Z" fill="#F5F5F5"/>
<path d="M105.053 196.442L103.953 198.5L98.9841 207.763L78.3167 220.942L120.823 271.469L140.213 317.323L186.706 331.874C186.706 331.874 164.583 297.862 157.71 280.472C150.836 263.081 150.138 263.91 143.868 251.157C139.606 242.172 135.815 232.971 132.511 223.592L105.053 196.442Z" fill="#5254CF"/>
<path d="M204.64 287.475L213.761 295.981L216.34 301.234L182.434 285.464L157.958 251.157C157.958 251.157 149.239 231.814 146.246 224.882C143.087 217.594 140.733 213.465 140.733 213.465V207.716L153.072 218.86L163.376 221.924L180.601 249.134L204.64 287.475Z" fill="#5254CF"/>
<path d="M194.194 255.392C194.194 255.392 190.077 246.614 186.717 239.314C179.146 222.87 161.294 221.309 161.294 221.309L181.027 276.036L205.196 293.178C205.196 293.178 212.081 295.544 212.945 293.178C212.945 293.178 217.972 275.03 217.819 274.959C217.665 274.888 200.617 269.789 200.617 269.789L193.756 254.41" fill="#5254CF"/>
<path d="M230.549 238.309L207.065 277.432L231.661 276.71L253.345 240.462C253.536 240.144 253.639 239.781 253.643 239.411C253.648 239.04 253.554 238.675 253.371 238.352C253.188 238.03 252.923 237.762 252.602 237.575C252.282 237.389 251.918 237.291 251.547 237.291H232.347C231.985 237.291 231.629 237.385 231.313 237.563C230.998 237.741 230.735 237.998 230.549 238.309Z" fill="#263238"/>
<path d="M140.212 282.554L198.996 275.562L208.875 258.255L216.612 254.008C217.253 253.653 217.982 253.489 218.714 253.535C219.445 253.581 220.148 253.835 220.74 254.268L221.474 254.8L227.211 254.079C228.189 253.95 229.182 254.146 230.039 254.635L234.108 257.001C234.402 257.173 234.645 257.418 234.815 257.712C234.985 258.007 235.076 258.34 235.079 258.681C235.078 258.967 235.015 259.249 234.893 259.508C234.771 259.767 234.594 259.996 234.374 260.179C234.154 260.362 233.896 260.494 233.619 260.566C233.342 260.639 233.053 260.649 232.772 260.597L228.82 259.875L222.763 261.851C222.763 261.851 226.667 262.265 227.164 265.223C227.661 268.18 225.685 268.251 225.685 268.251C225.685 268.251 229.79 270.617 226.868 274.166C226.868 274.166 230.299 276.45 226.454 280.779C223.863 283.713 205.16 293.272 205.16 293.272L140.212 317.323V282.554Z" fill="#FFBF9D"/>
<path d="M226.774 274.143C226.774 274.143 227.211 274.143 227.732 274.675C228.07 275.067 228.305 275.538 228.415 276.044C228.524 276.551 228.505 277.076 228.359 277.573C227.845 278.98 226.972 280.228 225.827 281.193C224.55 282.444 223.169 283.584 221.699 284.601C219.012 286.401 216.174 287.965 213.216 289.274C212.031 289.888 210.792 290.391 209.513 290.776C210.653 290.066 211.838 289.434 213.063 288.883C215.929 287.476 218.696 285.876 221.344 284.092C222.793 283.097 224.162 281.989 225.437 280.779C226.535 279.898 227.393 278.755 227.933 277.455C228.083 277.019 228.126 276.553 228.061 276.096C227.995 275.64 227.821 275.205 227.555 274.829C227.327 274.565 227.065 274.334 226.774 274.143Z" fill="#FF9A6C"/>
<path d="M221.261 254.954C220.363 255.508 219.367 255.886 218.327 256.066C217.337 256.436 216.284 256.612 215.228 256.586C216.123 256.028 217.12 255.65 218.161 255.474C219.152 255.105 220.204 254.928 221.261 254.954Z" fill="#FF9A6C"/>
<path d="M228.833 259.828C227.554 260.568 226.181 261.133 224.752 261.508C223.381 262.067 221.94 262.437 220.469 262.608C221.743 261.858 223.117 261.292 224.551 260.928C225.919 260.363 227.361 259.992 228.833 259.828Z" fill="#FF9A6C"/>
<path d="M221.841 267.672C221.664 267.672 221.581 267.139 221.38 266.56C221.179 265.98 220.942 265.53 221.072 265.377C221.203 265.223 221.723 265.613 221.96 266.335C222.196 267.056 221.948 267.695 221.841 267.672Z" fill="#FF9A6C"/>
<path d="M223.793 274.462C223.616 274.462 223.687 273.575 223.438 272.617C223.19 271.658 222.764 270.925 222.894 270.807C223.024 270.688 223.758 271.327 224.077 272.463C224.396 273.598 223.947 274.462 223.793 274.462Z" fill="#FF9A6C"/>
<path d="M79.9728 219.889C78.009 221.072 61.3875 232.429 63.8127 251.026C66.2379 269.624 103.03 311.668 110.708 312.473L140.224 317.323V282.554L126.028 281.75L107.478 245.36L79.9728 219.889Z" fill="#5254CF"/>
<path d="M140.212 280.874C139.865 280.938 139.512 280.97 139.159 280.969L136.178 281.087L125.602 281.324H125.46L125.365 281.205L117.888 271.15C113.428 265.128 109.43 259.651 106.555 255.664L103.183 250.932C102.74 250.366 102.345 249.764 102 249.134C102.5 249.645 102.959 250.195 103.373 250.778L106.922 255.392C109.891 259.296 114.02 264.738 118.409 270.771L125.826 280.862L125.59 280.744H136.166H139.147C139.506 280.743 139.864 280.787 140.212 280.874Z" fill="#263238"/>
<path d="M133.043 228.135C132.82 227.801 132.626 227.449 132.463 227.082L131.008 224.03H131.327C130.253 225.591 129.3 227.233 128.476 228.939C127.433 231.211 126.194 233.388 124.773 235.446L124.537 235.777L124.288 235.458C122.372 233.092 120.183 230.595 117.829 228.028C112.683 222.433 107.761 217.582 104.248 214.033L100.095 209.81C99.5705 209.314 99.0877 208.776 98.6521 208.201C99.232 208.636 99.7778 209.114 100.285 209.632L104.579 213.702C108.128 217.168 113.156 221.983 118.326 227.579C120.692 230.158 122.869 232.689 124.773 235.067H124.276C125.689 233.039 126.939 230.903 128.015 228.679C128.876 226.966 129.886 225.331 131.032 223.793L131.221 223.533L131.339 223.817C131.871 225.094 132.309 226.124 132.64 226.94C132.825 227.319 132.96 227.721 133.043 228.135Z" fill="#263238"/>
<path d="M153.226 219.239C153.62 219.767 153.92 220.359 154.113 220.989C154.719 222.588 155.237 224.219 155.663 225.875L156.065 227.319L155.142 226.136C153.822 224.498 152.374 222.967 150.812 221.557C149.44 220.303 148.103 219.191 146.885 218.079L147.382 217.89C147.21 219.829 147.151 221.776 147.204 223.722C147.249 224.495 147.149 225.27 146.908 226.006C146.837 226.006 146.908 225.166 146.826 223.734C146.672 221.765 146.672 219.788 146.826 217.819L146.885 217.263L147.322 217.63C148.505 218.659 149.925 219.806 151.309 221.084C152.903 222.524 154.361 224.108 155.663 225.816L155.142 226.065C154.634 224.018 154.22 222.314 153.841 221.143C153.591 220.524 153.385 219.887 153.226 219.239Z" fill="#263238"/>
<path d="M195.921 275.929C195.416 275.535 194.945 275.099 194.513 274.628L190.881 270.913C189.355 269.316 187.545 267.53 185.557 265.317C184.646 264.134 183.842 262.868 182.895 261.626C181.935 260.284 181.111 258.849 180.435 257.344C179.027 254.292 177.962 251.275 177.004 248.542C176.046 245.809 175.206 243.337 174.437 241.302C173.668 239.267 172.958 237.634 172.414 236.57C172.093 236.021 171.809 235.452 171.562 234.866C171.562 234.866 171.692 234.985 171.87 235.245C172.15 235.623 172.407 236.018 172.639 236.428C173.487 237.954 174.234 239.535 174.874 241.16C175.714 243.195 176.602 245.644 177.584 248.365C178.566 251.086 179.642 254.079 181.038 257.095C181.693 258.559 182.485 259.957 183.404 261.271C184.362 262.537 185.167 263.85 186.03 264.974C187.888 267.092 189.745 269.008 191.2 270.617L194.69 274.462C195.141 274.915 195.553 275.406 195.921 275.929Z" fill="#263238"/>
<path d="M212.98 295.555L324.563 292.42C326.33 292.374 328.088 292.7 329.721 293.379C333.779 295.106 341.078 299.542 346.082 310.166C353.334 325.545 387.168 390.612 387.168 390.612L352.955 408.144L310.993 330.301L181.618 319.299L183.12 308.959L212.98 295.555Z" fill="#263238"/>
<path d="M342.793 394.433L360.622 425.038L361.805 432.775C361.976 433.9 362.368 434.98 362.958 435.954C363.547 436.927 364.323 437.775 365.241 438.448C366.158 439.122 367.199 439.608 368.305 439.879C369.41 440.15 370.558 440.2 371.683 440.027L425.948 431.746C426.59 431.66 427.203 431.429 427.74 431.069C428.278 430.71 428.726 430.231 429.049 429.671C429.373 429.111 429.563 428.484 429.606 427.839C429.649 427.193 429.543 426.547 429.296 425.949C429.063 425.419 428.708 424.952 428.26 424.586C427.811 424.22 427.283 423.966 426.717 423.843C422.175 422.66 387.157 409.824 387.157 409.824L372.558 380.532L342.793 394.433Z" fill="#E0E0E0"/>
<path d="M357.735 401.519C356.246 400.009 354.903 398.362 353.725 396.598C352.369 394.957 351.18 393.186 350.176 391.31C351.66 392.821 352.998 394.469 354.174 396.231C355.531 397.873 356.724 399.644 357.735 401.519Z" fill="#263238"/>
<path d="M368.383 397.237C366.888 395.712 365.628 393.974 364.644 392.079C363.486 390.284 362.594 388.332 361.994 386.282C362.16 386.199 363.414 388.754 365.177 391.771C366.939 394.788 368.537 397.13 368.383 397.237Z" fill="#263238"/>
<path d="M375.824 439.045C375.705 439.045 375.422 437.992 374.641 436.395C373.596 434.323 372.108 432.507 370.282 431.076C368.456 429.645 366.337 428.633 364.076 428.113C362.337 427.699 361.213 427.688 361.213 427.569C362.191 427.347 363.206 427.347 364.183 427.569C366.575 427.972 368.828 428.968 370.735 430.466C372.643 431.965 374.144 433.917 375.102 436.146C375.55 437.049 375.796 438.038 375.824 439.045Z" fill="#263238"/>
<path d="M412.391 433.78C411.942 433.187 411.645 432.492 411.528 431.757C411.1 429.991 411.191 428.138 411.788 426.422C412.404 424.738 413.367 423.202 414.615 421.914C415.076 421.335 415.647 420.852 416.295 420.495C416.366 420.578 415.81 421.205 414.994 422.246C413.925 423.576 413.071 425.065 412.462 426.658C411.917 428.263 411.767 429.976 412.024 431.651C412.201 432.35 412.324 433.062 412.391 433.78Z" fill="#263238"/>
<path d="M178.815 310.781C178.815 310.781 293.959 299.235 299.554 299.696C309.882 300.548 328.929 316.838 362.728 339.528C380.24 351.429 396.492 365.085 411.232 380.284L400.431 404.938C400.431 404.938 324.717 377.338 312.828 367.412C302.961 359.131 284.956 347.419 284.956 347.419L240.545 347.869L207.527 350.779C199.382 351.5 191.188 350.15 183.704 346.856C176.221 343.561 169.692 338.428 164.725 331.933L151.913 315.194L178.815 310.781Z" fill="#263238"/>
<path d="M284.4 347.076C284.4 347.076 284.589 347.183 284.932 347.419L286.482 348.484L292.456 352.684C297.649 356.387 305.268 361.71 314.614 368.773C315.206 369.211 315.797 369.719 316.389 370.11L318.293 371.293C319.666 371.979 321.038 372.736 322.493 373.41L326.941 375.481L331.673 377.551C338.07 380.319 344.967 383.206 352.364 386.211C367.129 392.209 383.691 398.727 401.566 405.601L401.176 405.778L410.96 380.935L411.031 381.289L397.591 367.59C394.433 364.857 391.049 361.947 387.595 359.072C366.991 342.092 345.441 326.293 323.049 311.751C320.017 309.155 316.745 306.854 313.277 304.878C309.985 302.96 306.479 301.436 302.831 300.335C301.932 300.098 301.033 299.909 300.146 299.684L297.46 299.27L294.775 299.128H281.761L246.992 299.057L224.42 298.963H218.505H216.967C216.794 298.973 216.62 298.973 216.447 298.963H216.967H218.505H224.42L246.992 298.88L281.761 298.809H294.775L297.507 298.939L300.252 299.353C301.151 299.578 302.062 299.767 302.973 300.016C306.667 301.112 310.218 302.645 313.549 304.582C317.062 306.568 320.374 308.89 323.439 311.515C345.876 326.036 367.458 341.836 388.08 358.836C391.546 361.71 394.93 364.621 398.088 367.365L411.528 381.076L411.67 381.23L411.599 381.431L401.779 406.275L401.673 406.559L401.389 406.452C383.513 399.555 366.951 393.001 352.199 386.968C344.829 383.951 337.92 381.053 331.531 378.249L326.799 376.155L322.304 373.836C320.86 373.138 319.476 372.381 318.104 371.683L316.152 370.5C315.513 370.11 314.969 369.601 314.377 369.163C305.079 362.065 297.484 356.683 292.338 352.92L286.423 348.65L284.908 347.538C284.542 347.218 284.4 347.076 284.4 347.076Z" fill="#455A64"/>
<path d="M375.942 398.68L407.884 411.232L413.196 416.981C413.969 417.817 414.9 418.493 415.935 418.969C416.969 419.445 418.088 419.713 419.226 419.757C420.364 419.801 421.5 419.62 422.568 419.225C423.636 418.83 424.616 418.228 425.452 417.454L465.746 380.165C466.228 379.735 466.606 379.199 466.849 378.599C467.093 378 467.195 377.353 467.15 376.707C467.104 376.062 466.911 375.436 466.586 374.876C466.26 374.317 465.811 373.84 465.273 373.481C464.782 373.176 464.227 372.991 463.652 372.939C463.076 372.888 462.497 372.972 461.96 373.186C457.548 374.771 421.335 383.726 421.335 383.726L397.048 364.372L375.942 398.68Z" fill="#E0E0E0"/>
<path d="M375.942 398.68C375.942 398.68 376.049 398.479 376.285 398.076L377.362 396.302C378.32 394.705 379.728 392.398 381.514 389.44C385.158 383.442 390.411 374.83 396.894 364.254L397.024 364.029L397.237 364.195L421.524 383.502H421.276L442.878 378.06L454.294 375.09C456.223 374.57 458.175 374.061 460.115 373.493L461.558 373.044C462.059 372.851 462.585 372.728 463.12 372.677C463.677 372.654 464.233 372.747 464.752 372.951C465.272 373.155 465.743 373.464 466.136 373.86C466.906 374.63 467.373 375.651 467.454 376.736C467.534 377.822 467.222 378.9 466.574 379.775C466.25 380.204 465.886 380.6 465.486 380.958L464.385 381.975L462.197 383.998L453.608 391.937L437.365 406.937L429.806 413.917L426.186 417.265C425.598 417.835 424.956 418.346 424.269 418.791C422.585 419.825 420.606 420.269 418.642 420.055C416.679 419.841 414.842 418.98 413.421 417.608C411.386 415.491 409.54 413.42 407.73 411.468H407.813C397.959 407.541 389.985 404.37 384.437 402.146L378.143 399.603L376.51 398.94L375.978 398.715C375.978 398.715 376.191 398.774 376.581 398.928L378.249 399.555L384.638 402.016L407.967 411.066C409.789 413.006 411.67 415.088 413.657 417.159C414.724 418.176 416.04 418.897 417.472 419.247C418.904 419.598 420.403 419.567 421.82 419.158C422.558 418.945 423.263 418.63 423.914 418.223C424.569 417.793 425.18 417.297 425.736 416.745C426.919 415.644 428.102 414.521 429.356 413.397C431.801 411.125 434.317 408.791 436.904 406.393C442.062 401.661 447.492 396.574 453.123 391.369C455.931 388.758 458.79 386.108 461.7 383.419L463.889 381.396C464.631 380.752 465.334 380.064 465.994 379.337C466.558 378.58 466.833 377.646 466.767 376.704C466.702 375.763 466.302 374.875 465.639 374.203C465.303 373.871 464.901 373.613 464.459 373.446C464.016 373.279 463.544 373.206 463.072 373.233C462.593 373.281 462.123 373.397 461.676 373.576L460.198 374.026C458.246 374.593 456.305 375.102 454.365 375.623L442.937 378.58L421.335 383.987H421.193L421.087 383.904L396.929 364.549H397.272L381.787 389.464L377.492 396.314L376.309 398.1C376.096 398.455 375.942 398.68 375.942 398.68Z" fill="#263238"/>
<path d="M428.291 414.319C428.208 414.402 427.368 413.669 425.795 412.805C423.771 411.67 421.521 410.995 419.206 410.83C416.891 410.664 414.568 411.011 412.403 411.847C410.735 412.474 409.789 413.089 409.718 413.03C410.424 412.317 411.275 411.764 412.214 411.409C414.42 410.405 416.843 409.97 419.261 410.143C421.679 410.317 424.015 411.094 426.055 412.403C426.935 412.866 427.699 413.521 428.291 414.319Z" fill="#263238"/>
<path d="M455.642 389.488C454.941 389.241 454.305 388.836 453.785 388.305C452.447 387.078 451.491 385.493 451.029 383.738C450.597 381.996 450.532 380.183 450.839 378.415C450.893 377.679 451.099 376.962 451.443 376.309C451.502 377.032 451.47 377.759 451.348 378.474C451.195 380.174 451.318 381.888 451.715 383.549C452.161 385.187 452.997 386.693 454.152 387.938C455.039 388.884 455.713 389.381 455.642 389.488Z" fill="#263238"/>
<path d="M264.821 347.088C262.348 335.364 257.297 323.368 247.3 316.779C239.717 311.763 230.336 310.532 221.274 309.42L32.6284 286.221C30.9367 315.951 43.666 352.956 56.6557 379.763C58.6668 383.927 60.9974 388.186 64.854 390.73C69.5861 393.829 75.5959 393.794 81.2271 393.652C144.696 392.031 208.189 389.334 271.304 382.389C267.755 370.95 267.282 358.8 264.821 347.088Z" fill="#455A64"/>
<path d="M102.036 294.751C101.292 294.76 100.549 294.713 99.8121 294.609L93.7787 293.958C88.6917 293.367 81.6764 292.503 73.9394 291.439C66.2024 290.374 59.1989 289.297 54.1592 288.41C51.6275 287.961 49.5927 287.594 48.244 287.227C47.51 287.105 46.7862 286.927 46.0791 286.695C46.8223 286.729 47.5619 286.82 48.2914 286.967L54.2775 287.89C59.3408 288.647 66.3325 289.652 74.0695 290.717L93.8852 293.426L99.895 294.29C100.62 294.387 101.336 294.541 102.036 294.751Z" fill="#263238"/>
<path d="M103.006 449.94C102.931 449.824 102.868 449.701 102.816 449.573C102.674 449.301 102.509 448.935 102.296 448.485L100.379 444.262L98.9951 441.269C98.5219 440.086 98.0605 438.903 97.5282 437.554C96.5108 434.892 95.2331 431.887 94.1447 428.445C93.5769 426.741 92.9617 424.955 92.3584 423.086C91.755 421.216 91.1753 419.229 90.643 417.17C89.4599 413.113 88.4425 408.688 87.3542 404.051C82.9648 383.811 81.5263 363.043 83.0834 342.391C83.5211 337.659 83.8642 333.14 84.5267 328.952C84.8461 326.858 85.0591 324.823 85.414 322.883C85.7689 320.943 86.1238 319.098 86.4551 317.323C87.0584 313.774 87.9102 310.615 88.549 307.859C88.8921 306.463 89.176 305.173 89.4954 303.99C89.8148 302.807 90.1579 301.743 90.4419 300.772C90.9979 298.868 91.4474 297.377 91.755 296.324L92.1217 295.141C92.1553 295.007 92.2029 294.876 92.2637 294.751C92.2548 294.888 92.2269 295.023 92.1809 295.153L91.8851 296.336L90.7021 300.808L89.8149 304.038C89.5191 305.221 89.247 306.534 88.9276 307.918C88.3124 310.71 87.4961 313.833 86.9283 317.382C86.6207 319.145 86.2776 321.002 85.9345 322.931C85.5914 324.859 85.3903 326.894 85.0946 328.988C84.4439 333.164 84.1245 337.671 83.6986 342.403C82.2372 363.007 83.6708 383.714 87.9575 403.921C89.0341 408.546 89.9686 412.971 91.1872 417.017C91.7668 419.051 92.2519 421.027 92.8552 422.932C93.4586 424.836 94.0382 426.587 94.6061 428.291C95.659 431.733 96.9012 434.738 97.8831 437.424C98.4036 438.761 98.8413 440.015 99.3027 441.15L100.628 444.214L102.426 448.485L102.887 449.609C102.938 449.715 102.978 449.826 103.006 449.94Z" fill="#263238"/>
<path d="M101.006 389.997C98.539 390.221 96.0563 390.221 93.5888 389.997C91.105 389.994 88.6265 389.769 86.1831 389.322C88.6548 389.105 91.1408 389.105 93.6125 389.322C96.0921 389.33 98.5663 389.556 101.006 389.997Z" fill="#263238"/>
<path d="M99.292 398.68C96.6576 398.449 94.0815 397.773 91.6733 396.681C89.1818 395.793 86.8609 394.485 84.8118 392.812C84.9182 392.647 87.9231 394.457 91.9099 396.066C95.8967 397.674 99.3275 398.42 99.292 398.68Z" fill="#263238"/>
<path d="M82.7649 339.387C81.2901 340.313 79.5959 340.831 77.8553 340.889C76.1344 341.158 74.3732 340.974 72.7446 340.357C72.7446 340.156 75.0279 340.499 77.7961 340.226C80.5644 339.954 82.6939 339.209 82.7649 339.387Z" fill="#263238"/>
<path d="M86.538 336.547C84.7059 336.929 82.7987 336.688 81.1197 335.861C79.3543 335.236 77.853 334.031 76.8608 332.442C78.2744 333.519 79.7877 334.458 81.38 335.246C84.0773 336.417 86.538 336.334 86.538 336.547Z" fill="#263238"/>
<path d="M152.965 133.871C152.495 132.645 151.737 131.549 150.755 130.676C149.773 129.803 148.596 129.179 147.322 128.855C144.76 128.221 142.071 128.32 139.562 129.139L115.049 134.747C118.598 137.113 125.898 139.337 130.086 139.787C136.202 140.437 140.508 140.496 144.152 138.391C144.389 138.995 144.751 139.542 145.215 139.996C145.679 140.449 146.234 140.8 146.844 141.023C147.453 141.247 148.103 141.339 148.75 141.293C149.397 141.247 150.028 141.064 150.599 140.757C151.705 140.037 152.538 138.969 152.967 137.721C153.396 136.474 153.395 135.119 152.965 133.871Z" fill="#263238"/>
<path d="M397.863 391.014C392.882 389.981 388.092 388.177 383.667 385.666C383.738 385.501 386.861 386.849 390.765 388.316C394.669 389.783 397.91 390.848 397.863 391.014Z" fill="#263238"/>
<path d="M403.258 380.532C401.115 379.65 399.019 378.659 396.976 377.563C394.845 376.658 392.764 375.639 390.742 374.511C393.004 375.074 395.19 375.912 397.248 377.007C399.393 377.921 401.413 379.106 403.258 380.532Z" fill="#263238"/>
<path d="M208.012 306.298L257.427 306.901L317.099 295.071C318.036 294.874 318.892 294.399 319.553 293.706C320.214 293.013 320.649 292.136 320.801 291.19L328.917 237.457C329.009 236.84 328.954 236.211 328.756 235.619C328.559 235.028 328.225 234.491 327.781 234.053C327.337 233.615 326.796 233.288 326.202 233.098C325.608 232.909 324.978 232.862 324.362 232.962L263.377 242.887C262.532 243.026 261.755 243.433 261.16 244.049C260.565 244.665 260.185 245.457 260.077 246.306L253.274 300.95L208.083 300.725C207.344 300.725 206.636 301.018 206.113 301.539C205.589 302.06 205.294 302.767 205.291 303.506C205.288 304.235 205.571 304.936 206.08 305.458C206.589 305.981 207.283 306.282 208.012 306.298Z" fill="#E0E0E0"/>
<path d="M208.012 306.297C207.693 306.321 207.372 306.268 207.077 306.143C206.63 305.983 206.231 305.71 205.919 305.352C205.606 304.994 205.39 304.562 205.291 304.097C205.211 303.716 205.209 303.323 205.286 302.941C205.363 302.56 205.517 302.198 205.738 301.878C205.96 301.558 206.244 301.287 206.574 301.08C206.904 300.874 207.273 300.737 207.657 300.678C209.467 300.607 211.514 300.678 213.856 300.678L253.263 300.772L253.05 300.962C254.99 285.239 257.297 266.654 259.84 245.975C259.988 245.284 260.304 244.641 260.76 244.103C261.216 243.564 261.798 243.146 262.455 242.887C263.101 242.679 263.767 242.54 264.442 242.473L266.406 242.142L274.368 240.852L290.777 238.167L307.777 235.422L316.46 234.014L320.849 233.293L323.049 232.938C323.804 232.774 324.573 232.691 325.345 232.689C326.189 232.763 326.993 233.083 327.656 233.612C328.319 234.14 328.811 234.852 329.071 235.659C329.294 236.457 329.319 237.298 329.142 238.108L328.787 240.403C328.33 243.463 327.872 246.503 327.415 249.524C326.504 255.545 325.605 261.496 324.718 267.328C323.83 273.161 322.967 278.875 322.127 284.482L321.488 288.646C321.381 289.344 321.287 290.031 321.18 290.717C321.113 291.444 320.916 292.153 320.601 292.811C320.268 293.463 319.796 294.034 319.217 294.482C318.638 294.929 317.967 295.244 317.253 295.402L313.254 296.194L257.474 307.173L221.25 306.64L211.466 306.463L208.828 306.404H207.965H208.828H211.372L221.167 306.463L257.392 306.806L313.148 295.685L317.134 294.881C317.766 294.744 318.359 294.468 318.871 294.073C319.382 293.678 319.799 293.174 320.092 292.598C320.38 291.996 320.552 291.346 320.601 290.681L320.92 288.611C321.121 287.227 321.334 285.831 321.547 284.435L324.126 267.281C325.001 261.453 325.897 255.538 326.812 249.536C327.261 246.523 327.719 243.482 328.184 240.415L328.527 238.119C328.711 237.409 328.711 236.664 328.527 235.955C328.307 235.263 327.888 234.653 327.321 234.2C326.755 233.748 326.067 233.473 325.345 233.411C324.625 233.417 323.907 233.497 323.203 233.648L320.991 234.014L316.614 234.724L307.919 236.132L290.93 238.9L274.522 241.562L266.56 242.852L264.596 243.171C263.957 243.233 263.326 243.364 262.715 243.561C262.148 243.782 261.645 244.141 261.253 244.606C260.86 245.071 260.59 245.627 260.467 246.223C257.865 266.831 255.522 285.44 253.547 301.151V301.34H253.346L213.939 301.056C211.573 301.056 209.526 300.985 207.764 301.056C207.365 301.111 206.985 301.255 206.649 301.476C206.313 301.697 206.031 301.99 205.823 302.334C205.619 302.673 205.49 303.053 205.448 303.447C205.405 303.841 205.449 304.239 205.576 304.615C205.704 304.99 205.911 305.333 206.185 305.619C206.458 305.906 206.791 306.129 207.16 306.274C207.442 306.315 207.728 306.323 208.012 306.297Z" fill="#263238"/>
<path d="M265.353 244.614C265.518 244.614 263.886 258.894 261.697 276.473C259.509 294.053 257.604 308.285 257.426 308.261C257.249 308.238 258.905 293.982 261.094 276.402C263.282 258.823 265.187 244.591 265.353 244.614Z" fill="#263238"/>
<path d="M291.876 266.796C290.634 269.387 291.32 272.297 293.402 273.303C295.484 274.308 298.134 273.007 299.423 270.416C300.713 267.825 299.98 264.915 297.897 263.921C295.815 262.927 293.118 264.205 291.876 266.796Z" fill="white"/>
</svg>
