<svg width="604" height="450" viewBox="0 0 604 450" fill="none" xmlns="http://www.w3.org/2000/svg">
<path d="M603.93 395.453H0V395.755H603.93V395.453Z" fill="#EBEBEB"/>
<path d="M543.416 414.888H503.412V415.19H543.416V414.888Z" fill="#EBEBEB"/>
<path d="M400.067 418.173H389.571V418.475H400.067V418.173Z" fill="#EBEBEB"/>
<path d="M502.204 403.679H479.025V403.981H502.204V403.679Z" fill="#EBEBEB"/>
<path d="M115.532 405.708H63.3643V406.01H115.532V405.708Z" fill="#EBEBEB"/>
<path d="M133.939 405.708H126.294V406.01H133.939V405.708Z" fill="#EBEBEB"/>
<path d="M271.95 410.805H158.797V411.107H271.95V410.805Z" fill="#EBEBEB"/>
<path d="M245.11 341.583H11.8848C10.0577 341.579 8.30658 340.851 7.01578 339.558C5.72497 338.265 5 336.513 5 334.686V6.83648C5.01591 5.01989 5.7479 3.28294 7.03699 2.00289C8.32607 0.722853 10.0681 0.00311191 11.8848 0H245.11C246.94 0 248.694 0.726634 249.987 2.02005C251.281 3.31346 252.007 5.06771 252.007 6.89688V334.686C252.007 336.515 251.281 338.269 249.987 339.563C248.694 340.856 246.94 341.583 245.11 341.583ZM11.8848 0.241573C10.1378 0.244772 8.46347 0.941001 7.2293 2.17744C5.99512 3.41388 5.30196 5.0895 5.30196 6.83648V334.686C5.30196 336.433 5.99512 338.108 7.2293 339.345C8.46347 340.581 10.1378 341.277 11.8848 341.281H245.11C246.858 341.277 248.534 340.582 249.77 339.346C251.006 338.109 251.702 336.434 251.705 334.686V6.83648C251.702 5.08839 251.006 3.4128 249.77 2.1767C248.534 0.940609 246.858 0.244766 245.11 0.241573H11.8848Z" fill="#EBEBEB"/>
<path d="M586.135 341.583H352.897C351.069 341.579 349.316 340.852 348.024 339.559C346.731 338.266 346.003 336.514 346 334.686V6.83648C346.019 5.01879 346.754 3.28185 348.045 2.00214C349.336 0.722431 351.079 0.00307798 352.897 0H586.135C587.949 0.0062863 589.688 0.727432 590.975 2.00713C592.261 3.28684 592.991 5.02198 593.007 6.83648V334.686C593.007 336.511 592.284 338.261 590.996 339.554C589.708 340.847 587.96 341.576 586.135 341.583ZM352.897 0.241573C351.149 0.244766 349.473 0.940609 348.237 2.1767C347.001 3.4128 346.305 5.08839 346.302 6.83648V334.686C346.305 336.434 347.001 338.109 348.237 339.346C349.473 340.582 351.149 341.277 352.897 341.281H586.135C587.883 341.277 589.558 340.582 590.794 339.346C592.03 338.109 592.726 336.434 592.729 334.686V6.83648C592.726 5.08839 592.03 3.4128 590.794 2.1767C589.558 0.940609 587.883 0.244766 586.135 0.241573H352.897Z" fill="#EBEBEB"/>
<path d="M429.322 20.5457H98.8875V213.308H429.322V20.5457Z" fill="#EBEBEB"/>
<path d="M420.263 30.74H107.934V203.114H420.263V30.74Z" fill="#FAFAFA"/>
<path d="M160.959 203.114H135.099L159.45 30.74H185.31L160.959 203.114Z" fill="white"/>
<path d="M224.855 203.114H198.995L223.345 30.74H249.206L224.855 203.114Z" fill="white"/>
<path d="M373.168 203.114H360.244L384.583 30.74H397.519L373.168 203.114Z" fill="white"/>
<path d="M247.599 203.114H234.663L259.013 30.74H271.949L247.599 203.114Z" fill="white"/>
<path d="M190.54 30.74H178.353V203.114H190.54V30.74Z" fill="#EBEBEB"/>
<path d="M190.528 203.114H193.245L193.245 30.74H190.528L190.528 203.114Z" fill="#E0E0E0"/>
<path d="M429.334 213.308H431.278V20.5457H429.334V213.308Z" fill="#E0E0E0"/>
<path d="M495.705 283.255C492.492 247.647 490.246 189.875 491.985 170.55C492.014 170.223 492.11 169.906 492.265 169.617C492.421 169.328 492.634 169.075 492.891 168.871C493.236 168.614 493.648 168.463 494.077 168.436C494.506 168.409 494.934 168.507 495.308 168.717C495.683 168.928 495.988 169.243 496.187 169.624C496.386 170.005 496.471 170.436 496.43 170.864C496.128 180.442 495.778 204.37 497.638 245.667C498.58 266.2 499.957 280.284 499.015 283.255H495.705Z" fill="#F0F0F0"/>
<path d="M485.789 209.539C478.095 199.877 462.381 193.04 446.365 193.064C440.072 193.064 465.497 204.285 476.066 216.654C484.279 226.256 493.532 242.417 496.684 251.392C494.643 232.513 493.483 219.178 485.789 209.539Z" fill="#F0F0F0"/>
<path d="M501.878 209.443C509.499 198.838 527.074 190.673 546.097 189.755C553.562 189.392 525.153 202.703 514.548 216.328C506.31 226.933 497.868 244.483 495.548 254.109C494.993 234.144 494.268 220.048 501.878 209.443Z" fill="#F0F0F0"/>
<path d="M485.789 225.024C478.095 215.361 462.381 208.525 446.365 208.561C440.072 208.561 465.497 219.782 476.066 232.139C484.279 241.801 493.532 257.914 496.684 266.877C494.643 248.01 493.483 234.675 485.789 225.024Z" fill="#F0F0F0"/>
<path d="M501.878 225.797C509.499 215.192 527.074 207.027 546.097 206.109C553.562 205.747 525.153 219.057 514.548 232.682C506.31 243.287 497.868 260.837 495.548 270.464C494.993 250.498 494.268 236.402 501.878 225.797Z" fill="#F0F0F0"/>
<path d="M487.178 173.098C482.141 165.936 471.343 160.343 460.086 159.582C455.653 159.28 473.107 168.412 480.064 177.628C485.463 184.79 491.357 196.615 493.23 203.077C492.517 189.706 492.215 180.261 487.178 173.098Z" fill="#F0F0F0"/>
<path d="M497.203 176.13C502.566 168.653 514.959 162.904 528.366 162.264C533.632 161.998 513.606 171.383 506.13 180.998C500.332 188.462 494.377 200.843 492.734 207.571C492.348 193.547 491.841 183.595 497.203 176.13Z" fill="#F0F0F0"/>
<path d="M485.451 182.387C478.928 174.222 465.618 168.412 452.065 168.448C446.739 168.448 468.263 177.942 477.213 188.414C484.158 196.543 492.009 210.228 494.667 217.825C492.939 201.857 491.961 190.564 485.451 182.387Z" fill="#F0F0F0"/>
<path d="M498.689 186.747C505.139 177.761 520.02 170.852 536.133 170.079C542.45 169.765 518.389 181.046 509.415 192.593C502.446 201.568 495.283 216.424 493.326 224.577C492.807 207.667 492.239 195.673 498.689 186.747Z" fill="#F0F0F0"/>
<path d="M485.016 193.729C477.986 184.911 463.625 178.654 448.998 178.679C443.248 178.679 466.475 188.933 476.126 200.227C483.627 209.008 492.082 223.768 494.969 231.957C493.109 214.721 492.046 202.534 485.016 193.729Z" fill="#F0F0F0"/>
<path d="M499.704 198.548C506.854 188.583 523.39 180.913 541.278 180.044C548.296 179.705 521.578 192.219 511.613 205.046C503.871 215.011 495.911 231.51 493.737 240.557C493.217 221.787 492.541 208.525 499.704 198.548Z" fill="#F0F0F0"/>
<path d="M517.338 277.24L516.13 287.241C516.069 288.32 515.596 289.334 514.81 290.075C514.024 290.817 512.983 291.229 511.903 291.227H482.069C480.989 291.226 479.95 290.813 479.165 290.072C478.379 289.331 477.906 288.319 477.841 287.241L476.633 277.24C476.6 276.664 476.685 276.088 476.883 275.546C477.081 275.004 477.387 274.509 477.782 274.089C478.178 273.67 478.655 273.335 479.184 273.107C479.714 272.878 480.284 272.76 480.861 272.759H513.087C513.666 272.754 514.24 272.869 514.773 273.096C515.306 273.323 515.786 273.656 516.185 274.076C516.584 274.497 516.892 274.994 517.09 275.538C517.289 276.083 517.373 276.662 517.338 277.24Z" fill="#E6E6E6"/>
<path d="M519.126 279.354H474.87C474.567 279.338 474.279 279.216 474.058 279.008C473.836 278.8 473.696 278.52 473.662 278.218L472.611 268.7C472.591 268.527 472.607 268.351 472.658 268.185C472.709 268.018 472.794 267.863 472.907 267.73C473.021 267.598 473.16 267.49 473.317 267.414C473.474 267.337 473.645 267.294 473.819 267.287H520.177C520.351 267.294 520.522 267.337 520.679 267.414C520.836 267.49 520.976 267.598 521.089 267.73C521.202 267.863 521.287 268.018 521.338 268.185C521.389 268.351 521.405 268.527 521.385 268.7L520.334 278.218C520.302 278.521 520.163 278.802 519.941 279.011C519.719 279.219 519.43 279.341 519.126 279.354Z" fill="#F5F5F5"/>
<path d="M285.9 395.453H305.117V291.227H285.9V395.453Z" fill="#E6E6E6"/>
<path d="M291.662 395.453H285.9V375.511H297.701L291.662 395.453Z" fill="#F0F0F0"/>
<path d="M525.346 395.453H544.563V291.227H525.346V395.453Z" fill="#E6E6E6"/>
<path d="M285.9 383.218L530.371 383.218V291.239H285.9V383.218Z" fill="#F0F0F0"/>
<path d="M524.61 395.453H530.371V375.511H518.57L524.61 395.453Z" fill="#F0F0F0"/>
<path d="M290.369 334.505L525.902 334.505V297.701H290.369V334.505Z" fill="#E6E6E6"/>
<path d="M324.914 309.14H487.516C493.133 309.14 498.508 304.598 502.373 296.578H310.033C313.898 304.598 319.273 309.14 324.914 309.14Z" fill="#F0F0F0"/>
<path d="M290.369 377.263L525.902 377.263V340.459H290.369V377.263Z" fill="#E6E6E6"/>
<path d="M324.914 351.898H487.516C493.133 351.898 498.508 347.356 502.373 339.336H310.033C313.898 347.356 319.273 351.898 324.914 351.898Z" fill="#F0F0F0"/>
<path d="M343.829 266.804C343.829 266.804 344.88 291.227 385.162 291.227C425.444 291.227 426.507 266.804 426.507 266.804H343.829Z" fill="#F5F5F5"/>
<path d="M343.829 254.122C343.829 254.122 344.88 278.544 385.162 278.544C425.444 278.544 426.507 254.122 426.507 254.122H343.829Z" fill="#F5F5F5"/>
<path d="M231.172 316.193H190.975V323.078H231.172V316.193Z" fill="#E6E6E6"/>
<path d="M115.145 395.453H122.562L122.562 237.139H115.145L115.145 395.453Z" fill="#E6E6E6"/>
<path d="M89.454 323.078H190.975V316.193H89.454V323.078Z" fill="#F5F5F5"/>
<path d="M231.172 353.842H190.975V360.727H231.172V353.842Z" fill="#E6E6E6"/>
<path d="M89.454 360.715H190.975V353.83H89.454V360.715Z" fill="#F5F5F5"/>
<path d="M231.172 240.908H190.975V247.792H231.172V240.908Z" fill="#E6E6E6"/>
<path d="M89.454 247.78H190.975V240.896H89.454V247.78Z" fill="#F5F5F5"/>
<path d="M231.172 278.544H190.975V285.429H231.172V278.544Z" fill="#E6E6E6"/>
<path d="M89.454 285.429H190.975V278.544H89.454V285.429Z" fill="#F5F5F5"/>
<path d="M216.678 395.453H224.094L224.094 237.139H216.678L216.678 395.453Z" fill="#E6E6E6"/>
<path d="M183.558 395.453H190.975L190.975 237.139H183.558L183.558 395.453Z" fill="#F5F5F5"/>
<path d="M89.4541 395.453H96.8704L96.8704 237.139H89.4541L89.4541 395.453Z" fill="#F5F5F5"/>
<path d="M301.965 450C431.306 450 536.157 443.878 536.157 436.327C536.157 428.776 431.306 422.654 301.965 422.654C172.625 422.654 67.7734 428.776 67.7734 436.327C67.7734 443.878 172.625 450 301.965 450Z" fill="#F5F5F5"/>
<path d="M251.73 103.139C252.998 99.2014 264.4 89.2969 278.484 94.2975C292.568 99.298 289.355 118.998 287.833 123.999C286.311 128.999 277.288 144.073 266.804 140.909C256.32 137.744 234.929 114.867 251.73 103.139Z" fill="#263238"/>
<path d="M282.542 118.503C283.472 115.592 291.879 108.297 302.255 111.981C312.63 115.664 310.263 130.183 309.139 133.867C308.016 137.551 301.373 148.651 293.643 146.332C285.912 144.013 270.162 127.139 282.542 118.503Z" fill="#263238"/>
<path d="M295.08 106.907L287.917 116.631C287.917 116.631 284.378 108.623 295.08 106.907Z" fill="#263238"/>
<path d="M275.622 134.894C273.665 133.009 263.978 130.811 257.371 138.082C250.764 145.354 258.736 155.814 261.176 158.229C263.615 160.645 273.508 166.588 278.617 161.515C283.726 156.442 288.993 136.488 275.622 134.894Z" fill="#263238"/>
<path d="M272.65 170.308L272.384 170.997L272.143 171.588C271.974 171.975 271.817 172.361 271.648 172.724C271.309 173.473 270.947 174.173 270.585 174.886C269.848 176.299 269.087 177.676 268.278 179.029C266.645 181.705 264.837 184.272 262.866 186.711C261.912 187.919 260.861 189.126 259.847 190.334C258.832 191.542 257.721 192.617 256.574 193.68C254.333 195.848 251.953 197.865 249.447 199.719C249.097 199.973 248.976 200.118 248.131 200.674C247.288 201.204 246.354 201.573 245.377 201.761C244.273 201.966 243.138 201.92 242.055 201.628C241.166 201.371 240.328 200.963 239.579 200.42C238.556 199.686 237.665 198.784 236.946 197.751C236.388 196.985 235.892 196.178 235.46 195.335C234.051 192.431 232.954 189.387 232.187 186.252C230.727 180.417 229.762 174.469 229.3 168.472L234.796 167.494C236.463 172.941 238.25 178.461 240.292 183.619C241.215 186.062 242.355 188.419 243.698 190.66C243.97 191.084 244.273 191.488 244.604 191.868C244.869 192.158 245.135 192.339 245.075 192.243C244.93 192.116 244.755 192.029 244.567 191.989C244.177 191.863 243.762 191.838 243.36 191.917C243.1 191.961 242.848 192.043 242.611 192.158C242.369 192.315 242.804 191.965 243.021 191.76C247.094 188.198 250.785 184.223 254.037 179.898C255.652 177.743 257.148 175.501 258.518 173.183C259.203 172.039 259.855 170.88 260.475 169.704L261.345 167.953L261.755 167.095L262.081 166.358L272.65 170.308Z" fill="#FFB573"/>
<path d="M272.046 153.579C262.589 157.891 258.929 169.897 258.603 170.562L270.331 191.88C270.331 191.88 281.745 183.8 282.639 176.347C283.485 170.054 278.267 150.741 272.046 153.579Z" fill="#5254CF"/>
<path d="M235.146 168.75L238.118 159.788L226.86 162.203C226.86 162.203 226.607 169.982 230.218 172.796L232.139 171.999C232.846 171.708 233.481 171.267 234 170.706C234.52 170.145 234.911 169.477 235.146 168.75Z" fill="#FFB573"/>
<path d="M235.339 150.197L227.307 153.543L226.86 162.179L238.117 159.776L235.339 150.197Z" fill="#FFB573"/>
<path d="M321.025 78.8127L313.21 69.8624L309.586 80.7332C309.586 80.7332 315.698 85.9995 320.675 81.4096L321.025 78.8127Z" fill="#FFB573"/>
<path d="M308.753 65.647L303.221 73.1358L309.55 80.7815L313.21 69.8624L308.753 65.647Z" fill="#FFB573"/>
<path d="M417.581 401.879L409.634 409.15L387.264 394.293L395.212 387.022L417.581 401.879Z" fill="#FFB573"/>
<path d="M497.094 304.405L496.611 315.408L470.98 317.824L471.464 306.82L497.094 304.405Z" fill="#FFB573"/>
<path d="M493.93 315.891L490.946 303.885C490.89 303.68 490.912 303.462 491.008 303.272C491.104 303.082 491.267 302.935 491.466 302.858L500.633 299.126C500.864 299.041 501.111 299.004 501.357 299.02C501.603 299.035 501.842 299.102 502.061 299.216C502.279 299.33 502.472 299.488 502.625 299.68C502.779 299.873 502.89 300.096 502.953 300.334C503.919 304.537 504.16 306.615 505.489 311.893C506.298 315.142 508.557 322.208 509.68 326.69C510.804 331.171 506.419 332.524 505.549 330.748C501.672 322.824 498.109 319.708 495.041 317.462C494.507 317.076 494.116 316.523 493.93 315.891Z" fill="#263238"/>
<path d="M405.986 408.256L411.361 396.347C411.46 396.134 411.625 395.959 411.832 395.848C412.039 395.737 412.276 395.696 412.508 395.731L423.101 397.386C423.35 397.427 423.586 397.525 423.791 397.673C423.995 397.821 424.163 398.014 424.28 398.238C424.397 398.462 424.46 398.71 424.466 398.962C424.471 399.214 424.417 399.464 424.309 399.693C422.352 403.824 421.193 405.732 418.837 410.986C417.376 414.199 412.979 424.852 410.974 429.297C408.969 433.742 404.21 432.571 404.621 430.602C406.469 421.712 407.036 413.788 405.829 410.237C405.631 409.581 405.687 408.874 405.986 408.256Z" fill="#263238"/>
<path opacity="0.2" d="M387.276 394.293L399.113 402.169L406.795 394.716L395.224 387.022L387.276 394.293Z" fill="black"/>
<path opacity="0.2" d="M471.464 306.808L470.98 317.824L484.194 316.58L484.678 305.564L471.464 306.808Z" fill="black"/>
<path d="M265.427 159.437C265.427 159.437 270.367 183.836 295.056 205.336C298.172 208.042 297.556 214.999 301.844 214.419C316.858 204.949 332.234 195.625 339.529 191.011C339.711 182.701 334.022 184.041 332.681 179.572C329.468 168.931 320.663 156.937 311.555 130.739C305.569 132.983 299.756 135.663 294.162 138.759C288.207 142.005 282.469 145.636 276.986 149.629C272.964 152.694 269.106 155.968 265.427 159.437Z" fill="#5254CF"/>
<path d="M280.223 120.484C282.639 126.692 287.942 137.491 294.138 138.735C294.138 138.735 297.882 156.635 290.514 166.515C278.931 164.595 276.974 149.521 276.974 149.521C282.204 144.158 279.16 139.689 275.38 136.077L280.223 120.484Z" fill="#FFB573"/>
<path d="M283.388 167.494C282.736 167.469 282.097 167.313 281.507 167.035C280.918 166.757 280.391 166.362 279.958 165.875C277.711 163.568 278.484 160.053 279.305 156.321C280.127 152.589 280.948 148.844 279.305 145.511C279.265 145.429 279.259 145.335 279.289 145.249C279.318 145.163 279.381 145.092 279.462 145.052C279.544 145.012 279.638 145.006 279.724 145.035C279.81 145.065 279.881 145.127 279.921 145.209C281.697 148.748 280.803 152.854 280.006 156.466C279.209 160.077 278.496 163.363 280.489 165.392C280.822 165.797 281.234 166.129 281.7 166.37C282.165 166.611 282.675 166.755 283.197 166.793C283.72 166.832 284.245 166.764 284.741 166.593C285.237 166.423 285.693 166.154 286.081 165.803C290.043 162.868 292.568 154.594 289.705 149.497C287.084 144.665 289.705 140.486 290.913 138.457C291.137 138.133 291.331 137.789 291.493 137.43C291.482 137.387 291.48 137.343 291.487 137.299C291.494 137.255 291.51 137.214 291.534 137.176C291.558 137.139 291.589 137.107 291.625 137.082C291.662 137.057 291.703 137.04 291.746 137.032C291.791 137.023 291.838 137.023 291.883 137.032C291.928 137.041 291.971 137.059 292.009 137.085C292.047 137.111 292.08 137.144 292.105 137.183C292.131 137.221 292.148 137.264 292.157 137.309C292.229 137.635 291.988 138.034 291.505 138.819C290.212 140.885 287.809 144.75 290.297 149.171C293.256 154.545 290.599 163.254 286.432 166.358C285.565 167.054 284.498 167.452 283.388 167.494Z" fill="#263238"/>
<path opacity="0.2" d="M278.267 126.825L275.392 136.126C276.273 136.962 277.081 137.871 277.808 138.843C279.946 137.019 282.156 132.671 280.852 130.038C280.184 128.825 279.309 127.737 278.267 126.825Z" fill="black"/>
<path d="M279.704 107.982C283.05 118.394 284.692 122.718 281.6 129.941C276.95 140.812 263.482 142.636 257.045 133.444C251.295 125.17 246.79 109.541 255.16 101.617C256.996 99.8609 259.25 98.603 261.708 97.9627C264.166 97.3225 266.747 97.3212 269.206 97.9589C271.665 98.5966 273.92 99.8522 275.758 101.607C277.595 103.361 278.953 105.556 279.704 107.982Z" fill="#FFB573"/>
<path d="M258.132 105.434C258.844 111.123 271.08 117.657 282.422 114.988C290.345 113.116 284.185 99.2014 274.764 96.7615C265.343 94.3216 256.96 96.1213 258.132 105.434Z" fill="#263238"/>
<path d="M263.374 105.398L239.434 108.381C239.434 108.381 246.186 92.232 263.374 105.398Z" fill="#263238"/>
<path d="M261.852 105.084L242.369 113.539C242.369 113.539 244.133 98.1988 261.852 105.084Z" fill="#263238"/>
<path d="M259.847 105.084L254.411 112.79C254.411 112.79 251.513 106.606 259.847 105.084Z" fill="#263238"/>
<path d="M262.818 105.084L242.78 100.421C242.78 100.421 252.986 89.5143 262.818 105.084Z" fill="#263238"/>
<path d="M260.765 105.543L251.38 93.8989C251.38 93.8989 262.105 92.1837 260.765 105.543Z" fill="#263238"/>
<path d="M284.874 116.534C285.418 118.572 285.136 120.742 284.089 122.573C282.688 124.989 280.03 124.204 278.798 121.861C277.687 119.747 277.083 115.93 279.281 114.312C279.772 113.975 280.337 113.764 280.928 113.698C281.519 113.632 282.118 113.712 282.67 113.932C283.223 114.151 283.713 114.504 284.097 114.958C284.482 115.411 284.748 115.953 284.874 116.534Z" fill="#FFB573"/>
<path d="M302.702 215.289C302.702 215.289 307.533 313.415 326.037 341.413C345.363 370.547 392.832 401.698 392.832 401.698L406.119 390.44C406.119 390.44 361.428 348.165 351.547 323.585C337.875 289.669 335.326 194.671 335.326 194.671L302.702 215.289Z" fill="#263238"/>
<path d="M407.339 389.498L392.482 403.147L384.969 399.065L400.696 383.205L407.339 389.498Z" fill="#5254CF"/>
<path opacity="0.2" d="M324.757 217.282C324.6 228.865 331.219 244.471 339.662 254.448C338.744 245.244 337.995 236.33 337.391 228.322C333.152 223.611 328.767 219.492 324.757 217.282Z" fill="black"/>
<path d="M312.679 208.96C312.679 208.96 358.445 269.449 386.805 301.965C409.754 328.187 480.656 319.382 480.656 319.382V304.211C480.656 304.211 429.757 305.419 414.03 287.736C363.735 230.967 363.3 200.649 340.532 191.421L312.679 208.96Z" fill="#263238"/>
<path d="M480.982 301.699L481.018 322.619L471.138 325.373L471.597 301.796L480.982 301.699Z" fill="#5254CF"/>
<path d="M339.674 188.837L343.515 191.144C343.817 191.313 343.672 191.784 343.237 192.062L303.583 217.101C303.245 217.318 302.846 217.33 302.689 217.101L300.274 213.924C300.105 213.706 300.274 213.32 300.648 213.09L338.937 188.933C339.044 188.86 339.166 188.814 339.294 188.797C339.422 188.78 339.552 188.794 339.674 188.837Z" fill="#5254CF"/>
<path opacity="0.4" d="M339.674 188.837L343.515 191.144C343.817 191.313 343.672 191.784 343.237 192.062L303.583 217.101C303.245 217.318 302.846 217.33 302.689 217.101L300.274 213.924C300.105 213.706 300.274 213.32 300.648 213.09L338.937 188.933C339.044 188.86 339.166 188.814 339.294 188.797C339.422 188.78 339.552 188.794 339.674 188.837Z" fill="black"/>
<path d="M337.235 196.362L338.261 195.709C338.467 195.589 338.551 195.383 338.454 195.262L335.205 191.168C335.109 191.047 334.855 191.059 334.662 191.168L333.635 191.82C333.43 191.953 333.333 192.158 333.43 192.267L336.691 196.362C336.768 196.423 336.864 196.457 336.963 196.457C337.062 196.457 337.157 196.423 337.235 196.362Z" fill="#263238"/>
<path d="M306.7 215.651L307.714 214.999C307.92 214.878 308.016 214.673 307.92 214.552L304.658 210.457C304.562 210.337 304.32 210.349 304.115 210.457L303.088 211.11C302.883 211.242 302.798 211.448 302.895 211.569L306.144 215.651C306.223 215.714 306.321 215.748 306.422 215.748C306.523 215.748 306.621 215.714 306.7 215.651Z" fill="#263238"/>
<path d="M321.967 206.012L322.994 205.36C323.199 205.227 323.284 205.022 323.187 204.901L319.926 200.819C319.841 200.698 319.588 200.698 319.382 200.819L318.356 201.471C318.15 201.592 318.066 201.797 318.162 201.918L321.424 206.012C321.52 206.145 321.762 206.133 321.967 206.012Z" fill="#263238"/>
<path d="M265.403 116.848C265.729 117.67 265.548 118.515 265.017 118.732C264.485 118.95 263.809 118.443 263.446 117.609C263.084 116.776 263.301 115.942 263.845 115.737C264.388 115.532 265.077 116.027 265.403 116.848Z" fill="#263238"/>
<path d="M256.066 120.508C256.392 121.329 256.211 122.175 255.668 122.38C255.124 122.586 254.46 122.09 254.109 121.269C253.759 120.448 253.964 119.602 254.508 119.385C255.052 119.167 255.728 119.675 256.066 120.508Z" fill="#263238"/>
<path d="M254.75 119.336L252.539 119.542C252.539 119.542 254.158 120.701 254.75 119.336Z" fill="#263238"/>
<path d="M259.086 120.955C259.087 123.132 258.786 125.298 258.192 127.393C258.732 127.53 259.295 127.547 259.842 127.442C260.388 127.338 260.906 127.115 261.357 126.789L259.086 120.955Z" fill="#ED893E"/>
<path d="M265.512 128.927C265.451 128.94 265.387 128.932 265.332 128.903C265.277 128.874 265.234 128.827 265.21 128.77C265.196 128.738 265.189 128.704 265.189 128.67C265.189 128.635 265.196 128.601 265.209 128.57C265.223 128.538 265.243 128.509 265.268 128.486C265.293 128.462 265.322 128.444 265.355 128.432C266.393 128.047 267.326 127.425 268.081 126.616C268.836 125.806 269.392 124.831 269.703 123.769C269.717 123.704 269.757 123.646 269.814 123.61C269.871 123.574 269.939 123.562 270.005 123.576C270.038 123.582 270.071 123.594 270.099 123.613C270.128 123.631 270.153 123.655 270.172 123.683C270.191 123.712 270.204 123.743 270.211 123.777C270.217 123.81 270.217 123.845 270.21 123.878C269.895 125.03 269.306 126.089 268.494 126.966C267.683 127.843 266.672 128.511 265.548 128.915L265.512 128.927Z" fill="#263238"/>
<path d="M265.826 113.539C265.709 113.58 265.581 113.58 265.463 113.539C264.884 113.233 264.241 113.069 263.586 113.058C262.932 113.048 262.284 113.192 261.695 113.478C261.636 113.513 261.57 113.535 261.502 113.544C261.434 113.553 261.365 113.548 261.298 113.53C261.232 113.512 261.17 113.481 261.116 113.439C261.061 113.397 261.016 113.345 260.982 113.285C260.915 113.166 260.896 113.025 260.93 112.892C260.963 112.76 261.047 112.645 261.163 112.572C261.899 112.193 262.715 111.995 263.543 111.995C264.371 111.995 265.187 112.193 265.922 112.572C266.046 112.635 266.14 112.743 266.185 112.874C266.231 113.004 266.223 113.148 266.164 113.273C266.13 113.339 266.082 113.397 266.024 113.442C265.965 113.488 265.898 113.521 265.826 113.539Z" fill="#263238"/>
<path d="M250.027 117.875C249.948 117.893 249.865 117.893 249.785 117.875C249.651 117.846 249.534 117.765 249.459 117.649C249.384 117.534 249.358 117.393 249.387 117.259C249.554 116.437 249.92 115.668 250.453 115.019C250.986 114.371 251.669 113.863 252.443 113.539C252.506 113.514 252.574 113.502 252.642 113.503C252.71 113.505 252.777 113.52 252.839 113.549C252.901 113.577 252.957 113.617 253.003 113.667C253.049 113.718 253.084 113.776 253.107 113.841C253.134 113.904 253.147 113.972 253.146 114.04C253.146 114.109 253.131 114.177 253.102 114.239C253.074 114.302 253.033 114.357 252.982 114.403C252.93 114.449 252.87 114.484 252.805 114.505C252.214 114.786 251.698 115.202 251.299 115.721C250.9 116.24 250.63 116.845 250.51 117.488C250.479 117.594 250.415 117.688 250.329 117.757C250.243 117.826 250.137 117.867 250.027 117.875Z" fill="#263238"/>
<path d="M316.374 129.241L317.027 128.927L317.896 128.492C318.488 128.19 319.104 127.864 319.684 127.514C320.892 126.801 322.1 126.028 323.211 125.194C325.573 123.5 327.799 121.622 329.866 119.578C331.965 117.518 333.949 115.345 335.809 113.068L337.174 111.304L337.85 110.422L337.935 110.314C337.935 110.314 337.935 110.241 338.007 110.205C338.26 109.722 338.325 109.163 338.188 108.635C337.981 107.539 337.611 106.48 337.089 105.494C336.457 104.278 335.747 103.104 334.963 101.979C333.238 99.5513 331.349 97.243 329.311 95.0705C325.058 90.545 320.553 86.2624 315.819 82.243L319.008 77.6652C324.664 81.0321 330.011 84.8921 334.988 89.2003C337.57 91.4234 339.973 93.8466 342.174 96.4474C343.382 97.8271 344.476 99.3014 345.448 100.856C346.541 102.625 347.356 104.552 347.863 106.569C348.161 107.786 348.287 109.038 348.238 110.29C348.17 111.697 347.847 113.08 347.284 114.372C347.146 114.703 346.989 115.026 346.813 115.338L346.547 115.797L346.317 116.148L345.629 117.223L344.24 119.361C342.262 122.181 340.09 124.861 337.741 127.381C335.316 129.899 332.695 132.221 329.902 134.326C328.471 135.385 326.983 136.364 325.445 137.261C324.66 137.72 323.863 138.155 323.03 138.578L321.737 139.182C321.254 139.387 320.904 139.544 320.191 139.798L316.374 129.241Z" fill="#FFB573"/>
<path d="M299.984 135.691C305.298 129.857 322.414 124.373 322.414 124.373L327.91 152.347C327.91 152.347 321.979 158.254 314.792 156.224C308.68 154.497 292.411 144.001 299.984 135.691Z" fill="#5254CF"/>
<path d="M496.43 321.617C496.157 321.854 495.813 321.994 495.452 322.015C495.297 322.039 495.138 322.021 494.991 321.964C494.845 321.907 494.716 321.812 494.618 321.689C493.749 320.59 495.041 316.858 495.186 316.399C495.201 316.348 495.231 316.304 495.272 316.272C495.313 316.239 495.363 316.22 495.416 316.217C495.467 316.217 495.517 316.23 495.562 316.256C495.607 316.281 495.644 316.318 495.669 316.362C496.334 317.667 497.36 319.986 496.696 321.266C496.625 321.396 496.536 321.514 496.43 321.617ZM495.476 317.172C495.005 318.694 494.57 320.795 495.029 321.363C495.073 321.418 495.131 321.46 495.197 321.483C495.263 321.507 495.335 321.511 495.404 321.496C495.573 321.498 495.74 321.454 495.887 321.369C496.033 321.284 496.154 321.161 496.237 321.013C496.563 320.348 496.273 318.935 495.44 317.172H495.476Z" fill="#5254CF"/>
<path d="M493.701 319.467C493.318 319.894 492.804 320.183 492.239 320.288C492.032 320.297 491.827 320.235 491.66 320.112C491.493 319.989 491.373 319.812 491.321 319.611C491.236 319.419 491.198 319.209 491.21 318.999C491.223 318.789 491.286 318.585 491.394 318.404C492.13 316.99 495.198 316.217 495.331 316.181C495.376 316.169 495.423 316.169 495.468 316.182C495.513 316.195 495.553 316.219 495.585 316.254C495.616 316.287 495.638 316.328 495.648 316.373C495.659 316.417 495.658 316.463 495.645 316.507C495.231 317.629 494.566 318.641 493.701 319.467ZM492.203 318.259C492.061 318.382 491.943 318.529 491.853 318.694C491.796 318.808 491.767 318.934 491.767 319.062C491.767 319.19 491.796 319.316 491.853 319.43C491.973 319.744 492.13 319.769 492.263 319.769C493.024 319.769 494.462 318.09 495.017 316.87C493.994 317.136 493.036 317.609 492.203 318.259Z" fill="#5254CF"/>
<path d="M405.575 414.404C405.271 415.248 404.709 415.975 403.969 416.482C403.756 416.604 403.518 416.676 403.273 416.693C403.029 416.71 402.783 416.671 402.556 416.579C402.425 416.534 402.308 416.456 402.216 416.352C402.125 416.248 402.063 416.122 402.036 415.987C401.795 414.573 405.467 411.348 406.203 410.72C406.248 410.691 406.301 410.676 406.354 410.676C406.408 410.676 406.46 410.691 406.505 410.72C406.553 410.748 406.59 410.789 406.612 410.839C406.634 410.889 406.639 410.945 406.626 410.998C406.397 412.167 406.045 413.309 405.575 414.404ZM402.664 415.383C402.577 415.537 402.539 415.714 402.556 415.89C402.556 415.962 402.556 416.035 402.737 416.083C402.893 416.151 403.063 416.182 403.233 416.171C403.403 416.161 403.569 416.11 403.715 416.023C404.561 415.564 405.37 413.957 405.938 411.638C404.664 412.715 403.561 413.977 402.664 415.383Z" fill="#5254CF"/>
<path d="M406.614 411.022L406.553 411.107C405.346 412.194 402 413.933 400.949 413.269C400.72 413.124 400.49 412.822 400.683 412.17C401.468 409.694 406.227 410.612 406.433 410.66C406.479 410.668 406.522 410.69 406.556 410.722C406.591 410.754 406.615 410.795 406.626 410.841C406.64 410.901 406.636 410.964 406.614 411.022ZM401.251 412.17C401.224 412.219 401.203 412.272 401.191 412.327C401.102 412.593 401.102 412.762 401.191 412.834C401.794 413.209 404.367 412.109 405.732 411.083C404.633 410.926 401.891 410.745 401.251 412.17Z" fill="#5254CF"/>
<path d="M264.099 115.689L261.888 115.894C261.888 115.894 263.519 117.041 264.099 115.689Z" fill="#263238"/>
<path d="M356.198 43.0359H222.5C203.921 43.0359 188.861 58.0965 188.861 76.6748V402.688C188.861 421.266 203.921 436.327 222.5 436.327H356.198C374.776 436.327 389.837 421.266 389.837 402.688V76.6748C389.837 58.0965 374.776 43.0359 356.198 43.0359Z" fill="#5254CF"/>
<path opacity="0.2" d="M356.198 43.0359H222.5C203.921 43.0359 188.861 58.0965 188.861 76.6748V402.688C188.861 421.266 203.921 436.327 222.5 436.327H356.198C374.776 436.327 389.837 421.266 389.837 402.688V76.6748C389.837 58.0965 374.776 43.0359 356.198 43.0359Z" fill="black"/>
<path d="M383.182 106.449H359.181C354.045 106.449 349.881 110.612 349.881 115.749V149.569C349.881 154.706 354.045 158.87 359.181 158.87H383.182C388.318 158.87 392.482 154.706 392.482 149.569V115.749C392.482 110.612 388.318 106.449 383.182 106.449Z" fill="#5254CF"/>
<path opacity="0.2" d="M383.182 106.449H359.181C354.045 106.449 349.881 110.612 349.881 115.749V149.569C349.881 154.706 354.045 158.87 359.181 158.87H383.182C388.318 158.87 392.482 154.706 392.482 149.569V115.749C392.482 110.612 388.318 106.449 383.182 106.449Z" fill="black"/>
<path d="M218.152 106.449H194.151C189.015 106.449 184.851 110.612 184.851 115.749V166.358C184.851 171.495 189.015 175.659 194.151 175.659H218.152C223.288 175.659 227.452 171.495 227.452 166.358V115.749C227.452 110.612 223.288 106.449 218.152 106.449Z" fill="#5254CF"/>
<path opacity="0.2" d="M218.152 106.449H194.151C189.015 106.449 184.851 110.612 184.851 115.749V166.358C184.851 171.495 189.015 175.659 194.151 175.659H218.152C223.288 175.659 227.452 171.495 227.452 166.358V115.749C227.452 110.612 223.288 106.449 218.152 106.449Z" fill="black"/>
<path d="M383.182 162.65H359.181C354.045 162.65 349.881 166.814 349.881 171.951V205.771C349.881 210.907 354.045 215.071 359.181 215.071H383.182C388.318 215.071 392.482 210.907 392.482 205.771V171.951C392.482 166.814 388.318 162.65 383.182 162.65Z" fill="#5254CF"/>
<path opacity="0.2" d="M383.182 162.65H359.181C354.045 162.65 349.881 166.814 349.881 171.951V205.771C349.881 210.907 354.045 215.071 359.181 215.071H383.182C388.318 215.071 392.482 210.907 392.482 205.771V171.951C392.482 166.814 388.318 162.65 383.182 162.65Z" fill="black"/>
<path d="M354.301 43.0359H220.603C202.025 43.0359 186.965 58.0965 186.965 76.6748V402.688C186.965 421.266 202.025 436.327 220.603 436.327H354.301C372.88 436.327 387.94 421.266 387.94 402.688V76.6748C387.94 58.0965 372.88 43.0359 354.301 43.0359Z" fill="#5254CF"/>
<path d="M383.93 402.676V76.6748C383.93 60.3112 370.665 47.046 354.301 47.046L220.603 47.046C204.24 47.046 190.975 60.3112 190.975 76.6748L190.975 402.676C190.975 419.04 204.24 432.305 220.603 432.305H354.301C370.665 432.305 383.93 419.04 383.93 402.676Z" fill="white"/>
<path d="M366.308 57.5423H352.792C351.664 57.5423 350.75 58.4562 350.75 59.5836V65.4779C350.75 66.6053 351.664 67.5192 352.792 67.5192H366.308C367.435 67.5192 368.349 66.6053 368.349 65.4779V59.5836C368.349 58.4562 367.435 57.5423 366.308 57.5423Z" fill="#5254CF"/>
<path opacity="0.2" d="M226.546 57.5423H208.453C207.178 57.5423 206.146 58.5752 206.146 59.8493V65.2122C206.146 66.4863 207.178 67.5192 208.453 67.5192H226.546C227.82 67.5192 228.853 66.4863 228.853 65.2122V59.8493C228.853 58.5752 227.82 57.5423 226.546 57.5423Z" fill="#5254CF"/>
<path d="M351.463 59.2454H349.337C348.924 59.2454 348.588 59.5806 348.588 59.9942V65.0673C348.588 65.4808 348.924 65.8161 349.337 65.8161H351.463C351.877 65.8161 352.212 65.4808 352.212 65.0673V59.9942C352.212 59.5806 351.877 59.2454 351.463 59.2454Z" fill="#5254CF"/>
<path d="M365.909 59.2454H363.783C363.369 59.2454 363.034 59.5806 363.034 59.9942V65.0673C363.034 65.4808 363.369 65.8161 363.783 65.8161H365.909C366.322 65.8161 366.658 65.4808 366.658 65.0673V59.9942C366.658 59.5806 366.322 59.2454 365.909 59.2454Z" fill="white"/>
<path d="M361.331 59.2454H359.205C358.792 59.2454 358.457 59.5806 358.457 59.9942V65.0673C358.457 65.4808 358.792 65.8161 359.205 65.8161H361.331C361.745 65.8161 362.08 65.4808 362.08 65.0673V59.9942C362.08 59.5806 361.745 59.2454 361.331 59.2454Z" fill="white"/>
<path opacity="0.2" d="M211.822 78.1363H363.083C364.479 78.1363 365.819 78.6911 366.806 79.6787C367.794 80.6664 368.349 82.0059 368.349 83.4026V267.915C368.349 269.312 367.794 270.651 366.806 271.639C365.819 272.627 364.479 273.181 363.083 273.181H211.822C210.422 273.181 209.08 272.625 208.09 271.635C207.1 270.646 206.544 269.303 206.544 267.903V83.4146C206.544 82.0179 207.099 80.6784 208.086 79.6908C209.074 78.7032 210.414 78.1484 211.81 78.1484L211.822 78.1363Z" fill="#5254CF"/>
<path opacity="0.6" d="M327.33 99.2617C331.533 93.8747 336.993 90.0337 341.1 90.0337C342.219 89.9741 343.317 90.3576 344.155 91.1013C344.994 91.845 345.506 92.8891 345.581 94.0076C347.092 92.7281 348.96 91.9439 350.932 91.7609C353.71 91.7609 354.7 94.3578 353.722 98.0176C355.161 97.2406 356.743 96.7639 358.372 96.6165C361.198 96.4595 362.793 97.9452 362.95 100.373C363.55 99.9869 364.233 99.7469 364.943 99.6724C366.585 99.5758 367.008 101.086 365.921 103.03L365.704 103.393H320.795C321.448 101.46 325.337 99.3463 327.33 99.2617Z" fill="white"/>
<path opacity="0.6" d="M241.826 201.06C252.382 187.544 266.188 177.918 276.407 177.918C282.821 177.918 286.625 181.71 287.64 187.87C292.351 184.355 297.109 182.254 301.071 182.254C308.041 182.254 310.553 188.764 308.065 197.956C311.684 196.017 315.656 194.826 319.745 194.453C326.871 194.042 330.869 197.787 331.256 203.874C332.763 202.906 334.475 202.302 336.256 202.111C340.363 201.881 341.45 205.662 338.672 210.566C338.503 210.88 338.322 211.17 338.141 211.472H225.326C226.981 206.64 236.741 201.302 241.826 201.06Z" fill="white"/>
<path opacity="0.6" d="M313.717 152.927C314.09 152.877 314.465 152.848 314.841 152.842C320.336 147.516 325.892 144.11 329.83 144.11C332.681 144.11 334.227 145.885 334.517 148.941C344.783 138.59 355.376 131.862 362.756 131.862C368.711 131.862 371.489 136.234 371.151 143.373C376.236 139.314 381.08 136.887 384.764 136.887C391.25 136.887 392.252 144.399 388.061 155.004C391.575 152.83 395.519 151.445 399.62 150.946C406.312 150.463 409.283 154.787 408.377 161.817C409.851 160.738 411.569 160.04 413.378 159.788C417.001 159.534 417.448 163.411 414.489 168.617H291.215C296.916 160.706 306.796 153.821 313.717 152.927Z" fill="white"/>
<path opacity="0.6" d="M203.319 120.786C203.52 120.769 203.722 120.769 203.923 120.786C206.846 117.947 209.805 116.136 211.907 116.136C213.429 116.136 214.25 117.078 214.407 118.684C219.879 113.164 225.52 109.577 229.457 109.577C232.634 109.577 234.107 111.908 233.926 115.713C236.644 113.551 239.217 112.258 241.173 112.258C244.628 112.258 245.159 116.256 242.925 121.921C244.798 120.761 246.899 120.02 249.085 119.747C252.648 119.493 254.218 121.8 253.747 125.557C254.536 124.984 255.452 124.611 256.417 124.47C258.373 124.337 258.591 126.402 257.008 129.18H191.337C194.369 124.941 199.599 121.269 203.319 120.786Z" fill="white"/>
<path d="M251.73 103.139C252.998 99.2014 264.401 89.2969 278.484 94.2975C292.568 99.298 289.355 118.998 287.833 123.999C286.311 128.999 277.288 144.073 266.804 140.909C256.32 137.744 234.929 114.867 251.73 103.139Z" fill="#263238"/>
<path d="M282.542 118.503C283.472 115.592 291.879 108.297 302.255 111.981C312.63 115.664 310.263 130.183 309.139 133.867C308.016 137.551 301.373 148.651 293.643 146.332C285.912 144.013 270.162 127.139 282.542 118.503Z" fill="#263238"/>
<path d="M295.08 106.907L287.918 116.631C287.918 116.631 284.379 108.623 295.08 106.907Z" fill="#263238"/>
<path d="M275.622 134.894C273.665 133.009 263.978 130.811 257.371 138.082C250.764 145.354 258.736 155.814 261.176 158.229C263.615 160.645 273.508 166.588 278.617 161.515C283.726 156.442 288.993 136.488 275.622 134.894Z" fill="#263238"/>
<path d="M272.65 170.308L272.385 170.997L272.143 171.588C271.974 171.975 271.817 172.361 271.648 172.724C271.31 173.473 270.947 174.173 270.585 174.886C269.848 176.299 269.087 177.676 268.278 179.029C266.645 181.705 264.837 184.272 262.867 186.711C261.913 187.919 260.862 189.126 259.847 190.334C258.832 191.542 257.721 192.617 256.574 193.68C254.334 195.848 251.953 197.865 249.447 199.719C249.097 199.973 248.976 200.118 248.131 200.674C247.289 201.204 246.355 201.573 245.377 201.761C244.274 201.966 243.139 201.92 242.055 201.628C241.166 201.371 240.329 200.963 239.579 200.42C238.556 199.686 237.666 198.784 236.946 197.751C236.389 196.985 235.892 196.178 235.46 195.335C234.051 192.431 232.954 189.387 232.187 186.252C230.727 180.417 229.762 174.469 229.3 168.472L234.796 167.494C236.463 172.941 238.251 178.461 240.292 183.619C241.216 186.062 242.356 188.419 243.698 190.66C243.97 191.084 244.273 191.488 244.604 191.868C244.87 192.158 245.135 192.339 245.075 192.243C244.93 192.116 244.756 192.029 244.568 191.989C244.178 191.863 243.762 191.838 243.36 191.917C243.1 191.961 242.848 192.043 242.611 192.158C242.369 192.315 242.804 191.965 243.022 191.76C247.094 188.198 250.786 184.223 254.037 179.898C255.652 177.743 257.148 175.501 258.518 173.183C259.203 172.039 259.855 170.88 260.475 169.704L261.345 167.953L261.755 167.095L262.082 166.358L272.65 170.308Z" fill="#FFB573"/>
<path d="M272.046 153.579C262.589 157.891 258.929 169.897 258.603 170.562L270.331 191.88C270.331 191.88 281.745 183.8 282.639 176.347C283.485 170.054 278.267 150.741 272.046 153.579Z" fill="#5254CF"/>
<path d="M235.146 168.75L238.118 159.788L226.86 162.203C226.86 162.203 226.607 169.982 230.218 172.796L232.139 171.999C232.846 171.708 233.481 171.267 234 170.706C234.52 170.145 234.911 169.477 235.146 168.75Z" fill="#FFB573"/>
<path d="M235.34 150.197L227.307 153.543L226.86 162.179L238.118 159.776L235.34 150.197Z" fill="#FFB573"/>
<path d="M321.025 78.8127L313.21 69.8624L309.586 80.7332C309.586 80.7332 315.698 85.9995 320.675 81.4096L321.025 78.8127Z" fill="#FFB573"/>
<path d="M308.753 65.647L303.221 73.1358L309.55 80.7815L313.21 69.8624L308.753 65.647Z" fill="#FFB573"/>
<path d="M417.581 401.879L409.634 409.15L387.264 394.294L395.212 387.022L417.581 401.879Z" fill="#FFB573"/>
<path d="M497.095 304.405L496.612 315.408L470.981 317.824L471.464 306.82L497.095 304.405Z" fill="#FFB573"/>
<path d="M493.93 315.891L490.947 303.885C490.891 303.68 490.913 303.462 491.009 303.272C491.105 303.082 491.268 302.935 491.466 302.858L500.634 299.126C500.865 299.041 501.111 299.004 501.357 299.02C501.603 299.035 501.843 299.102 502.061 299.216C502.28 299.33 502.472 299.488 502.626 299.68C502.779 299.873 502.891 300.096 502.953 300.334C503.919 304.537 504.161 306.615 505.49 311.893C506.299 315.142 508.557 322.208 509.681 326.69C510.804 331.171 506.42 332.524 505.55 330.748C501.673 322.824 498.11 319.708 495.042 317.462C494.507 317.076 494.116 316.523 493.93 315.891Z" fill="#263238"/>
<path d="M405.986 408.256L411.361 396.347C411.46 396.134 411.625 395.959 411.832 395.848C412.039 395.737 412.276 395.696 412.509 395.731L423.101 397.386C423.351 397.427 423.587 397.525 423.791 397.673C423.996 397.821 424.163 398.014 424.28 398.238C424.397 398.462 424.461 398.71 424.466 398.962C424.471 399.214 424.417 399.464 424.309 399.693C422.353 403.823 421.193 405.732 418.838 410.986C417.376 414.199 412.98 424.852 410.975 429.297C408.969 433.742 404.211 432.571 404.621 430.602C406.469 421.712 407.037 413.788 405.829 410.237C405.632 409.581 405.688 408.874 405.986 408.256Z" fill="#263238"/>
<path opacity="0.2" d="M387.276 394.294L399.113 402.169L406.795 394.716L395.224 387.022L387.276 394.294Z" fill="black"/>
<path opacity="0.2" d="M471.464 306.808L470.981 317.824L484.195 316.58L484.678 305.564L471.464 306.808Z" fill="black"/>
<path d="M265.427 159.437C265.427 159.437 270.367 183.836 295.056 205.336C298.172 208.042 297.556 214.999 301.844 214.419C316.858 204.949 332.234 195.625 339.529 191.011C339.711 182.701 334.022 184.041 332.681 179.572C329.468 168.931 320.663 156.937 311.555 130.739C305.569 132.983 299.756 135.663 294.162 138.759C288.207 142.005 282.469 145.636 276.986 149.629C272.964 152.694 269.106 155.968 265.427 159.437Z" fill="#5254CF"/>
<path d="M280.223 120.484C282.639 126.692 287.942 137.491 294.138 138.735C294.138 138.735 297.882 156.635 290.514 166.515C278.931 164.595 276.974 149.521 276.974 149.521C282.204 144.158 279.16 139.689 275.38 136.077L280.223 120.484Z" fill="#FFB573"/>
<path d="M283.388 167.494C282.737 167.469 282.097 167.313 281.508 167.035C280.918 166.757 280.391 166.362 279.958 165.875C277.711 163.568 278.484 160.053 279.306 156.321C280.127 152.589 280.948 148.844 279.306 145.511C279.266 145.429 279.26 145.335 279.289 145.249C279.319 145.163 279.381 145.092 279.463 145.052C279.544 145.012 279.639 145.006 279.725 145.035C279.811 145.065 279.882 145.127 279.922 145.209C281.697 148.748 280.804 152.854 280.006 156.466C279.209 160.077 278.496 163.363 280.489 165.392C280.823 165.797 281.235 166.129 281.7 166.37C282.166 166.611 282.675 166.755 283.198 166.793C283.721 166.832 284.246 166.764 284.741 166.593C285.237 166.423 285.693 166.154 286.082 165.803C290.044 162.868 292.568 154.594 289.705 149.497C287.084 144.665 289.705 140.486 290.913 138.457C291.137 138.133 291.331 137.789 291.493 137.43C291.482 137.387 291.481 137.343 291.488 137.299C291.495 137.255 291.511 137.214 291.534 137.176C291.558 137.139 291.589 137.107 291.626 137.082C291.662 137.057 291.703 137.04 291.747 137.032C291.792 137.023 291.838 137.023 291.884 137.032C291.929 137.041 291.972 137.059 292.01 137.085C292.048 137.111 292.08 137.144 292.106 137.183C292.131 137.221 292.149 137.264 292.157 137.309C292.23 137.635 291.988 138.034 291.505 138.819C290.213 140.885 287.809 144.75 290.297 149.171C293.257 154.545 290.599 163.254 286.432 166.358C285.566 167.054 284.499 167.452 283.388 167.494Z" fill="#263238"/>
<path opacity="0.2" d="M278.267 126.825L275.392 136.126C276.273 136.962 277.081 137.871 277.808 138.843C279.946 137.019 282.156 132.671 280.852 130.038C280.184 128.825 279.309 127.737 278.267 126.825Z" fill="black"/>
<path d="M279.704 107.982C283.05 118.394 284.692 122.718 281.6 129.941C276.95 140.812 263.482 142.636 257.045 133.444C251.295 125.17 246.79 109.541 255.16 101.617C256.996 99.8609 259.25 98.603 261.708 97.9627C264.166 97.3225 266.747 97.3212 269.206 97.9589C271.665 98.5966 273.92 99.8522 275.758 101.607C277.595 103.361 278.953 105.556 279.704 107.982Z" fill="#FFB573"/>
<path d="M258.132 105.434C258.844 111.123 271.08 117.657 282.422 114.988C290.345 113.116 284.185 99.2014 274.764 96.7615C265.343 94.3216 256.96 96.1213 258.132 105.434Z" fill="#263238"/>
<path d="M263.374 105.398L239.434 108.381C239.434 108.381 246.186 92.232 263.374 105.398Z" fill="#263238"/>
<path d="M261.852 105.084L242.369 113.539C242.369 113.539 244.133 98.1988 261.852 105.084Z" fill="#263238"/>
<path d="M259.847 105.084L254.411 112.79C254.411 112.79 251.513 106.606 259.847 105.084Z" fill="#263238"/>
<path d="M262.818 105.084L242.78 100.421C242.78 100.421 252.986 89.5143 262.818 105.084Z" fill="#263238"/>
<path d="M260.765 105.543L251.38 93.8989C251.38 93.8989 262.106 92.1837 260.765 105.543Z" fill="#263238"/>
<path d="M284.874 116.534C285.418 118.572 285.136 120.742 284.089 122.573C282.688 124.989 280.03 124.204 278.798 121.861C277.687 119.747 277.083 115.93 279.281 114.312C279.772 113.975 280.337 113.764 280.928 113.698C281.519 113.632 282.118 113.712 282.67 113.932C283.223 114.151 283.713 114.504 284.097 114.958C284.482 115.411 284.748 115.953 284.874 116.534Z" fill="#FFB573"/>
<path d="M302.702 215.289C302.702 215.289 307.533 313.415 326.037 341.413C345.363 370.547 392.832 401.698 392.832 401.698L406.119 390.44C406.119 390.44 361.428 348.165 351.547 323.585C337.875 289.669 335.326 194.671 335.326 194.671L302.702 215.289Z" fill="#263238"/>
<path d="M407.339 389.498L392.482 403.147L384.969 399.065L400.696 383.205L407.339 389.498Z" fill="#5254CF"/>
<path opacity="0.2" d="M324.757 217.282C324.6 228.865 331.219 244.471 339.662 254.448C338.744 245.244 337.995 236.33 337.391 228.322C333.152 223.611 328.767 219.492 324.757 217.282Z" fill="black"/>
<path d="M312.679 208.96C312.679 208.96 358.445 269.449 386.805 301.965C409.754 328.187 480.656 319.382 480.656 319.382V304.211C480.656 304.211 429.757 305.419 414.03 287.736C363.735 230.967 363.3 200.649 340.532 191.421L312.679 208.96Z" fill="#263238"/>
<path d="M480.982 301.699L481.018 322.619L471.138 325.373L471.597 301.796L480.982 301.699Z" fill="#5254CF"/>
<path d="M339.675 188.837L343.516 191.144C343.817 191.313 343.673 191.784 343.238 192.062L303.584 217.101C303.245 217.318 302.847 217.33 302.69 217.101L300.274 213.924C300.105 213.706 300.274 213.32 300.649 213.09L338.938 188.933C339.044 188.86 339.167 188.814 339.295 188.797C339.423 188.78 339.553 188.794 339.675 188.837Z" fill="#5254CF"/>
<path opacity="0.4" d="M339.675 188.837L343.516 191.144C343.817 191.313 343.673 191.784 343.238 192.062L303.584 217.101C303.245 217.318 302.847 217.33 302.69 217.101L300.274 213.924C300.105 213.706 300.274 213.32 300.649 213.09L338.938 188.933C339.044 188.86 339.167 188.814 339.295 188.797C339.423 188.78 339.553 188.794 339.675 188.837Z" fill="black"/>
<path d="M337.235 196.362L338.261 195.709C338.467 195.589 338.551 195.383 338.454 195.262L335.205 191.168C335.109 191.047 334.855 191.059 334.662 191.168L333.635 191.82C333.43 191.953 333.333 192.158 333.43 192.267L336.691 196.362C336.768 196.423 336.864 196.457 336.963 196.457C337.062 196.457 337.157 196.423 337.235 196.362Z" fill="#263238"/>
<path d="M306.7 215.651L307.714 214.999C307.92 214.878 308.016 214.673 307.92 214.552L304.658 210.457C304.562 210.337 304.32 210.349 304.115 210.457L303.088 211.11C302.883 211.242 302.798 211.448 302.895 211.569L306.144 215.651C306.223 215.714 306.321 215.748 306.422 215.748C306.523 215.748 306.621 215.714 306.7 215.651Z" fill="#263238"/>
<path d="M321.967 206.012L322.994 205.36C323.199 205.227 323.284 205.022 323.187 204.901L319.926 200.819C319.841 200.698 319.588 200.698 319.382 200.819L318.356 201.471C318.15 201.592 318.066 201.797 318.162 201.918L321.424 206.012C321.52 206.145 321.762 206.133 321.967 206.012Z" fill="#263238"/>
<path d="M265.403 116.848C265.729 117.67 265.548 118.515 265.017 118.732C264.485 118.95 263.809 118.443 263.446 117.609C263.084 116.776 263.301 115.942 263.845 115.737C264.388 115.532 265.077 116.027 265.403 116.848Z" fill="#263238"/>
<path d="M256.066 120.508C256.393 121.329 256.211 122.175 255.668 122.38C255.124 122.586 254.46 122.09 254.11 121.269C253.759 120.448 253.965 119.602 254.508 119.385C255.052 119.167 255.728 119.675 256.066 120.508Z" fill="#263238"/>
<path d="M254.75 119.336L252.539 119.542C252.539 119.542 254.158 120.701 254.75 119.336Z" fill="#263238"/>
<path d="M259.086 120.955C259.087 123.132 258.786 125.298 258.192 127.393C258.732 127.53 259.295 127.547 259.842 127.442C260.388 127.338 260.906 127.115 261.357 126.789L259.086 120.955Z" fill="#ED893E"/>
<path d="M265.512 128.927C265.451 128.94 265.388 128.932 265.332 128.903C265.277 128.874 265.234 128.827 265.21 128.77C265.196 128.738 265.189 128.704 265.189 128.67C265.189 128.635 265.196 128.601 265.21 128.57C265.223 128.538 265.243 128.509 265.268 128.486C265.293 128.462 265.323 128.444 265.355 128.432C266.393 128.047 267.327 127.425 268.082 126.616C268.836 125.806 269.392 124.831 269.703 123.769C269.718 123.704 269.758 123.646 269.814 123.61C269.871 123.574 269.939 123.562 270.005 123.576C270.039 123.582 270.071 123.594 270.099 123.613C270.128 123.631 270.153 123.655 270.172 123.683C270.191 123.712 270.204 123.743 270.211 123.777C270.218 123.81 270.217 123.845 270.21 123.878C269.895 125.03 269.306 126.089 268.495 126.966C267.683 127.843 266.673 128.511 265.548 128.915L265.512 128.927Z" fill="#263238"/>
<path d="M265.826 113.539C265.709 113.58 265.581 113.58 265.463 113.539C264.884 113.233 264.241 113.069 263.586 113.058C262.932 113.048 262.284 113.192 261.695 113.478C261.636 113.513 261.57 113.535 261.502 113.544C261.434 113.553 261.365 113.548 261.298 113.53C261.232 113.512 261.17 113.481 261.116 113.439C261.061 113.397 261.016 113.345 260.982 113.285C260.915 113.166 260.896 113.025 260.93 112.892C260.963 112.76 261.047 112.645 261.163 112.572C261.899 112.193 262.715 111.995 263.543 111.995C264.371 111.995 265.187 112.193 265.922 112.572C266.046 112.635 266.14 112.743 266.185 112.874C266.231 113.004 266.223 113.148 266.164 113.273C266.13 113.339 266.082 113.397 266.024 113.442C265.965 113.488 265.898 113.521 265.826 113.539Z" fill="#263238"/>
<path d="M250.027 117.875C249.948 117.893 249.865 117.893 249.785 117.875C249.651 117.846 249.534 117.765 249.459 117.649C249.384 117.534 249.358 117.393 249.387 117.259C249.554 116.437 249.92 115.668 250.453 115.019C250.986 114.371 251.669 113.863 252.443 113.539C252.506 113.514 252.574 113.502 252.642 113.503C252.71 113.505 252.777 113.52 252.839 113.549C252.901 113.577 252.957 113.617 253.003 113.667C253.049 113.718 253.084 113.776 253.107 113.841C253.134 113.904 253.147 113.972 253.146 114.04C253.146 114.109 253.131 114.177 253.102 114.239C253.074 114.302 253.033 114.357 252.982 114.403C252.93 114.449 252.87 114.484 252.805 114.505C252.214 114.786 251.698 115.202 251.299 115.721C250.9 116.24 250.63 116.845 250.51 117.488C250.479 117.594 250.415 117.688 250.329 117.757C250.243 117.826 250.137 117.867 250.027 117.875Z" fill="#263238"/>
<path d="M315.614 129.543L316.411 129.048L317.305 128.48C317.921 128.093 318.513 127.695 319.141 127.272C320.349 126.451 321.556 125.557 322.764 124.675C325.165 122.897 327.463 120.986 329.649 118.95C331.847 116.933 333.961 114.819 335.966 112.597L338.297 109.927C338.418 109.782 338.563 109.408 338.442 108.514C338.22 107.421 337.838 106.367 337.307 105.386C336.665 104.171 335.943 103.001 335.145 101.883C333.391 99.4672 331.482 97.1674 329.432 94.998C325.154 90.4961 320.638 86.2262 315.904 82.2068L319.092 77.629C324.74 80.9902 330.087 84.8334 335.072 89.1157C337.672 91.3189 340.095 93.7218 342.32 96.3025C343.502 97.6829 344.577 99.1528 345.532 100.699C346.643 102.455 347.482 104.369 348.021 106.376C348.338 107.602 348.473 108.868 348.419 110.132C348.354 111.577 348.013 112.995 347.417 114.312C347.106 114.969 346.734 115.596 346.305 116.184L345.532 117.235L344.023 119.288C341.93 121.954 339.688 124.498 337.307 126.91C334.894 129.296 332.354 131.55 329.697 133.662C328.357 134.7 326.98 135.703 325.554 136.657C324.842 137.14 324.117 137.611 323.38 138.082L322.245 138.759C321.846 138.988 321.508 139.182 320.977 139.459L315.614 129.543Z" fill="#FFB573"/>
<path d="M299.984 135.691C305.299 129.857 322.414 124.373 322.414 124.373L327.91 152.347C327.91 152.347 321.979 158.254 314.793 156.224C308.681 154.497 292.411 144.001 299.984 135.691Z" fill="#5254CF"/>
<path d="M496.43 321.617C496.157 321.854 495.813 321.994 495.452 322.015C495.297 322.039 495.138 322.021 494.991 321.964C494.845 321.907 494.716 321.812 494.618 321.689C493.749 320.59 495.041 316.858 495.186 316.399C495.201 316.348 495.231 316.304 495.272 316.272C495.313 316.239 495.363 316.22 495.416 316.217C495.467 316.217 495.517 316.23 495.562 316.256C495.607 316.281 495.644 316.318 495.669 316.362C496.334 317.667 497.36 319.986 496.696 321.266C496.625 321.396 496.536 321.514 496.43 321.617ZM495.476 317.172C495.005 318.694 494.57 320.795 495.029 321.363C495.073 321.418 495.131 321.46 495.197 321.483C495.263 321.507 495.335 321.511 495.404 321.496C495.573 321.498 495.74 321.454 495.887 321.369C496.033 321.284 496.154 321.161 496.237 321.013C496.563 320.348 496.273 318.935 495.44 317.172H495.476Z" fill="#5254CF"/>
<path d="M493.701 319.467C493.318 319.894 492.804 320.183 492.239 320.288C492.032 320.297 491.827 320.235 491.66 320.112C491.493 319.989 491.373 319.812 491.321 319.612C491.236 319.419 491.198 319.209 491.21 318.999C491.223 318.789 491.286 318.585 491.394 318.404C492.13 316.99 495.198 316.217 495.331 316.181C495.376 316.169 495.423 316.169 495.468 316.182C495.513 316.195 495.553 316.22 495.585 316.254C495.616 316.287 495.638 316.328 495.648 316.373C495.659 316.417 495.658 316.463 495.645 316.507C495.231 317.629 494.566 318.641 493.701 319.467ZM492.203 318.259C492.061 318.382 491.943 318.529 491.853 318.694C491.796 318.808 491.767 318.934 491.767 319.062C491.767 319.19 491.796 319.316 491.853 319.43C491.973 319.744 492.13 319.769 492.263 319.769C493.024 319.769 494.462 318.09 495.017 316.87C493.994 317.136 493.036 317.609 492.203 318.259Z" fill="#5254CF"/>
<path d="M405.575 414.404C405.271 415.248 404.709 415.975 403.969 416.482C403.756 416.604 403.518 416.676 403.273 416.693C403.029 416.71 402.783 416.671 402.556 416.579C402.425 416.534 402.308 416.456 402.216 416.352C402.125 416.248 402.063 416.122 402.036 415.987C401.795 414.573 405.467 411.348 406.203 410.72C406.248 410.691 406.301 410.676 406.354 410.676C406.408 410.676 406.46 410.691 406.505 410.72C406.553 410.748 406.59 410.789 406.612 410.839C406.634 410.889 406.639 410.945 406.626 410.998C406.397 412.167 406.045 413.309 405.575 414.404ZM402.664 415.383C402.577 415.537 402.539 415.714 402.556 415.89C402.556 415.962 402.556 416.035 402.737 416.083C402.893 416.151 403.063 416.182 403.233 416.171C403.403 416.161 403.569 416.11 403.715 416.023C404.561 415.564 405.37 413.957 405.938 411.638C404.664 412.715 403.561 413.977 402.664 415.383Z" fill="#5254CF"/>
<path d="M406.614 411.022L406.553 411.107C405.346 412.194 402 413.933 400.949 413.269C400.72 413.124 400.49 412.822 400.683 412.17C401.468 409.694 406.227 410.612 406.433 410.66C406.479 410.668 406.522 410.69 406.556 410.722C406.591 410.754 406.615 410.795 406.626 410.841C406.64 410.901 406.636 410.964 406.614 411.022ZM401.251 412.17C401.224 412.219 401.203 412.272 401.191 412.327C401.102 412.593 401.102 412.762 401.191 412.834C401.794 413.209 404.367 412.109 405.732 411.083C404.633 410.926 401.891 410.745 401.251 412.17Z" fill="#5254CF"/>
<path d="M264.099 115.689L261.888 115.894C261.888 115.894 263.519 117.041 264.099 115.689Z" fill="#263238"/>
<path d="M312.449 286.383H206.544V296.831H312.449V286.383Z" fill="#5254CF"/>
<path d="M276.757 306.325H206.544V316.773H276.757V306.325Z" fill="#5254CF"/>
<path d="M248.517 389.921H209.684V394.451H248.517V389.921Z" fill="#E0E0E0"/>
<path d="M241.971 398.545H216.219V403.075H241.971V398.545Z" fill="#E0E0E0"/>
<path d="M305.975 389.921H267.142V394.451H305.975V389.921Z" fill="#E0E0E0"/>
<path d="M299.441 398.545H273.689V403.075H299.441V398.545Z" fill="#E0E0E0"/>
<path d="M365.22 389.921H326.388V394.451H365.22V389.921Z" fill="#E0E0E0"/>
<path d="M358.686 398.545H332.935V403.075H358.686V398.545Z" fill="#E0E0E0"/>
<path d="M248.179 46.0918C248.188 48.6067 249.192 51.016 250.97 52.7943C252.749 54.5727 255.158 55.576 257.673 55.5855H317.232C319.747 55.576 322.156 54.5727 323.935 52.7943C325.713 51.016 326.717 48.6067 326.726 46.0918H248.179Z" fill="#5254CF"/>
<path d="M251.037 363.041C253.898 350.919 246.391 338.774 234.269 335.913C222.148 333.052 210.002 340.559 207.141 352.68C204.28 364.802 211.788 376.947 223.909 379.808C236.03 382.669 248.176 375.162 251.037 363.041Z" fill="#5254CF"/>
<path d="M232.247 354.591C226.776 352.924 223.369 346.957 223.369 346.957C223.369 346.957 221.642 346.861 221.558 348.431C221.528 349.484 221.714 350.532 222.105 351.511C222.495 352.489 223.082 353.377 223.828 354.12L221.195 353.963C220.255 353.912 219.313 354.014 218.405 354.265L217.536 354.507C216.809 354.703 216.189 355.175 215.807 355.823C215.426 356.471 215.313 357.243 215.494 357.973L216.702 363.094C217.074 364.641 218.009 365.993 219.325 366.886C220.64 367.78 222.242 368.15 223.816 367.926C226.498 367.527 230.665 366.923 231.39 366.791L233.298 366.634L233.95 355.147L232.247 354.591Z" fill="white"/>
<path d="M240.823 353.009H233.443C232.869 353.009 232.404 353.474 232.404 354.048V367.105C232.404 367.678 232.869 368.143 233.443 368.143H240.823C241.397 368.143 241.862 367.678 241.862 367.105V354.048C241.862 353.474 241.397 353.009 240.823 353.009Z" fill="#263238"/>
<path d="M367.736 363.033C370.597 350.912 363.09 338.766 350.969 335.906C338.847 333.045 326.702 340.552 323.841 352.673C320.98 364.795 328.487 376.94 340.608 379.801C352.73 382.662 364.875 375.155 367.736 363.033Z" fill="#5254CF"/>
<path d="M345.81 346.112C343.09 346.121 340.468 347.127 338.44 348.939C336.413 350.752 335.12 353.245 334.808 355.947C334.495 358.649 335.184 361.371 336.744 363.599C338.305 365.827 340.628 367.405 343.274 368.035L345.81 371.26L348.347 368.035C350.992 367.405 353.316 365.827 354.876 363.599C356.436 361.371 357.125 358.649 356.813 355.947C356.5 353.245 355.207 350.752 353.18 348.939C351.152 347.127 348.53 346.121 345.81 346.112ZM345.81 361.814C344.895 361.814 344.001 361.543 343.24 361.035C342.479 360.526 341.886 359.804 341.536 358.958C341.186 358.113 341.094 357.183 341.273 356.286C341.451 355.388 341.892 354.564 342.539 353.917C343.186 353.27 344.01 352.829 344.908 352.651C345.805 352.472 346.735 352.564 347.58 352.914C348.426 353.264 349.148 353.857 349.657 354.618C350.165 355.379 350.436 356.273 350.436 357.188C350.441 357.799 350.325 358.404 350.094 358.97C349.864 359.535 349.524 360.049 349.094 360.483C348.664 360.916 348.152 361.26 347.589 361.495C347.025 361.73 346.421 361.85 345.81 361.85V361.814Z" fill="white"/>
<path d="M303.388 373.825C312.195 365.018 312.195 350.74 303.388 341.934C294.582 333.127 280.303 333.127 271.497 341.933C262.69 350.74 262.69 365.018 271.497 373.825C280.303 382.632 294.582 382.632 303.388 373.825Z" fill="#5254CF"/>
<path d="M292.677 352.695C292.695 352.58 292.676 352.463 292.621 352.36C292.567 352.258 292.48 352.176 292.375 352.127C291.23 351.638 289.996 351.391 288.751 351.402C286.599 351.406 284.537 352.262 283.015 353.783C281.494 355.305 280.637 357.367 280.634 359.519C280.634 362.515 282.639 364.085 284.62 364.085C285.442 364.1 286.256 363.922 286.996 363.565C287.737 363.209 288.383 362.683 288.884 362.032C289.007 362.481 289.235 362.895 289.548 363.239C289.821 363.514 290.147 363.731 290.506 363.876C290.865 364.022 291.25 364.093 291.638 364.085C294.73 364.085 297.87 361.283 297.87 355.932C297.926 354.626 297.708 353.323 297.231 352.106C296.755 350.889 296.029 349.785 295.102 348.864C294.174 347.944 293.065 347.227 291.844 346.759C290.624 346.291 289.32 346.083 288.014 346.148C281.057 346.148 275.803 351.668 275.803 358.976C275.803 365.075 280.103 369.496 286.033 369.496C288.096 369.564 290.142 369.103 291.976 368.155C292.087 368.096 292.173 367.998 292.217 367.881C292.262 367.763 292.262 367.633 292.218 367.515L291.71 366.138C291.685 366.067 291.644 366.002 291.589 365.95C291.535 365.897 291.469 365.859 291.396 365.836C291.331 365.803 291.258 365.786 291.185 365.786C291.111 365.786 291.039 365.803 290.973 365.836C289.557 366.57 287.979 366.936 286.384 366.899C281.77 366.899 278.665 363.626 278.665 358.758C278.665 352.9 282.494 348.636 287.761 348.636C292.23 348.636 295.008 351.499 295.008 356.101C295.115 357.808 294.562 359.49 293.462 360.8C293.102 361.183 292.61 361.417 292.085 361.452C292.007 361.454 291.93 361.439 291.859 361.408C291.788 361.376 291.725 361.33 291.674 361.271C291.493 361.041 291.239 360.377 291.674 358.468L292.677 352.695ZM288.34 354.144C288.677 354.145 289.012 354.177 289.343 354.241L288.763 357.381C288.437 359.205 286.891 361.307 285.369 361.307C283.847 361.307 283.775 360.099 283.775 359.398C283.775 356.512 285.864 354.108 288.34 354.108V354.144Z" fill="white"/>
</svg>
