<svg width="666" height="450" viewBox="0 0 666 450" fill="none" xmlns="http://www.w3.org/2000/svg">
<path d="M415.231 298.499C416.25 297.129 371.989 227.338 371.989 227.338L340.311 222.309L307.703 264.923L293.876 258.437L197.083 296.262L129.202 209.777L118.844 220.55L91.6416 180.11L74.1686 218.815L47.2426 285.552L29.028 271.963L-21.5557 323.414H462.295C462.295 323.414 414.201 299.869 415.231 298.499Z" fill="#F5F5F5"/>
<path d="M590.741 322.195C590.741 322.371 446.243 322.521 268.031 322.521C89.8189 322.521 -54.7292 322.371 -54.7292 322.195C-54.7292 322.019 89.7561 321.868 268.006 321.868C446.255 321.868 590.741 322.019 590.741 322.195Z" fill="#E0E0E0"/>
<path d="M567.297 340.761C567.297 340.95 535.87 341.101 497.04 341.101C458.21 341.101 426.784 340.95 426.784 340.761C426.784 340.573 458.21 340.434 497.04 340.434C535.87 340.434 567.297 340.585 567.297 340.761Z" fill="#E0E0E0"/>
<path d="M654.662 182.247C655.604 175.409 645.95 169.777 638.697 169.199C635.24 168.91 631.645 169.45 628.377 168.307C621.274 165.792 618.434 156.654 611.507 153.737C606.328 151.55 600.357 153.499 595.342 156.025C590.326 158.552 585.361 161.732 579.741 162.084C574.864 162.398 569.572 160.588 565.298 162.977C562.118 164.749 560.446 168.42 557.517 170.582C554.588 172.744 550.905 173.096 547.347 173.335C543.79 173.574 540.107 173.561 536.864 175.044C533.62 176.528 530.943 179.959 531.609 183.467L654.662 182.247Z" fill="#F5F5F5"/>
<path d="M768.312 431.86C766.552 397.153 767.318 409.233 765.559 374.513L703.687 340.045L648.062 361.917L638.282 377.769C632.334 387.346 624.234 395.404 614.625 401.301C602.733 408.629 586.693 420.157 580.885 431.86H768.312Z" fill="#E0E0E0"/>
<path d="M-103 347.122L-39.4687 368.178L35.3383 431.822H-103V347.122Z" fill="#E0E0E0"/>
<path d="M660.419 262.724L673.618 356.738L677.05 356.839C674.862 324.922 672.524 292.327 660.419 262.724Z" fill="#E0E0E0"/>
<path d="M662.845 318.348C661.777 313.684 660.57 308.945 657.917 304.986C654.322 299.618 648.464 296.186 642.581 293.597C636.698 291.007 630.501 288.845 625.184 285.2C631.117 294.929 644.593 297.519 651.444 306.569C654.863 311.095 656.283 316.777 657.616 322.283C660.532 334.3 662.33 344.696 665.246 356.713H669.143C667.854 343.805 665.751 330.991 662.845 318.348Z" fill="#E0E0E0"/>
<path d="M546.983 350.403C546.717 350.451 546.448 350.472 546.178 350.466L543.903 350.529L535.506 350.629L507.851 350.73L480.196 350.629L471.811 350.529L469.523 350.466C469.258 350.471 468.993 350.45 468.731 350.403C468.992 350.347 469.258 350.326 469.523 350.34H471.811L480.196 350.239L507.851 350.139L535.506 350.239L543.903 350.34H546.178C546.448 350.326 546.719 350.347 546.983 350.403Z" fill="#E0E0E0"/>
<path d="M594.462 369.007C595.272 369.588 595.957 370.325 596.475 371.176C596.994 372.027 597.335 372.974 597.478 373.96C597.756 375.94 597.575 377.957 596.951 379.856C595.571 383.62 593.241 386.963 590.188 389.56C587.51 386.229 587.674 381.276 587.862 378.762C588.227 374.79 591.269 367.838 594.462 369.007Z" fill="#5254CF"/>
<path d="M592.765 396.411C592.737 395.296 593.006 394.194 593.545 393.217C594.084 392.241 594.873 391.426 595.832 390.855C596.795 390.295 597.862 389.935 598.967 389.794C600.073 389.654 601.195 389.737 602.268 390.038C602.785 390.113 603.278 390.301 603.713 390.591C604.148 390.88 604.513 391.262 604.782 391.71C604.957 392.161 605.009 392.65 604.931 393.127C604.854 393.605 604.65 394.053 604.342 394.425C603.71 395.155 602.901 395.71 601.991 396.034C598.937 397.291 595.706 397.894 592.815 396.411" fill="#5254CF"/>
<path d="M586.643 407.234C586.7 406.975 586.784 406.722 586.894 406.48C587.083 405.952 587.334 405.223 587.648 404.456C588.416 402.194 589.545 400.072 590.992 398.171C592.485 396.277 594.454 394.815 596.699 393.935C597.38 393.678 598.089 393.505 598.811 393.419C599.062 393.419 599.264 393.419 599.402 393.419H599.603C598.636 393.564 597.688 393.813 596.775 394.161C594.587 395.069 592.67 396.523 591.206 398.385C589.785 400.276 588.646 402.364 587.824 404.582C587.485 405.424 587.196 406.103 586.995 406.568C586.89 406.797 586.772 407.019 586.643 407.234Z" fill="#263238"/>
<path d="M592.601 374.476C592.615 374.593 592.615 374.711 592.601 374.828C592.601 375.079 592.563 375.406 592.488 375.808C592.387 376.663 592.224 377.882 591.998 379.403C591.558 382.445 590.892 386.619 590.049 391.232C589.207 395.845 588.352 400.031 587.686 402.973C587.359 404.481 587.083 405.688 586.882 406.518C586.781 406.908 586.693 407.234 586.643 407.473C586.62 407.591 586.582 407.705 586.53 407.813C586.53 407.813 586.53 407.687 586.53 407.461C586.53 407.234 586.643 406.895 586.718 406.493L587.447 402.935C588.051 399.931 588.88 395.783 589.722 391.182C590.565 386.581 591.256 382.382 591.746 379.378C591.998 377.882 592.186 376.675 592.337 375.796C592.4 375.393 592.463 375.066 592.501 374.815C592.52 374.698 592.554 374.584 592.601 374.476Z" fill="#263238"/>
<path d="M586.869 397.731C586.892 395.38 586.356 393.058 585.305 390.955C584.254 388.852 582.717 387.03 580.823 385.638C579.855 384.934 578.522 384.381 577.516 384.997C576.511 385.613 576.448 387.084 576.674 388.253C577.191 390.696 578.423 392.929 580.214 394.669C582.006 396.408 584.274 397.575 586.731 398.02" fill="#5254CF"/>
<path d="M580.697 389.296C580.912 389.419 581.118 389.557 581.313 389.711C581.555 389.876 581.786 390.056 582.004 390.252C582.302 390.497 582.588 390.757 582.859 391.031C583.161 391.345 583.5 391.672 583.827 392.062C584.178 392.461 584.505 392.881 584.807 393.319C585.512 394.363 586.094 395.485 586.542 396.663C586.966 397.825 587.261 399.031 587.422 400.258C587.481 400.796 587.511 401.338 587.51 401.879C587.537 402.348 587.537 402.818 587.51 403.287C587.484 403.671 587.434 404.053 587.359 404.431C587.317 404.723 587.258 405.013 587.183 405.299C587.132 405.539 587.06 405.774 586.97 406.002C586.907 406.002 587.196 404.972 587.309 403.275C587.335 402.81 587.335 402.344 587.309 401.879C587.296 401.349 587.254 400.821 587.183 400.295C587.022 399.089 586.727 397.904 586.303 396.763C585.86 395.629 585.295 394.546 584.619 393.533C584.329 393.096 584.014 392.676 583.676 392.275C583.362 391.886 583.035 391.546 582.746 391.232C581.539 389.95 580.659 389.347 580.697 389.296Z" fill="#263238"/>
<path d="M6.25019 430.49L6.77816 430.427C5.68452 414.085 -2.52401 396.562 -8.48243 381.239C-14.6043 365.463 -20.349 349.272 -34.2897 339.693C-19.2185 369.239 -5.68709 399.545 6.25019 430.49Z" fill="#455A64"/>
<path d="M16.0301 347.424C16.0301 347.424 16.0301 347.499 16.0301 347.638L15.8415 348.241L15.0621 350.579C14.8987 351.082 14.7102 351.648 14.4965 352.251L13.8931 354.275C13.4657 355.72 12.9251 357.367 12.4726 359.215C12.2338 360.133 11.9698 361.101 11.7058 362.106C11.4418 363.112 11.2281 364.168 10.9767 365.261C10.4488 367.436 10.0214 369.787 9.54368 372.263C8.68888 377.291 7.94722 382.709 7.50725 388.504C7.06729 394.299 7.04215 399.818 7.15528 404.846C7.26841 407.36 7.33127 409.748 7.5324 411.973C7.62039 413.092 7.67067 414.173 7.78381 415.204C7.89694 416.235 7.99751 417.24 8.0855 418.183C8.26149 420.081 8.53804 421.778 8.72659 423.287L9.01572 425.374C9.12885 426.015 9.22941 426.631 9.31741 427.121C9.48082 428.152 9.60653 428.969 9.70709 429.547L9.79508 430.176C9.8008 430.247 9.8008 430.318 9.79508 430.389C9.79508 430.389 8.73916 425.788 7.82152 418.208C7.72095 417.266 7.60782 416.273 7.49469 415.229C7.38155 414.186 7.3187 413.117 7.21814 411.999C7.00444 409.761 6.92902 407.373 6.81588 404.846C6.67761 399.818 6.74046 394.249 7.14272 388.441C7.54497 382.634 8.39976 377.128 9.21684 372.175C9.69452 369.661 10.1345 367.336 10.675 365.161C10.939 364.067 11.1653 363.011 11.4293 362.006C11.6932 361 11.9572 360.032 12.2086 359.115C12.6863 357.267 13.2394 355.632 13.6794 354.174L14.3205 352.163L14.9113 350.491C15.2633 349.511 15.5524 348.731 15.7409 348.191C15.8415 347.939 15.9169 347.738 15.9672 347.587L16.0301 347.424Z" fill="#455A64"/>
<path d="M13.5701 338.376L7.96366 358.162C7.39966 360.153 8.55608 362.224 10.5466 362.788L11.3811 363.024C13.3716 363.588 15.4424 362.432 16.0064 360.441L21.6129 340.655C22.1769 338.664 21.0205 336.593 19.03 336.029L18.1955 335.793C16.205 335.229 14.1341 336.385 13.5701 338.376Z" fill="#F5F5F5"/>
<path d="M11.3916 363.036C11.3916 363.036 11.6178 363.099 12.0578 363.125C12.6969 363.176 13.3384 363.059 13.9182 362.785C14.3734 362.579 14.7807 362.28 15.114 361.908C15.4473 361.536 15.6994 361.098 15.8541 360.623C16.1809 359.492 16.5329 358.172 16.9477 356.726C17.7522 353.822 18.7201 350.378 19.7886 346.557C20.3166 344.646 20.8823 342.635 21.4731 340.56C21.6061 340.052 21.6255 339.52 21.5299 339.003C21.4343 338.486 21.2261 337.996 20.92 337.569C20.61 337.128 20.201 336.766 19.7258 336.513C19.2225 336.267 18.6904 336.086 18.1419 335.972C17.3686 335.764 16.5478 335.822 15.8114 336.137C15.075 336.451 14.4658 337.004 14.0816 337.707C13.8538 338.189 13.6809 338.695 13.5662 339.215C12.9754 341.29 12.3972 343.301 11.8567 345.212C10.763 348.983 9.76996 352.452 8.94031 355.356C8.72661 356.072 8.53805 356.764 8.34949 357.417C8.13406 358.007 8.00698 358.626 7.97237 359.253C7.98101 359.752 8.0888 360.245 8.28949 360.703C8.49018 361.16 8.77977 361.573 9.14143 361.918C9.61423 362.348 10.1832 362.658 10.8007 362.823L11.2784 362.974L11.4418 363.036H11.2658L10.7756 362.911C10.1381 362.77 9.54606 362.472 9.05344 362.043C8.66828 361.691 8.35838 361.264 8.14236 360.789C7.92633 360.314 7.80865 359.8 7.79639 359.278C7.82859 358.631 7.9513 357.992 8.16093 357.38C8.33692 356.726 8.52547 356.035 8.7266 355.318C9.54368 352.414 10.5116 349.033 11.5801 345.149C12.1081 343.238 12.6737 341.227 13.2646 339.153C13.3821 338.605 13.5635 338.074 13.8051 337.569C14.0882 337.074 14.474 336.645 14.9364 336.312C15.4167 335.96 15.9706 335.722 16.5563 335.615C17.1421 335.508 17.7444 335.536 18.3179 335.696C18.8856 335.83 19.4376 336.024 19.9646 336.274C20.465 336.56 20.8946 336.956 21.2217 337.43C21.5572 337.899 21.7853 338.436 21.8896 339.003C21.9939 339.571 21.9719 340.154 21.8251 340.711C21.2343 342.785 20.656 344.797 20.1155 346.707L17.1991 356.852C16.7843 358.297 16.4197 359.592 16.0552 360.749C15.7751 361.558 15.228 362.248 14.5037 362.705C13.7795 363.162 12.9213 363.358 12.0704 363.263C11.8345 363.22 11.6059 363.144 11.3916 363.036Z" fill="#263238"/>
<path d="M9.76994 430.427C9.25455 417.794 9.24198 403.891 16.4072 393.457C20.4674 387.562 26.5767 383.3 33.1134 380.371C39.7391 377.636 46.6021 375.515 53.6158 374.036C45.8598 384.897 28.2989 385.022 20.9325 396.109C18.7201 399.403 17.6894 403.312 16.6963 407.146C14.6222 415.066 12.812 422.583 10.7379 430.515" fill="#455A64"/>
<path d="M285.604 74.9962C278.723 74.6256 271.865 76.0554 265.705 79.1444C259.131 82.2116 252.921 86.7496 249.653 93.2234C246.384 99.6972 246.749 108.308 251.903 113.437C241.997 116.064 234.543 124.876 231.425 134.631C228.308 144.385 228.974 154.995 230.948 165.051C231.891 169.803 233.562 175.108 237.95 177.144C240.765 178.401 244.235 178.15 246.875 179.771C249.514 181.393 250.721 184.36 252.393 186.886C253.99 189.303 256.062 191.371 258.483 192.962C260.904 194.554 263.624 195.636 266.476 196.144C269.328 196.652 272.254 196.575 275.076 195.917C277.897 195.259 280.556 194.034 282.889 192.317L303.203 84.3612C299.218 78.7799 292.43 75.5744 285.604 74.9962Z" fill="#455A64"/>
<path d="M299.256 86.6239C298.836 87.2211 298.369 87.7843 297.861 88.3083C296.918 89.3642 295.548 90.8224 293.813 92.708C289.361 97.573 284.367 101.913 278.929 105.643C273.439 109.383 267.157 111.801 260.576 112.708C258.587 112.955 256.578 112.998 254.58 112.833C253.876 112.833 253.323 112.683 252.959 112.632C252.769 112.618 252.583 112.576 252.406 112.507C252.406 112.507 253.198 112.507 254.593 112.582C256.572 112.648 258.554 112.538 260.514 112.255C266.983 111.224 273.145 108.782 278.565 105.103C283.954 101.403 288.953 97.1658 293.486 92.4566L297.672 88.1952C298.157 87.6296 298.686 87.1041 299.256 86.6239Z" fill="#263238"/>
<path d="M259.659 118.968C259.583 118.968 259.257 118.465 258.98 117.51C258.657 116.236 258.593 114.911 258.791 113.613C258.998 112.316 259.469 111.075 260.174 109.967C260.727 109.125 261.205 108.71 261.268 108.71C260.433 110.264 259.82 111.927 259.445 113.65C259.262 115.424 259.333 117.215 259.659 118.968Z" fill="#263238"/>
<path d="M266.497 122.978C266.613 123.163 266.706 123.361 266.774 123.569C266.937 123.958 267.189 124.537 267.453 125.316C268.232 127.477 268.875 129.686 269.376 131.928C271.136 139.368 271.136 147.115 269.376 154.555C267.514 162 263.433 168.704 257.673 173.775C255.931 175.289 254.02 176.597 251.978 177.672C251.274 178.074 250.721 178.288 250.294 178.477C250.096 178.571 249.89 178.646 249.678 178.703C250.383 178.244 251.114 177.824 251.865 177.446C253.832 176.299 255.676 174.956 257.371 173.436C262.942 168.335 266.897 161.715 268.747 154.391C270.485 147.055 270.558 139.422 268.961 132.054C268.383 129.213 267.704 127.025 267.264 125.416C266.956 124.621 266.7 123.806 266.497 122.978Z" fill="#263238"/>
<path d="M269.992 139.986C269.47 139.928 268.956 139.815 268.458 139.646C267.478 139.382 266.057 139.03 264.297 138.615C255.139 136.465 245.723 135.619 236.328 136.101C234.53 136.189 233.072 136.29 232.067 136.378C231.545 136.439 231.017 136.439 230.495 136.378C230.997 136.215 231.516 136.109 232.041 136.064C233.035 135.9 234.493 135.737 236.303 135.586C245.747 134.833 255.25 135.683 264.411 138.1C266.17 138.565 267.566 138.993 268.521 139.357C269.036 139.503 269.53 139.714 269.992 139.986Z" fill="#263238"/>
<g opacity="0.3">
<path d="M253.286 112.569C260.124 116.969 269.351 116.466 276.591 112.758C283.832 109.05 289.162 102.174 291.965 94.5433C282.499 105.48 268.446 113.412 253.286 112.569Z" fill="black"/>
</g>
<g opacity="0.3">
<path d="M249.628 178.678C252.469 178.478 255.231 177.653 257.717 176.263C260.203 174.872 262.351 172.949 264.008 170.633C266.981 165.922 268.783 160.569 269.263 155.02C267.439 159.766 265.13 164.311 262.374 168.584C260.782 170.599 258.964 172.425 256.956 174.027C254.707 175.869 252.242 177.431 249.615 178.678" fill="black"/>
</g>
<path d="M256.692 136.742C257.152 137.781 257.453 138.883 257.585 140.011C257.798 141.042 258.037 142.236 258.402 143.568C258.623 144.323 258.623 145.126 258.402 145.881C258.279 146.324 258.014 146.715 257.649 146.994C257.284 147.273 256.838 147.425 256.378 147.427C255.928 147.365 255.506 147.174 255.163 146.878C254.819 146.581 254.569 146.191 254.442 145.755C254.228 145.004 254.228 144.207 254.442 143.455C254.807 142.085 255.196 140.941 255.511 139.923C255.791 138.829 256.174 137.764 256.654 136.742C256.529 137.869 256.293 138.981 255.951 140.061C255.674 141.13 255.36 142.311 255.033 143.581C254.858 144.227 254.858 144.908 255.033 145.554C255.121 145.871 255.296 146.156 255.538 146.379C255.781 146.601 256.08 146.751 256.403 146.811C256.722 146.802 257.03 146.689 257.28 146.49C257.529 146.29 257.707 146.015 257.786 145.705C257.956 145.063 257.956 144.387 257.786 143.744C257.486 142.556 257.255 141.351 257.094 140.136C256.893 138.025 256.692 136.768 256.692 136.742Z" fill="#263238"/>
<path d="M286.447 96.3409C285.058 95.6457 283.715 94.8649 282.424 94.0028C279.254 92.0288 275.967 90.249 272.581 88.6729C269.204 87.1051 265.644 85.9649 261.984 85.2788C259.169 84.7634 257.384 84.7509 257.384 84.6377C257.797 84.5563 258.22 84.531 258.641 84.5623C259.781 84.5675 260.919 84.6515 262.047 84.8137C265.788 85.3777 269.428 86.4741 272.858 88.0695C276.274 89.6503 279.557 91.5042 282.675 93.6131C283.87 94.405 284.825 95.0713 285.479 95.5489C285.833 95.7716 286.158 96.0376 286.447 96.3409Z" fill="#263238"/>
<path d="M284.561 95.4986C284.636 95.4986 284.699 95.926 284.347 96.4666C284.108 96.8226 283.77 97.1006 283.375 97.266C282.979 97.4314 282.544 97.4769 282.122 97.3968L281.708 97.3214L281.896 96.9317C282.26 96.2029 282.897 95.6473 283.669 95.3855C284.247 95.197 284.624 95.2724 284.636 95.3855C284.649 95.4986 284.31 95.5866 283.857 95.8506C283.271 96.1734 282.794 96.6635 282.487 97.2585L282.273 96.7934C282.588 96.8452 282.91 96.8196 283.212 96.7189C283.514 96.6181 283.788 96.4452 284.008 96.2152C284.347 95.8255 284.46 95.4861 284.561 95.4986Z" fill="#263238"/>
<path d="M390.744 93.0851C390.744 93.0851 385.716 86.473 385.716 83.7955L387.802 68.2332C387.802 68.2332 388.708 66.6619 390.115 69.264C391.373 71.6524 390.669 75.3481 390.669 75.3481L391.549 79.0062L393.447 76.2407L395.584 65.8449C395.584 65.8449 396.941 58.3025 398.098 59.1196C399.254 59.9367 399.606 62.0863 399.015 65.3295C398.425 68.5726 397.67 72.6832 397.67 72.6832C397.67 72.6832 397.519 73.9403 398.726 71.8158C399.933 69.6914 401.24 60.5904 401.731 59.371C402.221 58.1517 402.372 54.9085 404.245 55.0845C406.118 55.2605 405.024 59.3962 405.024 59.3962L403.239 72.7963C403.239 72.7963 404.974 67.4036 405.301 66.5111C405.627 65.6186 406.143 62.6519 406.771 61.0429C407.4 59.4339 408.33 58.6042 409.147 58.7048C409.539 58.7273 409.906 58.8987 410.175 59.1839C410.444 59.4691 410.593 59.8465 410.593 60.2384L407.852 71.7027C407.852 71.7027 406.331 76.9195 406.432 77.2589C406.533 77.5983 408.456 75.0842 408.456 75.0842L409.939 71.313C409.939 71.313 411.196 66.046 412.579 65.8951C413.962 65.7443 414.037 66.8128 414.037 66.8128L411.712 76.4418L407.45 87.4284L403.415 95.6872C403.415 95.6872 397.783 94.8073 397.57 95.0964C397.356 95.3855 390.744 93.0851 390.744 93.0851Z" fill="#FFBE9D"/>
<path d="M400.725 88.4466C400.276 87.6743 399.889 86.8672 399.568 86.0331C398.787 84.0776 397.296 82.4887 395.395 81.5831C394.464 81.1764 393.423 81.0967 392.441 81.3568L392.114 81.4448L392.039 81.0929C391.674 79.4964 391.171 78.0257 390.945 77.02C390.738 76.4881 390.648 75.9179 390.681 75.3481C390.943 75.8408 391.153 76.3589 391.31 76.8943C391.832 78.2405 392.285 79.6124 392.667 81.0049L392.252 80.7409C393.373 80.4118 394.573 80.4829 395.646 80.942C396.807 81.4271 397.818 82.2124 398.575 83.2173C399.163 84.0241 399.644 84.9028 400.008 85.8319C400.396 86.6557 400.638 87.5403 400.725 88.4466Z" fill="#EB996E"/>
<path d="M347.2 85.5554L375.043 127.176L387.614 90.8978L404.735 95.109C404.735 95.109 397.746 143.882 395.081 148.722C392.416 153.562 384.056 160.551 373.711 159.143C363.365 157.735 342.762 129.992 342.762 129.992L347.2 85.5554Z" fill="#5254CF"/>
<path d="M378.475 143.883C379.101 137.798 377.78 131.671 374.704 126.384C375.359 127.012 375.896 127.753 376.288 128.572C377.381 130.478 378.17 132.544 378.626 134.693C379.1 136.838 379.245 139.042 379.053 141.23C379.018 142.141 378.822 143.039 378.475 143.883Z" fill="#263238"/>
<g opacity="0.3">
<path d="M349.299 138.842C350.209 138.36 350.991 137.668 351.581 136.825C352.171 135.981 352.552 135.009 352.693 133.99C352.963 131.952 352.899 129.885 352.505 127.868C351.386 119.659 349.814 111.111 348.733 102.903L349.173 137.987" fill="black"/>
</g>
<g opacity="0.3">
<path d="M378.764 141.859C379.317 141.757 379.835 141.52 380.274 141.169C380.713 140.818 381.058 140.364 381.278 139.847C381.714 138.799 381.866 137.654 381.718 136.529C381.52 134.408 380.786 132.373 379.585 130.614C378.385 128.855 376.757 127.43 374.855 126.472C377.597 131.113 378.941 136.447 378.727 141.834" fill="black"/>
</g>
<path d="M379.204 356.726L395.119 392.954L440.624 373.797C438.524 369.573 409.487 371.723 409.487 371.723L399.43 347.122L379.204 356.726Z" fill="#5254CF"/>
<g opacity="0.6">
<path d="M396.401 374.727C396.02 375.046 395.77 375.494 395.698 375.985C395.626 376.477 395.738 376.977 396.011 377.392C396.317 377.783 396.761 378.042 397.251 378.117C397.742 378.191 398.242 378.076 398.651 377.794C399.052 377.456 399.314 376.981 399.386 376.461C399.458 375.941 399.335 375.413 399.041 374.979C398.683 374.604 398.194 374.382 397.677 374.358C397.159 374.335 396.653 374.512 396.262 374.853" fill="white"/>
</g>
<g opacity="0.6">
<path d="M395.119 392.954L393.686 389.183L437.846 372.213C437.846 372.213 440.247 372.213 440.624 373.759L395.119 392.954Z" fill="white"/>
</g>
<path d="M410.341 371.836C410.429 372.062 409.361 372.64 408.569 373.809C407.777 374.979 407.588 376.16 407.312 376.16C407.035 376.16 406.859 374.74 407.852 373.332C408.846 371.924 410.304 371.622 410.341 371.836Z" fill="#263238"/>
<path d="M417.167 371.396C417.318 371.585 416.513 372.364 416.149 373.621C415.784 374.878 415.998 375.972 415.772 376.047C415.546 376.122 414.867 374.941 415.344 373.382C415.822 371.823 417.079 371.182 417.167 371.396Z" fill="#263238"/>
<path d="M422.095 375.783C421.919 375.909 421.139 374.928 421.202 373.483C421.265 372.037 422.095 371.107 422.258 371.245C422.422 371.383 422.07 372.314 422.032 373.508C421.994 374.702 422.309 375.67 422.095 375.783Z" fill="#263238"/>
<path d="M407.425 365.903C407.425 366.141 406.269 366.267 405.049 366.883C403.83 367.499 403.013 368.304 402.812 368.14C402.611 367.977 403.226 366.808 404.672 366.104C406.118 365.4 407.45 365.689 407.425 365.903Z" fill="#263238"/>
<path d="M219.735 392.263L217.787 372.917L233.927 352.591L214.141 339.869L213.613 340.649L203.557 355.834L190.496 366.142L211.237 400.22L231.438 398.863C231.438 398.863 229.628 394.149 219.735 392.263Z" fill="#5254CF"/>
<g opacity="0.6">
<path d="M190.471 366.141L211.212 400.22L231.413 398.862L228.937 395.984L212.444 396.185L193.249 363.954L190.471 366.141Z" fill="white"/>
</g>
<path d="M218.981 383.388C218.855 383.602 217.636 383.024 216.077 383.174C214.518 383.325 213.412 384.042 213.249 383.853C213.085 383.665 214.103 382.433 216.014 382.282C217.925 382.131 219.182 383.225 218.981 383.388Z" fill="#263238"/>
<path d="M218.365 378.599C218.164 378.762 217.183 377.631 215.562 377.43C213.94 377.229 212.683 378.046 212.545 377.845C212.406 377.643 212.683 377.405 213.223 377.053C213.958 376.607 214.823 376.425 215.675 376.537C216.528 376.648 217.317 377.047 217.912 377.669C218.34 378.146 218.453 378.536 218.365 378.599Z" fill="#263238"/>
<path d="M218.076 372.414C217.862 372.552 217.095 371.421 215.662 371.031C214.229 370.642 212.985 371.182 212.871 370.969C212.758 370.755 213.047 370.566 213.588 370.327C214.319 370.017 215.133 369.964 215.898 370.176C216.663 370.388 217.333 370.854 217.799 371.497C218.138 371.987 218.176 372.364 218.076 372.414Z" fill="#263238"/>
<path d="M223.167 367.273C222.928 367.373 222.287 366.255 220.979 365.538C219.672 364.822 218.465 364.771 218.377 364.52C218.289 364.268 219.835 363.841 221.419 364.759C223.003 365.676 223.406 367.223 223.167 367.273Z" fill="#263238"/>
<path d="M225.517 362.949C225.417 363.024 224.7 362.257 223.619 360.95C223.003 360.196 222.362 359.429 221.746 358.637C221.319 358.175 220.967 357.649 220.703 357.078C220.616 356.88 220.57 356.666 220.57 356.45C220.57 356.233 220.616 356.019 220.703 355.821C220.806 355.599 220.971 355.412 221.179 355.282C221.386 355.153 221.627 355.087 221.872 355.092C222.594 355.182 223.275 355.479 223.833 355.947C225.179 356.965 226.098 358.449 226.41 360.108C226.68 361.039 226.581 362.038 226.133 362.898C226.068 362.009 225.955 361.123 225.794 360.246C225.551 359.331 225.123 358.475 224.537 357.732C224.193 357.309 223.796 356.933 223.355 356.613C222.935 356.277 222.439 356.048 221.91 355.947C221.833 355.941 221.756 355.958 221.689 355.996C221.621 356.034 221.567 356.092 221.533 356.161C221.469 356.344 221.469 356.543 221.533 356.726C221.768 357.214 222.064 357.67 222.412 358.084C222.991 358.913 223.569 359.718 224.135 360.51C224.73 361.239 225.197 362.064 225.517 362.949Z" fill="#263238"/>
<path d="M226.284 363.502C226.184 363.502 226.196 362.433 227.202 361.151C227.889 360.289 228.841 359.676 229.911 359.408C230.981 359.14 232.11 359.231 233.123 359.668C233.232 359.747 233.323 359.851 233.386 359.971C233.449 360.091 233.484 360.224 233.487 360.359C233.484 360.596 233.414 360.827 233.286 361.025C233.092 361.282 232.864 361.511 232.607 361.704C231.451 362.636 230.082 363.267 228.622 363.539C227.804 363.795 226.927 363.795 226.108 363.539C226.108 363.389 227.064 363.401 228.484 362.986C229.788 362.612 230.999 361.969 232.041 361.101C232.23 360.96 232.399 360.795 232.544 360.61C232.62 360.422 232.544 360.472 232.544 360.422C232.355 360.327 232.151 360.268 231.941 360.246C231.691 360.206 231.439 360.185 231.187 360.183C230.701 360.171 230.217 360.239 229.754 360.384C228.958 360.617 228.235 361.049 227.654 361.641C226.661 362.597 226.422 363.552 226.284 363.502Z" fill="#263238"/>
<g opacity="0.6">
<path d="M206.548 364.457C206.58 364.933 206.47 365.407 206.231 365.82C205.993 366.232 205.637 366.564 205.208 366.774C204.78 366.984 204.3 367.061 203.827 366.996C203.355 366.932 202.913 366.728 202.557 366.411C202.201 366.094 201.947 365.678 201.828 365.217C201.709 364.755 201.73 364.269 201.888 363.819C202.047 363.37 202.336 362.978 202.718 362.693C203.1 362.408 203.558 362.243 204.034 362.22C204.663 362.188 205.279 362.406 205.749 362.824C206.219 363.243 206.506 363.829 206.548 364.457Z" fill="white"/>
</g>
<path d="M313.335 20.5156C314.2 16.3628 315.692 12.3658 317.76 8.66164C319.867 4.93413 323.279 2.11785 327.338 0.7548C331.557 -0.349167 336.001 -0.240238 340.16 1.06906C343.103 2.07339 345.786 3.71768 348.017 5.88356C351.788 9.13932 353.711 14.2178 355.295 18.9317" fill="#5254CF"/>
<path d="M357.96 19.2586C357.226 14.6885 354.77 10.5728 351.097 7.75657C347.362 5.14099 342.956 3.64919 338.4 3.45745C331.348 2.91692 323.102 4.84021 318.288 9.99412C313.473 15.148 310.632 22.1624 311.236 28.4476C311.5 31.276 314.24 38.9314 316.415 40.7793L356.816 39.7359C359.23 35.8893 358.689 23.7714 357.96 19.2586Z" fill="#5254CF"/>
<path d="M357.256 27.7185C356.82 22.1238 354.291 16.8989 350.175 13.0852C346.058 9.27145 340.656 7.14892 335.044 7.14061H333.888C321.418 7.84456 315.032 18.8186 316.1 31.2634L318.288 88.7609H346.86L346.609 70.0434C346.609 70.0434 358.601 68.2081 358.765 56.2158C358.84 50.4334 358.036 38.504 357.256 27.7185Z" fill="#FFBE9D"/>
<path d="M346.697 70.0308C341.133 70.0203 335.689 68.4149 331.009 65.4049C331.009 65.4049 334.68 74.0282 346.634 72.9472L346.697 70.0308Z" fill="#EB996E"/>
<path d="M352.53 37.1464C352.53 37.5925 352.357 38.0212 352.048 38.3424C351.738 38.6637 351.316 38.8523 350.87 38.8685C350.653 38.8856 350.434 38.8589 350.227 38.7899C350.019 38.721 349.828 38.6112 349.664 38.467C349.5 38.3229 349.366 38.1474 349.271 37.9508C349.176 37.7541 349.122 37.5405 349.11 37.3224C349.11 36.8763 349.283 36.4475 349.592 36.1263C349.902 35.8051 350.324 35.6165 350.77 35.6002C350.988 35.5831 351.206 35.6099 351.414 35.6788C351.621 35.7478 351.812 35.8576 351.976 36.0017C352.14 36.1459 352.274 36.3214 352.369 36.518C352.464 36.7146 352.519 36.9283 352.53 37.1464Z" fill="#263238"/>
<path d="M354.604 33.5764C354.39 33.8026 353.095 32.8347 351.26 32.8347C349.425 32.8347 348.067 33.7524 347.866 33.5261C347.665 33.2998 347.979 33.0358 348.57 32.6084C349.368 32.0565 350.315 31.7625 351.285 31.7662C352.243 31.7678 353.175 32.0713 353.95 32.6336C354.516 33.0736 354.742 33.4758 354.604 33.5764Z" fill="#263238"/>
<path d="M334.818 38.0138C334.821 38.4587 334.651 38.8874 334.344 39.209C334.036 39.5305 333.616 39.7196 333.171 39.7359C332.954 39.7513 332.736 39.7233 332.529 39.6537C332.323 39.5841 332.132 39.4742 331.968 39.3304C331.805 39.1865 331.671 39.0117 331.575 38.8159C331.48 38.6201 331.424 38.4073 331.411 38.1897C331.404 37.7427 331.573 37.3107 331.881 36.9864C332.189 36.6622 332.611 36.4714 333.058 36.455C333.276 36.4397 333.496 36.4681 333.703 36.5384C333.91 36.6088 334.101 36.7198 334.265 36.865C334.429 37.0101 334.562 37.1865 334.657 37.3837C334.752 37.581 334.807 37.7951 334.818 38.0138Z" fill="#263238"/>
<path d="M336.477 34.494C336.276 34.7203 334.969 33.7524 333.133 33.7649C331.298 33.7775 329.94 34.6826 329.739 34.4563C329.538 34.23 329.865 33.9535 330.456 33.5261C331.251 32.971 332.201 32.6807 333.171 32.6964C334.128 32.6909 335.061 32.9903 335.836 33.5512C336.389 33.9912 336.59 34.3934 336.477 34.494Z" fill="#263238"/>
<path d="M343.165 47.5548C344.136 47.2524 345.141 47.0708 346.156 47.0142C346.622 47.0142 347.061 46.876 347.149 46.5617C347.19 46.0754 347.08 45.5885 346.835 45.1664L345.452 41.5838C343.529 36.4802 342.146 32.2816 342.348 32.2062C342.549 32.1308 344.283 36.2036 346.194 41.3072C346.659 42.5643 347.099 43.8213 347.527 44.9149C347.82 45.4841 347.904 46.1379 347.765 46.7628C347.697 46.9287 347.591 47.0763 347.456 47.1941C347.321 47.3119 347.16 47.3967 346.986 47.4416C346.729 47.5172 346.462 47.5553 346.194 47.5548C345.188 47.6828 344.17 47.6828 343.165 47.5548Z" fill="#263238"/>
<path d="M337.734 48.8118C338.036 48.8118 338.036 50.798 339.745 52.2184C341.455 53.6389 343.579 53.4755 343.592 53.7017C343.605 53.928 343.127 54.0914 342.222 54.1166C341.05 54.1259 339.912 53.7258 339.004 52.9852C338.134 52.2735 337.579 51.2488 337.458 50.1317C337.382 49.3021 337.596 48.7992 337.734 48.8118Z" fill="#263238"/>
<path d="M337.433 30.3206C337.257 30.8234 335.409 30.6097 333.259 30.8989C331.11 31.188 329.362 31.7788 329.061 31.3388C328.935 31.1251 329.237 30.6474 329.928 30.1572C330.862 29.5542 331.922 29.1717 333.026 29.0389C334.13 28.906 335.25 29.0262 336.301 29.3904C337.143 29.6921 337.508 30.0818 337.433 30.3206Z" fill="#263238"/>
<path d="M355.056 28.259C354.704 28.7116 353.108 28.435 351.285 28.5985C349.462 28.7619 347.891 29.227 347.514 28.8373C347.338 28.6362 347.514 28.1962 348.193 27.7311C349.095 27.1426 350.135 26.8002 351.21 26.738C352.277 26.6319 353.354 26.8143 354.327 27.266C354.943 27.6305 355.207 28.0328 355.056 28.259Z" fill="#263238"/>
<path d="M317.823 40.1382C317.621 40.0502 309.601 37.6869 309.84 45.8829C310.079 54.0788 318.263 52.1681 318.275 51.9042C318.288 51.6402 317.823 40.1382 317.823 40.1382Z" fill="#FFBE9D"/>
<path d="M316.402 48.8747C316.402 48.8747 316.251 48.9752 316.012 49.1009C315.674 49.2393 315.295 49.2393 314.956 49.1009C314.417 48.782 313.971 48.3252 313.667 47.7773C313.362 47.2294 313.208 46.6103 313.222 45.9835C313.181 45.2796 313.297 44.5756 313.561 43.9219C313.631 43.6644 313.762 43.4279 313.944 43.2329C314.126 43.0379 314.353 42.8903 314.605 42.8031C314.767 42.755 314.941 42.765 315.098 42.8316C315.254 42.8981 315.381 43.017 315.459 43.1677C315.572 43.3939 315.522 43.5574 315.572 43.5699C315.623 43.5825 315.736 43.4316 315.66 43.0922C315.611 42.8928 315.496 42.7157 315.334 42.5894C315.101 42.4225 314.812 42.3547 314.529 42.4009C314.195 42.4784 313.887 42.6406 313.634 42.8717C313.38 43.1029 313.191 43.3953 313.083 43.7208C312.751 44.4353 312.604 45.2222 312.656 46.0086C312.635 46.7404 312.831 47.462 313.221 48.0819C313.61 48.7018 314.175 49.1921 314.843 49.4906C315.058 49.5445 315.283 49.5499 315.5 49.5064C315.718 49.4629 315.923 49.3717 316.1 49.2392C316.39 49.0758 316.427 48.8872 316.402 48.8747Z" fill="#EB996E"/>
<path d="M323.203 15.7765L327.25 12.282L340.123 14.2555L349.173 11.93L351.549 14.5321C350.531 15.9023 352.693 10.057 350.632 8.49823C346.194 5.12933 342.448 5.25504 336.804 5.15448C331.16 5.05392 319.897 11.842 315.862 15.6886C312.631 18.7683 312.656 21.4207 312.656 21.4207C312.141 25.8581 314.617 30.8863 315.598 35.2483C316.113 37.4858 317.093 44.2739 317.093 44.2739C318.979 44.2739 319.608 42.778 319.394 40.9175L319.042 33.6141C320.93 32.1263 322.281 30.0627 322.889 27.7371C323.497 25.4114 323.329 22.9509 322.411 20.7293C321.983 20.0757 320.94 17.0336 323.203 15.7765Z" fill="#263238"/>
<path d="M321.531 17.7375C321.968 16.5882 322.755 15.6055 323.782 14.9287C324.808 14.2518 326.022 13.9152 327.25 13.9664C329.713 14.1269 332.03 15.1872 333.762 16.9456C334.202 17.4196 334.696 17.8413 335.233 18.2027C335.502 18.3691 335.809 18.4654 336.125 18.483C336.441 18.5006 336.757 18.4388 337.043 18.3032C337.219 18.2152 337.395 18.077 337.583 18.1272C337.714 18.1805 337.821 18.2786 337.885 18.4038C338.351 19.1576 339.005 19.7771 339.783 20.2014C340.175 20.4027 340.62 20.4758 341.055 20.4104C341.49 20.345 341.894 20.1443 342.209 19.8368C342.659 20.2498 343.22 20.5226 343.823 20.6219C344.426 20.7211 345.044 20.6426 345.603 20.3959C346.162 20.1492 346.637 19.7449 346.969 19.2326C347.302 18.7203 347.478 18.1221 347.476 17.5113C348.029 17.6257 348.603 17.58 349.131 17.3796C349.658 17.1792 350.118 16.8324 350.456 16.3799C351.051 15.705 351.49 14.9063 351.74 14.0413C351.99 13.1764 352.044 12.2668 351.9 11.3781C351.756 10.4894 351.416 9.64388 350.905 8.90241C350.395 8.16094 349.726 7.54203 348.947 7.09033C347.711 6.46264 346.368 6.07451 344.987 5.94642C342.838 5.6452 340.671 5.48146 338.501 5.45617C337.546 5.4036 336.588 5.51846 335.673 5.79557C334.416 6.2481 333.385 7.26632 332.077 7.42974C331.221 7.46857 330.365 7.33168 329.563 7.02748C328.404 6.62776 327.181 6.44869 325.956 6.49952C323.555 6.71322 321.569 8.43538 319.985 10.2707C318.789 11.4817 317.923 12.9792 317.471 14.6201C317.26 15.4439 317.3 16.3117 317.584 17.1131C317.868 17.9144 318.385 18.6131 319.067 19.1203C319.343 19.3099 319.66 19.4314 319.992 19.4751C320.324 19.5188 320.662 19.4834 320.978 19.3717C321.131 19.3084 321.27 19.2155 321.386 19.0984C321.503 18.9813 321.596 18.8423 321.659 18.6893C321.722 18.5363 321.754 18.3724 321.754 18.2069C321.754 18.0414 321.72 17.8776 321.657 17.725" fill="#263238"/>
<path d="M315.862 36.4927C314.982 30.2075 316.038 22.6652 320.601 17.2976C325.164 11.93 333.234 8.64907 338.576 9.66728C342.737 10.4592 351.788 10.7861 355.094 19.4974L354.629 12.3071C354.629 12.3071 350.606 4.13626 338.727 4.38767C326.848 4.63908 321.669 6.02184 315.924 13.011C314.009 15.141 312.696 17.7426 312.119 20.5484C311.542 23.3542 311.723 26.2629 312.644 28.9756C313.473 31.5786 314.551 34.0959 315.862 36.4927Z" fill="#5254CF"/>
<path d="M348.583 6.16012C348.431 6.12599 348.283 6.07542 348.143 6.00928C347.866 5.90871 347.464 5.73272 346.886 5.55674C345.372 5.01076 343.817 4.59032 342.234 4.29969C339.893 3.90869 337.516 3.76962 335.145 3.88486C332.243 4.02043 329.378 4.59252 326.647 5.58187C323.919 6.61778 321.373 8.08173 319.105 9.91869C318.122 10.7198 317.217 11.6121 316.402 12.5836C316 13.0236 315.673 13.4887 315.334 13.9287C314.994 14.3687 314.705 14.8086 314.454 15.2486C313.614 16.6154 312.907 18.0592 312.342 19.5603C312.128 20.0757 312.002 20.503 311.902 20.8173C311.861 20.9664 311.802 21.11 311.726 21.2447L311.839 20.8047C311.94 20.5156 312.04 20.0882 312.241 19.5477C312.766 18.0227 313.449 16.5566 314.278 15.1732C314.529 14.7332 314.843 14.2932 315.145 13.8281C315.447 13.363 315.811 12.8979 316.214 12.4454C317.04 11.4644 317.953 10.5599 318.941 9.74271C321.202 7.87904 323.749 6.39329 326.484 5.34303C329.241 4.3408 332.137 3.77256 335.069 3.65859C337.46 3.54221 339.856 3.7025 342.209 4.13626C343.793 4.41955 345.349 4.84015 346.86 5.39331C347.401 5.59444 347.791 5.79557 348.117 5.90871L348.583 6.16012Z" fill="#263238"/>
<path d="M316.653 25.9712C316.524 25.9365 316.401 25.8814 316.289 25.8078C315.975 25.6139 315.676 25.3953 315.396 25.1542C314.469 24.3497 313.759 23.3244 313.333 22.1731C312.907 21.0218 312.778 19.7816 312.958 18.5672C313.014 18.204 313.103 17.8465 313.222 17.4987C313.31 17.2473 313.373 17.1216 313.385 17.1342C313.398 17.1467 313.247 17.6873 313.159 18.5923C313.047 19.7713 313.197 20.9603 313.599 22.0744C314.016 23.1834 314.678 24.1844 315.535 25.0033C316.188 25.6318 316.679 25.9335 316.653 25.9712Z" fill="#263238"/>
<path d="M320.123 18.7809C319.731 18.6096 319.379 18.3568 319.092 18.0392C318.345 17.3094 317.781 16.4135 317.445 15.4246C317.098 14.4366 317.015 13.3746 317.207 12.3448C317.253 11.9009 317.395 11.4722 317.621 11.0877C317.621 11.0877 317.508 11.5654 317.395 12.3448C317.279 13.3406 317.387 14.3497 317.709 15.2989C318.041 16.2311 318.559 17.0864 319.23 17.813C319.746 18.4666 320.148 18.7432 320.123 18.7809Z" fill="#263238"/>
<path d="M325.742 13.539C325.419 13.3909 325.126 13.1866 324.875 12.9356C324.229 12.362 323.692 11.6763 323.291 10.9118C322.896 10.1293 322.669 9.27298 322.624 8.39766C322.578 8.04343 322.608 7.68347 322.712 7.34174C322.776 8.51886 323.057 9.674 323.542 10.7483C324.143 11.7757 324.883 12.7148 325.742 13.539Z" fill="#263238"/>
<path d="M331.16 4.26196C331.382 4.48982 331.557 4.75886 331.675 5.05391C332.026 5.72485 332.3 6.43329 332.492 7.16576C332.68 7.9023 332.789 8.65647 332.819 9.41588C332.848 9.73214 332.822 10.051 332.744 10.3587C332.656 10.3587 332.656 8.92562 332.216 7.24118C331.776 5.55673 331.084 4.29968 331.16 4.26196Z" fill="#263238"/>
<path d="M341.593 4.06084C341.789 4.30949 341.93 4.59641 342.008 4.90306C342.244 5.62847 342.342 6.39167 342.297 7.15318C342.259 7.91419 342.075 8.66085 341.757 9.35302C341.647 9.65254 341.471 9.92329 341.241 10.145C341.655 9.18987 341.918 8.17636 342.021 7.14061C342.033 6.09841 341.889 5.06024 341.593 4.06084Z" fill="#263238"/>
<path d="M348.293 5.94642C348.531 6.19335 348.719 6.48353 348.847 6.80121C349.193 7.56019 349.386 8.38066 349.412 9.21474C349.437 10.0453 349.287 10.8719 348.972 11.6409C348.868 11.9697 348.696 12.2735 348.469 12.5334C348.882 11.4745 349.103 10.3509 349.123 9.21474C349.044 8.08451 348.763 6.9776 348.293 5.94642Z" fill="#263238"/>
<path d="M354.742 11.5906C354.85 11.8443 354.897 12.1198 354.88 12.3951C354.928 13.7393 354.481 15.0543 353.623 16.0908C353.284 16.4805 353.02 16.6565 353.007 16.6313C353.551 15.9016 354.002 15.1079 354.352 14.2681C354.595 13.3956 354.725 12.4959 354.742 11.5906Z" fill="#263238"/>
<path d="M357.998 18.6175C357.997 19.3168 357.767 19.9966 357.344 20.5533C357.004 21.1607 356.468 21.6349 355.823 21.8984C356.273 21.4222 356.693 20.9184 357.08 20.3899C357.721 19.5477 357.91 18.6049 357.998 18.6175Z" fill="#263238"/>
<path d="M358.438 26.5243C358.501 26.5243 358.438 27.0146 357.998 27.3917C357.558 27.7688 357.093 27.8065 357.093 27.7311C357.093 27.6557 357.457 27.5048 357.809 27.178C358.161 26.8512 358.35 26.4992 358.438 26.5243Z" fill="#263238"/>
<path d="M315.774 33.0484C314.84 32.9182 313.948 32.5735 313.17 32.0414C312.391 31.5093 311.746 30.8041 311.286 29.9812C312.495 31.3704 314.04 32.4264 315.774 33.0484Z" fill="#263238"/>
<path d="M316.465 37.0081C316.465 37.071 316.063 37.4858 315.334 37.5235C314.604 37.5612 314.077 37.2093 314.152 37.1464C314.227 37.0835 314.68 37.2847 315.321 37.2344C315.962 37.1841 316.427 36.9453 316.465 37.0081Z" fill="#263238"/>
<g opacity="0.3">
<path d="M347.602 5.88356C345.033 4.19786 342.151 3.04549 339.128 2.49485C336.105 1.94421 333.002 2.00652 330.003 2.67809C326.979 3.45069 324.138 4.8164 321.645 6.69595C319.153 8.5755 317.059 10.9314 315.484 13.627C315.484 13.627 322.888 4.26197 333.498 3.93514C344.107 3.6083 347.602 5.88356 347.602 5.88356Z" fill="black"/>
</g>
<path d="M339.406 37.4481C339.357 36.9534 339.277 36.4622 339.167 35.9773C338.815 34.6614 338.032 33.5016 336.942 32.6839C336.202 32.124 335.341 31.7451 334.428 31.5777C333.376 31.3861 332.291 31.4772 331.286 31.8416C330.178 32.2493 329.216 32.9753 328.52 33.9283C327.769 34.9508 327.365 36.186 327.365 37.4544C327.365 38.7227 327.769 39.958 328.52 40.9804C329.216 41.9335 330.178 42.6595 331.286 43.0671C332.226 43.4089 333.237 43.5108 334.227 43.3638C335.217 43.2167 336.154 42.8253 336.955 42.2249C338.042 41.4051 338.825 40.2461 339.18 38.9314C339.292 38.4427 339.371 37.9472 339.419 37.4481C339.454 37.9551 339.407 38.4645 339.28 38.9565C338.965 40.3202 338.188 41.5328 337.081 42.3883C336.311 42.974 335.416 43.3741 334.466 43.5574C333.374 43.7722 332.244 43.6853 331.198 43.3059C330.629 43.1085 330.095 42.8244 329.614 42.4637C329.112 42.1147 328.667 41.6908 328.294 41.2067C327.503 40.1392 327.076 38.8458 327.076 37.5172C327.076 36.1887 327.503 34.8953 328.294 33.8278C328.662 33.3213 329.107 32.8759 329.614 32.5079C330.095 32.1471 330.629 31.863 331.198 31.6657C332.176 31.3077 333.229 31.2041 334.258 31.3646C335.287 31.5252 336.258 31.9445 337.081 32.5833C338.188 33.4388 338.965 34.6514 339.28 36.0151C339.396 36.4833 339.439 36.9668 339.406 37.4481Z" fill="#455A64"/>
<path d="M357.658 36.7316C357.658 36.7316 357.658 36.191 357.407 35.2608C357.055 33.9449 356.272 32.7851 355.182 31.9674C354.443 31.405 353.582 31.0259 352.668 30.8611C351.616 30.6696 350.531 30.7607 349.525 31.1251C348.985 31.3223 348.477 31.5976 348.017 31.9422C347.27 32.4992 346.664 33.2228 346.247 34.0554C345.829 34.8879 345.612 35.8065 345.612 36.7379C345.612 37.6693 345.829 38.5878 346.247 39.4203C346.664 40.2529 347.27 40.9765 348.017 41.5335C348.477 41.8781 348.985 42.1534 349.525 42.3506C350.466 42.6924 351.477 42.7943 352.467 42.6473C353.456 42.5002 354.394 42.1088 355.195 41.5084C356.282 40.6886 357.065 39.5296 357.42 38.2149C357.658 37.2847 357.621 36.7316 357.671 36.7316C357.698 37.2384 357.652 37.7465 357.533 38.24C357.207 39.6022 356.427 40.8127 355.32 41.6718C354.55 42.2575 353.656 42.6576 352.706 42.8408C351.614 43.0557 350.484 42.9688 349.437 42.5894C348.87 42.3893 348.336 42.1055 347.853 41.7472C347.193 41.2647 346.635 40.6563 346.21 39.957C345.786 39.2577 345.505 38.4813 345.382 37.6727C345.259 36.864 345.298 36.0391 345.496 35.2454C345.693 34.4518 346.046 33.7051 346.534 33.0484C347.265 32.0548 348.276 31.3019 349.437 30.8863C350.415 30.5283 351.468 30.4248 352.497 30.5853C353.526 30.7458 354.498 31.1651 355.32 31.8039C356.427 32.663 357.207 33.8735 357.533 35.2357C357.647 35.7255 357.69 36.2295 357.658 36.7316Z" fill="#455A64"/>
<path d="M345.654 34.406C345.654 34.406 345.302 34.1672 344.698 33.8781C343.909 33.4799 343.028 33.2969 342.145 33.3477C341.263 33.3984 340.409 33.6811 339.67 34.1672C339.092 34.5317 338.803 34.846 338.778 34.8083C338.967 34.48 339.235 34.2036 339.557 34.0038C340.287 33.4563 341.16 33.1331 342.071 33.0735C342.993 33.0242 343.91 33.2425 344.711 33.7021C345.076 33.8588 345.399 34.1001 345.654 34.406Z" fill="#455A64"/>
<path d="M327.615 36.3167C327.615 36.3922 325.189 37.2218 322.134 38.1772C319.08 39.1325 316.591 39.8239 316.578 39.7611C316.565 39.6982 319.004 38.856 322.046 37.9006C325.088 36.9453 327.59 36.2413 327.615 36.3167Z" fill="#455A64"/>
<path d="M333.083 42.514C332.721 42.5419 332.358 42.4948 332.015 42.3757C331.177 42.1367 330.407 41.7064 329.765 41.1187C329.119 40.5193 328.62 39.7795 328.306 38.9565C328.16 38.6242 328.087 38.2639 328.093 37.9006C328.245 38.2197 328.379 38.5471 328.495 38.8811C329.221 40.4129 330.522 41.5963 332.115 42.1746C332.444 42.2705 332.767 42.3838 333.083 42.514Z" fill="white"/>
<path d="M348.042 40.5153C348.042 40.5153 347.652 40.4399 347.225 39.9748C346.706 39.3611 346.363 38.6182 346.232 37.8252C346.07 37.0416 346.07 36.233 346.232 35.4494C346.28 35.1224 346.414 34.8142 346.622 34.5569C346.622 34.5569 346.521 34.9088 346.42 35.4997C346.302 36.2535 346.302 37.0211 346.42 37.7749C346.549 38.5229 346.846 39.232 347.288 39.849C347.522 40.0899 347.774 40.3126 348.042 40.5153Z" fill="white"/>
<path d="M339.205 49.2392C339.205 49.1763 339.381 48.8621 339.733 48.5227C340.085 48.1833 340.387 47.9444 340.449 48.0073C340.512 48.0701 340.273 48.3844 339.921 48.7238C339.569 49.0632 339.268 49.2895 339.205 49.2392Z" fill="#263238"/>
<path d="M340.085 49.7797C340.085 49.7797 340.261 49.3398 340.6 48.9124C340.94 48.485 341.267 48.1581 341.317 48.2084C341.367 48.2587 341.153 48.6484 340.814 49.0758C340.475 49.5032 340.148 49.83 340.085 49.7797Z" fill="#263238"/>
<path d="M340.99 50.446C340.915 50.446 341.065 50.006 341.304 49.5409C341.543 49.0758 341.807 48.7364 341.882 48.7615C341.958 48.7867 341.807 49.2141 341.556 49.6792C341.304 50.1443 341.053 50.4837 340.99 50.446Z" fill="#263238"/>
<path d="M342.36 50.4585C342.285 50.4585 342.247 50.1694 342.272 49.83C342.297 49.4906 342.385 49.2141 342.461 49.2141C342.536 49.2141 342.574 49.5032 342.549 49.8426C342.524 50.182 342.448 50.4585 342.36 50.4585Z" fill="#263238"/>
<path d="M343.68 50.6722C343.592 50.6722 343.529 50.4209 343.529 50.1192C343.529 49.8175 343.592 49.5535 343.68 49.5535C343.768 49.5535 343.818 49.8049 343.818 50.1192C343.818 50.4334 343.755 50.6722 343.68 50.6722Z" fill="#263238"/>
<path d="M344.912 50.7854C344.837 50.7854 344.698 50.4963 344.598 50.094C344.497 49.6918 344.497 49.3398 344.598 49.3272C344.698 49.3146 344.811 49.6289 344.899 50.0312C344.987 50.4334 344.987 50.7728 344.912 50.7854Z" fill="#263238"/>
<path d="M316.578 52.231C316.636 52.7253 316.506 53.2233 316.214 53.6263C316.071 53.8651 315.877 54.0698 315.647 54.2261C315.417 54.3825 315.156 54.4866 314.881 54.5314C314.541 54.5763 314.195 54.5274 313.88 54.39C313.566 54.2527 313.294 54.0321 313.096 53.752C312.901 53.4783 312.762 53.1682 312.689 52.84C312.615 52.5118 312.608 52.1722 312.669 51.8413C312.797 51.3013 313.125 50.8299 313.586 50.5214C313.782 50.3692 314.007 50.2602 314.247 50.2017C314.488 50.1432 314.738 50.1365 314.982 50.182C314.531 50.2578 314.103 50.4293 313.725 50.6848C313.321 50.9954 313.044 51.4422 312.945 51.9419C312.858 52.5381 313.002 53.1452 313.347 53.6389C313.52 53.878 313.753 54.067 314.022 54.1863C314.292 54.3056 314.588 54.351 314.881 54.3177C315.121 54.2842 315.35 54.1995 315.554 54.0693C315.758 53.9392 315.931 53.7667 316.063 53.5635C316.318 53.1562 316.493 52.7039 316.578 52.231Z" fill="#263238"/>
<path d="M299.646 237.017C301.167 237.017 363.969 302.384 363.969 306.922C363.969 311.46 373.296 357.506 377.796 364.595C382.297 371.685 384.999 370.026 384.999 370.026L405.879 360.296C405.879 360.296 394.314 288.644 391.775 280.587C389.236 272.529 341.342 209.161 341.342 209.161L296.088 217.772L299.646 237.017Z" fill="#263238"/>
<path d="M276.453 204.334L263.405 284.911C263.405 284.911 222.588 325.778 220.049 330.328C220.049 330.328 215.499 328.807 213.978 332.842C212.764 336.639 211.819 340.516 211.149 344.445L231.413 361.465C231.413 361.465 284.951 317.079 290.017 310.492C295.083 303.905 316.302 260.474 320.362 249.336C324.422 238.199 329.161 213.498 329.161 213.498L276.453 204.334Z" fill="#263238"/>
<path d="M374.49 292.327C374.314 293.206 374.009 294.053 373.585 294.842C372.688 296.806 371.61 298.682 370.367 300.448C369.139 302.233 367.723 303.881 366.144 305.363C365.521 306.019 364.784 306.556 363.969 306.947C364.543 306.271 365.161 305.633 365.817 305.036C367.273 303.459 368.613 301.779 369.827 300.008C372.718 295.985 374.302 292.214 374.49 292.327Z" fill="#455A64"/>
<path d="M270.721 290.492C269.117 290.382 267.6 289.725 266.422 288.632C265.122 287.712 264.167 286.385 263.707 284.861C264.682 286.025 265.727 287.129 266.837 288.167C268.082 289.021 269.379 289.798 270.721 290.492Z" fill="#455A64"/>
<path d="M228.597 340.85C226.55 339.807 224.783 338.289 223.442 336.424C222.102 334.559 221.227 332.399 220.891 330.127C221.741 332.186 222.776 334.164 223.984 336.035C225.363 337.785 226.908 339.397 228.597 340.85Z" fill="#455A64"/>
<path d="M293.297 216.251C293.256 216.564 293.167 216.869 293.033 217.156C292.738 217.959 292.385 218.741 291.978 219.494C289.27 224.534 284.981 228.544 279.772 230.908C278.994 231.267 278.192 231.57 277.371 231.813C277.079 231.935 276.769 232.003 276.453 232.014C276.453 231.901 277.71 231.461 279.571 230.493C282.04 229.223 284.324 227.62 286.359 225.729C288.382 223.822 290.137 221.648 291.575 219.268C292.669 217.432 293.147 216.201 293.297 216.251Z" fill="#455A64"/>
<path d="M325.302 236.841C325.118 237.545 324.882 238.234 324.598 238.903C324.045 240.311 323.341 242.171 322.448 244.434C320.588 249.072 317.973 255.483 314.843 262.46C311.713 269.437 308.659 275.659 306.421 280.134L303.731 285.414C303.424 286.073 303.067 286.708 302.663 287.312C302.893 286.622 303.175 285.949 303.505 285.301L306.019 279.933C308.156 275.395 311.135 269.16 314.253 262.196C317.37 255.232 320.06 248.859 322.021 244.245C322.989 242.033 323.781 240.198 324.372 238.802C324.632 238.126 324.943 237.47 325.302 236.841Z" fill="#455A64"/>
<path d="M314.29 73.4751C314.29 73.4751 300.463 79.0439 297.257 88.7609C295.623 93.6759 286.095 129.615 286.095 129.615C286.095 129.615 273.524 198.627 275.259 205.201L347.2 216.251C348.981 214.092 349.88 211.339 349.714 208.545L348.545 187.867L349.387 99.2321C349.398 98.5715 349.352 97.9112 349.249 97.2585L346.735 80.9169L347.539 73.8648L315.296 65.342L314.29 73.4751Z" fill="#5254CF"/>
<path d="M312.354 67.919C312.441 67.3685 312.643 66.8425 312.946 66.3748C313.249 65.9071 313.647 65.5081 314.113 65.2037C314.58 64.8992 315.105 64.6961 315.656 64.6073C316.206 64.5185 316.768 64.5462 317.307 64.6884L346.785 72.4695C347.672 72.7048 348.451 73.238 348.991 73.9796C349.531 74.7212 349.8 75.6261 349.752 76.5423L349.676 77.7994C349.64 78.4022 349.468 78.989 349.172 79.5154C348.876 80.0417 348.464 80.4939 347.967 80.8378C347.471 81.1817 346.903 81.4082 346.306 81.5003C345.709 81.5924 345.099 81.5476 344.522 81.3694L315.12 72.3438C314.202 72.0644 313.417 71.4624 312.909 70.6491C312.4 69.8358 312.204 68.8661 312.354 67.919Z" fill="#5254CF"/>
<path d="M347.2 81.0174C346.68 80.9724 346.166 80.8756 345.666 80.7283L341.581 79.6975C338.124 78.7925 333.372 77.5103 328.143 76.0521L321.129 74.0659C320.248 73.9285 319.378 73.7268 318.527 73.4626C318.121 73.3341 317.73 73.1656 317.357 72.9598C317.156 72.857 316.973 72.721 316.817 72.5575C316.682 72.3893 316.564 72.2082 316.465 72.017C316.163 71.3255 316.067 70.5617 316.188 69.8171C316.272 69.1989 316.436 68.5944 316.679 68.0195C317.006 67.2121 317.465 66.4645 318.036 65.8071C318.451 65.3672 318.728 65.1912 318.74 65.2163C318.007 66.0947 317.425 67.0887 317.018 68.1578C316.533 69.3139 316.497 70.6095 316.917 71.7907C317.194 72.4192 317.923 72.6581 318.702 72.922C319.525 73.1664 320.366 73.3471 321.217 73.4626L328.244 75.3984C333.473 76.8566 338.212 78.2142 341.631 79.1696L345.666 80.4266C346.195 80.5739 346.709 80.7718 347.2 81.0174Z" fill="#263238"/>
<path d="M347.489 86.0456C347.558 86.2573 347.601 86.4769 347.615 86.6993C347.677 87.2021 347.753 87.8181 347.841 88.5723C348.017 90.2065 348.243 92.5697 348.457 95.4987C348.922 101.357 349.387 109.452 349.651 118.402C349.915 127.352 349.89 135.473 349.651 141.343C349.563 144.272 349.437 146.648 349.324 148.282C349.261 149.049 349.198 149.665 349.161 150.168C349.161 150.39 349.127 150.61 349.06 150.821C349.033 150.604 349.033 150.385 349.06 150.168C349.06 149.652 349.06 149.036 349.06 148.27C349.06 146.635 349.161 144.26 349.186 141.331C349.274 135.473 349.186 127.365 348.96 118.415C348.733 109.464 348.306 101.382 347.967 95.5364C347.791 92.6703 347.652 90.3322 347.539 88.5974C347.539 87.8432 347.476 87.2147 347.451 86.7119C347.439 86.4891 347.451 86.2656 347.489 86.0456Z" fill="#263238"/>
<path d="M326.572 67.5796C326.086 68.7617 325.695 69.9807 325.403 71.225C325.312 72.4804 325.312 73.7408 325.403 74.9962C325.033 74.4212 324.784 73.7769 324.672 73.1025C324.559 72.4282 324.585 71.738 324.749 71.0742C324.806 70.3999 324.996 69.7438 325.309 69.1438C325.622 68.5439 326.051 68.0122 326.572 67.5796Z" fill="#263238"/>
<path d="M334.944 69.5029C335.006 69.5029 335.308 69.8548 335.559 70.5839C335.865 71.5558 335.921 72.5887 335.724 73.5881C335.526 74.5874 335.08 75.5211 334.428 76.3035C333.925 76.8817 333.498 77.1206 333.448 77.0577C334.178 75.9529 334.73 74.7396 335.082 73.4626C335.235 72.1432 335.188 70.8083 334.944 69.5029Z" fill="#263238"/>
<path d="M343.102 71.7655C343.165 71.7655 343.504 72.0672 343.806 72.7712C344.198 73.7075 344.32 74.735 344.158 75.7371C343.995 76.7392 343.556 77.6757 342.888 78.4405C342.373 79.0187 341.945 79.2324 341.895 79.1696C342.753 78.1636 343.323 76.9443 343.544 75.6408C343.765 74.3374 343.63 72.9983 343.152 71.7655H343.102Z" fill="#263238"/>
<path d="M338.853 91.7149C336.138 83.695 329.551 76.6932 321.254 75.0464C312.958 73.3997 305.164 75.1596 299.243 82.0608L291.701 98.0882C295.045 96.2277 300.4 85.3543 306.635 81.6585C312.87 77.9628 319.809 77.8874 324.937 83.0287C328.709 86.7999 331.537 92.2806 331.449 97.6608C331.273 108.195 326.886 118.075 323.693 128.132C319.595 141.029 316.352 154.781 306.886 164.473C299.281 172.254 289.099 176.893 279.231 181.355C276.893 183.278 271.488 190.268 274.278 191.412C277.069 192.555 287.213 188.897 290.092 188.005C297.27 185.818 304.724 183.467 310.205 178.313C315.233 173.524 318.024 166.849 320.638 160.388C325.666 147.918 328.96 134.92 334.001 122.437C338.275 111.815 342.524 102.576 338.853 91.7149Z" fill="#455A64"/>
<path d="M327.376 225.93L321.644 216.251L302.461 222.938C302.461 222.938 303.718 239.984 306.233 240.474C306.988 240.605 307.763 240.569 308.504 240.37C309.244 240.17 309.932 239.811 310.519 239.318C310.519 239.318 311.952 243.768 314.818 243.956L316.415 244.032C316.93 244.434 319.846 246.546 322.26 245.766C322.26 245.766 324.472 250.568 326.257 250.065C328.042 249.563 329.199 243.78 329.199 243.78L327.376 225.93Z" fill="#FFBE9D"/>
<path d="M310.054 79.3456C306.78 80.4909 303.859 82.4633 301.572 85.0711C299.286 87.679 297.713 90.8337 297.006 94.229C293.235 112.293 284.234 159.596 284.599 166.258C285.064 174.731 301.217 224.937 301.217 224.937L323.844 218.124L313.574 161.557C313.574 161.557 329.601 108.635 330.858 100.59C332.241 91.8029 324.573 74.3174 310.054 79.3456Z" fill="#5254CF"/>
<path d="M310.054 79.3833C310.627 79.1557 311.215 78.9667 311.814 78.8176C313.558 78.3413 315.385 78.247 317.169 78.541C320.046 79.0758 322.671 80.5318 324.648 82.6893C328.83 87.3537 331.167 93.3828 331.223 99.6469C331.197 100.888 331.041 102.122 330.758 103.33C330.506 104.587 330.192 105.844 329.89 107.101C328.633 112.129 327.074 117.572 325.415 123.33C322.084 134.844 318.212 147.729 313.913 161.645V161.506L324.208 218.074V218.363L323.932 218.451L313.322 221.631L301.255 225.264L300.94 225.352L300.852 225.05C297.496 214.755 294.328 204.699 291.412 194.969C289.966 190.104 288.558 185.327 287.289 180.614C286.66 178.263 286.032 175.937 285.491 173.612C285.202 172.455 284.963 171.286 284.737 170.13C284.526 168.971 284.395 167.799 284.347 166.623C284.41 164.316 284.615 162.015 284.963 159.734C285.277 157.496 285.592 155.297 285.944 153.122C286.623 148.785 287.364 144.599 288.081 140.551C289.526 132.456 290.959 124.951 292.279 118.126L295.912 99.7223C296.342 97.1786 296.913 94.6606 297.622 92.18C298.322 90.1333 299.322 88.2017 300.588 86.4479C302.34 84.0206 304.612 82.015 307.238 80.5775C308.139 80.0618 309.091 79.6405 310.079 79.3204C310.079 79.3204 309.84 79.4461 309.363 79.6472C308.654 79.9413 307.965 80.2815 307.301 80.6655C304.725 82.1306 302.503 84.1431 300.789 86.561C299.556 88.3051 298.582 90.219 297.898 92.2429C297.223 94.7022 296.673 97.1944 296.252 99.7098C295.208 105.128 294.027 111.3 292.707 118.126C291.387 124.951 290.017 132.481 288.596 140.564C287.892 144.612 287.176 148.798 286.497 153.134C286.145 155.297 285.831 157.496 285.529 159.734C285.2 161.983 285.002 164.25 284.938 166.522C285.018 167.671 285.177 168.814 285.416 169.941C285.629 171.098 285.881 172.242 286.17 173.398C286.698 175.711 287.339 178.037 287.968 180.375C289.225 185.076 290.658 189.853 292.103 194.705C295.032 204.422 298.2 214.478 301.556 224.774L301.154 224.56L313.222 220.94L323.831 217.747L323.605 218.124C319.96 198.011 316.503 178.866 313.36 161.557V161.481V161.406C317.672 147.49 321.581 134.631 324.95 123.129C326.622 117.384 328.181 111.979 329.475 106.938C330.183 104.553 330.643 102.101 330.846 99.6218C330.8 93.4465 328.533 87.4939 324.46 82.8527C322.53 80.72 319.965 79.2654 317.144 78.7045C315.382 78.3928 313.574 78.4571 311.839 78.893C311.393 78.9854 310.952 79.1029 310.519 79.245C310.367 79.2995 310.211 79.3457 310.054 79.3833Z" fill="#263238"/>
<path d="M313.85 161.255C310.253 158.667 305.961 157.217 301.531 157.094C303.768 156.724 306.062 156.911 308.21 157.636C310.359 158.362 312.295 159.604 313.85 161.255Z" fill="#263238"/>
<g opacity="0.3">
<path d="M295.749 209.098C285.202 193.461 279.658 171.6 285.692 156.051C284.046 165.365 285.617 173.876 288.395 182.914C291.173 191.952 294.492 200.965 295.032 210.406" fill="black"/>
</g>
<path d="M263.292 431.822L232.067 398.875L206.473 400.321L188.346 407.486L176.844 431.822" fill="#F5F5F5"/>
<path d="M206.473 400.321L232.984 431.822H263.292L232.067 398.875L206.473 400.321Z" fill="#E0E0E0"/>
<path d="M176.844 431.86C176.886 431.699 176.945 431.543 177.02 431.395L177.586 430.075C178.139 428.881 178.843 427.222 179.849 425.122L188.095 407.41V407.31H188.208L206.31 400.094H206.41L218.704 399.39L232.016 398.649H232.167L232.268 398.762L254.517 422.394L260.979 429.359C261.695 430.138 262.236 430.766 262.688 431.244C262.903 431.447 263.093 431.675 263.254 431.923C263.029 431.735 262.814 431.533 262.613 431.32L260.815 429.509L254.216 422.671C248.584 416.788 240.765 408.592 231.803 399.202L232.054 399.302L218.742 400.057L206.448 400.736H206.548L188.409 407.85L188.548 407.712C185.065 414.99 182.162 421.049 180.1 425.311L177.699 430.201L177.058 431.458C177 431.599 176.929 431.733 176.844 431.86Z" fill="#263238"/>
<path d="M35.8033 431.822L47.7202 411.131L69.4546 405.072L89.7811 422.357V431.822" fill="#EBEBEB"/>
<path d="M47.7202 411.131L89.7811 422.357L69.4546 405.072L47.7202 411.131Z" fill="#E0E0E0"/>
<path d="M89.7811 431.86C89.7336 431.646 89.7125 431.426 89.7182 431.206C89.7182 430.729 89.7182 430.113 89.7182 429.359C89.7182 427.649 89.7182 425.311 89.6302 422.394L89.6931 422.545L69.2911 405.349L69.5928 405.412L64.5898 406.719L47.7956 411.37L47.9716 411.232L39.2225 426.153C38.1666 427.913 37.3244 429.321 36.7084 430.352L36.0296 431.458C35.9511 431.586 35.8628 431.708 35.7656 431.822C35.8068 431.677 35.8659 431.538 35.9416 431.408L36.545 430.264L38.9208 425.977L47.4185 410.993V410.88H47.5442L64.3635 406.128L69.3163 404.758H69.4797L69.6054 404.871L89.869 422.244L89.9445 422.306V422.407C89.9445 425.323 89.8691 427.662 89.8439 429.371C89.8439 430.125 89.8439 430.741 89.8439 431.219C89.8486 431.434 89.8275 431.65 89.7811 431.86Z" fill="#263238"/>
<path d="M467.323 394.626L437.154 377.442L384.182 396.738L341.392 431.822L492.766 431.043L467.323 394.626Z" fill="#F5F5F5"/>
<path d="M341.392 431.822L395.672 400.321L467.323 394.626L435.948 376.06L384.182 396.738L341.392 431.822Z" fill="#E0E0E0"/>
<path d="M419.38 431.42L446.494 412.841L471.22 411.081L450.529 415.682L439.819 431.32L419.38 431.42Z" fill="#E0E0E0"/>
<path d="M341.392 431.86C341.392 431.86 341.392 431.785 341.581 431.672L342.159 431.156L344.447 429.22L353.171 421.967L383.994 396.55L421.705 381.214L435.633 375.582L435.784 375.519L435.922 375.607L467.349 394.463L485.727 420.961L490.818 428.378L492.075 430.352C492.229 430.57 492.372 430.797 492.502 431.03C492.502 431.03 492.326 430.829 492.012 430.389L490.617 428.479C489.36 426.756 487.637 424.28 485.4 421.15L466.833 394.752L466.921 394.827L435.495 376.034H435.771L421.856 381.679L384.069 396.952H384.144L353.171 422.193L344.371 429.321L342.172 431.194L341.556 431.672L341.392 431.86Z" fill="#263238"/>
<path d="M472.062 411.018C471.418 411.167 470.762 411.255 470.101 411.282L464.709 411.76L446.507 413.168H446.67L443.691 415.204C437.029 419.767 430.982 423.878 426.582 426.819L421.366 430.226L419.92 431.144C419.593 431.345 419.405 431.445 419.392 431.42C419.528 431.274 419.68 431.143 419.845 431.03L421.215 430.012L426.331 426.392C430.668 423.35 436.677 419.176 443.339 414.613L446.318 412.577H446.394H446.507L464.709 411.395L470.127 411.106C470.769 411.032 471.416 411.002 472.062 411.018Z" fill="#263238"/>
<path d="M609.961 413.759L591.834 406.581L561.615 412.074L546.97 431.76L618.685 431.822L609.961 413.759Z" fill="#F5F5F5"/>
<path d="M561.615 412.074C562.495 411.911 609.961 413.759 609.961 413.759L591.834 406.593L561.615 412.074Z" fill="#E0E0E0"/>
<path d="M546.983 431.76C547.039 431.62 547.115 431.488 547.209 431.37L547.963 430.289L550.88 426.228L561.388 411.898L561.451 411.81H561.564L584.053 407.687L591.784 406.279H591.872H591.96L610.061 413.495H610.162V413.583L616.447 426.782L618.132 430.452L618.559 431.42C618.615 431.532 618.657 431.65 618.685 431.772C618.602 431.678 618.535 431.572 618.484 431.458L617.993 430.515C617.541 429.635 616.925 428.416 616.171 426.907C614.587 423.714 612.4 419.227 609.722 413.821L609.86 413.947L591.721 406.832H591.897L584.166 408.24L561.678 412.275L561.854 412.175C557.454 417.995 553.783 422.872 551.143 426.354L548.101 430.314L547.284 431.345C547.092 431.63 546.991 431.768 546.983 431.76Z" fill="#263238"/>
<path d="M744.553 431.861C744.553 432.037 555.996 432.188 323.341 432.188C90.686 432.188 -97.9218 431.999 -97.9218 431.861C-97.9218 431.723 90.6357 431.534 323.341 431.534C556.046 431.534 744.553 431.635 744.553 431.861Z" fill="#263238"/>
<path d="M227.277 441.804C227.277 441.993 200.263 442.131 166.939 442.131C133.614 442.131 106.6 441.993 106.6 441.804C106.6 441.615 133.602 441.477 166.939 441.477C200.276 441.477 227.277 441.628 227.277 441.804Z" fill="#263238"/>
<path d="M182.526 449.673C182.526 449.849 173.991 450 163.482 450C152.973 450 144.425 449.849 144.425 449.673C144.425 449.497 152.96 449.346 163.482 449.346C174.003 449.346 182.526 449.459 182.526 449.673Z" fill="#263238"/>
</svg>
