<svg width="10" height="14" viewBox="0 0 10 14" fill="none" xmlns="http://www.w3.org/2000/svg">
<path fill-rule="evenodd" clip-rule="evenodd" d="M7.91671 4.95833H8.50004C9.14171 4.95833 9.66671 5.48333 9.66671 6.125V11.9583C9.66671 12.6 9.14171 13.125 8.50004 13.125H1.50004C0.858374 13.125 0.333374 12.6 0.333374 11.9583V6.125C0.333374 5.48333 0.858374 4.95833 1.50004 4.95833H2.08337V3.79167C2.08337 2.18167 3.39004 0.875 5.00004 0.875C6.61004 0.875 7.91671 2.18167 7.91671 3.79167V4.95833ZM5.00004 2.04167C4.03171 2.04167 3.25004 2.82333 3.25004 3.79167V4.95833H6.75004V3.79167C6.75004 2.82333 5.96837 2.04167 5.00004 2.04167ZM1.50004 11.9583V6.125H8.50004V11.9583H1.50004ZM6.16671 9.04167C6.16671 9.68333 5.64171 10.2083 5.00004 10.2083C4.35837 10.2083 3.83337 9.68333 3.83337 9.04167C3.83337 8.4 4.35837 7.875 5.00004 7.875C5.64171 7.875 6.16671 8.4 6.16671 9.04167Z" fill="#7C8DB5"/>
</svg>
