<svg width="102" height="39" viewBox="0 0 102 39" fill="none" xmlns="http://www.w3.org/2000/svg">
<mask id="path-1-outside-1_247_2149" maskUnits="userSpaceOnUse" x="0" y="0" width="24" height="24" fill="black">
<rect fill="white" width="24" height="24"/>
<path fill-rule="evenodd" clip-rule="evenodd" d="M1 11.7213C1 5.8001 5.80011 1 11.7213 1C17.6426 1 22.4427 5.8001 22.4427 11.7213V22.4426H20.2984V11.7213C20.2984 6.98435 16.4583 3.14427 11.7213 3.14427C6.98435 3.14427 3.14426 6.98435 3.14426 11.7213V22.4426H1V11.7213Z"/>
</mask>
<path fill-rule="evenodd" clip-rule="evenodd" d="M1 11.7213C1 5.8001 5.80011 1 11.7213 1C17.6426 1 22.4427 5.8001 22.4427 11.7213V22.4426H20.2984V11.7213C20.2984 6.98435 16.4583 3.14427 11.7213 3.14427C6.98435 3.14427 3.14426 6.98435 3.14426 11.7213V22.4426H1V11.7213Z" fill="#2C2828"/>
<path d="M22.4427 22.4426V23.206H23.206V22.4426H22.4427ZM20.2984 22.4426H19.535V23.206H20.2984V22.4426ZM3.14426 22.4426V23.206H3.90762V22.4426H3.14426ZM1 22.4426H0.236641V23.206H1V22.4426ZM11.7213 0.236641C5.37851 0.236641 0.236641 5.37851 0.236641 11.7213H1.76336C1.76336 6.22169 6.2217 1.76336 11.7213 1.76336V0.236641ZM23.206 11.7213C23.206 5.37851 18.0642 0.236641 11.7213 0.236641V1.76336C17.221 1.76336 21.6793 6.22169 21.6793 11.7213H23.206ZM23.206 22.4426V11.7213H21.6793V22.4426H23.206ZM20.2984 23.206H22.4427V21.6793H20.2984V23.206ZM19.535 11.7213V22.4426H21.0618V11.7213H19.535ZM11.7213 3.90763C16.0367 3.90763 19.535 7.40594 19.535 11.7213H21.0618C21.0618 6.56276 16.8799 2.38091 11.7213 2.38091V3.90763ZM3.90762 11.7213C3.90762 7.40594 7.40594 3.90763 11.7213 3.90763V2.38091C6.56276 2.38091 2.38091 6.56276 2.38091 11.7213H3.90762ZM3.90762 22.4426V11.7213H2.38091V22.4426H3.90762ZM1 23.206H3.14426V21.6793H1V23.206ZM0.236641 11.7213V22.4426H1.76336V11.7213H0.236641Z" fill="#2C2828" mask="url(#path-1-outside-1_247_2149)"/>
<rect x="26.6411" y="0.618321" width="22.206" height="22.206" rx="11.103" fill="#FFA500" stroke="#FFA500" stroke-width="0.763359"/>
<mask id="path-4-outside-2_247_2149" maskUnits="userSpaceOnUse" x="52.0456" y="0" width="24" height="24" fill="black">
<rect fill="white" x="52.0456" width="24" height="24"/>
<path fill-rule="evenodd" clip-rule="evenodd" d="M63.767 1C57.8457 1 53.0456 5.8001 53.0456 11.7213C53.0456 17.6426 57.8457 22.4427 63.767 22.4427C69.6882 22.4427 74.4883 17.6426 74.4883 11.7213C74.4883 5.8001 69.6882 1 63.767 1ZM63.767 3.14427C59.03 3.14427 55.1899 6.98435 55.1899 11.7213C55.1899 16.4583 59.03 20.2984 63.767 20.2984C68.5039 20.2984 72.344 16.4583 72.344 11.7213C72.344 6.98435 68.5039 3.14427 63.767 3.14427Z"/>
</mask>
<path fill-rule="evenodd" clip-rule="evenodd" d="M63.767 1C57.8457 1 53.0456 5.8001 53.0456 11.7213C53.0456 17.6426 57.8457 22.4427 63.767 22.4427C69.6882 22.4427 74.4883 17.6426 74.4883 11.7213C74.4883 5.8001 69.6882 1 63.767 1ZM63.767 3.14427C59.03 3.14427 55.1899 6.98435 55.1899 11.7213C55.1899 16.4583 59.03 20.2984 63.767 20.2984C68.5039 20.2984 72.344 16.4583 72.344 11.7213C72.344 6.98435 68.5039 3.14427 63.767 3.14427Z" fill="#2C2828"/>
<path d="M53.809 11.7213C53.809 6.22169 58.2673 1.76336 63.767 1.76336V0.236641C57.4241 0.236641 52.2823 5.37851 52.2823 11.7213H53.809ZM63.767 21.6793C58.2673 21.6793 53.809 17.221 53.809 11.7213H52.2823C52.2823 18.0641 57.4241 23.206 63.767 23.206V21.6793ZM73.7249 11.7213C73.7249 17.221 69.2666 21.6793 63.767 21.6793V23.206C70.1098 23.206 75.2516 18.0641 75.2516 11.7213H73.7249ZM63.767 1.76336C69.2666 1.76336 73.7249 6.22169 73.7249 11.7213H75.2516C75.2516 5.37851 70.1098 0.236641 63.767 0.236641V1.76336ZM55.9533 11.7213C55.9533 7.40594 59.4516 3.90763 63.767 3.90763V2.38091C58.6084 2.38091 54.4265 6.56276 54.4265 11.7213H55.9533ZM63.767 19.535C59.4516 19.535 55.9533 16.0367 55.9533 11.7213H54.4265C54.4265 16.8799 58.6084 21.0618 63.767 21.0618V19.535ZM71.5807 11.7213C71.5807 16.0367 68.0823 19.535 63.767 19.535V21.0618C68.9255 21.0618 73.1074 16.8799 73.1074 11.7213H71.5807ZM63.767 3.90763C68.0823 3.90763 71.5807 7.40594 71.5807 11.7213H73.1074C73.1074 6.56276 68.9255 2.38091 63.767 2.38091V3.90763Z" fill="#2C2828" mask="url(#path-4-outside-2_247_2149)"/>
<mask id="path-6-outside-3_247_2149" maskUnits="userSpaceOnUse" x="78.0685" y="0" width="24" height="24" fill="black">
<rect fill="white" x="78.0685" width="24" height="24"/>
<path fill-rule="evenodd" clip-rule="evenodd" d="M79.0685 11.7213C79.0685 5.8001 83.8686 1 89.7898 1C95.711 1 100.511 5.8001 100.511 11.7213L100.511 22.4427H98.3668V11.7213C98.3668 6.98435 94.5268 3.14427 89.7898 3.14427C85.0528 3.14427 81.2127 6.98435 81.2127 11.7213V22.4427H79.0685V11.7213Z"/>
</mask>
<path fill-rule="evenodd" clip-rule="evenodd" d="M79.0685 11.7213C79.0685 5.8001 83.8686 1 89.7898 1C95.711 1 100.511 5.8001 100.511 11.7213L100.511 22.4427H98.3668V11.7213C98.3668 6.98435 94.5268 3.14427 89.7898 3.14427C85.0528 3.14427 81.2127 6.98435 81.2127 11.7213V22.4427H79.0685V11.7213Z" fill="#2C2828"/>
<path d="M100.511 11.7213L101.274 11.7213V11.7213H100.511ZM100.511 22.4427V23.206H101.274L101.274 22.4427L100.511 22.4427ZM98.3668 22.4427H97.6035V23.206H98.3668V22.4427ZM81.2127 22.4427V23.206H81.9761V22.4427H81.2127ZM79.0685 22.4427H78.3051V23.206H79.0685V22.4427ZM89.7898 0.236641C83.447 0.236641 78.3051 5.37851 78.3051 11.7213H79.8318C79.8318 6.22169 84.2901 1.76336 89.7898 1.76336V0.236641ZM101.274 11.7213C101.274 5.37851 96.1326 0.236641 89.7898 0.236641V1.76336C95.2894 1.76336 99.7478 6.22169 99.7478 11.7213H101.274ZM101.274 22.4427L101.274 11.7213L99.7478 11.7213L99.7478 22.4427L101.274 22.4427ZM98.3668 23.206H100.511V21.6793H98.3668V23.206ZM97.6035 11.7213V22.4427H99.1302V11.7213H97.6035ZM89.7898 3.90763C94.1052 3.90763 97.6035 7.40594 97.6035 11.7213H99.1302C99.1302 6.56276 94.9484 2.38091 89.7898 2.38091V3.90763ZM81.9761 11.7213C81.9761 7.40594 85.4744 3.90763 89.7898 3.90763V2.38091C84.6312 2.38091 80.4494 6.56276 80.4494 11.7213H81.9761ZM81.9761 22.4427V11.7213H80.4494V22.4427H81.9761ZM79.0685 23.206H81.2127V21.6793H79.0685V23.206ZM78.3051 11.7213V22.4427H79.8318V11.7213H78.3051Z" fill="#2C2828" mask="url(#path-6-outside-3_247_2149)"/>
<path d="M8.14489 34.2825L7.61054 32.584H5.24413L4.71932 34.2825H3.44069L5.67352 27.6222H7.2384L9.45214 34.2825H8.14489ZM6.44642 28.7672H6.39871L5.54947 31.5058H7.3052L6.44642 28.7672ZM21.3558 34.397C20.9169 34.397 20.5193 34.327 20.1631 34.1871C19.8132 34.0407 19.5111 33.8245 19.2566 33.5382C19.0085 33.2519 18.8177 32.8989 18.6841 32.479C18.5505 32.0528 18.4837 31.5598 18.4837 31C18.4837 30.4402 18.5505 29.944 18.6841 29.5115C18.8177 29.0725 19.0085 28.7068 19.2566 28.4142C19.5111 28.1152 19.8132 27.8893 20.1631 27.7367C20.5193 27.584 20.9169 27.5077 21.3558 27.5077C21.9538 27.5077 22.45 27.6349 22.8444 27.8893C23.2388 28.1438 23.5537 28.5287 23.789 29.0439L22.7108 29.6164C22.6154 29.3175 22.4595 29.0789 22.2432 28.9008C22.027 28.7163 21.7312 28.6241 21.3558 28.6241C20.8851 28.6241 20.5098 28.7831 20.2299 29.1012C19.9564 29.4192 19.8196 29.8645 19.8196 30.4371V31.4867C19.8196 32.0655 19.9564 32.5108 20.2299 32.8225C20.5098 33.1279 20.8851 33.2806 21.3558 33.2806C21.7312 33.2806 22.0365 33.1788 22.2719 32.9752C22.5136 32.7717 22.6885 32.5204 22.7967 32.2214L23.8177 32.8225C23.5759 33.3187 23.2547 33.7068 22.8539 33.9867C22.4532 34.2602 21.9538 34.397 21.3558 34.397ZM37.5461 34.2825L37.0118 32.584H34.6454L34.1206 34.2825H32.8419L35.0748 27.6222H36.6396L38.8534 34.2825H37.5461ZM35.8477 28.7672H35.7999L34.9507 31.5058H36.7064L35.8477 28.7672ZM48.4228 27.6222H50.8465C51.279 27.6222 51.6703 27.6921 52.0201 27.8321C52.3764 27.972 52.6785 28.182 52.9266 28.4619C53.1811 28.7354 53.3751 29.0821 53.5087 29.5019C53.6486 29.9154 53.7186 30.3989 53.7186 30.9523C53.7186 31.5058 53.6486 31.9924 53.5087 32.4122C53.3751 32.8257 53.1811 33.1724 52.9266 33.4523C52.6785 33.7259 52.3764 33.9326 52.0201 34.0725C51.6703 34.2125 51.279 34.2825 50.8465 34.2825H48.4228V27.6222ZM50.8465 33.1661C51.3172 33.1661 51.6893 33.0293 51.9629 32.7558C52.2428 32.4759 52.3827 32.0496 52.3827 31.4771V30.4275C52.3827 29.855 52.2428 29.432 51.9629 29.1584C51.6893 28.8785 51.3172 28.7386 50.8465 28.7386H49.6823V33.1661H50.8465ZM63.5893 34.2825V27.6222H67.9786V28.7386H64.8489V30.3512H67.6161V31.4676H64.8489V33.1661H67.9786V34.2825H63.5893ZM82.9272 29.5019H82.889L82.3738 30.5611L81.0093 33.0802L79.6448 30.5611L79.1295 29.5019H79.0913V34.2825H77.8986V27.6222H79.3203L81.0284 30.876H81.0665L82.7555 27.6222H84.12V34.2825H82.9272V29.5019ZM95.87 34.2825V31.668L93.5895 27.6222H95.0017L96.538 30.4371H96.557L98.0551 27.6222H99.4292L97.1391 31.6584V34.2825H95.87Z" fill="#2C2828"/>
</svg>
